<svg xmlns="http://www.w3.org/2000/svg" xmlns:xlink="http://www.w3.org/1999/xlink" viewBox="0 0 504 378"><defs><style type="text/css">polygon,polyline,rect{fill:none;stroke:#000;stroke-linecap:round;stroke-linejoin:round;stroke-miterlimit:10}</style></defs><rect width="100%" height="100%" style="stroke:none;fill:none"/><rect width="504" height="378" x="0" y="0" style="stroke-width:1.07;stroke:#fff;fill:#fff"/><defs><clipPath id="cpMzUuNjh8NDk4LjUyfDM0Ni4yOHw1LjQ4"><rect width="462.84" height="340.8" x="35.68" y="5.48"/></clipPath></defs><rect width="462.84" height="340.8" x="35.68" y="5.48" clip-path="url(#cpMzUuNjh8NDk4LjUyfDM0Ni4yOHw1LjQ4)" style="stroke-width:1.07;stroke:none;fill:#ebebeb"/><polyline points="35.68 263.44 498.52 263.44" clip-path="url(#cpMzUuNjh8NDk4LjUyfDM0Ni4yOHw1LjQ4)" style="stroke-width:.53;stroke:#fff;stroke-linecap:butt"/><polyline points="35.68 163.93 498.52 163.93" clip-path="url(#cpMzUuNjh8NDk4LjUyfDM0Ni4yOHw1LjQ4)" style="stroke-width:.53;stroke:#fff;stroke-linecap:butt"/><polyline points="35.68 64.42 498.52 64.42" clip-path="url(#cpMzUuNjh8NDk4LjUyfDM0Ni4yOHw1LjQ4)" style="stroke-width:.53;stroke:#fff;stroke-linecap:butt"/><polyline points="98.79 346.28 98.79 5.48" clip-path="url(#cpMzUuNjh8NDk4LjUyfDM0Ni4yOHw1LjQ4)" style="stroke-width:.53;stroke:#fff;stroke-linecap:butt"/><polyline points="182.95 346.28 182.95 5.48" clip-path="url(#cpMzUuNjh8NDk4LjUyfDM0Ni4yOHw1LjQ4)" style="stroke-width:.53;stroke:#fff;stroke-linecap:butt"/><polyline points="267.1 346.28 267.1 5.48" clip-path="url(#cpMzUuNjh8NDk4LjUyfDM0Ni4yOHw1LjQ4)" style="stroke-width:.53;stroke:#fff;stroke-linecap:butt"/><polyline points="351.25 346.28 351.25 5.48" clip-path="url(#cpMzUuNjh8NDk4LjUyfDM0Ni4yOHw1LjQ4)" style="stroke-width:.53;stroke:#fff;stroke-linecap:butt"/><polyline points="435.41 346.28 435.41 5.48" clip-path="url(#cpMzUuNjh8NDk4LjUyfDM0Ni4yOHw1LjQ4)" style="stroke-width:.53;stroke:#fff;stroke-linecap:butt"/><polyline points="35.68 313.19 498.52 313.19" clip-path="url(#cpMzUuNjh8NDk4LjUyfDM0Ni4yOHw1LjQ4)" style="stroke-width:1.07;stroke:#fff;stroke-linecap:butt"/><polyline points="35.68 213.69 498.52 213.69" clip-path="url(#cpMzUuNjh8NDk4LjUyfDM0Ni4yOHw1LjQ4)" style="stroke-width:1.07;stroke:#fff;stroke-linecap:butt"/><polyline points="35.68 114.18 498.52 114.18" clip-path="url(#cpMzUuNjh8NDk4LjUyfDM0Ni4yOHw1LjQ4)" style="stroke-width:1.07;stroke:#fff;stroke-linecap:butt"/><polyline points="35.68 14.67 498.52 14.67" clip-path="url(#cpMzUuNjh8NDk4LjUyfDM0Ni4yOHw1LjQ4)" style="stroke-width:1.07;stroke:#fff;stroke-linecap:butt"/><polyline points="56.72 346.28 56.72 5.48" clip-path="url(#cpMzUuNjh8NDk4LjUyfDM0Ni4yOHw1LjQ4)" style="stroke-width:1.07;stroke:#fff;stroke-linecap:butt"/><polyline points="140.87 346.28 140.87 5.48" clip-path="url(#cpMzUuNjh8NDk4LjUyfDM0Ni4yOHw1LjQ4)" style="stroke-width:1.07;stroke:#fff;stroke-linecap:butt"/><polyline points="225.02 346.28 225.02 5.48" clip-path="url(#cpMzUuNjh8NDk4LjUyfDM0Ni4yOHw1LjQ4)" style="stroke-width:1.07;stroke:#fff;stroke-linecap:butt"/><polyline points="309.18 346.28 309.18 5.48" clip-path="url(#cpMzUuNjh8NDk4LjUyfDM0Ni4yOHw1LjQ4)" style="stroke-width:1.07;stroke:#fff;stroke-linecap:butt"/><polyline points="393.33 346.28 393.33 5.48" clip-path="url(#cpMzUuNjh8NDk4LjUyfDM0Ni4yOHw1LjQ4)" style="stroke-width:1.07;stroke:#fff;stroke-linecap:butt"/><polyline points="477.48 346.28 477.48 5.48" clip-path="url(#cpMzUuNjh8NDk4LjUyfDM0Ni4yOHw1LjQ4)" style="stroke-width:1.07;stroke:#fff;stroke-linecap:butt"/><polygon points="56.72 295.91 60.97 293.32 65.22 290.73 69.47 288.13 73.72 285.47 77.97 282.83 82.22 280.27 86.47 277.66 90.72 274.92 94.97 272.4 99.22 269.74 103.47 267.11 107.72 264.38 111.97 261.79 116.22 259.21 120.47 256.56 124.72 253.96 128.97 251.31 133.22 248.67 137.47 245.96 141.72 243.11 145.97 240.54 150.22 237.97 154.47 235.34 158.72 232.6 162.97 229.91 167.22 227.11 171.47 224.44 175.72 221.75 179.97 218.96 184.22 216.31 188.47 213.59 192.72 210.87 196.97 208.16 201.22 205.38 205.47 202.62 209.72 199.85 213.97 196.99 218.22 194.17 222.47 191.49 226.72 188.69 230.97 185.89 235.22 183.02 239.47 180.21 243.72 177.36 247.97 174.56 252.22 171.75 256.47 168.93 260.72 166.08 264.97 163.29 269.22 160.48 273.47 157.67 277.72 154.86 281.97 152.08 286.22 149.35 290.48 146.6 294.73 143.81 298.98 141.05 303.23 138.28 307.48 135.34 311.73 132.46 315.98 129.7 320.23 126.93 324.48 124.07 328.73 121.18 332.98 118.28 337.23 115.39 341.48 112.5 345.73 109.62 349.98 106.83 354.23 103.94 358.48 101.11 362.73 98.27 366.98 95.4 371.23 92.66 375.48 89.89 379.73 87.07 383.98 84.25 388.23 81.37 392.48 78.35 396.73 75.57 400.98 72.65 405.23 69.73 409.48 66.83 413.73 64.02 417.98 61.04 422.23 58.18 426.48 55.32 430.73 52.43 434.98 49.53 439.23 46.75 443.48 43.89 447.73 41.06 451.98 38.18 456.23 35.27 460.48 32.42 464.73 29.57 468.98 26.71 473.23 23.79 477.48 20.97 477.48 78.12 473.23 80.57 468.98 83.04 464.73 85.3 460.48 87.72 456.23 90.24 451.98 92.8 447.73 95.32 443.48 97.81 439.23 100.26 434.98 102.64 430.73 105.1 426.48 107.61 422.23 110.09 417.98 112.51 413.73 114.97 409.48 117.47 405.23 119.91 400.98 122.28 396.73 124.69 392.48 127.08 388.23 129.49 383.98 131.91 379.73 134.42 375.48 136.96 371.23 139.48 366.98 141.92 362.73 144.41 358.48 146.86 354.23 149.37 349.98 151.86 345.73 154.31 341.48 156.67 337.23 159.09 332.98 161.65 328.73 164.16 324.48 166.62 320.23 169.2 315.98 171.73 311.73 174.25 307.48 176.76 303.23 179.28 298.98 181.79 294.73 184.32 290.48 186.83 286.22 189.38 281.97 191.86 277.72 194.33 273.47 196.78 269.22 199.25 264.97 201.78 260.72 204.28 256.47 206.86 252.22 209.43 247.97 211.98 243.72 214.43 239.47 217 235.22 219.49 230.97 222.04 226.72 224.59 222.47 227.23 218.22 229.89 213.97 232.43 209.72 234.89 205.47 237.36 201.22 240.1 196.97 242.8 192.72 245.33 188.47 247.85 184.22 250.39 179.97 252.93 175.72 255.5 171.47 258.08 167.22 260.68 162.97 263.35 158.72 265.92 154.47 268.59 150.22 271.16 145.97 273.77 141.72 276.28 137.47 278.9 133.22 281.53 128.97 284.34 124.72 286.98 120.47 289.77 116.22 292.44 111.97 295.18 107.72 297.94 103.47 300.62 99.22 303.3 94.97 305.96 90.72 308.67 86.47 311.41 82.22 314.11 77.97 316.91 73.72 319.77 69.47 322.49 65.22 325.28 60.97 328.07 56.72 330.79" clip-path="url(#cpMzUuNjh8NDk4LjUyfDM0Ni4yOHw1LjQ4)" style="stroke-width:0;stroke:none;fill:#999;fill-opacity:.4"/><polyline points="56.72 295.91 60.97 293.32 65.22 290.73 69.47 288.13 73.72 285.47 77.97 282.83 82.22 280.27 86.47 277.66 90.72 274.92 94.97 272.4 99.22 269.74 103.47 267.11 107.72 264.38 111.97 261.79 116.22 259.21 120.47 256.56 124.72 253.96 128.97 251.31 133.22 248.67 137.47 245.96 141.72 243.11 145.97 240.54 150.22 237.97 154.47 235.34 158.72 232.6 162.97 229.91 167.22 227.11 171.47 224.44 175.72 221.75 179.97 218.96 184.22 216.31 188.47 213.59 192.72 210.87 196.97 208.16 201.22 205.38 205.47 202.62 209.72 199.85 213.97 196.99 218.22 194.17 222.47 191.49 226.72 188.69 230.97 185.89 235.22 183.02 239.47 180.21 243.72 177.36 247.97 174.56 252.22 171.75 256.47 168.93 260.72 166.08 264.97 163.29 269.22 160.48 273.47 157.67 277.72 154.86 281.97 152.08 286.22 149.35 290.48 146.6 294.73 143.81 298.98 141.05 303.23 138.28 307.48 135.34 311.73 132.46 315.98 129.7 320.23 126.93 324.48 124.07 328.73 121.18 332.98 118.28 337.23 115.39 341.48 112.5 345.73 109.62 349.98 106.83 354.23 103.94 358.48 101.11 362.73 98.27 366.98 95.4 371.23 92.66 375.48 89.89 379.73 87.07 383.98 84.25 388.23 81.37 392.48 78.35 396.73 75.57 400.98 72.65 405.23 69.73 409.48 66.83 413.73 64.02 417.98 61.04 422.23 58.18 426.48 55.32 430.73 52.43 434.98 49.53 439.23 46.75 443.48 43.89 447.73 41.06 451.98 38.18 456.23 35.27 460.48 32.42 464.73 29.57 468.98 26.71 473.23 23.79 477.48 20.97" clip-path="url(#cpMzUuNjh8NDk4LjUyfDM0Ni4yOHw1LjQ4)" style="stroke-width:2.13;stroke:none"/><polyline points="477.48 78.12 473.23 80.57 468.98 83.04 464.73 85.3 460.48 87.72 456.23 90.24 451.98 92.8 447.73 95.32 443.48 97.81 439.23 100.26 434.98 102.64 430.73 105.1 426.48 107.61 422.23 110.09 417.98 112.51 413.73 114.97 409.48 117.47 405.23 119.91 400.98 122.28 396.73 124.69 392.48 127.08 388.23 129.49 383.98 131.91 379.73 134.42 375.48 136.96 371.23 139.48 366.98 141.92 362.73 144.41 358.48 146.86 354.23 149.37 349.98 151.86 345.73 154.31 341.48 156.67 337.23 159.09 332.98 161.65 328.73 164.16 324.48 166.62 320.23 169.2 315.98 171.73 311.73 174.25 307.48 176.76 303.23 179.28 298.98 181.79 294.73 184.32 290.48 186.83 286.22 189.38 281.97 191.86 277.72 194.33 273.47 196.78 269.22 199.25 264.97 201.78 260.72 204.28 256.47 206.86 252.22 209.43 247.97 211.98 243.72 214.43 239.47 217 235.22 219.49 230.97 222.04 226.72 224.59 222.47 227.23 218.22 229.89 213.97 232.43 209.72 234.89 205.47 237.36 201.22 240.1 196.97 242.8 192.72 245.33 188.47 247.85 184.22 250.39 179.97 252.93 175.72 255.5 171.47 258.08 167.22 260.68 162.97 263.35 158.72 265.92 154.47 268.59 150.22 271.16 145.97 273.77 141.72 276.28 137.47 278.9 133.22 281.53 128.97 284.34 124.72 286.98 120.47 289.77 116.22 292.44 111.97 295.18 107.72 297.94 103.47 300.62 99.22 303.3 94.97 305.96 90.72 308.67 86.47 311.41 82.22 314.11 77.97 316.91 73.72 319.77 69.47 322.49 65.22 325.28 60.97 328.07 56.72 330.79" clip-path="url(#cpMzUuNjh8NDk4LjUyfDM0Ni4yOHw1LjQ4)" style="stroke-width:2.13;stroke:none"/><polyline points="56.72 313.7 60.97 311.02 65.22 308.34 69.47 305.67 73.72 302.98 77.97 300.32 82.22 297.67 86.47 294.96 90.72 292.3 94.97 289.64 99.22 287 103.47 284.3 107.72 281.63 111.97 279.01 116.22 276.35 120.47 273.7 124.72 271.04 128.97 268.33 133.22 265.69 137.47 263.05 141.72 260.4 145.97 257.7 150.22 255.01 154.47 252.35 158.72 249.73 162.97 247.04 167.22 244.35 171.47 241.67 175.72 239.01 179.97 236.38 184.22 233.71 188.47 231.06 192.72 228.4 196.97 225.72 201.22 223.02 205.47 220.34 209.72 217.66 213.97 214.97 218.22 212.26 222.47 209.59 226.72 206.94 230.97 204.27 235.22 201.63 239.47 198.93 243.72 196.25 247.97 193.58 252.22 190.91 256.47 188.23 260.72 185.58 264.97 182.93 269.22 180.29 273.47 177.58 277.72 174.9 281.97 172.22 286.22 169.56 290.48 166.87 294.73 164.22 298.98 161.55 303.23 158.89 307.48 156.24 311.73 153.59 315.98 150.9 320.23 148.24 324.48 145.56 328.73 142.93 332.98 140.28 337.23 137.61 341.48 134.95 345.73 132.26 349.98 129.56 354.23 126.94 358.48 124.28 362.73 121.61 366.98 118.94 371.23 116.28 375.48 113.6 379.73 110.95 383.98 108.31 388.23 105.62 392.48 102.97 396.73 100.27 400.98 97.62 405.23 94.94 409.48 92.21 413.73 89.55 417.98 86.9 422.23 84.25 426.48 81.57 430.73 78.87 434.98 76.22 439.23 73.54 443.48 70.92 447.73 68.24 451.98 65.59 456.23 62.89 460.48 60.21 464.73 57.53 468.98 54.91 473.23 52.24 477.48 49.55" clip-path="url(#cpMzUuNjh8NDk4LjUyfDM0Ni4yOHw1LjQ4)" style="stroke-width:2.13;stroke:#36f;stroke-linecap:butt"/><defs><clipPath id="cpMC4wMHw1MDQuMDB8Mzc4LjAwfDAuMDA="><rect width="504" height="378" x="0" y="0"/></clipPath></defs><g clip-path="url(#cpMC4wMHw1MDQuMDB8Mzc4LjAwfDAuMDA=)"><text x="18.51" y="316.34" lengthAdjust="spacingAndGlyphs" textLength="12.23" style="font-size:8.8px;fill:#4d4d4d;font-family:Arial">2.6</text></g><g clip-path="url(#cpMC4wMHw1MDQuMDB8Mzc4LjAwfDAuMDA=)"><text x="18.51" y="216.84" lengthAdjust="spacingAndGlyphs" textLength="12.23" style="font-size:8.8px;fill:#4d4d4d;font-family:Arial">2.8</text></g><g clip-path="url(#cpMC4wMHw1MDQuMDB8Mzc4LjAwfDAuMDA=)"><text x="18.51" y="117.33" lengthAdjust="spacingAndGlyphs" textLength="12.23" style="font-size:8.8px;fill:#4d4d4d;font-family:Arial">3.0</text></g><g clip-path="url(#cpMC4wMHw1MDQuMDB8Mzc4LjAwfDAuMDA=)"><text x="18.51" y="17.82" lengthAdjust="spacingAndGlyphs" textLength="12.23" style="font-size:8.8px;fill:#4d4d4d;font-family:Arial">3.2</text></g><polyline points="32.94 313.19 35.68 313.19" clip-path="url(#cpMC4wMHw1MDQuMDB8Mzc4LjAwfDAuMDA=)" style="stroke-width:1.07;stroke:#333;stroke-linecap:butt"/><polyline points="32.94 213.69 35.68 213.69" clip-path="url(#cpMC4wMHw1MDQuMDB8Mzc4LjAwfDAuMDA=)" style="stroke-width:1.07;stroke:#333;stroke-linecap:butt"/><polyline points="32.94 114.18 35.68 114.18" clip-path="url(#cpMC4wMHw1MDQuMDB8Mzc4LjAwfDAuMDA=)" style="stroke-width:1.07;stroke:#333;stroke-linecap:butt"/><polyline points="32.94 14.67 35.68 14.67" clip-path="url(#cpMC4wMHw1MDQuMDB8Mzc4LjAwfDAuMDA=)" style="stroke-width:1.07;stroke:#333;stroke-linecap:butt"/><polyline points="56.72 349.02 56.72 346.28" clip-path="url(#cpMC4wMHw1MDQuMDB8Mzc4LjAwfDAuMDA=)" style="stroke-width:1.07;stroke:#333;stroke-linecap:butt"/><polyline points="140.87 349.02 140.87 346.28" clip-path="url(#cpMC4wMHw1MDQuMDB8Mzc4LjAwfDAuMDA=)" style="stroke-width:1.07;stroke:#333;stroke-linecap:butt"/><polyline points="225.02 349.02 225.02 346.28" clip-path="url(#cpMC4wMHw1MDQuMDB8Mzc4LjAwfDAuMDA=)" style="stroke-width:1.07;stroke:#333;stroke-linecap:butt"/><polyline points="309.18 349.02 309.18 346.28" clip-path="url(#cpMC4wMHw1MDQuMDB8Mzc4LjAwfDAuMDA=)" style="stroke-width:1.07;stroke:#333;stroke-linecap:butt"/><polyline points="393.33 349.02 393.33 346.28" clip-path="url(#cpMC4wMHw1MDQuMDB8Mzc4LjAwfDAuMDA=)" style="stroke-width:1.07;stroke:#333;stroke-linecap:butt"/><polyline points="477.48 349.02 477.48 346.28" clip-path="url(#cpMC4wMHw1MDQuMDB8Mzc4LjAwfDAuMDA=)" style="stroke-width:1.07;stroke:#333;stroke-linecap:butt"/><g clip-path="url(#cpMC4wMHw1MDQuMDB8Mzc4LjAwfDAuMDA=)"><text x="54.27" y="357.51" lengthAdjust="spacingAndGlyphs" textLength="4.89" style="font-size:8.8px;fill:#4d4d4d;font-family:Arial">0</text></g><g clip-path="url(#cpMC4wMHw1MDQuMDB8Mzc4LjAwfDAuMDA=)"><text x="138.42" y="357.51" lengthAdjust="spacingAndGlyphs" textLength="4.89" style="font-size:8.8px;fill:#4d4d4d;font-family:Arial">1</text></g><g clip-path="url(#cpMC4wMHw1MDQuMDB8Mzc4LjAwfDAuMDA=)"><text x="222.58" y="357.51" lengthAdjust="spacingAndGlyphs" textLength="4.89" style="font-size:8.8px;fill:#4d4d4d;font-family:Arial">2</text></g><g clip-path="url(#cpMC4wMHw1MDQuMDB8Mzc4LjAwfDAuMDA=)"><text x="306.73" y="357.51" lengthAdjust="spacingAndGlyphs" textLength="4.89" style="font-size:8.8px;fill:#4d4d4d;font-family:Arial">3</text></g><g clip-path="url(#cpMC4wMHw1MDQuMDB8Mzc4LjAwfDAuMDA=)"><text x="390.88" y="357.51" lengthAdjust="spacingAndGlyphs" textLength="4.89" style="font-size:8.8px;fill:#4d4d4d;font-family:Arial">4</text></g><g clip-path="url(#cpMC4wMHw1MDQuMDB8Mzc4LjAwfDAuMDA=)"><text x="475.04" y="357.51" lengthAdjust="spacingAndGlyphs" textLength="4.89" style="font-size:8.8px;fill:#4d4d4d;font-family:Arial">5</text></g><g clip-path="url(#cpMC4wMHw1MDQuMDB8Mzc4LjAwfDAuMDA=)"><text x="245.39" y="370.1" lengthAdjust="spacingAndGlyphs" textLength="43.41" style="font-size:11px;font-family:Arial">occasion</text></g><g clip-path="url(#cpMC4wMHw1MDQuMDB8Mzc4LjAwfDAuMDA=)"><text style="font-size:11px;font-family:Arial" lengthAdjust="spacingAndGlyphs" textLength="18.35" transform="translate(13.35,185.05) rotate(-90)">gpa</text></g></svg>