<svg xmlns="http://www.w3.org/2000/svg" xmlns:xlink="http://www.w3.org/1999/xlink" viewBox="0 0 504 378"><defs><style type="text/css">polygon,polyline,rect{fill:none;stroke:#000;stroke-linecap:round;stroke-linejoin:round;stroke-miterlimit:10}</style></defs><rect width="100%" height="100%" style="stroke:none;fill:none"/><rect width="504" height="378" x="0" y="0" style="stroke-width:1.07;stroke:#fff;fill:#fff"/><defs><clipPath id="cpNS40OHwyNTIuMDB8MzcyLjUyfDUuNDg="><rect width="246.52" height="367.04" x="5.48" y="5.48"/></clipPath></defs><rect width="246.52" height="367.04" x="5.48" y="5.48" clip-path="url(#cpNS40OHwyNTIuMDB8MzcyLjUyfDUuNDg=)" style="stroke-width:1.07;stroke:none"/><defs><clipPath id="cpMC4wMHw1MDQuMDB8Mzc4LjAwfDAuMDA="><rect width="504" height="378" x="0" y="0"/></clipPath></defs><defs><clipPath id="cpMTYuNDR8MjQ2LjUyfDM0Mi40OXwyOS41Nw=="><rect width="230.08" height="312.92" x="16.44" y="29.57"/></clipPath></defs><polygon points="26.9 328.26 27.31 328.26 27.72 328.26 28.12 328.26 28.53 328.26 28.94 328.26 29.35 328.26 29.76 328.26 30.17 328.26 30.58 328.26 30.99 328.26 31.4 328.26 31.81 328.26 32.22 328.26 32.63 328.26 33.04 328.26 33.45 328.26 33.86 328.26 34.26 328.26 34.67 328.26 35.08 328.26 35.49 328.26 35.9 328.26 36.31 328.26 36.72 328.26 37.13 328.26 37.54 328.26 37.95 328.26 38.36 328.26 38.77 328.26 39.18 328.26 39.59 328.26 40 328.26 40.4 328.26 40.81 328.26 41.22 328.26 41.63 328.26 42.04 328.26 42.45 328.26 42.86 328.26 43.27 328.26 43.68 328.26 44.09 328.26 44.5 328.26 44.91 328.26 45.32 328.26 45.73 328.26 46.13 328.26 46.54 328.26 46.95 328.26 47.36 328.26 47.77 328.26 48.18 328.26 48.59 328.26 49 328.26 49.41 328.26 49.82 328.26 50.23 328.26 50.64 328.26 51.05 328.26 51.46 328.26 51.87 328.26 52.27 328.26 52.68 328.26 53.09 328.26 53.5 328.26 53.91 328.26 54.32 328.26 54.73 328.26 55.14 328.26 55.55 328.26 55.96 328.26 56.37 328.26 56.78 328.26 57.19 328.26 57.6 328.26 58.01 328.26 58.41 328.26 58.82 328.26 59.23 328.26 59.64 328.26 60.05 328.26 60.46 328.26 60.87 328.26 61.28 328.26 61.69 328.26 62.1 328.26 62.51 328.26 62.92 328.26 63.33 328.26 63.74 328.26 64.15 328.26 64.55 328.26 64.96 328.26 65.37 328.25 65.78 328.25 66.19 328.24 66.6 328.24 67.01 328.23 67.42 328.22 67.83 328.2 68.24 328.18 68.65 328.16 69.06 328.13 69.47 328.09 69.88 328.04 70.29 327.98 70.69 327.91 71.1 327.82 71.51 327.71 71.92 327.59 72.33 327.44 72.74 327.25 73.15 327.04 73.56 326.79 73.97 326.51 74.38 326.18 74.79 325.81 75.2 325.39 75.61 324.92 76.02 324.39 76.43 323.81 76.83 323.18 77.24 322.49 77.65 321.75 78.06 320.94 78.47 320.08 78.88 319.17 79.29 318.21 79.7 317.2 80.11 316.15 80.52 315.06 80.93 313.92 81.34 312.75 81.75 311.54 82.16 310.3 82.56 309.02 82.97 307.71 83.38 306.36 83.79 304.97 84.2 303.54 84.61 302.06 85.02 300.53 85.43 298.94 85.84 297.3 86.25 295.57 86.66 293.77 87.07 291.89 87.48 289.92 87.89 287.86 88.3 285.7 88.7 283.43 89.11 281.05 89.52 278.55 89.93 275.94 90.34 273.2 90.75 270.34 91.16 267.36 91.57 264.22 91.98 260.94 92.39 257.52 92.8 253.96 93.21 250.26 93.62 246.42 94.03 242.42 94.44 238.26 94.84 233.97 95.25 229.54 95.66 224.99 96.07 220.32 96.48 215.53 96.89 210.63 97.3 205.64 97.71 200.59 98.12 195.48 98.53 190.34 98.94 185.17 99.35 180.01 99.76 174.86 100.17 169.76 100.58 164.71 100.98 159.73 101.39 154.84 101.8 150.04 102.21 145.39 102.62 140.86 103.03 136.48 103.44 132.23 103.85 128.13 104.26 124.17 104.67 120.37 105.08 116.73 105.49 113.23 105.9 109.85 106.31 106.59 106.72 103.45 107.12 100.39 107.53 97.43 107.94 94.54 108.35 91.71 108.76 88.92 109.17 86.16 109.58 83.43 109.99 80.72 110.4 78.02 110.81 75.34 111.22 72.67 111.63 70.03 112.04 67.41 112.45 64.83 112.86 62.31 113.26 59.87 113.67 57.53 114.08 55.3 114.49 53.21 114.9 51.26 115.31 49.49 115.72 47.96 116.13 46.65 116.54 45.58 116.95 44.75 117.36 44.17 117.77 43.85 118.18 43.79 118.59 44.02 119 44.49 119.4 45.16 119.81 46.04 120.22 47.08 120.63 48.27 121.04 49.59 121.45 50.99 121.86 52.43 122.27 53.89 122.68 55.34 123.09 56.76 123.5 58.13 123.91 59.44 124.32 60.68 124.73 61.86 125.13 63.01 125.54 64.12 125.95 65.22 126.36 66.36 126.77 67.57 127.18 68.9 127.59 70.38 128 72.06 128.41 73.96 128.82 76.15 129.23 78.72 129.64 81.64 130.05 84.94 130.46 88.63 130.87 92.72 131.27 97.22 131.68 102.17 132.09 107.54 132.5 113.27 132.91 119.33 133.32 125.69 133.73 132.31 134.14 139.13 134.55 146.15 134.96 153.26 135.37 160.41 135.78 167.54 136.19 174.62 136.6 181.59 137.01 188.39 137.41 194.95 137.82 201.25 138.23 207.27 138.64 212.97 139.05 218.34 139.46 223.36 139.87 227.96 140.28 232.17 140.69 236.01 141.1 239.5 141.51 242.65 141.92 245.48 142.33 247.98 142.74 250.17 143.15 252.13 143.55 253.89 143.96 255.48 144.37 256.93 144.78 258.29 145.19 259.57 145.6 260.83 146.01 262.11 146.42 263.42 146.83 264.79 147.24 266.25 147.65 267.81 148.06 269.51 148.47 271.33 148.88 273.27 149.29 275.34 149.69 277.52 150.1 279.81 150.51 282.21 150.92 284.69 151.33 287.22 151.74 289.79 152.15 292.37 152.56 294.95 152.97 297.51 153.38 300.01 153.79 302.44 154.2 304.79 154.61 307.04 155.02 309.19 155.43 311.21 155.83 313.1 156.24 314.85 156.65 316.46 157.06 317.93 157.47 319.28 157.88 320.5 158.29 321.6 158.7 322.56 159.11 323.4 159.52 324.15 159.93 324.81 160.34 325.37 160.75 325.87 161.16 326.28 161.56 326.63 161.97 326.92 162.38 327.17 162.79 327.37 163.2 327.53 163.61 327.67 164.02 327.77 164.43 327.85 164.84 327.9 165.25 327.94 165.66 327.96 166.07 327.96 166.48 327.94 166.89 327.91 167.3 327.87 167.7 327.81 168.11 327.73 168.52 327.64 168.93 327.53 169.34 327.41 169.75 327.26 170.16 327.11 170.57 326.93 170.98 326.74 171.39 326.53 171.8 326.31 172.21 326.07 172.62 325.83 173.03 325.58 173.44 325.32 173.84 325.06 174.25 324.81 174.66 324.57 175.07 324.34 175.48 324.12 175.89 323.93 176.3 323.76 176.71 323.62 177.12 323.51 177.53 323.44 177.94 323.4 178.35 323.4 178.76 323.43 179.17 323.5 179.58 323.6 179.98 323.74 180.39 323.91 180.8 324.1 181.21 324.31 181.62 324.54 182.03 324.78 182.44 325.04 182.85 325.29 183.26 325.55 183.67 325.8 184.08 326.05 184.49 326.28 184.9 326.51 185.31 326.72 185.72 326.91 186.12 327.09 186.53 327.26 186.94 327.4 187.35 327.53 187.76 327.65 188.17 327.75 188.58 327.84 188.99 327.91 189.4 327.98 189.81 328.03 190.22 328.08 190.63 328.12 191.04 328.15 191.45 328.17 191.86 328.19 192.26 328.21 192.67 328.22 193.08 328.23 193.49 328.24 193.9 328.24 194.31 328.25 194.72 328.25 195.13 328.25 195.54 328.26 195.95 328.26 196.36 328.26 196.77 328.26 197.18 328.26 197.59 328.26 197.99 328.26 198.4 328.26 198.81 328.26 199.22 328.26 199.63 328.26 200.04 328.26 200.45 328.26 200.86 328.26 201.27 328.26 201.68 328.26 202.09 328.26 202.5 328.26 202.91 328.26 203.32 328.26 203.73 328.26 204.13 328.26 204.54 328.26 204.95 328.26 205.36 328.26 205.77 328.26 206.18 328.26 206.59 328.26 207 328.26 207.41 328.26 207.82 328.26 208.23 328.26 208.64 328.26 209.05 328.26 209.46 328.26 209.87 328.26 210.27 328.26 210.68 328.26 211.09 328.26 211.5 328.26 211.91 328.26 212.32 328.26 212.73 328.26 213.14 328.26 213.55 328.26 213.96 328.26 214.37 328.26 214.78 328.26 215.19 328.26 215.6 328.26 216.01 328.26 216.41 328.26 216.82 328.26 217.23 328.26 217.64 328.26 218.05 328.26 218.46 328.26 218.87 328.26 219.28 328.26 219.69 328.26 220.1 328.26 220.51 328.26 220.92 328.26 221.33 328.26 221.74 328.26 222.15 328.26 222.55 328.26 222.96 328.26 223.37 328.26 223.78 328.26 224.19 328.26 224.6 328.26 225.01 328.26 225.42 328.26 225.83 328.26 226.24 328.26 226.65 328.26 227.06 328.26 227.47 328.26 227.88 328.26 228.29 328.26 228.69 328.26 229.1 328.26 229.51 328.26 229.92 328.26 230.33 328.26 230.74 328.26 231.15 328.26 231.56 328.26 231.97 328.26 232.38 328.26 232.79 328.26 233.2 328.26 233.61 328.26 234.02 328.26 234.42 328.26 234.83 328.26 235.24 328.26 235.65 328.26 236.06 328.26 236.06 328.26 235.65 328.26 235.24 328.26 234.83 328.26 234.42 328.26 234.02 328.26 233.61 328.26 233.2 328.26 232.79 328.26 232.38 328.26 231.97 328.26 231.56 328.26 231.15 328.26 230.74 328.26 230.33 328.26 229.92 328.26 229.51 328.26 229.1 328.26 228.69 328.26 228.29 328.26 227.88 328.26 227.47 328.26 227.06 328.26 226.65 328.26 226.24 328.26 225.83 328.26 225.42 328.26 225.01 328.26 224.6 328.26 224.19 328.26 223.78 328.26 223.37 328.26 222.96 328.26 222.55 328.26 222.15 328.26 221.74 328.26 221.33 328.26 220.92 328.26 220.51 328.26 220.1 328.26 219.69 328.26 219.28 328.26 218.87 328.26 218.46 328.26 218.05 328.26 217.64 328.26 217.23 328.26 216.82 328.26 216.41 328.26 216.01 328.26 215.6 328.26 215.19 328.26 214.78 328.26 214.37 328.26 213.96 328.26 213.55 328.26 213.14 328.26 212.73 328.26 212.32 328.26 211.91 328.26 211.5 328.26 211.09 328.26 210.68 328.26 210.27 328.26 209.87 328.26 209.46 328.26 209.05 328.26 208.64 328.26 208.23 328.26 207.82 328.26 207.41 328.26 207 328.26 206.59 328.26 206.18 328.26 205.77 328.26 205.36 328.26 204.95 328.26 204.54 328.26 204.13 328.26 203.73 328.26 203.32 328.26 202.91 328.26 202.5 328.26 202.09 328.26 201.68 328.26 201.27 328.26 200.86 328.26 200.45 328.26 200.04 328.26 199.63 328.26 199.22 328.26 198.81 328.26 198.4 328.26 197.99 328.26 197.59 328.26 197.18 328.26 196.77 328.26 196.36 328.26 195.95 328.26 195.54 328.26 195.13 328.26 194.72 328.26 194.31 328.26 193.9 328.26 193.49 328.26 193.08 328.26 192.67 328.26 192.26 328.26 191.86 328.26 191.45 328.26 191.04 328.26 190.63 328.26 190.22 328.26 189.81 328.26 189.4 328.26 188.99 328.26 188.58 328.26 188.17 328.26 187.76 328.26 187.35 328.26 186.94 328.26 186.53 328.26 186.12 328.26 185.72 328.26 185.31 328.26 184.9 328.26 184.49 328.26 184.08 328.26 183.67 328.26 183.26 328.26 182.85 328.26 182.44 328.26 182.03 328.26 181.62 328.26 181.21 328.26 180.8 328.26 180.39 328.26 179.98 328.26 179.58 328.26 179.17 328.26 178.76 328.26 178.35 328.26 177.94 328.26 177.53 328.26 177.12 328.26 176.71 328.26 176.3 328.26 175.89 328.26 175.48 328.26 175.07 328.26 174.66 328.26 174.25 328.26 173.84 328.26 173.44 328.26 173.03 328.26 172.62 328.26 172.21 328.26 171.8 328.26 171.39 328.26 170.98 328.26 170.57 328.26 170.16 328.26 169.75 328.26 169.34 328.26 168.93 328.26 168.52 328.26 168.11 328.26 167.7 328.26 167.3 328.26 166.89 328.26 166.48 328.26 166.07 328.26 165.66 328.26 165.25 328.26 164.84 328.26 164.43 328.26 164.02 328.26 163.61 328.26 163.2 328.26 162.79 328.26 162.38 328.26 161.97 328.26 161.56 328.26 161.16 328.26 160.75 328.26 160.34 328.26 159.93 328.26 159.52 328.26 159.11 328.26 158.7 328.26 158.29 328.26 157.88 328.26 157.47 328.26 157.06 328.26 156.65 328.26 156.24 328.26 155.83 328.26 155.43 328.26 155.02 328.26 154.61 328.26 154.2 328.26 153.79 328.26 153.38 328.26 152.97 328.26 152.56 328.26 152.15 328.26 151.74 328.26 151.33 328.26 150.92 328.26 150.51 328.26 150.1 328.26 149.69 328.26 149.29 328.26 148.88 328.26 148.47 328.26 148.06 328.26 147.65 328.26 147.24 328.26 146.83 328.26 146.42 328.26 146.01 328.26 145.6 328.26 145.19 328.26 144.78 328.26 144.37 328.26 143.96 328.26 143.55 328.26 143.15 328.26 142.74 328.26 142.33 328.26 141.92 328.26 141.51 328.26 141.1 328.26 140.69 328.26 140.28 328.26 139.87 328.26 139.46 328.26 139.05 328.26 138.64 328.26 138.23 328.26 137.82 328.26 137.41 328.26 137.01 328.26 136.6 328.26 136.19 328.26 135.78 328.26 135.37 328.26 134.96 328.26 134.55 328.26 134.14 328.26 133.73 328.26 133.32 328.26 132.91 328.26 132.5 328.26 132.09 328.26 131.68 328.26 131.27 328.26 130.87 328.26 130.46 328.26 130.05 328.26 129.64 328.26 129.23 328.26 128.82 328.26 128.41 328.26 128 328.26 127.59 328.26 127.18 328.26 126.77 328.26 126.36 328.26 125.95 328.26 125.54 328.26 125.13 328.26 124.73 328.26 124.32 328.26 123.91 328.26 123.5 328.26 123.09 328.26 122.68 328.26 122.27 328.26 121.86 328.26 121.45 328.26 121.04 328.26 120.63 328.26 120.22 328.26 119.81 328.26 119.4 328.26 119 328.26 118.59 328.26 118.18 328.26 117.77 328.26 117.36 328.26 116.95 328.26 116.54 328.26 116.13 328.26 115.72 328.26 115.31 328.26 114.9 328.26 114.49 328.26 114.08 328.26 113.67 328.26 113.26 328.26 112.86 328.26 112.45 328.26 112.04 328.26 111.63 328.26 111.22 328.26 110.81 328.26 110.4 328.26 109.99 328.26 109.58 328.26 109.17 328.26 108.76 328.26 108.35 328.26 107.94 328.26 107.53 328.26 107.12 328.26 106.72 328.26 106.31 328.26 105.9 328.26 105.49 328.26 105.08 328.26 104.67 328.26 104.26 328.26 103.85 328.26 103.44 328.26 103.03 328.26 102.62 328.26 102.21 328.26 101.8 328.26 101.39 328.26 100.98 328.26 100.58 328.26 100.17 328.26 99.76 328.26 99.35 328.26 98.94 328.26 98.53 328.26 98.12 328.26 97.71 328.26 97.3 328.26 96.89 328.26 96.48 328.26 96.07 328.26 95.66 328.26 95.25 328.26 94.84 328.26 94.44 328.26 94.03 328.26 93.62 328.26 93.21 328.26 92.8 328.26 92.39 328.26 91.98 328.26 91.57 328.26 91.16 328.26 90.75 328.26 90.34 328.26 89.93 328.26 89.52 328.26 89.11 328.26 88.7 328.26 88.3 328.26 87.89 328.26 87.48 328.26 87.07 328.26 86.66 328.26 86.25 328.26 85.84 328.26 85.43 328.26 85.02 328.26 84.61 328.26 84.2 328.26 83.79 328.26 83.38 328.26 82.97 328.26 82.56 328.26 82.16 328.26 81.75 328.26 81.34 328.26 80.93 328.26 80.52 328.26 80.11 328.26 79.7 328.26 79.29 328.26 78.88 328.26 78.47 328.26 78.06 328.26 77.65 328.26 77.24 328.26 76.83 328.26 76.43 328.26 76.02 328.26 75.61 328.26 75.2 328.26 74.79 328.26 74.38 328.26 73.97 328.26 73.56 328.26 73.15 328.26 72.74 328.26 72.33 328.26 71.92 328.26 71.51 328.26 71.1 328.26 70.69 328.26 70.29 328.26 69.88 328.26 69.47 328.26 69.06 328.26 68.65 328.26 68.24 328.26 67.83 328.26 67.42 328.26 67.01 328.26 66.6 328.26 66.19 328.26 65.78 328.26 65.37 328.26 64.96 328.26 64.55 328.26 64.15 328.26 63.74 328.26 63.33 328.26 62.92 328.26 62.51 328.26 62.1 328.26 61.69 328.26 61.28 328.26 60.87 328.26 60.46 328.26 60.05 328.26 59.64 328.26 59.23 328.26 58.82 328.26 58.41 328.26 58.01 328.26 57.6 328.26 57.19 328.26 56.78 328.26 56.37 328.26 55.96 328.26 55.55 328.26 55.14 328.26 54.73 328.26 54.32 328.26 53.91 328.26 53.5 328.26 53.09 328.26 52.68 328.26 52.27 328.26 51.87 328.26 51.46 328.26 51.05 328.26 50.64 328.26 50.23 328.26 49.82 328.26 49.41 328.26 49 328.26 48.59 328.26 48.18 328.26 47.77 328.26 47.36 328.26 46.95 328.26 46.54 328.26 46.13 328.26 45.73 328.26 45.32 328.26 44.91 328.26 44.5 328.26 44.09 328.26 43.68 328.26 43.27 328.26 42.86 328.26 42.45 328.26 42.04 328.26 41.63 328.26 41.22 328.26 40.81 328.26 40.4 328.26 40 328.26 39.59 328.26 39.18 328.26 38.77 328.26 38.36 328.26 37.95 328.26 37.54 328.26 37.13 328.26 36.72 328.26 36.31 328.26 35.9 328.26 35.49 328.26 35.08 328.26 34.67 328.26 34.26 328.26 33.86 328.26 33.45 328.26 33.04 328.26 32.63 328.26 32.22 328.26 31.81 328.26 31.4 328.26 30.99 328.26 30.58 328.26 30.17 328.26 29.76 328.26 29.35 328.26 28.94 328.26 28.53 328.26 28.12 328.26 27.72 328.26 27.31 328.26 26.9 328.26" clip-path="url(#cpMTYuNDR8MjQ2LjUyfDM0Mi40OXwyOS41Nw==)" style="stroke-width:0;stroke:none;fill:#f50;fill-opacity:.25"/><polyline points="26.9 328.26 27.31 328.26 27.72 328.26 28.12 328.26 28.53 328.26 28.94 328.26 29.35 328.26 29.76 328.26 30.17 328.26 30.58 328.26 30.99 328.26 31.4 328.26 31.81 328.26 32.22 328.26 32.63 328.26 33.04 328.26 33.45 328.26 33.86 328.26 34.26 328.26 34.67 328.26 35.08 328.26 35.49 328.26 35.9 328.26 36.31 328.26 36.72 328.26 37.13 328.26 37.54 328.26 37.95 328.26 38.36 328.26 38.77 328.26 39.18 328.26 39.59 328.26 40 328.26 40.4 328.26 40.81 328.26 41.22 328.26 41.63 328.26 42.04 328.26 42.45 328.26 42.86 328.26 43.27 328.26 43.68 328.26 44.09 328.26 44.5 328.26 44.91 328.26 45.32 328.26 45.73 328.26 46.13 328.26 46.54 328.26 46.95 328.26 47.36 328.26 47.77 328.26 48.18 328.26 48.59 328.26 49 328.26 49.41 328.26 49.82 328.26 50.23 328.26 50.64 328.26 51.05 328.26 51.46 328.26 51.87 328.26 52.27 328.26 52.68 328.26 53.09 328.26 53.5 328.26 53.91 328.26 54.32 328.26 54.73 328.26 55.14 328.26 55.55 328.26 55.96 328.26 56.37 328.26 56.78 328.26 57.19 328.26 57.6 328.26 58.01 328.26 58.41 328.26 58.82 328.26 59.23 328.26 59.64 328.26 60.05 328.26 60.46 328.26 60.87 328.26 61.28 328.26 61.69 328.26 62.1 328.26 62.51 328.26 62.92 328.26 63.33 328.26 63.74 328.26 64.15 328.26 64.55 328.26 64.96 328.26 65.37 328.25 65.78 328.25 66.19 328.24 66.6 328.24 67.01 328.23 67.42 328.22 67.83 328.2 68.24 328.18 68.65 328.16 69.06 328.13 69.47 328.09 69.88 328.04 70.29 327.98 70.69 327.91 71.1 327.82 71.51 327.71 71.92 327.59 72.33 327.44 72.74 327.25 73.15 327.04 73.56 326.79 73.97 326.51 74.38 326.18 74.79 325.81 75.2 325.39 75.61 324.92 76.02 324.39 76.43 323.81 76.83 323.18 77.24 322.49 77.65 321.75 78.06 320.94 78.47 320.08 78.88 319.17 79.29 318.21 79.7 317.2 80.11 316.15 80.52 315.06 80.93 313.92 81.34 312.75 81.75 311.54 82.16 310.3 82.56 309.02 82.97 307.71 83.38 306.36 83.79 304.97 84.2 303.54 84.61 302.06 85.02 300.53 85.43 298.94 85.84 297.3 86.25 295.57 86.66 293.77 87.07 291.89 87.48 289.92 87.89 287.86 88.3 285.7 88.7 283.43 89.11 281.05 89.52 278.55 89.93 275.94 90.34 273.2 90.75 270.34 91.16 267.36 91.57 264.22 91.98 260.94 92.39 257.52 92.8 253.96 93.21 250.26 93.62 246.42 94.03 242.42 94.44 238.26 94.84 233.97 95.25 229.54 95.66 224.99 96.07 220.32 96.48 215.53 96.89 210.63 97.3 205.64 97.71 200.59 98.12 195.48 98.53 190.34 98.94 185.17 99.35 180.01 99.76 174.86 100.17 169.76 100.58 164.71 100.98 159.73 101.39 154.84 101.8 150.04 102.21 145.39 102.62 140.86 103.03 136.48 103.44 132.23 103.85 128.13 104.26 124.17 104.67 120.37 105.08 116.73 105.49 113.23 105.9 109.85 106.31 106.59 106.72 103.45 107.12 100.39 107.53 97.43 107.94 94.54 108.35 91.71 108.76 88.92 109.17 86.16 109.58 83.43 109.99 80.72 110.4 78.02 110.81 75.34 111.22 72.67 111.63 70.03 112.04 67.41 112.45 64.83 112.86 62.31 113.26 59.87 113.67 57.53 114.08 55.3 114.49 53.21 114.9 51.26 115.31 49.49 115.72 47.96 116.13 46.65 116.54 45.58 116.95 44.75 117.36 44.17 117.77 43.85 118.18 43.79 118.59 44.02 119 44.49 119.4 45.16 119.81 46.04 120.22 47.08 120.63 48.27 121.04 49.59 121.45 50.99 121.86 52.43 122.27 53.89 122.68 55.34 123.09 56.76 123.5 58.13 123.91 59.44 124.32 60.68 124.73 61.86 125.13 63.01 125.54 64.12 125.95 65.22 126.36 66.36 126.77 67.57 127.18 68.9 127.59 70.38 128 72.06 128.41 73.96 128.82 76.15 129.23 78.72 129.64 81.64 130.05 84.94 130.46 88.63 130.87 92.72 131.27 97.22 131.68 102.17 132.09 107.54 132.5 113.27 132.91 119.33 133.32 125.69 133.73 132.31 134.14 139.13 134.55 146.15 134.96 153.26 135.37 160.41 135.78 167.54 136.19 174.62 136.6 181.59 137.01 188.39 137.41 194.95 137.82 201.25 138.23 207.27 138.64 212.97 139.05 218.34 139.46 223.36 139.87 227.96 140.28 232.17 140.69 236.01 141.1 239.5 141.51 242.65 141.92 245.48 142.33 247.98 142.74 250.17 143.15 252.13 143.55 253.89 143.96 255.48 144.37 256.93 144.78 258.29 145.19 259.57 145.6 260.83 146.01 262.11 146.42 263.42 146.83 264.79 147.24 266.25 147.65 267.81 148.06 269.51 148.47 271.33 148.88 273.27 149.29 275.34 149.69 277.52 150.1 279.81 150.51 282.21 150.92 284.69 151.33 287.22 151.74 289.79 152.15 292.37 152.56 294.95 152.97 297.51 153.38 300.01 153.79 302.44 154.2 304.79 154.61 307.04 155.02 309.19 155.43 311.21 155.83 313.1 156.24 314.85 156.65 316.46 157.06 317.93 157.47 319.28 157.88 320.5 158.29 321.6 158.7 322.56 159.11 323.4 159.52 324.15 159.93 324.81 160.34 325.37 160.75 325.87 161.16 326.28 161.56 326.63 161.97 326.92 162.38 327.17 162.79 327.37 163.2 327.53 163.61 327.67 164.02 327.77 164.43 327.85 164.84 327.9 165.25 327.94 165.66 327.96 166.07 327.96 166.48 327.94 166.89 327.91 167.3 327.87 167.7 327.81 168.11 327.73 168.52 327.64 168.93 327.53 169.34 327.41 169.75 327.26 170.16 327.11 170.57 326.93 170.98 326.74 171.39 326.53 171.8 326.31 172.21 326.07 172.62 325.83 173.03 325.58 173.44 325.32 173.84 325.06 174.25 324.81 174.66 324.57 175.07 324.34 175.48 324.12 175.89 323.93 176.3 323.76 176.71 323.62 177.12 323.51 177.53 323.44 177.94 323.4 178.35 323.4 178.76 323.43 179.17 323.5 179.58 323.6 179.98 323.74 180.39 323.91 180.8 324.1 181.21 324.31 181.62 324.54 182.03 324.78 182.44 325.04 182.85 325.29 183.26 325.55 183.67 325.8 184.08 326.05 184.49 326.28 184.9 326.51 185.31 326.72 185.72 326.91 186.12 327.09 186.53 327.26 186.94 327.4 187.35 327.53 187.76 327.65 188.17 327.75 188.58 327.84 188.99 327.91 189.4 327.98 189.81 328.03 190.22 328.08 190.63 328.12 191.04 328.15 191.45 328.17 191.86 328.19 192.26 328.21 192.67 328.22 193.08 328.23 193.49 328.24 193.9 328.24 194.31 328.25 194.72 328.25 195.13 328.25 195.54 328.26 195.95 328.26 196.36 328.26 196.77 328.26 197.18 328.26 197.59 328.26 197.99 328.26 198.4 328.26 198.81 328.26 199.22 328.26 199.63 328.26 200.04 328.26 200.45 328.26 200.86 328.26 201.27 328.26 201.68 328.26 202.09 328.26 202.5 328.26 202.91 328.26 203.32 328.26 203.73 328.26 204.13 328.26 204.54 328.26 204.95 328.26 205.36 328.26 205.77 328.26 206.18 328.26 206.59 328.26 207 328.26 207.41 328.26 207.82 328.26 208.23 328.26 208.64 328.26 209.05 328.26 209.46 328.26 209.87 328.26 210.27 328.26 210.68 328.26 211.09 328.26 211.5 328.26 211.91 328.26 212.32 328.26 212.73 328.26 213.14 328.26 213.55 328.26 213.96 328.26 214.37 328.26 214.78 328.26 215.19 328.26 215.6 328.26 216.01 328.26 216.41 328.26 216.82 328.26 217.23 328.26 217.64 328.26 218.05 328.26 218.46 328.26 218.87 328.26 219.28 328.26 219.69 328.26 220.1 328.26 220.51 328.26 220.92 328.26 221.33 328.26 221.74 328.26 222.15 328.26 222.55 328.26 222.96 328.26 223.37 328.26 223.78 328.26 224.19 328.26 224.6 328.26 225.01 328.26 225.42 328.26 225.83 328.26 226.24 328.26 226.65 328.26 227.06 328.26 227.47 328.26 227.88 328.26 228.29 328.26 228.69 328.26 229.1 328.26 229.51 328.26 229.92 328.26 230.33 328.26 230.74 328.26 231.15 328.26 231.56 328.26 231.97 328.26 232.38 328.26 232.79 328.26 233.2 328.26 233.61 328.26 234.02 328.26 234.42 328.26 234.83 328.26 235.24 328.26 235.65 328.26 236.06 328.26" clip-path="url(#cpMTYuNDR8MjQ2LjUyfDM0Mi40OXwyOS41Nw==)" style="stroke-width:1.07;stroke:#f8766d"/><polygon points="26.9 328.26 27.31 328.26 27.72 328.26 28.12 328.26 28.53 328.26 28.94 328.26 29.35 328.26 29.76 328.26 30.17 328.26 30.58 328.26 30.99 328.26 31.4 328.26 31.81 328.26 32.22 328.26 32.63 328.26 33.04 328.26 33.45 328.26 33.86 328.26 34.26 328.26 34.67 328.26 35.08 328.26 35.49 328.26 35.9 328.26 36.31 328.26 36.72 328.26 37.13 328.26 37.54 328.26 37.95 328.26 38.36 328.26 38.77 328.26 39.18 328.26 39.59 328.26 40 328.26 40.4 328.26 40.81 328.26 41.22 328.26 41.63 328.26 42.04 328.26 42.45 328.25 42.86 328.25 43.27 328.25 43.68 328.25 44.09 328.24 44.5 328.24 44.91 328.23 45.32 328.23 45.73 328.22 46.13 328.21 46.54 328.2 46.95 328.18 47.36 328.17 47.77 328.15 48.18 328.13 48.59 328.1 49 328.07 49.41 328.04 49.82 328 50.23 327.95 50.64 327.89 51.05 327.83 51.46 327.76 51.87 327.69 52.27 327.59 52.68 327.49 53.09 327.38 53.5 327.25 53.91 327.12 54.32 326.96 54.73 326.79 55.14 326.6 55.55 326.39 55.96 326.17 56.37 325.92 56.78 325.65 57.19 325.36 57.6 325.05 58.01 324.72 58.41 324.37 58.82 323.99 59.23 323.59 59.64 323.17 60.05 322.73 60.46 322.27 60.87 321.78 61.28 321.28 61.69 320.76 62.1 320.23 62.51 319.68 62.92 319.11 63.33 318.54 63.74 317.95 64.15 317.36 64.55 316.76 64.96 316.16 65.37 315.55 65.78 314.94 66.19 314.33 66.6 313.72 67.01 313.11 67.42 312.51 67.83 311.91 68.24 311.31 68.65 310.71 69.06 310.11 69.47 309.52 69.88 308.93 70.29 308.33 70.69 307.73 71.1 307.12 71.51 306.5 71.92 305.86 72.33 305.21 72.74 304.54 73.15 303.84 73.56 303.11 73.97 302.34 74.38 301.53 74.79 300.68 75.2 299.78 75.61 298.83 76.02 297.81 76.43 296.73 76.83 295.57 77.24 294.35 77.65 293.06 78.06 291.68 78.47 290.21 78.88 288.67 79.29 287.04 79.7 285.34 80.11 283.53 80.52 281.64 80.93 279.67 81.34 277.62 81.75 275.5 82.16 273.29 82.56 271.02 82.97 268.68 83.38 266.3 83.79 263.86 84.2 261.36 84.61 258.84 85.02 256.29 85.43 253.71 85.84 251.13 86.25 248.53 86.66 245.94 87.07 243.37 87.48 240.8 87.89 238.26 88.3 235.76 88.7 233.29 89.11 230.86 89.52 228.47 89.93 226.13 90.34 223.85 90.75 221.62 91.16 219.44 91.57 217.32 91.98 215.25 92.39 213.25 92.8 211.29 93.21 209.38 93.62 207.52 94.03 205.72 94.44 203.96 94.84 202.24 95.25 200.56 95.66 198.91 96.07 197.31 96.48 195.74 96.89 194.2 97.3 192.69 97.71 191.2 98.12 189.75 98.53 188.32 98.94 186.92 99.35 185.54 99.76 184.18 100.17 182.85 100.58 181.55 100.98 180.26 101.39 178.99 101.8 177.74 102.21 176.5 102.62 175.29 103.03 174.08 103.44 172.88 103.85 171.7 104.26 170.51 104.67 169.32 105.08 168.13 105.49 166.93 105.9 165.72 106.31 164.49 106.72 163.24 107.12 161.96 107.53 160.66 107.94 159.31 108.35 157.93 108.76 156.52 109.17 155.07 109.58 153.58 109.99 152.03 110.4 150.46 110.81 148.84 111.22 147.19 111.63 145.51 112.04 143.8 112.45 142.06 112.86 140.31 113.26 138.56 113.67 136.8 114.08 135.05 114.49 133.31 114.9 131.61 115.31 129.93 115.72 128.31 116.13 126.75 116.54 125.25 116.95 123.83 117.36 122.49 117.77 121.26 118.18 120.15 118.59 119.14 119 118.26 119.4 117.5 119.81 116.9 120.22 116.45 120.63 116.15 121.04 115.99 121.45 115.97 121.86 116.15 122.27 116.48 122.68 116.96 123.09 117.59 123.5 118.36 123.91 119.32 124.32 120.41 124.73 121.63 125.13 122.97 125.54 124.43 125.95 126.03 126.36 127.73 126.77 129.51 127.18 131.38 127.59 133.32 128 135.35 128.41 137.42 128.82 139.54 129.23 141.7 129.64 143.89 130.05 146.11 130.46 148.35 130.87 150.59 131.27 152.84 131.68 155.09 132.09 157.34 132.5 159.58 132.91 161.81 133.32 164.04 133.73 166.25 134.14 168.46 134.55 170.65 134.96 172.84 135.37 175.01 135.78 177.19 136.19 179.35 136.6 181.52 137.01 183.69 137.41 185.86 137.82 188.03 138.23 190.21 138.64 192.39 139.05 194.59 139.46 196.79 139.87 199.01 140.28 201.23 140.69 203.47 141.1 205.72 141.51 207.97 141.92 210.24 142.33 212.52 142.74 214.81 143.15 217.1 143.55 219.39 143.96 221.69 144.37 223.99 144.78 226.29 145.19 228.59 145.6 230.89 146.01 233.17 146.42 235.45 146.83 237.72 147.24 239.97 147.65 242.21 148.06 244.43 148.47 246.63 148.88 248.82 149.29 250.98 149.69 253.11 150.1 255.22 150.51 257.29 150.92 259.34 151.33 261.36 151.74 263.33 152.15 265.27 152.56 267.18 152.97 269.04 153.38 270.87 153.79 272.64 154.2 274.37 154.61 276.05 155.02 277.69 155.43 279.28 155.83 280.81 156.24 282.3 156.65 283.73 157.06 285.12 157.47 286.46 157.88 287.73 158.29 288.96 158.7 290.14 159.11 291.28 159.52 292.36 159.93 293.39 160.34 294.38 160.75 295.33 161.16 296.25 161.56 297.12 161.97 297.95 162.38 298.75 162.79 299.53 163.2 300.28 163.61 301 164.02 301.7 164.43 302.38 164.84 303.05 165.25 303.71 165.66 304.36 166.07 305.01 166.48 305.65 166.89 306.28 167.3 306.92 167.7 307.56 168.11 308.2 168.52 308.84 168.93 309.48 169.34 310.14 169.75 310.79 170.16 311.45 170.57 312.11 170.98 312.78 171.39 313.44 171.8 314.11 172.21 314.78 172.62 315.44 173.03 316.1 173.44 316.75 173.84 317.39 174.25 318.02 174.66 318.65 175.07 319.25 175.48 319.84 175.89 320.42 176.3 320.97 176.71 321.51 177.12 322.02 177.53 322.51 177.94 322.98 178.35 323.42 178.76 323.84 179.17 324.24 179.58 324.61 179.98 324.95 180.39 325.27 180.8 325.57 181.21 325.85 181.62 326.1 182.03 326.33 182.44 326.53 182.85 326.72 183.26 326.89 183.67 327.04 184.08 327.17 184.49 327.28 184.9 327.38 185.31 327.47 185.72 327.54 186.12 327.59 186.53 327.63 186.94 327.66 187.35 327.68 187.76 327.69 188.17 327.69 188.58 327.67 188.99 327.65 189.4 327.62 189.81 327.58 190.22 327.53 190.63 327.47 191.04 327.41 191.45 327.33 191.86 327.25 192.26 327.17 192.67 327.07 193.08 326.97 193.49 326.87 193.9 326.76 194.31 326.65 194.72 326.53 195.13 326.41 195.54 326.29 195.95 326.17 196.36 326.04 196.77 325.92 197.18 325.8 197.59 325.69 197.99 325.58 198.4 325.47 198.81 325.37 199.22 325.27 199.63 325.19 200.04 325.11 200.45 325.05 200.86 324.99 201.27 324.95 201.68 324.91 202.09 324.89 202.5 324.88 202.91 324.89 203.32 324.9 203.73 324.93 204.13 324.97 204.54 325.02 204.95 325.08 205.36 325.15 205.77 325.23 206.18 325.32 206.59 325.42 207 325.52 207.41 325.63 207.82 325.75 208.23 325.87 208.64 325.99 209.05 326.11 209.46 326.23 209.87 326.36 210.27 326.48 210.68 326.6 211.09 326.72 211.5 326.83 211.91 326.94 212.32 327.05 212.73 327.15 213.14 327.25 213.55 327.34 213.96 327.43 214.37 327.51 214.78 327.59 215.19 327.66 215.6 327.72 216.01 327.78 216.41 327.84 216.82 327.89 217.23 327.93 217.64 327.97 218.05 328.01 218.46 328.04 218.87 328.07 219.28 328.1 219.69 328.12 220.1 328.14 220.51 328.16 220.92 328.17 221.33 328.19 221.74 328.2 222.15 328.21 222.55 328.22 222.96 328.23 223.37 328.23 223.78 328.24 224.19 328.24 224.6 328.24 225.01 328.25 225.42 328.25 225.83 328.25 226.24 328.25 226.65 328.26 227.06 328.26 227.47 328.26 227.88 328.26 228.29 328.26 228.69 328.26 229.1 328.26 229.51 328.26 229.92 328.26 230.33 328.26 230.74 328.26 231.15 328.26 231.56 328.26 231.97 328.26 232.38 328.26 232.79 328.26 233.2 328.26 233.61 328.26 234.02 328.26 234.42 328.26 234.83 328.26 235.24 328.26 235.65 328.26 236.06 328.26 236.06 328.26 235.65 328.26 235.24 328.26 234.83 328.26 234.42 328.26 234.02 328.26 233.61 328.26 233.2 328.26 232.79 328.26 232.38 328.26 231.97 328.26 231.56 328.26 231.15 328.26 230.74 328.26 230.33 328.26 229.92 328.26 229.51 328.26 229.1 328.26 228.69 328.26 228.29 328.26 227.88 328.26 227.47 328.26 227.06 328.26 226.65 328.26 226.24 328.26 225.83 328.26 225.42 328.26 225.01 328.26 224.6 328.26 224.19 328.26 223.78 328.26 223.37 328.26 222.96 328.26 222.55 328.26 222.15 328.26 221.74 328.26 221.33 328.26 220.92 328.26 220.51 328.26 220.1 328.26 219.69 328.26 219.28 328.26 218.87 328.26 218.46 328.26 218.05 328.26 217.64 328.26 217.23 328.26 216.82 328.26 216.41 328.26 216.01 328.26 215.6 328.26 215.19 328.26 214.78 328.26 214.37 328.26 213.96 328.26 213.55 328.26 213.14 328.26 212.73 328.26 212.32 328.26 211.91 328.26 211.5 328.26 211.09 328.26 210.68 328.26 210.27 328.26 209.87 328.26 209.46 328.26 209.05 328.26 208.64 328.26 208.23 328.26 207.82 328.26 207.41 328.26 207 328.26 206.59 328.26 206.18 328.26 205.77 328.26 205.36 328.26 204.95 328.26 204.54 328.26 204.13 328.26 203.73 328.26 203.32 328.26 202.91 328.26 202.5 328.26 202.09 328.26 201.68 328.26 201.27 328.26 200.86 328.26 200.45 328.26 200.04 328.26 199.63 328.26 199.22 328.26 198.81 328.26 198.4 328.26 197.99 328.26 197.59 328.26 197.18 328.26 196.77 328.26 196.36 328.26 195.95 328.26 195.54 328.26 195.13 328.26 194.72 328.26 194.31 328.26 193.9 328.26 193.49 328.26 193.08 328.26 192.67 328.26 192.26 328.26 191.86 328.26 191.45 328.26 191.04 328.26 190.63 328.26 190.22 328.26 189.81 328.26 189.4 328.26 188.99 328.26 188.58 328.26 188.17 328.26 187.76 328.26 187.35 328.26 186.94 328.26 186.53 328.26 186.12 328.26 185.72 328.26 185.31 328.26 184.9 328.26 184.49 328.26 184.08 328.26 183.67 328.26 183.26 328.26 182.85 328.26 182.44 328.26 182.03 328.26 181.62 328.26 181.21 328.26 180.8 328.26 180.39 328.26 179.98 328.26 179.58 328.26 179.17 328.26 178.76 328.26 178.35 328.26 177.94 328.26 177.53 328.26 177.12 328.26 176.71 328.26 176.3 328.26 175.89 328.26 175.48 328.26 175.07 328.26 174.66 328.26 174.25 328.26 173.84 328.26 173.44 328.26 173.03 328.26 172.62 328.26 172.21 328.26 171.8 328.26 171.39 328.26 170.98 328.26 170.57 328.26 170.16 328.26 169.75 328.26 169.34 328.26 168.93 328.26 168.52 328.26 168.11 328.26 167.7 328.26 167.3 328.26 166.89 328.26 166.48 328.26 166.07 328.26 165.66 328.26 165.25 328.26 164.84 328.26 164.43 328.26 164.02 328.26 163.61 328.26 163.2 328.26 162.79 328.26 162.38 328.26 161.97 328.26 161.56 328.26 161.16 328.26 160.75 328.26 160.34 328.26 159.93 328.26 159.52 328.26 159.11 328.26 158.7 328.26 158.29 328.26 157.88 328.26 157.47 328.26 157.06 328.26 156.65 328.26 156.24 328.26 155.83 328.26 155.43 328.26 155.02 328.26 154.61 328.26 154.2 328.26 153.79 328.26 153.38 328.26 152.97 328.26 152.56 328.26 152.15 328.26 151.74 328.26 151.33 328.26 150.92 328.26 150.51 328.26 150.1 328.26 149.69 328.26 149.29 328.26 148.88 328.26 148.47 328.26 148.06 328.26 147.65 328.26 147.24 328.26 146.83 328.26 146.42 328.26 146.01 328.26 145.6 328.26 145.19 328.26 144.78 328.26 144.37 328.26 143.96 328.26 143.55 328.26 143.15 328.26 142.74 328.26 142.33 328.26 141.92 328.26 141.51 328.26 141.1 328.26 140.69 328.26 140.28 328.26 139.87 328.26 139.46 328.26 139.05 328.26 138.64 328.26 138.23 328.26 137.82 328.26 137.41 328.26 137.01 328.26 136.6 328.26 136.19 328.26 135.78 328.26 135.37 328.26 134.96 328.26 134.55 328.26 134.14 328.26 133.73 328.26 133.32 328.26 132.91 328.26 132.5 328.26 132.09 328.26 131.68 328.26 131.27 328.26 130.87 328.26 130.46 328.26 130.05 328.26 129.64 328.26 129.23 328.26 128.82 328.26 128.41 328.26 128 328.26 127.59 328.26 127.18 328.26 126.77 328.26 126.36 328.26 125.95 328.26 125.54 328.26 125.13 328.26 124.73 328.26 124.32 328.26 123.91 328.26 123.5 328.26 123.09 328.26 122.68 328.26 122.27 328.26 121.86 328.26 121.45 328.26 121.04 328.26 120.63 328.26 120.22 328.26 119.81 328.26 119.4 328.26 119 328.26 118.59 328.26 118.18 328.26 117.77 328.26 117.36 328.26 116.95 328.26 116.54 328.26 116.13 328.26 115.72 328.26 115.31 328.26 114.9 328.26 114.49 328.26 114.08 328.26 113.67 328.26 113.26 328.26 112.86 328.26 112.45 328.26 112.04 328.26 111.63 328.26 111.22 328.26 110.81 328.26 110.4 328.26 109.99 328.26 109.58 328.26 109.17 328.26 108.76 328.26 108.35 328.26 107.94 328.26 107.53 328.26 107.12 328.26 106.72 328.26 106.31 328.26 105.9 328.26 105.49 328.26 105.08 328.26 104.67 328.26 104.26 328.26 103.85 328.26 103.44 328.26 103.03 328.26 102.62 328.26 102.21 328.26 101.8 328.26 101.39 328.26 100.98 328.26 100.58 328.26 100.17 328.26 99.76 328.26 99.35 328.26 98.94 328.26 98.53 328.26 98.12 328.26 97.71 328.26 97.3 328.26 96.89 328.26 96.48 328.26 96.07 328.26 95.66 328.26 95.25 328.26 94.84 328.26 94.44 328.26 94.03 328.26 93.62 328.26 93.21 328.26 92.8 328.26 92.39 328.26 91.98 328.26 91.57 328.26 91.16 328.26 90.75 328.26 90.34 328.26 89.93 328.26 89.52 328.26 89.11 328.26 88.7 328.26 88.3 328.26 87.89 328.26 87.48 328.26 87.07 328.26 86.66 328.26 86.25 328.26 85.84 328.26 85.43 328.26 85.02 328.26 84.61 328.26 84.2 328.26 83.79 328.26 83.38 328.26 82.97 328.26 82.56 328.26 82.16 328.26 81.75 328.26 81.34 328.26 80.93 328.26 80.52 328.26 80.11 328.26 79.7 328.26 79.29 328.26 78.88 328.26 78.47 328.26 78.06 328.26 77.65 328.26 77.24 328.26 76.83 328.26 76.43 328.26 76.02 328.26 75.61 328.26 75.2 328.26 74.79 328.26 74.38 328.26 73.97 328.26 73.56 328.26 73.15 328.26 72.74 328.26 72.33 328.26 71.92 328.26 71.51 328.26 71.1 328.26 70.69 328.26 70.29 328.26 69.88 328.26 69.47 328.26 69.06 328.26 68.65 328.26 68.24 328.26 67.83 328.26 67.42 328.26 67.01 328.26 66.6 328.26 66.19 328.26 65.78 328.26 65.37 328.26 64.96 328.26 64.55 328.26 64.15 328.26 63.74 328.26 63.33 328.26 62.92 328.26 62.51 328.26 62.1 328.26 61.69 328.26 61.28 328.26 60.87 328.26 60.46 328.26 60.05 328.26 59.64 328.26 59.23 328.26 58.82 328.26 58.41 328.26 58.01 328.26 57.6 328.26 57.19 328.26 56.78 328.26 56.37 328.26 55.96 328.26 55.55 328.26 55.14 328.26 54.73 328.26 54.32 328.26 53.91 328.26 53.5 328.26 53.09 328.26 52.68 328.26 52.27 328.26 51.87 328.26 51.46 328.26 51.05 328.26 50.64 328.26 50.23 328.26 49.82 328.26 49.41 328.26 49 328.26 48.59 328.26 48.18 328.26 47.77 328.26 47.36 328.26 46.95 328.26 46.54 328.26 46.13 328.26 45.73 328.26 45.32 328.26 44.91 328.26 44.5 328.26 44.09 328.26 43.68 328.26 43.27 328.26 42.86 328.26 42.45 328.26 42.04 328.26 41.63 328.26 41.22 328.26 40.81 328.26 40.4 328.26 40 328.26 39.59 328.26 39.18 328.26 38.77 328.26 38.36 328.26 37.95 328.26 37.54 328.26 37.13 328.26 36.72 328.26 36.31 328.26 35.9 328.26 35.49 328.26 35.08 328.26 34.67 328.26 34.26 328.26 33.86 328.26 33.45 328.26 33.04 328.26 32.63 328.26 32.22 328.26 31.81 328.26 31.4 328.26 30.99 328.26 30.58 328.26 30.17 328.26 29.76 328.26 29.35 328.26 28.94 328.26 28.53 328.26 28.12 328.26 27.72 328.26 27.31 328.26 26.9 328.26" clip-path="url(#cpMTYuNDR8MjQ2LjUyfDM0Mi40OXwyOS41Nw==)" style="stroke-width:0;stroke:none;fill:#0af;fill-opacity:.25"/><polyline points="26.9 328.26 27.31 328.26 27.72 328.26 28.12 328.26 28.53 328.26 28.94 328.26 29.35 328.26 29.76 328.26 30.17 328.26 30.58 328.26 30.99 328.26 31.4 328.26 31.81 328.26 32.22 328.26 32.63 328.26 33.04 328.26 33.45 328.26 33.86 328.26 34.26 328.26 34.67 328.26 35.08 328.26 35.49 328.26 35.9 328.26 36.31 328.26 36.72 328.26 37.13 328.26 37.54 328.26 37.95 328.26 38.36 328.26 38.77 328.26 39.18 328.26 39.59 328.26 40 328.26 40.4 328.26 40.81 328.26 41.22 328.26 41.63 328.26 42.04 328.26 42.45 328.25 42.86 328.25 43.27 328.25 43.68 328.25 44.09 328.24 44.5 328.24 44.91 328.23 45.32 328.23 45.73 328.22 46.13 328.21 46.54 328.2 46.95 328.18 47.36 328.17 47.77 328.15 48.18 328.13 48.59 328.1 49 328.07 49.41 328.04 49.82 328 50.23 327.95 50.64 327.89 51.05 327.83 51.46 327.76 51.87 327.69 52.27 327.59 52.68 327.49 53.09 327.38 53.5 327.25 53.91 327.12 54.32 326.96 54.73 326.79 55.14 326.6 55.55 326.39 55.96 326.17 56.37 325.92 56.78 325.65 57.19 325.36 57.6 325.05 58.01 324.72 58.41 324.37 58.82 323.99 59.23 323.59 59.64 323.17 60.05 322.73 60.46 322.27 60.87 321.78 61.28 321.28 61.69 320.76 62.1 320.23 62.51 319.68 62.92 319.11 63.33 318.54 63.74 317.95 64.15 317.36 64.55 316.76 64.96 316.16 65.37 315.55 65.78 314.94 66.19 314.33 66.6 313.72 67.01 313.11 67.42 312.51 67.83 311.91 68.24 311.31 68.65 310.71 69.06 310.11 69.47 309.52 69.88 308.93 70.29 308.33 70.69 307.73 71.1 307.12 71.51 306.5 71.92 305.86 72.33 305.21 72.74 304.54 73.15 303.84 73.56 303.11 73.97 302.34 74.38 301.53 74.79 300.68 75.2 299.78 75.61 298.83 76.02 297.81 76.43 296.73 76.83 295.57 77.24 294.35 77.65 293.06 78.06 291.68 78.47 290.21 78.88 288.67 79.29 287.04 79.7 285.34 80.11 283.53 80.52 281.64 80.93 279.67 81.34 277.62 81.75 275.5 82.16 273.29 82.56 271.02 82.97 268.68 83.38 266.3 83.79 263.86 84.2 261.36 84.61 258.84 85.02 256.29 85.43 253.71 85.84 251.13 86.25 248.53 86.66 245.94 87.07 243.37 87.48 240.8 87.89 238.26 88.3 235.76 88.7 233.29 89.11 230.86 89.52 228.47 89.93 226.13 90.34 223.85 90.75 221.62 91.16 219.44 91.57 217.32 91.98 215.25 92.39 213.25 92.8 211.29 93.21 209.38 93.62 207.52 94.03 205.72 94.44 203.96 94.84 202.24 95.25 200.56 95.66 198.91 96.07 197.31 96.48 195.74 96.89 194.2 97.3 192.69 97.71 191.2 98.12 189.75 98.53 188.32 98.94 186.92 99.35 185.54 99.76 184.18 100.17 182.85 100.58 181.55 100.98 180.26 101.39 178.99 101.8 177.74 102.21 176.5 102.62 175.29 103.03 174.08 103.44 172.88 103.85 171.7 104.26 170.51 104.67 169.32 105.08 168.13 105.49 166.93 105.9 165.72 106.31 164.49 106.72 163.24 107.12 161.96 107.53 160.66 107.94 159.31 108.35 157.93 108.76 156.52 109.17 155.07 109.58 153.58 109.99 152.03 110.4 150.46 110.81 148.84 111.22 147.19 111.63 145.51 112.04 143.8 112.45 142.06 112.86 140.31 113.26 138.56 113.67 136.8 114.08 135.05 114.49 133.31 114.9 131.61 115.31 129.93 115.72 128.31 116.13 126.75 116.54 125.25 116.95 123.83 117.36 122.49 117.77 121.26 118.18 120.15 118.59 119.14 119 118.26 119.4 117.5 119.81 116.9 120.22 116.45 120.63 116.15 121.04 115.99 121.45 115.97 121.86 116.15 122.27 116.48 122.68 116.96 123.09 117.59 123.5 118.36 123.91 119.32 124.32 120.41 124.73 121.63 125.13 122.97 125.54 124.43 125.95 126.03 126.36 127.73 126.77 129.51 127.18 131.38 127.59 133.32 128 135.35 128.41 137.42 128.82 139.54 129.23 141.7 129.64 143.89 130.05 146.11 130.46 148.35 130.87 150.59 131.27 152.84 131.68 155.09 132.09 157.34 132.5 159.58 132.91 161.81 133.32 164.04 133.73 166.25 134.14 168.46 134.55 170.65 134.96 172.84 135.37 175.01 135.78 177.19 136.19 179.35 136.6 181.52 137.01 183.69 137.41 185.86 137.82 188.03 138.23 190.21 138.64 192.39 139.05 194.59 139.46 196.79 139.87 199.01 140.28 201.23 140.69 203.47 141.1 205.72 141.51 207.97 141.92 210.24 142.33 212.52 142.74 214.81 143.15 217.1 143.55 219.39 143.96 221.69 144.37 223.99 144.78 226.29 145.19 228.59 145.6 230.89 146.01 233.17 146.42 235.45 146.83 237.72 147.24 239.97 147.65 242.21 148.06 244.43 148.47 246.63 148.88 248.82 149.29 250.98 149.69 253.11 150.1 255.22 150.51 257.29 150.92 259.34 151.33 261.36 151.74 263.33 152.15 265.27 152.56 267.18 152.97 269.04 153.38 270.87 153.79 272.64 154.2 274.37 154.61 276.05 155.02 277.69 155.43 279.28 155.83 280.81 156.24 282.3 156.65 283.73 157.06 285.12 157.47 286.46 157.88 287.73 158.29 288.96 158.7 290.14 159.11 291.28 159.52 292.36 159.93 293.39 160.34 294.38 160.75 295.33 161.16 296.25 161.56 297.12 161.97 297.95 162.38 298.75 162.79 299.53 163.2 300.28 163.61 301 164.02 301.7 164.43 302.38 164.84 303.05 165.25 303.71 165.66 304.36 166.07 305.01 166.48 305.65 166.89 306.28 167.3 306.92 167.7 307.56 168.11 308.2 168.52 308.84 168.93 309.48 169.34 310.14 169.75 310.79 170.16 311.45 170.57 312.11 170.98 312.78 171.39 313.44 171.8 314.11 172.21 314.78 172.62 315.44 173.03 316.1 173.44 316.75 173.84 317.39 174.25 318.02 174.66 318.65 175.07 319.25 175.48 319.84 175.89 320.42 176.3 320.97 176.71 321.51 177.12 322.02 177.53 322.51 177.94 322.98 178.35 323.42 178.76 323.84 179.17 324.24 179.58 324.61 179.98 324.95 180.39 325.27 180.8 325.57 181.21 325.85 181.62 326.1 182.03 326.33 182.44 326.53 182.85 326.72 183.26 326.89 183.67 327.04 184.08 327.17 184.49 327.28 184.9 327.38 185.31 327.47 185.72 327.54 186.12 327.59 186.53 327.63 186.94 327.66 187.35 327.68 187.76 327.69 188.17 327.69 188.58 327.67 188.99 327.65 189.4 327.62 189.81 327.58 190.22 327.53 190.63 327.47 191.04 327.41 191.45 327.33 191.86 327.25 192.26 327.17 192.67 327.07 193.08 326.97 193.49 326.87 193.9 326.76 194.31 326.65 194.72 326.53 195.13 326.41 195.54 326.29 195.95 326.17 196.36 326.04 196.77 325.92 197.18 325.8 197.59 325.69 197.99 325.58 198.4 325.47 198.81 325.37 199.22 325.27 199.63 325.19 200.04 325.11 200.45 325.05 200.86 324.99 201.27 324.95 201.68 324.91 202.09 324.89 202.5 324.88 202.91 324.89 203.32 324.9 203.73 324.93 204.13 324.97 204.54 325.02 204.95 325.08 205.36 325.15 205.77 325.23 206.18 325.32 206.59 325.42 207 325.52 207.41 325.63 207.82 325.75 208.23 325.87 208.64 325.99 209.05 326.11 209.46 326.23 209.87 326.36 210.27 326.48 210.68 326.6 211.09 326.72 211.5 326.83 211.91 326.94 212.32 327.05 212.73 327.15 213.14 327.25 213.55 327.34 213.96 327.43 214.37 327.51 214.78 327.59 215.19 327.66 215.6 327.72 216.01 327.78 216.41 327.84 216.82 327.89 217.23 327.93 217.64 327.97 218.05 328.01 218.46 328.04 218.87 328.07 219.28 328.1 219.69 328.12 220.1 328.14 220.51 328.16 220.92 328.17 221.33 328.19 221.74 328.2 222.15 328.21 222.55 328.22 222.96 328.23 223.37 328.23 223.78 328.24 224.19 328.24 224.6 328.24 225.01 328.25 225.42 328.25 225.83 328.25 226.24 328.25 226.65 328.26 227.06 328.26 227.47 328.26 227.88 328.26 228.29 328.26 228.69 328.26 229.1 328.26 229.51 328.26 229.92 328.26 230.33 328.26 230.74 328.26 231.15 328.26 231.56 328.26 231.97 328.26 232.38 328.26 232.79 328.26 233.2 328.26 233.61 328.26 234.02 328.26 234.42 328.26 234.83 328.26 235.24 328.26 235.65 328.26 236.06 328.26" clip-path="url(#cpMTYuNDR8MjQ2LjUyfDM0Mi40OXwyOS41Nw==)" style="stroke-width:1.07;stroke:#00bfc4"/><defs><clipPath id="cpMC4wMHw1MDQuMDB8Mzc4LjAwfDAuMDA="><rect width="504" height="378" x="0" y="0"/></clipPath></defs><polyline points="26.9 345.23 26.9 342.49" clip-path="url(#cpMC4wMHw1MDQuMDB8Mzc4LjAwfDAuMDA=)" style="stroke-width:1.07;stroke:#333;stroke-linecap:butt"/><polyline points="68.73 345.23 68.73 342.49" clip-path="url(#cpMC4wMHw1MDQuMDB8Mzc4LjAwfDAuMDA=)" style="stroke-width:1.07;stroke:#333;stroke-linecap:butt"/><polyline points="110.56 345.23 110.56 342.49" clip-path="url(#cpMC4wMHw1MDQuMDB8Mzc4LjAwfDAuMDA=)" style="stroke-width:1.07;stroke:#333;stroke-linecap:butt"/><polyline points="152.4 345.23 152.4 342.49" clip-path="url(#cpMC4wMHw1MDQuMDB8Mzc4LjAwfDAuMDA=)" style="stroke-width:1.07;stroke:#333;stroke-linecap:butt"/><polyline points="194.23 345.23 194.23 342.49" clip-path="url(#cpMC4wMHw1MDQuMDB8Mzc4LjAwfDAuMDA=)" style="stroke-width:1.07;stroke:#333;stroke-linecap:butt"/><polyline points="236.06 345.23 236.06 342.49" clip-path="url(#cpMC4wMHw1MDQuMDB8Mzc4LjAwfDAuMDA=)" style="stroke-width:1.07;stroke:#333;stroke-linecap:butt"/><g clip-path="url(#cpMC4wMHw1MDQuMDB8Mzc4LjAwfDAuMDA=)"><text x="21.34" y="353.14" lengthAdjust="spacingAndGlyphs" textLength="11.12" style="font-size:8px;fill:#4d4d4d;font-family:Arial">1.5</text></g><g clip-path="url(#cpMC4wMHw1MDQuMDB8Mzc4LjAwfDAuMDA=)"><text x="63.17" y="353.14" lengthAdjust="spacingAndGlyphs" textLength="11.12" style="font-size:8px;fill:#4d4d4d;font-family:Arial">2.0</text></g><g clip-path="url(#cpMC4wMHw1MDQuMDB8Mzc4LjAwfDAuMDA=)"><text x="105" y="353.14" lengthAdjust="spacingAndGlyphs" textLength="11.12" style="font-size:8px;fill:#4d4d4d;font-family:Arial">2.5</text></g><g clip-path="url(#cpMC4wMHw1MDQuMDB8Mzc4LjAwfDAuMDA=)"><text x="146.84" y="353.14" lengthAdjust="spacingAndGlyphs" textLength="11.12" style="font-size:8px;fill:#4d4d4d;font-family:Arial">3.0</text></g><g clip-path="url(#cpMC4wMHw1MDQuMDB8Mzc4LjAwfDAuMDA=)"><text x="188.67" y="353.14" lengthAdjust="spacingAndGlyphs" textLength="11.12" style="font-size:8px;fill:#4d4d4d;font-family:Arial">3.5</text></g><g clip-path="url(#cpMC4wMHw1MDQuMDB8Mzc4LjAwfDAuMDA=)"><text x="230.5" y="353.14" lengthAdjust="spacingAndGlyphs" textLength="11.12" style="font-size:8px;fill:#4d4d4d;font-family:Arial">4.0</text></g><rect width="53" height="37.46" x="185.51" y="89.07" clip-path="url(#cpMC4wMHw1MDQuMDB8Mzc4LjAwfDAuMDA=)" style="stroke-width:1.07;stroke:none"/><g clip-path="url(#cpMC4wMHw1MDQuMDB8Mzc4LjAwfDAuMDA=)"><text x="190.99" y="101.17" lengthAdjust="spacingAndGlyphs" textLength="21.79" style="font-size:8px;fill:#4d4d4d;font-family:Arial">Model</text></g><rect width="5.67" height="7.5" x="190.99" y="106.04" clip-path="url(#cpMC4wMHw1MDQuMDB8Mzc4LjAwfDAuMDA=)" style="stroke-width:1.07;stroke:none"/><rect width="4.25" height="6.09" x="191.7" y="106.75" clip-path="url(#cpMC4wMHw1MDQuMDB8Mzc4LjAwfDAuMDA=)" style="stroke-width:1.07;stroke:#f8766d;stroke-linecap:square;stroke-linejoin:miter;fill:#f50;fill-opacity:.25"/><rect width="5.67" height="7.5" x="190.99" y="113.54" clip-path="url(#cpMC4wMHw1MDQuMDB8Mzc4LjAwfDAuMDA=)" style="stroke-width:1.07;stroke:none"/><rect width="4.25" height="6.09" x="191.7" y="114.25" clip-path="url(#cpMC4wMHw1MDQuMDB8Mzc4LjAwfDAuMDA=)" style="stroke-width:1.07;stroke:#00bfc4;stroke-linecap:square;stroke-linejoin:miter;fill:#0af;fill-opacity:.25"/><g clip-path="url(#cpMC4wMHw1MDQuMDB8Mzc4LjAwfDAuMDA=)"><text x="200.64" y="112.66" lengthAdjust="spacingAndGlyphs" textLength="21.34" style="font-size:8px;fill:#4d4d4d;font-family:Arial">Mixed</text></g><g clip-path="url(#cpMC4wMHw1MDQuMDB8Mzc4LjAwfDAuMDA=)"><text x="200.64" y="120.16" lengthAdjust="spacingAndGlyphs" textLength="32.47" style="font-size:8px;fill:#4d4d4d;font-family:Arial">Separate</text></g><g clip-path="url(#cpMC4wMHw1MDQuMDB8Mzc4LjAwfDAuMDA=)"><text x="16.44" y="21.14" lengthAdjust="spacingAndGlyphs" textLength="63.23" style="font-size:14.4px;fill:#4d4d4d;font-family:Arial">Intercepts</text></g><defs><clipPath id="cpMjUyLjAwfDQ5OC41MnwzNzIuNTJ8NS40OA=="><rect width="246.52" height="367.04" x="252" y="5.48"/></clipPath></defs><rect width="246.52" height="367.04" x="252" y="5.48" clip-path="url(#cpMjUyLjAwfDQ5OC41MnwzNzIuNTJ8NS40OA==)" style="stroke-width:1.07;stroke:none"/><defs><clipPath id="cpMC4wMHw1MDQuMDB8Mzc4LjAwfDAuMDA="><rect width="504" height="378" x="0" y="0"/></clipPath></defs><defs><clipPath id="cpMjYyLjk2fDQ5My4wNHwzNDIuNDl8MjkuNTc="><rect width="230.08" height="312.92" x="262.96" y="29.57"/></clipPath></defs><polygon points="273.42 328.26 273.83 328.26 274.24 328.26 274.65 328.26 275.05 328.26 275.46 328.26 275.87 328.26 276.28 328.26 276.69 328.26 277.1 328.26 277.51 328.26 277.92 328.26 278.33 328.26 278.74 328.26 279.15 328.26 279.56 328.26 279.97 328.26 280.38 328.26 280.79 328.26 281.19 328.26 281.6 328.26 282.01 328.26 282.42 328.26 282.83 328.26 283.24 328.26 283.65 328.26 284.06 328.26 284.47 328.26 284.88 328.26 285.29 328.26 285.7 328.26 286.11 328.26 286.52 328.26 286.92 328.26 287.33 328.26 287.74 328.26 288.15 328.26 288.56 328.26 288.97 328.26 289.38 328.26 289.79 328.26 290.2 328.26 290.61 328.26 291.02 328.26 291.43 328.26 291.84 328.26 292.25 328.26 292.66 328.26 293.06 328.26 293.47 328.26 293.88 328.26 294.29 328.26 294.7 328.26 295.11 328.26 295.52 328.26 295.93 328.26 296.34 328.26 296.75 328.26 297.16 328.26 297.57 328.26 297.98 328.26 298.39 328.26 298.8 328.26 299.2 328.26 299.61 328.26 300.02 328.26 300.43 328.26 300.84 328.26 301.25 328.26 301.66 328.26 302.07 328.26 302.48 328.26 302.89 328.26 303.3 328.26 303.71 328.26 304.12 328.26 304.53 328.26 304.94 328.26 305.34 328.26 305.75 328.26 306.16 328.26 306.57 328.26 306.98 328.26 307.39 328.26 307.8 328.26 308.21 328.26 308.62 328.26 309.03 328.26 309.44 328.26 309.85 328.26 310.26 328.26 310.67 328.26 311.08 328.26 311.48 328.26 311.89 328.26 312.3 328.26 312.71 328.26 313.12 328.26 313.53 328.26 313.94 328.26 314.35 328.26 314.76 328.26 315.17 328.26 315.58 328.25 315.99 328.25 316.4 328.25 316.81 328.24 317.22 328.24 317.62 328.23 318.03 328.22 318.44 328.21 318.85 328.2 319.26 328.19 319.67 328.17 320.08 328.15 320.49 328.12 320.9 328.09 321.31 328.05 321.72 328 322.13 327.95 322.54 327.88 322.95 327.81 323.35 327.72 323.76 327.62 324.17 327.49 324.58 327.35 324.99 327.19 325.4 327.01 325.81 326.8 326.22 326.57 326.63 326.29 327.04 325.99 327.45 325.65 327.86 325.27 328.27 324.85 328.68 324.38 329.09 323.85 329.49 323.28 329.9 322.66 330.31 321.99 330.72 321.24 331.13 320.43 331.54 319.56 331.95 318.63 332.36 317.63 332.77 316.56 333.18 315.41 333.59 314.19 334 312.91 334.41 311.56 334.82 310.13 335.23 308.62 335.63 307.04 336.04 305.4 336.45 303.68 336.86 301.9 337.27 300.04 337.68 298.11 338.09 296.12 338.5 294.07 338.91 291.96 339.32 289.78 339.73 287.54 340.14 285.25 340.55 282.91 340.96 280.52 341.37 278.07 341.77 275.57 342.18 273.02 342.59 270.44 343 267.81 343.41 265.15 343.82 262.43 344.23 259.69 344.64 256.9 345.05 254.08 345.46 251.23 345.87 248.33 346.28 245.4 346.69 242.43 347.1 239.42 347.51 236.37 347.91 233.27 348.32 230.12 348.73 226.93 349.14 223.69 349.55 220.4 349.96 217.05 350.37 213.64 350.78 210.17 351.19 206.64 351.6 203.05 352.01 199.4 352.42 195.68 352.83 191.9 353.24 188.07 353.65 184.19 354.05 180.25 354.46 176.26 354.87 172.23 355.28 168.17 355.69 164.08 356.1 159.97 356.51 155.86 356.92 151.74 357.33 147.64 357.74 143.56 358.15 139.52 358.56 135.52 358.97 131.59 359.38 127.74 359.78 123.97 360.19 120.29 360.6 116.72 361.01 113.29 361.42 109.99 361.83 106.82 362.24 103.79 362.65 100.9 363.06 98.19 363.47 95.65 363.88 93.25 364.29 91 364.7 88.89 365.11 86.93 365.52 85.12 365.92 83.42 366.33 81.82 366.74 80.31 367.15 78.88 367.56 77.52 367.97 76.21 368.38 74.92 368.79 73.64 369.2 72.36 369.61 71.07 370.02 69.75 370.43 68.4 370.84 67.01 371.25 65.57 371.66 64.09 372.06 62.56 372.47 61 372.88 59.41 373.29 57.81 373.7 56.2 374.11 54.61 374.52 53.05 374.93 51.55 375.34 50.12 375.75 48.77 376.16 47.56 376.57 46.49 376.98 45.57 377.39 44.82 377.8 44.25 378.2 43.9 378.61 43.79 379.02 43.9 379.43 44.23 379.84 44.78 380.25 45.56 380.66 46.62 381.07 47.87 381.48 49.33 381.89 50.98 382.3 52.8 382.71 54.82 383.12 56.98 383.53 59.26 383.94 61.64 384.34 64.09 384.75 66.63 385.16 69.2 385.57 71.8 385.98 74.39 386.39 76.98 386.8 79.55 387.21 82.07 387.62 84.54 388.03 86.95 388.44 89.31 388.85 91.6 389.26 93.82 389.67 95.97 390.08 98.07 390.48 100.11 390.89 102.11 391.3 104.07 391.71 106 392.12 107.92 392.53 109.84 392.94 111.77 393.35 113.72 393.76 115.7 394.17 117.74 394.58 119.82 394.99 121.97 395.4 124.19 395.81 126.5 396.22 128.9 396.62 131.38 397.03 133.94 397.44 136.59 397.85 139.34 398.26 142.18 398.67 145.09 399.08 148.07 399.49 151.11 399.9 154.22 400.31 157.37 400.72 160.56 401.13 163.77 401.54 167 401.95 170.23 402.35 173.46 402.76 176.66 403.17 179.84 403.58 182.97 403.99 186.07 404.4 189.09 404.81 192.05 405.22 194.95 405.63 197.77 406.04 200.51 406.45 203.16 406.86 205.71 407.27 208.19 407.68 210.58 408.09 212.89 408.49 215.12 408.9 217.25 409.31 219.32 409.72 221.33 410.13 223.28 410.54 225.18 410.95 227.03 411.36 228.85 411.77 230.64 412.18 232.42 412.59 234.18 413 235.95 413.41 237.73 413.82 239.53 414.23 241.35 414.63 243.19 415.04 245.08 415.45 247 415.86 248.97 416.27 250.98 416.68 253.03 417.09 255.13 417.5 257.27 417.91 259.46 418.32 261.67 418.73 263.92 419.14 266.19 419.55 268.49 419.96 270.8 420.37 273.11 420.77 275.42 421.18 277.72 421.59 280 422 282.25 422.41 284.47 422.82 286.65 423.23 288.78 423.64 290.86 424.05 292.86 424.46 294.8 424.87 296.68 425.28 298.48 425.69 300.21 426.1 301.85 426.51 303.4 426.91 304.88 427.32 306.28 427.73 307.6 428.14 308.83 428.55 309.98 428.96 311.05 429.37 312.06 429.78 313.01 430.19 313.88 430.6 314.69 431.01 315.44 431.42 316.14 431.83 316.8 432.24 317.41 432.65 317.97 433.05 318.51 433.46 319.01 433.87 319.49 434.28 319.94 434.69 320.37 435.1 320.78 435.51 321.17 435.92 321.55 436.33 321.92 436.74 322.27 437.15 322.62 437.56 322.95 437.97 323.28 438.38 323.59 438.78 323.9 439.19 324.2 439.6 324.49 440.01 324.76 440.42 325.03 440.83 325.29 441.24 325.54 441.65 325.77 442.06 325.99 442.47 326.2 442.88 326.4 443.29 326.59 443.7 326.76 444.11 326.92 444.52 327.07 444.92 327.2 445.33 327.33 445.74 327.44 446.15 327.54 446.56 327.64 446.97 327.72 447.38 327.79 447.79 327.86 448.2 327.92 448.61 327.97 449.02 328.01 449.43 328.05 449.84 328.08 450.25 328.11 450.66 328.14 451.06 328.16 451.47 328.18 451.88 328.19 452.29 328.2 452.7 328.21 453.11 328.22 453.52 328.23 453.93 328.24 454.34 328.24 454.75 328.25 455.16 328.25 455.57 328.25 455.98 328.25 456.39 328.26 456.8 328.26 457.2 328.26 457.61 328.26 458.02 328.26 458.43 328.26 458.84 328.26 459.25 328.26 459.66 328.26 460.07 328.26 460.48 328.26 460.89 328.26 461.3 328.26 461.71 328.26 462.12 328.26 462.53 328.26 462.94 328.26 463.34 328.26 463.75 328.26 464.16 328.26 464.57 328.26 464.98 328.26 465.39 328.26 465.8 328.26 466.21 328.26 466.62 328.26 467.03 328.26 467.44 328.26 467.85 328.26 468.26 328.26 468.67 328.26 469.08 328.26 469.48 328.26 469.89 328.26 470.3 328.26 470.71 328.26 471.12 328.26 471.53 328.26 471.94 328.26 472.35 328.26 472.76 328.26 473.17 328.26 473.58 328.26 473.99 328.26 474.4 328.26 474.81 328.26 475.21 328.26 475.62 328.26 476.03 328.26 476.44 328.26 476.85 328.26 477.26 328.26 477.67 328.26 478.08 328.26 478.49 328.26 478.9 328.26 479.31 328.26 479.72 328.26 480.13 328.26 480.54 328.26 480.95 328.26 481.35 328.26 481.76 328.26 482.17 328.26 482.58 328.26 482.58 328.26 482.17 328.26 481.76 328.26 481.35 328.26 480.95 328.26 480.54 328.26 480.13 328.26 479.72 328.26 479.31 328.26 478.9 328.26 478.49 328.26 478.08 328.26 477.67 328.26 477.26 328.26 476.85 328.26 476.44 328.26 476.03 328.26 475.62 328.26 475.21 328.26 474.81 328.26 474.4 328.26 473.99 328.26 473.58 328.26 473.17 328.26 472.76 328.26 472.35 328.26 471.94 328.26 471.53 328.26 471.12 328.26 470.71 328.26 470.3 328.26 469.89 328.26 469.48 328.26 469.08 328.26 468.67 328.26 468.26 328.26 467.85 328.26 467.44 328.26 467.03 328.26 466.62 328.26 466.21 328.26 465.8 328.26 465.39 328.26 464.98 328.26 464.57 328.26 464.16 328.26 463.75 328.26 463.34 328.26 462.94 328.26 462.53 328.26 462.12 328.26 461.71 328.26 461.3 328.26 460.89 328.26 460.48 328.26 460.07 328.26 459.66 328.26 459.25 328.26 458.84 328.26 458.43 328.26 458.02 328.26 457.61 328.26 457.2 328.26 456.8 328.26 456.39 328.26 455.98 328.26 455.57 328.26 455.16 328.26 454.75 328.26 454.34 328.26 453.93 328.26 453.52 328.26 453.11 328.26 452.7 328.26 452.29 328.26 451.88 328.26 451.47 328.26 451.06 328.26 450.66 328.26 450.25 328.26 449.84 328.26 449.43 328.26 449.02 328.26 448.61 328.26 448.2 328.26 447.79 328.26 447.38 328.26 446.97 328.26 446.56 328.26 446.15 328.26 445.74 328.26 445.33 328.26 444.92 328.26 444.52 328.26 444.11 328.26 443.7 328.26 443.29 328.26 442.88 328.26 442.47 328.26 442.06 328.26 441.65 328.26 441.24 328.26 440.83 328.26 440.42 328.26 440.01 328.26 439.6 328.26 439.19 328.26 438.78 328.26 438.38 328.26 437.97 328.26 437.56 328.26 437.15 328.26 436.74 328.26 436.33 328.26 435.92 328.26 435.51 328.26 435.1 328.26 434.69 328.26 434.28 328.26 433.87 328.26 433.46 328.26 433.05 328.26 432.65 328.26 432.24 328.26 431.83 328.26 431.42 328.26 431.01 328.26 430.6 328.26 430.19 328.26 429.78 328.26 429.37 328.26 428.96 328.26 428.55 328.26 428.14 328.26 427.73 328.26 427.32 328.26 426.91 328.26 426.51 328.26 426.1 328.26 425.69 328.26 425.28 328.26 424.87 328.26 424.46 328.26 424.05 328.26 423.64 328.26 423.23 328.26 422.82 328.26 422.41 328.26 422 328.26 421.59 328.26 421.18 328.26 420.77 328.26 420.37 328.26 419.96 328.26 419.55 328.26 419.14 328.26 418.73 328.26 418.32 328.26 417.91 328.26 417.5 328.26 417.09 328.26 416.68 328.26 416.27 328.26 415.86 328.26 415.45 328.26 415.04 328.26 414.63 328.26 414.23 328.26 413.82 328.26 413.41 328.26 413 328.26 412.59 328.26 412.18 328.26 411.77 328.26 411.36 328.26 410.95 328.26 410.54 328.26 410.13 328.26 409.72 328.26 409.31 328.26 408.9 328.26 408.49 328.26 408.09 328.26 407.68 328.26 407.27 328.26 406.86 328.26 406.45 328.26 406.04 328.26 405.63 328.26 405.22 328.26 404.81 328.26 404.4 328.26 403.99 328.26 403.58 328.26 403.17 328.26 402.76 328.26 402.35 328.26 401.95 328.26 401.54 328.26 401.13 328.26 400.72 328.26 400.31 328.26 399.9 328.26 399.49 328.26 399.08 328.26 398.67 328.26 398.26 328.26 397.85 328.26 397.44 328.26 397.03 328.26 396.62 328.26 396.22 328.26 395.81 328.26 395.4 328.26 394.99 328.26 394.58 328.26 394.17 328.26 393.76 328.26 393.35 328.26 392.94 328.26 392.53 328.26 392.12 328.26 391.71 328.26 391.3 328.26 390.89 328.26 390.48 328.26 390.08 328.26 389.67 328.26 389.26 328.26 388.85 328.26 388.44 328.26 388.03 328.26 387.62 328.26 387.21 328.26 386.8 328.26 386.39 328.26 385.98 328.26 385.57 328.26 385.16 328.26 384.75 328.26 384.34 328.26 383.94 328.26 383.53 328.26 383.12 328.26 382.71 328.26 382.3 328.26 381.89 328.26 381.48 328.26 381.07 328.26 380.66 328.26 380.25 328.26 379.84 328.26 379.43 328.26 379.02 328.26 378.61 328.26 378.2 328.26 377.8 328.26 377.39 328.26 376.98 328.26 376.57 328.26 376.16 328.26 375.75 328.26 375.34 328.26 374.93 328.26 374.52 328.26 374.11 328.26 373.7 328.26 373.29 328.26 372.88 328.26 372.47 328.26 372.06 328.26 371.66 328.26 371.25 328.26 370.84 328.26 370.43 328.26 370.02 328.26 369.61 328.26 369.2 328.26 368.79 328.26 368.38 328.26 367.97 328.26 367.56 328.26 367.15 328.26 366.74 328.26 366.33 328.26 365.92 328.26 365.52 328.26 365.11 328.26 364.7 328.26 364.29 328.26 363.88 328.26 363.47 328.26 363.06 328.26 362.65 328.26 362.24 328.26 361.83 328.26 361.42 328.26 361.01 328.26 360.6 328.26 360.19 328.26 359.78 328.26 359.38 328.26 358.97 328.26 358.56 328.26 358.15 328.26 357.74 328.26 357.33 328.26 356.92 328.26 356.51 328.26 356.1 328.26 355.69 328.26 355.28 328.26 354.87 328.26 354.46 328.26 354.05 328.26 353.65 328.26 353.24 328.26 352.83 328.26 352.42 328.26 352.01 328.26 351.6 328.26 351.19 328.26 350.78 328.26 350.37 328.26 349.96 328.26 349.55 328.26 349.14 328.26 348.73 328.26 348.32 328.26 347.91 328.26 347.51 328.26 347.1 328.26 346.69 328.26 346.28 328.26 345.87 328.26 345.46 328.26 345.05 328.26 344.64 328.26 344.23 328.26 343.82 328.26 343.41 328.26 343 328.26 342.59 328.26 342.18 328.26 341.77 328.26 341.37 328.26 340.96 328.26 340.55 328.26 340.14 328.26 339.73 328.26 339.32 328.26 338.91 328.26 338.5 328.26 338.09 328.26 337.68 328.26 337.27 328.26 336.86 328.26 336.45 328.26 336.04 328.26 335.63 328.26 335.23 328.26 334.82 328.26 334.41 328.26 334 328.26 333.59 328.26 333.18 328.26 332.77 328.26 332.36 328.26 331.95 328.26 331.54 328.26 331.13 328.26 330.72 328.26 330.31 328.26 329.9 328.26 329.49 328.26 329.09 328.26 328.68 328.26 328.27 328.26 327.86 328.26 327.45 328.26 327.04 328.26 326.63 328.26 326.22 328.26 325.81 328.26 325.4 328.26 324.99 328.26 324.58 328.26 324.17 328.26 323.76 328.26 323.35 328.26 322.95 328.26 322.54 328.26 322.13 328.26 321.72 328.26 321.31 328.26 320.9 328.26 320.49 328.26 320.08 328.26 319.67 328.26 319.26 328.26 318.85 328.26 318.44 328.26 318.03 328.26 317.62 328.26 317.22 328.26 316.81 328.26 316.4 328.26 315.99 328.26 315.58 328.26 315.17 328.26 314.76 328.26 314.35 328.26 313.94 328.26 313.53 328.26 313.12 328.26 312.71 328.26 312.3 328.26 311.89 328.26 311.48 328.26 311.08 328.26 310.67 328.26 310.26 328.26 309.85 328.26 309.44 328.26 309.03 328.26 308.62 328.26 308.21 328.26 307.8 328.26 307.39 328.26 306.98 328.26 306.57 328.26 306.16 328.26 305.75 328.26 305.34 328.26 304.94 328.26 304.53 328.26 304.12 328.26 303.71 328.26 303.3 328.26 302.89 328.26 302.48 328.26 302.07 328.26 301.66 328.26 301.25 328.26 300.84 328.26 300.43 328.26 300.02 328.26 299.61 328.26 299.2 328.26 298.8 328.26 298.39 328.26 297.98 328.26 297.57 328.26 297.16 328.26 296.75 328.26 296.34 328.26 295.93 328.26 295.52 328.26 295.11 328.26 294.7 328.26 294.29 328.26 293.88 328.26 293.47 328.26 293.06 328.26 292.66 328.26 292.25 328.26 291.84 328.26 291.43 328.26 291.02 328.26 290.61 328.26 290.2 328.26 289.79 328.26 289.38 328.26 288.97 328.26 288.56 328.26 288.15 328.26 287.74 328.26 287.33 328.26 286.92 328.26 286.52 328.26 286.11 328.26 285.7 328.26 285.29 328.26 284.88 328.26 284.47 328.26 284.06 328.26 283.65 328.26 283.24 328.26 282.83 328.26 282.42 328.26 282.01 328.26 281.6 328.26 281.19 328.26 280.79 328.26 280.38 328.26 279.97 328.26 279.56 328.26 279.15 328.26 278.74 328.26 278.33 328.26 277.92 328.26 277.51 328.26 277.1 328.26 276.69 328.26 276.28 328.26 275.87 328.26 275.46 328.26 275.05 328.26 274.65 328.26 274.24 328.26 273.83 328.26 273.42 328.26" clip-path="url(#cpMjYyLjk2fDQ5My4wNHwzNDIuNDl8MjkuNTc=)" style="stroke-width:0;stroke:none;fill:#f50;fill-opacity:.25"/><polyline points="273.42 328.26 273.83 328.26 274.24 328.26 274.65 328.26 275.05 328.26 275.46 328.26 275.87 328.26 276.28 328.26 276.69 328.26 277.1 328.26 277.51 328.26 277.92 328.26 278.33 328.26 278.74 328.26 279.15 328.26 279.56 328.26 279.97 328.26 280.38 328.26 280.79 328.26 281.19 328.26 281.6 328.26 282.01 328.26 282.42 328.26 282.83 328.26 283.24 328.26 283.65 328.26 284.06 328.26 284.47 328.26 284.88 328.26 285.29 328.26 285.7 328.26 286.11 328.26 286.52 328.26 286.92 328.26 287.33 328.26 287.74 328.26 288.15 328.26 288.56 328.26 288.97 328.26 289.38 328.26 289.79 328.26 290.2 328.26 290.61 328.26 291.02 328.26 291.43 328.26 291.84 328.26 292.25 328.26 292.66 328.26 293.06 328.26 293.47 328.26 293.88 328.26 294.29 328.26 294.7 328.26 295.11 328.26 295.52 328.26 295.93 328.26 296.34 328.26 296.75 328.26 297.16 328.26 297.57 328.26 297.98 328.26 298.39 328.26 298.8 328.26 299.2 328.26 299.61 328.26 300.02 328.26 300.43 328.26 300.84 328.26 301.25 328.26 301.66 328.26 302.07 328.26 302.48 328.26 302.89 328.26 303.3 328.26 303.71 328.26 304.12 328.26 304.53 328.26 304.94 328.26 305.34 328.26 305.75 328.26 306.16 328.26 306.57 328.26 306.98 328.26 307.39 328.26 307.8 328.26 308.21 328.26 308.62 328.26 309.03 328.26 309.44 328.26 309.85 328.26 310.26 328.26 310.67 328.26 311.08 328.26 311.48 328.26 311.89 328.26 312.3 328.26 312.71 328.26 313.12 328.26 313.53 328.26 313.94 328.26 314.35 328.26 314.76 328.26 315.17 328.26 315.58 328.25 315.99 328.25 316.4 328.25 316.81 328.24 317.22 328.24 317.62 328.23 318.03 328.22 318.44 328.21 318.85 328.2 319.26 328.19 319.67 328.17 320.08 328.15 320.49 328.12 320.9 328.09 321.31 328.05 321.72 328 322.13 327.95 322.54 327.88 322.95 327.81 323.35 327.72 323.76 327.62 324.17 327.49 324.58 327.35 324.99 327.19 325.4 327.01 325.81 326.8 326.22 326.57 326.63 326.29 327.04 325.99 327.45 325.65 327.86 325.27 328.27 324.85 328.68 324.38 329.09 323.85 329.49 323.28 329.9 322.66 330.31 321.99 330.72 321.24 331.13 320.43 331.54 319.56 331.95 318.63 332.36 317.63 332.77 316.56 333.18 315.41 333.59 314.19 334 312.91 334.41 311.56 334.82 310.13 335.23 308.62 335.63 307.04 336.04 305.4 336.45 303.68 336.86 301.9 337.27 300.04 337.68 298.11 338.09 296.12 338.5 294.07 338.91 291.96 339.32 289.78 339.73 287.54 340.14 285.25 340.55 282.91 340.96 280.52 341.37 278.07 341.77 275.57 342.18 273.02 342.59 270.44 343 267.81 343.41 265.15 343.82 262.43 344.23 259.69 344.64 256.9 345.05 254.08 345.46 251.23 345.87 248.33 346.28 245.4 346.69 242.43 347.1 239.42 347.51 236.37 347.91 233.27 348.32 230.12 348.73 226.93 349.14 223.69 349.55 220.4 349.96 217.05 350.37 213.64 350.78 210.17 351.19 206.64 351.6 203.05 352.01 199.4 352.42 195.68 352.83 191.9 353.24 188.07 353.65 184.19 354.05 180.25 354.46 176.26 354.87 172.23 355.28 168.17 355.69 164.08 356.1 159.97 356.51 155.86 356.92 151.74 357.33 147.64 357.74 143.56 358.15 139.52 358.56 135.52 358.97 131.59 359.38 127.74 359.78 123.97 360.19 120.29 360.6 116.72 361.01 113.29 361.42 109.99 361.83 106.82 362.24 103.79 362.65 100.9 363.06 98.19 363.47 95.65 363.88 93.25 364.29 91 364.7 88.89 365.11 86.93 365.52 85.12 365.92 83.42 366.33 81.82 366.74 80.31 367.15 78.88 367.56 77.52 367.97 76.21 368.38 74.92 368.79 73.64 369.2 72.36 369.61 71.07 370.02 69.75 370.43 68.4 370.84 67.01 371.25 65.57 371.66 64.09 372.06 62.56 372.47 61 372.88 59.41 373.29 57.81 373.7 56.2 374.11 54.61 374.52 53.05 374.93 51.55 375.34 50.12 375.75 48.77 376.16 47.56 376.57 46.49 376.98 45.57 377.39 44.82 377.8 44.25 378.2 43.9 378.61 43.79 379.02 43.9 379.43 44.23 379.84 44.78 380.25 45.56 380.66 46.62 381.07 47.87 381.48 49.33 381.89 50.98 382.3 52.8 382.71 54.82 383.12 56.98 383.53 59.26 383.94 61.64 384.34 64.09 384.75 66.63 385.16 69.2 385.57 71.8 385.98 74.39 386.39 76.98 386.8 79.55 387.21 82.07 387.62 84.54 388.03 86.95 388.44 89.31 388.85 91.6 389.26 93.82 389.67 95.97 390.08 98.07 390.48 100.11 390.89 102.11 391.3 104.07 391.71 106 392.12 107.92 392.53 109.84 392.94 111.77 393.35 113.72 393.76 115.7 394.17 117.74 394.58 119.82 394.99 121.97 395.4 124.19 395.81 126.5 396.22 128.9 396.62 131.38 397.03 133.94 397.44 136.59 397.85 139.34 398.26 142.18 398.67 145.09 399.08 148.07 399.49 151.11 399.9 154.22 400.31 157.37 400.72 160.56 401.13 163.77 401.54 167 401.95 170.23 402.35 173.46 402.76 176.66 403.17 179.84 403.58 182.97 403.99 186.07 404.4 189.09 404.81 192.05 405.22 194.95 405.63 197.77 406.04 200.51 406.45 203.16 406.86 205.71 407.27 208.19 407.68 210.58 408.09 212.89 408.49 215.12 408.9 217.25 409.31 219.32 409.72 221.33 410.13 223.28 410.54 225.18 410.95 227.03 411.36 228.85 411.77 230.64 412.18 232.42 412.59 234.18 413 235.95 413.41 237.73 413.82 239.53 414.23 241.35 414.63 243.19 415.04 245.08 415.45 247 415.86 248.97 416.27 250.98 416.68 253.03 417.09 255.13 417.5 257.27 417.91 259.46 418.32 261.67 418.73 263.92 419.14 266.19 419.55 268.49 419.96 270.8 420.37 273.11 420.77 275.42 421.18 277.72 421.59 280 422 282.25 422.41 284.47 422.82 286.65 423.23 288.78 423.64 290.86 424.05 292.86 424.46 294.8 424.87 296.68 425.28 298.48 425.69 300.21 426.1 301.85 426.51 303.4 426.91 304.88 427.32 306.28 427.73 307.6 428.14 308.83 428.55 309.98 428.96 311.05 429.37 312.06 429.78 313.01 430.19 313.88 430.6 314.69 431.01 315.44 431.42 316.14 431.83 316.8 432.24 317.41 432.65 317.97 433.05 318.51 433.46 319.01 433.87 319.49 434.28 319.94 434.69 320.37 435.1 320.78 435.51 321.17 435.92 321.55 436.33 321.92 436.74 322.27 437.15 322.62 437.56 322.95 437.97 323.28 438.38 323.59 438.78 323.9 439.19 324.2 439.6 324.49 440.01 324.76 440.42 325.03 440.83 325.29 441.24 325.54 441.65 325.77 442.06 325.99 442.47 326.2 442.88 326.4 443.29 326.59 443.7 326.76 444.11 326.92 444.52 327.07 444.92 327.2 445.33 327.33 445.74 327.44 446.15 327.54 446.56 327.64 446.97 327.72 447.38 327.79 447.79 327.86 448.2 327.92 448.61 327.97 449.02 328.01 449.43 328.05 449.84 328.08 450.25 328.11 450.66 328.14 451.06 328.16 451.47 328.18 451.88 328.19 452.29 328.2 452.7 328.21 453.11 328.22 453.52 328.23 453.93 328.24 454.34 328.24 454.75 328.25 455.16 328.25 455.57 328.25 455.98 328.25 456.39 328.26 456.8 328.26 457.2 328.26 457.61 328.26 458.02 328.26 458.43 328.26 458.84 328.26 459.25 328.26 459.66 328.26 460.07 328.26 460.48 328.26 460.89 328.26 461.3 328.26 461.71 328.26 462.12 328.26 462.53 328.26 462.94 328.26 463.34 328.26 463.75 328.26 464.16 328.26 464.57 328.26 464.98 328.26 465.39 328.26 465.8 328.26 466.21 328.26 466.62 328.26 467.03 328.26 467.44 328.26 467.85 328.26 468.26 328.26 468.67 328.26 469.08 328.26 469.48 328.26 469.89 328.26 470.3 328.26 470.71 328.26 471.12 328.26 471.53 328.26 471.94 328.26 472.35 328.26 472.76 328.26 473.17 328.26 473.58 328.26 473.99 328.26 474.4 328.26 474.81 328.26 475.21 328.26 475.62 328.26 476.03 328.26 476.44 328.26 476.85 328.26 477.26 328.26 477.67 328.26 478.08 328.26 478.49 328.26 478.9 328.26 479.31 328.26 479.72 328.26 480.13 328.26 480.54 328.26 480.95 328.26 481.35 328.26 481.76 328.26 482.17 328.26 482.58 328.26" clip-path="url(#cpMjYyLjk2fDQ5My4wNHwzNDIuNDl8MjkuNTc=)" style="stroke-width:1.07;stroke:#f8766d"/><polygon points="273.42 328.26 273.83 328.26 274.24 328.26 274.65 328.26 275.05 328.26 275.46 328.26 275.87 328.26 276.28 328.26 276.69 328.26 277.1 328.26 277.51 328.26 277.92 328.26 278.33 328.26 278.74 328.26 279.15 328.26 279.56 328.26 279.97 328.26 280.38 328.26 280.79 328.26 281.19 328.26 281.6 328.26 282.01 328.26 282.42 328.26 282.83 328.26 283.24 328.26 283.65 328.26 284.06 328.26 284.47 328.26 284.88 328.26 285.29 328.26 285.7 328.26 286.11 328.26 286.52 328.26 286.92 328.26 287.33 328.26 287.74 328.26 288.15 328.25 288.56 328.25 288.97 328.25 289.38 328.25 289.79 328.25 290.2 328.24 290.61 328.24 291.02 328.24 291.43 328.23 291.84 328.23 292.25 328.22 292.66 328.21 293.06 328.21 293.47 328.2 293.88 328.19 294.29 328.17 294.7 328.16 295.11 328.15 295.52 328.13 295.93 328.11 296.34 328.09 296.75 328.06 297.16 328.03 297.57 328 297.98 327.97 298.39 327.93 298.8 327.88 299.2 327.83 299.61 327.78 300.02 327.72 300.43 327.65 300.84 327.57 301.25 327.49 301.66 327.4 302.07 327.3 302.48 327.18 302.89 327.06 303.3 326.93 303.71 326.78 304.12 326.62 304.53 326.45 304.94 326.26 305.34 326.05 305.75 325.83 306.16 325.59 306.57 325.33 306.98 325.05 307.39 324.75 307.8 324.43 308.21 324.09 308.62 323.71 309.03 323.32 309.44 322.9 309.85 322.45 310.26 321.97 310.67 321.47 311.08 320.94 311.48 320.37 311.89 319.77 312.3 319.14 312.71 318.48 313.12 317.78 313.53 317.05 313.94 316.29 314.35 315.5 314.76 314.66 315.17 313.79 315.58 312.89 315.99 311.96 316.4 310.98 316.81 309.98 317.22 308.94 317.62 307.88 318.03 306.77 318.44 305.63 318.85 304.47 319.26 303.27 319.67 302.05 320.08 300.79 320.49 299.52 320.9 298.21 321.31 296.88 321.72 295.53 322.13 294.16 322.54 292.77 322.95 291.36 323.35 289.94 323.76 288.5 324.17 287.05 324.58 285.58 324.99 284.11 325.4 282.63 325.81 281.15 326.22 279.66 326.63 278.17 327.04 276.67 327.45 275.18 327.86 273.69 328.27 272.21 328.68 270.73 329.09 269.25 329.49 267.79 329.9 266.33 330.31 264.88 330.72 263.44 331.13 262.01 331.54 260.6 331.95 259.19 332.36 257.8 332.77 256.43 333.18 255.06 333.59 253.71 334 252.37 334.41 251.04 334.82 249.73 335.23 248.42 335.63 247.13 336.04 245.85 336.45 244.58 336.86 243.31 337.27 242.05 337.68 240.8 338.09 239.55 338.5 238.3 338.91 237.06 339.32 235.81 339.73 234.56 340.14 233.3 340.55 232.04 340.96 230.77 341.37 229.5 341.77 228.2 342.18 226.9 342.59 225.58 343 224.25 343.41 222.89 343.82 221.51 344.23 220.12 344.64 218.7 345.05 217.25 345.46 215.78 345.87 214.28 346.28 212.76 346.69 211.21 347.1 209.63 347.51 208.02 347.91 206.39 348.32 204.73 348.73 203.04 349.14 201.33 349.55 199.6 349.96 197.84 350.37 196.06 350.78 194.26 351.19 192.45 351.6 190.62 352.01 188.78 352.42 186.93 352.83 185.08 353.24 183.22 353.65 181.37 354.05 179.52 354.46 177.68 354.87 175.85 355.28 174.04 355.69 172.24 356.1 170.48 356.51 168.74 356.92 167.03 357.33 165.35 357.74 163.72 358.15 162.13 358.56 160.58 358.97 159.07 359.38 157.64 359.78 156.24 360.19 154.9 360.6 153.62 361.01 152.42 361.42 151.27 361.83 150.17 362.24 149.15 362.65 148.2 363.06 147.31 363.47 146.48 363.88 145.73 364.29 145.05 364.7 144.43 365.11 143.86 365.52 143.38 365.92 142.96 366.33 142.6 366.74 142.29 367.15 142.05 367.56 141.87 367.97 141.74 368.38 141.66 368.79 141.65 369.2 141.68 369.61 141.75 370.02 141.86 370.43 142.03 370.84 142.24 371.25 142.48 371.66 142.76 372.06 143.07 372.47 143.42 372.88 143.79 373.29 144.19 373.7 144.62 374.11 145.07 374.52 145.54 374.93 146.02 375.34 146.53 375.75 147.05 376.16 147.58 376.57 148.13 376.98 148.68 377.39 149.24 377.8 149.81 378.2 150.37 378.61 150.94 379.02 151.51 379.43 152.08 379.84 152.65 380.25 153.21 380.66 153.76 381.07 154.31 381.48 154.85 381.89 155.37 382.3 155.89 382.71 156.39 383.12 156.88 383.53 157.36 383.94 157.83 384.34 158.28 384.75 158.71 385.16 159.13 385.57 159.54 385.98 159.94 386.39 160.32 386.8 160.69 387.21 161.05 387.62 161.4 388.03 161.74 388.44 162.07 388.85 162.41 389.26 162.74 389.67 163.07 390.08 163.4 390.48 163.74 390.89 164.09 391.3 164.44 391.71 164.82 392.12 165.2 392.53 165.61 392.94 166.04 393.35 166.49 393.76 166.96 394.17 167.47 394.58 168.02 394.99 168.6 395.4 169.2 395.81 169.86 396.22 170.56 396.62 171.29 397.03 172.07 397.44 172.9 397.85 173.77 398.26 174.68 398.67 175.64 399.08 176.65 399.49 177.71 399.9 178.81 400.31 179.94 400.72 181.14 401.13 182.36 401.54 183.63 401.95 184.92 402.35 186.26 402.76 187.63 403.17 189.03 403.58 190.45 403.99 191.89 404.4 193.36 404.81 194.83 405.22 196.32 405.63 197.83 406.04 199.33 406.45 200.84 406.86 202.35 407.27 203.86 407.68 205.36 408.09 206.85 408.49 208.33 408.9 209.79 409.31 211.24 409.72 212.67 410.13 214.08 410.54 215.46 410.95 216.83 411.36 218.17 411.77 219.49 412.18 220.78 412.59 222.05 413 223.3 413.41 224.52 413.82 225.72 414.23 226.89 414.63 228.05 415.04 229.18 415.45 230.29 415.86 231.39 416.27 232.47 416.68 233.53 417.09 234.58 417.5 235.62 417.91 236.64 418.32 237.66 418.73 238.66 419.14 239.67 419.55 240.66 419.96 241.65 420.37 242.64 420.77 243.62 421.18 244.61 421.59 245.59 422 246.57 422.41 247.55 422.82 248.54 423.23 249.52 423.64 250.51 424.05 251.5 424.46 252.49 424.87 253.48 425.28 254.48 425.69 255.48 426.1 256.47 426.51 257.48 426.91 258.48 427.32 259.48 427.73 260.49 428.14 261.5 428.55 262.51 428.96 263.52 429.37 264.54 429.78 265.55 430.19 266.57 430.6 267.59 431.01 268.61 431.42 269.63 431.83 270.66 432.24 271.68 432.65 272.71 433.05 273.74 433.46 274.77 433.87 275.8 434.28 276.83 434.69 277.87 435.1 278.9 435.51 279.94 435.92 280.98 436.33 282.01 436.74 283.05 437.15 284.09 437.56 285.12 437.97 286.16 438.38 287.19 438.78 288.22 439.19 289.24 439.6 290.26 440.01 291.28 440.42 292.29 440.83 293.29 441.24 294.29 441.65 295.27 442.06 296.25 442.47 297.21 442.88 298.17 443.29 299.11 443.7 300.03 444.11 300.95 444.52 301.85 444.92 302.73 445.33 303.6 445.74 304.44 446.15 305.28 446.56 306.09 446.97 306.89 447.38 307.66 447.79 308.42 448.2 309.16 448.61 309.88 449.02 310.58 449.43 311.26 449.84 311.92 450.25 312.56 450.66 313.18 451.06 313.78 451.47 314.36 451.88 314.92 452.29 315.47 452.7 316 453.11 316.51 453.52 317 453.93 317.48 454.34 317.94 454.75 318.38 455.16 318.81 455.57 319.22 455.98 319.62 456.39 320.01 456.8 320.38 457.2 320.74 457.61 321.09 458.02 321.42 458.43 321.74 458.84 322.05 459.25 322.35 459.66 322.64 460.07 322.92 460.48 323.19 460.89 323.45 461.3 323.7 461.71 323.94 462.12 324.17 462.53 324.4 462.94 324.61 463.34 324.82 463.75 325.02 464.16 325.21 464.57 325.39 464.98 325.56 465.39 325.73 465.8 325.89 466.21 326.04 466.62 326.19 467.03 326.33 467.44 326.46 467.85 326.58 468.26 326.7 468.67 326.81 469.08 326.92 469.48 327.02 469.89 327.11 470.3 327.2 470.71 327.29 471.12 327.36 471.53 327.44 471.94 327.51 472.35 327.57 472.76 327.63 473.17 327.69 473.58 327.74 473.99 327.79 474.4 327.83 474.81 327.87 475.21 327.91 475.62 327.94 476.03 327.98 476.44 328 476.85 328.03 477.26 328.05 477.67 328.08 478.08 328.1 478.49 328.12 478.9 328.13 479.31 328.15 479.72 328.16 480.13 328.17 480.54 328.18 480.95 328.19 481.35 328.2 481.76 328.21 482.17 328.21 482.58 328.22 482.58 328.26 482.17 328.26 481.76 328.26 481.35 328.26 480.95 328.26 480.54 328.26 480.13 328.26 479.72 328.26 479.31 328.26 478.9 328.26 478.49 328.26 478.08 328.26 477.67 328.26 477.26 328.26 476.85 328.26 476.44 328.26 476.03 328.26 475.62 328.26 475.21 328.26 474.81 328.26 474.4 328.26 473.99 328.26 473.58 328.26 473.17 328.26 472.76 328.26 472.35 328.26 471.94 328.26 471.53 328.26 471.12 328.26 470.71 328.26 470.3 328.26 469.89 328.26 469.48 328.26 469.08 328.26 468.67 328.26 468.26 328.26 467.85 328.26 467.44 328.26 467.03 328.26 466.62 328.26 466.21 328.26 465.8 328.26 465.39 328.26 464.98 328.26 464.57 328.26 464.16 328.26 463.75 328.26 463.34 328.26 462.94 328.26 462.53 328.26 462.12 328.26 461.71 328.26 461.3 328.26 460.89 328.26 460.48 328.26 460.07 328.26 459.66 328.26 459.25 328.26 458.84 328.26 458.43 328.26 458.02 328.26 457.61 328.26 457.2 328.26 456.8 328.26 456.39 328.26 455.98 328.26 455.57 328.26 455.16 328.26 454.75 328.26 454.34 328.26 453.93 328.26 453.52 328.26 453.11 328.26 452.7 328.26 452.29 328.26 451.88 328.26 451.47 328.26 451.06 328.26 450.66 328.26 450.25 328.26 449.84 328.26 449.43 328.26 449.02 328.26 448.61 328.26 448.2 328.26 447.79 328.26 447.38 328.26 446.97 328.26 446.56 328.26 446.15 328.26 445.74 328.26 445.33 328.26 444.92 328.26 444.52 328.26 444.11 328.26 443.7 328.26 443.29 328.26 442.88 328.26 442.47 328.26 442.06 328.26 441.65 328.26 441.24 328.26 440.83 328.26 440.42 328.26 440.01 328.26 439.6 328.26 439.19 328.26 438.78 328.26 438.38 328.26 437.97 328.26 437.56 328.26 437.15 328.26 436.74 328.26 436.33 328.26 435.92 328.26 435.51 328.26 435.1 328.26 434.69 328.26 434.28 328.26 433.87 328.26 433.46 328.26 433.05 328.26 432.65 328.26 432.24 328.26 431.83 328.26 431.42 328.26 431.01 328.26 430.6 328.26 430.19 328.26 429.78 328.26 429.37 328.26 428.96 328.26 428.55 328.26 428.14 328.26 427.73 328.26 427.32 328.26 426.91 328.26 426.51 328.26 426.1 328.26 425.69 328.26 425.28 328.26 424.87 328.26 424.46 328.26 424.05 328.26 423.64 328.26 423.23 328.26 422.82 328.26 422.41 328.26 422 328.26 421.59 328.26 421.18 328.26 420.77 328.26 420.37 328.26 419.96 328.26 419.55 328.26 419.14 328.26 418.73 328.26 418.32 328.26 417.91 328.26 417.5 328.26 417.09 328.26 416.68 328.26 416.27 328.26 415.86 328.26 415.45 328.26 415.04 328.26 414.63 328.26 414.23 328.26 413.82 328.26 413.41 328.26 413 328.26 412.59 328.26 412.18 328.26 411.77 328.26 411.36 328.26 410.95 328.26 410.54 328.26 410.13 328.26 409.72 328.26 409.31 328.26 408.9 328.26 408.49 328.26 408.09 328.26 407.68 328.26 407.27 328.26 406.86 328.26 406.45 328.26 406.04 328.26 405.63 328.26 405.22 328.26 404.81 328.26 404.4 328.26 403.99 328.26 403.58 328.26 403.17 328.26 402.76 328.26 402.35 328.26 401.95 328.26 401.54 328.26 401.13 328.26 400.72 328.26 400.31 328.26 399.9 328.26 399.49 328.26 399.08 328.26 398.67 328.26 398.26 328.26 397.85 328.26 397.44 328.26 397.03 328.26 396.62 328.26 396.22 328.26 395.81 328.26 395.4 328.26 394.99 328.26 394.58 328.26 394.17 328.26 393.76 328.26 393.35 328.26 392.94 328.26 392.53 328.26 392.12 328.26 391.71 328.26 391.3 328.26 390.89 328.26 390.48 328.26 390.08 328.26 389.67 328.26 389.26 328.26 388.85 328.26 388.44 328.26 388.03 328.26 387.62 328.26 387.21 328.26 386.8 328.26 386.39 328.26 385.98 328.26 385.57 328.26 385.16 328.26 384.75 328.26 384.34 328.26 383.94 328.26 383.53 328.26 383.12 328.26 382.71 328.26 382.3 328.26 381.89 328.26 381.48 328.26 381.07 328.26 380.66 328.26 380.25 328.26 379.84 328.26 379.43 328.26 379.02 328.26 378.61 328.26 378.2 328.26 377.8 328.26 377.39 328.26 376.98 328.26 376.57 328.26 376.16 328.26 375.75 328.26 375.34 328.26 374.93 328.26 374.52 328.26 374.11 328.26 373.7 328.26 373.29 328.26 372.88 328.26 372.47 328.26 372.06 328.26 371.66 328.26 371.25 328.26 370.84 328.26 370.43 328.26 370.02 328.26 369.61 328.26 369.2 328.26 368.79 328.26 368.38 328.26 367.97 328.26 367.56 328.26 367.15 328.26 366.74 328.26 366.33 328.26 365.92 328.26 365.52 328.26 365.11 328.26 364.7 328.26 364.29 328.26 363.88 328.26 363.47 328.26 363.06 328.26 362.65 328.26 362.24 328.26 361.83 328.26 361.42 328.26 361.01 328.26 360.6 328.26 360.19 328.26 359.78 328.26 359.38 328.26 358.97 328.26 358.56 328.26 358.15 328.26 357.74 328.26 357.33 328.26 356.92 328.26 356.51 328.26 356.1 328.26 355.69 328.26 355.28 328.26 354.87 328.26 354.46 328.26 354.05 328.26 353.65 328.26 353.24 328.26 352.83 328.26 352.42 328.26 352.01 328.26 351.6 328.26 351.19 328.26 350.78 328.26 350.37 328.26 349.96 328.26 349.55 328.26 349.14 328.26 348.73 328.26 348.32 328.26 347.91 328.26 347.51 328.26 347.1 328.26 346.69 328.26 346.28 328.26 345.87 328.26 345.46 328.26 345.05 328.26 344.64 328.26 344.23 328.26 343.82 328.26 343.41 328.26 343 328.26 342.59 328.26 342.18 328.26 341.77 328.26 341.37 328.26 340.96 328.26 340.55 328.26 340.14 328.26 339.73 328.26 339.32 328.26 338.91 328.26 338.5 328.26 338.09 328.26 337.68 328.26 337.27 328.26 336.86 328.26 336.45 328.26 336.04 328.26 335.63 328.26 335.23 328.26 334.82 328.26 334.41 328.26 334 328.26 333.59 328.26 333.18 328.26 332.77 328.26 332.36 328.26 331.95 328.26 331.54 328.26 331.13 328.26 330.72 328.26 330.31 328.26 329.9 328.26 329.49 328.26 329.09 328.26 328.68 328.26 328.27 328.26 327.86 328.26 327.45 328.26 327.04 328.26 326.63 328.26 326.22 328.26 325.81 328.26 325.4 328.26 324.99 328.26 324.58 328.26 324.17 328.26 323.76 328.26 323.35 328.26 322.95 328.26 322.54 328.26 322.13 328.26 321.72 328.26 321.31 328.26 320.9 328.26 320.49 328.26 320.08 328.26 319.67 328.26 319.26 328.26 318.85 328.26 318.44 328.26 318.03 328.26 317.62 328.26 317.22 328.26 316.81 328.26 316.4 328.26 315.99 328.26 315.58 328.26 315.17 328.26 314.76 328.26 314.35 328.26 313.94 328.26 313.53 328.26 313.12 328.26 312.71 328.26 312.3 328.26 311.89 328.26 311.48 328.26 311.08 328.26 310.67 328.26 310.26 328.26 309.85 328.26 309.44 328.26 309.03 328.26 308.62 328.26 308.21 328.26 307.8 328.26 307.39 328.26 306.98 328.26 306.57 328.26 306.16 328.26 305.75 328.26 305.34 328.26 304.94 328.26 304.53 328.26 304.12 328.26 303.71 328.26 303.3 328.26 302.89 328.26 302.48 328.26 302.07 328.26 301.66 328.26 301.25 328.26 300.84 328.26 300.43 328.26 300.02 328.26 299.61 328.26 299.2 328.26 298.8 328.26 298.39 328.26 297.98 328.26 297.57 328.26 297.16 328.26 296.75 328.26 296.34 328.26 295.93 328.26 295.52 328.26 295.11 328.26 294.7 328.26 294.29 328.26 293.88 328.26 293.47 328.26 293.06 328.26 292.66 328.26 292.25 328.26 291.84 328.26 291.43 328.26 291.02 328.26 290.61 328.26 290.2 328.26 289.79 328.26 289.38 328.26 288.97 328.26 288.56 328.26 288.15 328.26 287.74 328.26 287.33 328.26 286.92 328.26 286.52 328.26 286.11 328.26 285.7 328.26 285.29 328.26 284.88 328.26 284.47 328.26 284.06 328.26 283.65 328.26 283.24 328.26 282.83 328.26 282.42 328.26 282.01 328.26 281.6 328.26 281.19 328.26 280.79 328.26 280.38 328.26 279.97 328.26 279.56 328.26 279.15 328.26 278.74 328.26 278.33 328.26 277.92 328.26 277.51 328.26 277.1 328.26 276.69 328.26 276.28 328.26 275.87 328.26 275.46 328.26 275.05 328.26 274.65 328.26 274.24 328.26 273.83 328.26 273.42 328.26" clip-path="url(#cpMjYyLjk2fDQ5My4wNHwzNDIuNDl8MjkuNTc=)" style="stroke-width:0;stroke:none;fill:#0af;fill-opacity:.25"/><polyline points="273.42 328.26 273.83 328.26 274.24 328.26 274.65 328.26 275.05 328.26 275.46 328.26 275.87 328.26 276.28 328.26 276.69 328.26 277.1 328.26 277.51 328.26 277.92 328.26 278.33 328.26 278.74 328.26 279.15 328.26 279.56 328.26 279.97 328.26 280.38 328.26 280.79 328.26 281.19 328.26 281.6 328.26 282.01 328.26 282.42 328.26 282.83 328.26 283.24 328.26 283.65 328.26 284.06 328.26 284.47 328.26 284.88 328.26 285.29 328.26 285.7 328.26 286.11 328.26 286.52 328.26 286.92 328.26 287.33 328.26 287.74 328.26 288.15 328.25 288.56 328.25 288.97 328.25 289.38 328.25 289.79 328.25 290.2 328.24 290.61 328.24 291.02 328.24 291.43 328.23 291.84 328.23 292.25 328.22 292.66 328.21 293.06 328.21 293.47 328.2 293.88 328.19 294.29 328.17 294.7 328.16 295.11 328.15 295.52 328.13 295.93 328.11 296.34 328.09 296.75 328.06 297.16 328.03 297.57 328 297.98 327.97 298.39 327.93 298.8 327.88 299.2 327.83 299.61 327.78 300.02 327.72 300.43 327.65 300.84 327.57 301.25 327.49 301.66 327.4 302.07 327.3 302.48 327.18 302.89 327.06 303.3 326.93 303.71 326.78 304.12 326.62 304.53 326.45 304.94 326.26 305.34 326.05 305.75 325.83 306.16 325.59 306.57 325.33 306.98 325.05 307.39 324.75 307.8 324.43 308.21 324.09 308.62 323.71 309.03 323.32 309.44 322.9 309.85 322.45 310.26 321.97 310.67 321.47 311.08 320.94 311.48 320.37 311.89 319.77 312.3 319.14 312.71 318.48 313.12 317.78 313.53 317.05 313.94 316.29 314.35 315.5 314.76 314.66 315.17 313.79 315.58 312.89 315.99 311.96 316.4 310.98 316.81 309.98 317.22 308.94 317.62 307.88 318.03 306.77 318.44 305.63 318.85 304.47 319.26 303.27 319.67 302.05 320.08 300.79 320.49 299.52 320.9 298.21 321.31 296.88 321.72 295.53 322.13 294.16 322.54 292.77 322.95 291.36 323.35 289.94 323.76 288.5 324.17 287.05 324.58 285.58 324.99 284.11 325.4 282.63 325.81 281.15 326.22 279.66 326.63 278.17 327.04 276.67 327.45 275.18 327.86 273.69 328.27 272.21 328.68 270.73 329.09 269.25 329.49 267.79 329.9 266.33 330.31 264.88 330.72 263.44 331.13 262.01 331.54 260.6 331.95 259.19 332.36 257.8 332.77 256.43 333.18 255.06 333.59 253.71 334 252.37 334.41 251.04 334.82 249.73 335.23 248.42 335.63 247.13 336.04 245.85 336.45 244.58 336.86 243.31 337.27 242.05 337.68 240.8 338.09 239.55 338.5 238.3 338.91 237.06 339.32 235.81 339.73 234.56 340.14 233.3 340.55 232.04 340.96 230.77 341.37 229.5 341.77 228.2 342.18 226.9 342.59 225.58 343 224.25 343.41 222.89 343.82 221.51 344.23 220.12 344.64 218.7 345.05 217.25 345.46 215.78 345.87 214.28 346.28 212.76 346.69 211.21 347.1 209.63 347.51 208.02 347.91 206.39 348.32 204.73 348.73 203.04 349.14 201.33 349.55 199.6 349.96 197.84 350.37 196.06 350.78 194.26 351.19 192.45 351.6 190.62 352.01 188.78 352.42 186.93 352.83 185.08 353.24 183.22 353.65 181.37 354.05 179.52 354.46 177.68 354.87 175.85 355.28 174.04 355.69 172.24 356.1 170.48 356.51 168.74 356.92 167.03 357.33 165.35 357.74 163.72 358.15 162.13 358.56 160.58 358.97 159.07 359.38 157.64 359.78 156.24 360.19 154.9 360.6 153.62 361.01 152.42 361.42 151.27 361.83 150.17 362.24 149.15 362.65 148.2 363.06 147.31 363.47 146.48 363.88 145.73 364.29 145.05 364.7 144.43 365.11 143.86 365.52 143.38 365.92 142.96 366.33 142.6 366.74 142.29 367.15 142.05 367.56 141.87 367.97 141.74 368.38 141.66 368.79 141.65 369.2 141.68 369.61 141.75 370.02 141.86 370.43 142.03 370.84 142.24 371.25 142.48 371.66 142.76 372.06 143.07 372.47 143.42 372.88 143.79 373.29 144.19 373.7 144.62 374.11 145.07 374.52 145.54 374.93 146.02 375.34 146.53 375.75 147.05 376.16 147.58 376.57 148.13 376.98 148.68 377.39 149.24 377.8 149.81 378.2 150.37 378.61 150.94 379.02 151.51 379.43 152.08 379.84 152.65 380.25 153.21 380.66 153.76 381.07 154.31 381.48 154.85 381.89 155.37 382.3 155.89 382.71 156.39 383.12 156.88 383.53 157.36 383.94 157.83 384.34 158.28 384.75 158.71 385.16 159.13 385.57 159.54 385.98 159.94 386.39 160.32 386.8 160.69 387.21 161.05 387.62 161.4 388.03 161.74 388.44 162.07 388.85 162.41 389.26 162.74 389.67 163.07 390.08 163.4 390.48 163.74 390.89 164.09 391.3 164.44 391.71 164.82 392.12 165.2 392.53 165.61 392.94 166.04 393.35 166.49 393.76 166.96 394.17 167.47 394.58 168.02 394.99 168.6 395.4 169.2 395.81 169.86 396.22 170.56 396.62 171.29 397.03 172.07 397.44 172.9 397.85 173.77 398.26 174.68 398.67 175.64 399.08 176.65 399.49 177.71 399.9 178.81 400.31 179.94 400.72 181.14 401.13 182.36 401.54 183.63 401.95 184.92 402.35 186.26 402.76 187.63 403.17 189.03 403.58 190.45 403.99 191.89 404.4 193.36 404.81 194.83 405.22 196.32 405.63 197.83 406.04 199.33 406.45 200.84 406.86 202.35 407.27 203.86 407.68 205.36 408.09 206.85 408.49 208.33 408.9 209.79 409.31 211.24 409.72 212.67 410.13 214.08 410.54 215.46 410.95 216.83 411.36 218.17 411.77 219.49 412.18 220.78 412.59 222.05 413 223.3 413.41 224.52 413.82 225.72 414.23 226.89 414.63 228.05 415.04 229.18 415.45 230.29 415.86 231.39 416.27 232.47 416.68 233.53 417.09 234.58 417.5 235.62 417.91 236.64 418.32 237.66 418.73 238.66 419.14 239.67 419.55 240.66 419.96 241.65 420.37 242.64 420.77 243.62 421.18 244.61 421.59 245.59 422 246.57 422.41 247.55 422.82 248.54 423.23 249.52 423.64 250.51 424.05 251.5 424.46 252.49 424.87 253.48 425.28 254.48 425.69 255.48 426.1 256.47 426.51 257.48 426.91 258.48 427.32 259.48 427.73 260.49 428.14 261.5 428.55 262.51 428.96 263.52 429.37 264.54 429.78 265.55 430.19 266.57 430.6 267.59 431.01 268.61 431.42 269.63 431.83 270.66 432.24 271.68 432.65 272.71 433.05 273.74 433.46 274.77 433.87 275.8 434.28 276.83 434.69 277.87 435.1 278.9 435.51 279.94 435.92 280.98 436.33 282.01 436.74 283.05 437.15 284.09 437.56 285.12 437.97 286.16 438.38 287.19 438.78 288.22 439.19 289.24 439.6 290.26 440.01 291.28 440.42 292.29 440.83 293.29 441.24 294.29 441.65 295.27 442.06 296.25 442.47 297.21 442.88 298.17 443.29 299.11 443.7 300.03 444.11 300.95 444.52 301.85 444.92 302.73 445.33 303.6 445.74 304.44 446.15 305.28 446.56 306.09 446.97 306.89 447.38 307.66 447.79 308.42 448.2 309.16 448.61 309.88 449.02 310.58 449.43 311.26 449.84 311.92 450.25 312.56 450.66 313.18 451.06 313.78 451.47 314.36 451.88 314.92 452.29 315.47 452.7 316 453.11 316.51 453.52 317 453.93 317.48 454.34 317.94 454.75 318.38 455.16 318.81 455.57 319.22 455.98 319.62 456.39 320.01 456.8 320.38 457.2 320.74 457.61 321.09 458.02 321.42 458.43 321.74 458.84 322.05 459.25 322.35 459.66 322.64 460.07 322.92 460.48 323.19 460.89 323.45 461.3 323.7 461.71 323.94 462.12 324.17 462.53 324.4 462.94 324.61 463.34 324.82 463.75 325.02 464.16 325.21 464.57 325.39 464.98 325.56 465.39 325.73 465.8 325.89 466.21 326.04 466.62 326.19 467.03 326.33 467.44 326.46 467.85 326.58 468.26 326.7 468.67 326.81 469.08 326.92 469.48 327.02 469.89 327.11 470.3 327.2 470.71 327.29 471.12 327.36 471.53 327.44 471.94 327.51 472.35 327.57 472.76 327.63 473.17 327.69 473.58 327.74 473.99 327.79 474.4 327.83 474.81 327.87 475.21 327.91 475.62 327.94 476.03 327.98 476.44 328 476.85 328.03 477.26 328.05 477.67 328.08 478.08 328.1 478.49 328.12 478.9 328.13 479.31 328.15 479.72 328.16 480.13 328.17 480.54 328.18 480.95 328.19 481.35 328.2 481.76 328.21 482.17 328.21 482.58 328.22" clip-path="url(#cpMjYyLjk2fDQ5My4wNHwzNDIuNDl8MjkuNTc=)" style="stroke-width:1.07;stroke:#00bfc4"/><defs><clipPath id="cpMC4wMHw1MDQuMDB8Mzc4LjAwfDAuMDA="><rect width="504" height="378" x="0" y="0"/></clipPath></defs><polyline points="273.42 345.23 273.42 342.49" clip-path="url(#cpMC4wMHw1MDQuMDB8Mzc4LjAwfDAuMDA=)" style="stroke-width:1.07;stroke:#333;stroke-linecap:butt"/><polyline points="343.14 345.23 343.14 342.49" clip-path="url(#cpMC4wMHw1MDQuMDB8Mzc4LjAwfDAuMDA=)" style="stroke-width:1.07;stroke:#333;stroke-linecap:butt"/><polyline points="412.86 345.23 412.86 342.49" clip-path="url(#cpMC4wMHw1MDQuMDB8Mzc4LjAwfDAuMDA=)" style="stroke-width:1.07;stroke:#333;stroke-linecap:butt"/><polyline points="482.58 345.23 482.58 342.49" clip-path="url(#cpMC4wMHw1MDQuMDB8Mzc4LjAwfDAuMDA=)" style="stroke-width:1.07;stroke:#333;stroke-linecap:butt"/><g clip-path="url(#cpMC4wMHw1MDQuMDB8Mzc4LjAwfDAuMDA=)"><text x="266.52" y="353.14" lengthAdjust="spacingAndGlyphs" textLength="13.79" style="font-size:8px;fill:#4d4d4d;font-family:Arial">-0.2</text></g><g clip-path="url(#cpMC4wMHw1MDQuMDB8Mzc4LjAwfDAuMDA=)"><text x="337.58" y="353.14" lengthAdjust="spacingAndGlyphs" textLength="11.12" style="font-size:8px;fill:#4d4d4d;font-family:Arial">0.0</text></g><g clip-path="url(#cpMC4wMHw1MDQuMDB8Mzc4LjAwfDAuMDA=)"><text x="407.3" y="353.14" lengthAdjust="spacingAndGlyphs" textLength="11.12" style="font-size:8px;fill:#4d4d4d;font-family:Arial">0.2</text></g><g clip-path="url(#cpMC4wMHw1MDQuMDB8Mzc4LjAwfDAuMDA=)"><text x="477.02" y="353.14" lengthAdjust="spacingAndGlyphs" textLength="11.12" style="font-size:8px;fill:#4d4d4d;font-family:Arial">0.4</text></g><g clip-path="url(#cpMC4wMHw1MDQuMDB8Mzc4LjAwfDAuMDA=)"><text x="262.96" y="21.14" lengthAdjust="spacingAndGlyphs" textLength="125.67" style="font-size:14.4px;fill:#4d4d4d;font-family:Arial">Slopes for occasion</text></g></svg>