<svg xmlns="http://www.w3.org/2000/svg" xmlns:xlink="http://www.w3.org/1999/xlink" viewBox="0 0 766 476"><defs><style type="text/css">polygon,polyline,rect{fill:none;stroke:#000;stroke-linecap:round;stroke-linejoin:round;stroke-miterlimit:10}</style></defs><rect width="100%" height="100%" style="stroke:none;fill:#fff"/><rect width="766" height="476" x="0" y="0" style="stroke-width:1.07;stroke:#fff;fill:#fff"/><defs><clipPath id="cpNS40OHwzODMuMDB8NDcwLjUyfDUuNDg="><rect width="377.52" height="465.04" x="5.48" y="5.48"/></clipPath></defs><rect width="377.52" height="465.04" x="5.48" y="5.48" clip-path="url(#cpNS40OHwzODMuMDB8NDcwLjUyfDUuNDg=)" style="stroke-width:1.07;stroke:none"/><defs><clipPath id="cpMC4wMHw3NjYuMDB8NDc2LjAwfDAuMDA="><rect width="766" height="476" x="0" y="0"/></clipPath></defs><defs><clipPath id="cpMTYuNDR8Mzc3LjUyfDQ0MS4wN3wyOS43OA=="><rect width="361.08" height="411.29" x="16.44" y="29.78"/></clipPath></defs><polygon points="32.85 422.37 33.49 422.37 34.14 422.37 34.78 422.37 35.42 422.37 36.06 422.37 36.71 422.37 37.35 422.37 37.99 422.37 38.63 422.37 39.27 422.37 39.92 422.37 40.56 422.37 41.2 422.37 41.84 422.37 42.49 422.37 43.13 422.37 43.77 422.37 44.41 422.37 45.06 422.37 45.7 422.37 46.34 422.37 46.98 422.37 47.63 422.37 48.27 422.37 48.91 422.37 49.55 422.37 50.2 422.37 50.84 422.37 51.48 422.37 52.12 422.37 52.76 422.37 53.41 422.37 54.05 422.37 54.69 422.37 55.33 422.37 55.98 422.37 56.62 422.37 57.26 422.37 57.9 422.37 58.55 422.37 59.19 422.37 59.83 422.37 60.47 422.37 61.12 422.37 61.76 422.37 62.4 422.37 63.04 422.37 63.69 422.37 64.33 422.37 64.97 422.37 65.61 422.37 66.25 422.37 66.9 422.37 67.54 422.37 68.18 422.37 68.82 422.37 69.47 422.37 70.11 422.37 70.75 422.37 71.39 422.37 72.04 422.37 72.68 422.37 73.32 422.37 73.96 422.37 74.61 422.37 75.25 422.37 75.89 422.37 76.53 422.37 77.18 422.37 77.82 422.37 78.46 422.37 79.1 422.37 79.74 422.37 80.39 422.37 81.03 422.37 81.67 422.37 82.31 422.37 82.96 422.37 83.6 422.37 84.24 422.37 84.88 422.37 85.53 422.37 86.17 422.37 86.81 422.37 87.45 422.37 88.1 422.37 88.74 422.37 89.38 422.37 90.02 422.37 90.67 422.37 91.31 422.37 91.95 422.37 92.59 422.36 93.23 422.36 93.88 422.35 94.52 422.35 95.16 422.34 95.8 422.33 96.45 422.31 97.09 422.29 97.73 422.27 98.37 422.24 99.02 422.2 99.66 422.15 100.3 422.08 100.94 422.01 101.59 421.91 102.23 421.79 102.87 421.65 103.51 421.48 104.16 421.29 104.8 421.05 105.44 420.76 106.08 420.44 106.72 420.06 107.37 419.64 108.01 419.15 108.65 418.6 109.29 417.98 109.94 417.29 110.58 416.53 111.22 415.69 111.86 414.79 112.51 413.81 113.15 412.75 113.79 411.62 114.43 410.42 115.08 409.16 115.72 407.84 116.36 406.45 117 405.02 117.65 403.52 118.29 401.98 118.93 400.39 119.57 398.76 120.21 397.08 120.86 395.36 121.5 393.59 122.14 391.76 122.78 389.87 123.43 387.93 124.07 385.92 124.71 383.84 125.35 381.67 126 379.4 126.64 377.03 127.28 374.56 127.92 371.97 128.57 369.27 129.21 366.43 129.85 363.45 130.49 360.31 131.14 357.03 131.78 353.59 132.42 350 133.06 346.24 133.7 342.32 134.35 338.19 134.99 333.88 135.63 329.39 136.27 324.71 136.92 319.85 137.56 314.8 138.2 309.54 138.84 304.08 139.49 298.44 140.13 292.62 140.77 286.63 141.41 280.49 142.06 274.2 142.7 267.76 143.34 261.21 143.98 254.56 144.63 247.85 145.27 241.09 145.91 234.3 146.55 227.51 147.19 220.74 147.84 214.03 148.48 207.4 149.12 200.85 149.76 194.42 150.41 188.13 151.05 182 151.69 176.06 152.33 170.29 152.98 164.71 153.62 159.32 154.26 154.12 154.9 149.12 155.55 144.34 156.19 139.73 156.83 135.3 157.47 131.02 158.12 126.88 158.76 122.86 159.4 118.97 160.04 115.18 160.68 111.45 161.33 107.78 161.97 104.16 162.61 100.57 163.25 97 163.9 93.46 164.54 89.93 165.18 86.43 165.82 82.95 166.47 79.51 167.11 76.12 167.75 72.81 168.39 69.61 169.04 66.53 169.68 63.6 170.32 60.84 170.96 58.29 171.61 55.97 172.25 53.95 172.89 52.23 173.53 50.82 174.17 49.73 174.82 48.97 175.46 48.54 176.1 48.47 176.74 48.77 177.39 49.38 178.03 50.27 178.67 51.42 179.31 52.79 179.96 54.36 180.6 56.09 181.24 57.93 181.88 59.82 182.53 61.74 183.17 63.64 183.81 65.51 184.45 67.32 185.1 69.03 185.74 70.67 186.38 72.22 187.02 73.72 187.66 75.18 188.31 76.64 188.95 78.13 189.59 79.73 190.23 81.47 190.88 83.42 191.52 85.62 192.16 88.13 192.8 91 193.45 94.37 194.09 98.21 194.73 102.55 195.37 107.4 196.02 112.78 196.66 118.7 197.3 125.2 197.94 132.26 198.59 139.79 199.23 147.76 199.87 156.12 200.51 164.81 201.15 173.78 201.8 183.01 202.44 192.35 203.08 201.74 203.72 211.13 204.37 220.43 205.01 229.59 205.65 238.52 206.29 247.14 206.94 255.43 207.58 263.34 208.22 270.84 208.86 277.9 209.51 284.49 210.15 290.53 210.79 296.06 211.43 301.12 212.08 305.71 212.72 309.85 213.36 313.56 214 316.85 214.64 319.74 215.29 322.31 215.93 324.62 216.57 326.71 217.21 328.62 217.86 330.4 218.5 332.08 219.14 333.74 219.78 335.42 220.43 337.14 221.07 338.95 221.71 340.87 222.35 342.92 223 345.15 223.64 347.54 224.28 350.09 224.92 352.81 225.57 355.68 226.21 358.69 226.85 361.84 227.49 365.1 228.13 368.42 228.78 371.8 229.42 375.2 230.06 378.59 230.7 381.95 231.35 385.24 231.99 388.43 232.63 391.52 233.27 394.48 233.92 397.3 234.56 399.96 235.2 402.45 235.84 404.74 236.49 406.85 237.13 408.8 237.77 410.57 238.41 412.17 239.06 413.61 239.7 414.87 240.34 415.99 240.98 416.97 241.62 417.83 242.27 418.58 242.91 419.22 243.55 419.77 244.19 420.22 244.84 420.61 245.48 420.93 246.12 421.2 246.76 421.42 247.41 421.59 248.05 421.72 248.69 421.82 249.33 421.9 249.98 421.94 250.62 421.97 251.26 421.97 251.9 421.95 252.55 421.91 253.19 421.85 253.83 421.77 254.47 421.67 255.11 421.55 255.76 421.41 256.4 421.25 257.04 421.06 257.68 420.85 258.33 420.62 258.97 420.37 259.61 420.09 260.25 419.8 260.9 419.49 261.54 419.17 262.18 418.84 262.82 418.5 263.47 418.17 264.11 417.84 264.75 417.52 265.39 417.21 266.04 416.93 266.68 416.68 267.32 416.46 267.96 416.27 268.6 416.12 269.25 416.03 269.89 415.98 270.53 415.98 271.17 416.02 271.82 416.12 272.46 416.25 273.1 416.43 273.74 416.65 274.39 416.9 275.03 417.18 275.67 417.48 276.31 417.8 276.96 418.13 277.6 418.47 278.24 418.8 278.88 419.14 279.53 419.46 280.17 419.77 280.81 420.07 281.45 420.34 282.09 420.6 282.74 420.84 283.38 421.05 284.02 421.24 284.66 421.42 285.31 421.57 285.95 421.7 286.59 421.82 287.23 421.91 287.88 422 288.52 422.07 289.16 422.13 289.8 422.18 290.45 422.22 291.09 422.25 291.73 422.28 292.37 422.3 293.02 422.32 293.66 422.33 294.3 422.34 294.94 422.35 295.58 422.35 296.23 422.36 296.87 422.36 297.51 422.37 298.15 422.37 298.8 422.37 299.44 422.37 300.08 422.37 300.72 422.37 301.37 422.37 302.01 422.37 302.65 422.37 303.29 422.37 303.94 422.37 304.58 422.37 305.22 422.37 305.86 422.37 306.51 422.37 307.15 422.37 307.79 422.37 308.43 422.37 309.07 422.37 309.72 422.37 310.36 422.37 311 422.37 311.64 422.37 312.29 422.37 312.93 422.37 313.57 422.37 314.21 422.37 314.86 422.37 315.5 422.37 316.14 422.37 316.78 422.37 317.43 422.37 318.07 422.37 318.71 422.37 319.35 422.37 320 422.37 320.64 422.37 321.28 422.37 321.92 422.37 322.56 422.37 323.21 422.37 323.85 422.37 324.49 422.37 325.13 422.37 325.78 422.37 326.42 422.37 327.06 422.37 327.7 422.37 328.35 422.37 328.99 422.37 329.63 422.37 330.27 422.37 330.92 422.37 331.56 422.37 332.2 422.37 332.84 422.37 333.49 422.37 334.13 422.37 334.77 422.37 335.41 422.37 336.05 422.37 336.7 422.37 337.34 422.37 337.98 422.37 338.62 422.37 339.27 422.37 339.91 422.37 340.55 422.37 341.19 422.37 341.84 422.37 342.48 422.37 343.12 422.37 343.76 422.37 344.41 422.37 345.05 422.37 345.69 422.37 346.33 422.37 346.98 422.37 347.62 422.37 348.26 422.37 348.9 422.37 349.54 422.37 350.19 422.37 350.83 422.37 351.47 422.37 352.11 422.37 352.76 422.37 353.4 422.37 354.04 422.37 354.68 422.37 355.33 422.37 355.97 422.37 356.61 422.37 357.25 422.37 357.9 422.37 358.54 422.37 359.18 422.37 359.82 422.37 360.47 422.37 361.11 422.37 361.11 422.37 360.47 422.37 359.82 422.37 359.18 422.37 358.54 422.37 357.9 422.37 357.25 422.37 356.61 422.37 355.97 422.37 355.33 422.37 354.68 422.37 354.04 422.37 353.4 422.37 352.76 422.37 352.11 422.37 351.47 422.37 350.83 422.37 350.19 422.37 349.54 422.37 348.9 422.37 348.26 422.37 347.62 422.37 346.98 422.37 346.33 422.37 345.69 422.37 345.05 422.37 344.41 422.37 343.76 422.37 343.12 422.37 342.48 422.37 341.84 422.37 341.19 422.37 340.55 422.37 339.91 422.37 339.27 422.37 338.62 422.37 337.98 422.37 337.34 422.37 336.7 422.37 336.05 422.37 335.41 422.37 334.77 422.37 334.13 422.37 333.49 422.37 332.84 422.37 332.2 422.37 331.56 422.37 330.92 422.37 330.27 422.37 329.63 422.37 328.99 422.37 328.35 422.37 327.7 422.37 327.06 422.37 326.42 422.37 325.78 422.37 325.13 422.37 324.49 422.37 323.85 422.37 323.21 422.37 322.56 422.37 321.92 422.37 321.28 422.37 320.64 422.37 320 422.37 319.35 422.37 318.71 422.37 318.07 422.37 317.43 422.37 316.78 422.37 316.14 422.37 315.5 422.37 314.86 422.37 314.21 422.37 313.57 422.37 312.93 422.37 312.29 422.37 311.64 422.37 311 422.37 310.36 422.37 309.72 422.37 309.07 422.37 308.43 422.37 307.79 422.37 307.15 422.37 306.51 422.37 305.86 422.37 305.22 422.37 304.58 422.37 303.94 422.37 303.29 422.37 302.65 422.37 302.01 422.37 301.37 422.37 300.72 422.37 300.08 422.37 299.44 422.37 298.8 422.37 298.15 422.37 297.51 422.37 296.87 422.37 296.23 422.37 295.58 422.37 294.94 422.37 294.3 422.37 293.66 422.37 293.02 422.37 292.37 422.37 291.73 422.37 291.09 422.37 290.45 422.37 289.8 422.37 289.16 422.37 288.52 422.37 287.88 422.37 287.23 422.37 286.59 422.37 285.95 422.37 285.31 422.37 284.66 422.37 284.02 422.37 283.38 422.37 282.74 422.37 282.09 422.37 281.45 422.37 280.81 422.37 280.17 422.37 279.53 422.37 278.88 422.37 278.24 422.37 277.6 422.37 276.96 422.37 276.31 422.37 275.67 422.37 275.03 422.37 274.39 422.37 273.74 422.37 273.1 422.37 272.46 422.37 271.82 422.37 271.17 422.37 270.53 422.37 269.89 422.37 269.25 422.37 268.6 422.37 267.96 422.37 267.32 422.37 266.68 422.37 266.04 422.37 265.39 422.37 264.75 422.37 264.11 422.37 263.47 422.37 262.82 422.37 262.18 422.37 261.54 422.37 260.9 422.37 260.25 422.37 259.61 422.37 258.97 422.37 258.33 422.37 257.68 422.37 257.04 422.37 256.4 422.37 255.76 422.37 255.11 422.37 254.47 422.37 253.83 422.37 253.19 422.37 252.55 422.37 251.9 422.37 251.26 422.37 250.62 422.37 249.98 422.37 249.33 422.37 248.69 422.37 248.05 422.37 247.41 422.37 246.76 422.37 246.12 422.37 245.48 422.37 244.84 422.37 244.19 422.37 243.55 422.37 242.91 422.37 242.27 422.37 241.62 422.37 240.98 422.37 240.34 422.37 239.7 422.37 239.06 422.37 238.41 422.37 237.77 422.37 237.13 422.37 236.49 422.37 235.84 422.37 235.2 422.37 234.56 422.37 233.92 422.37 233.27 422.37 232.63 422.37 231.99 422.37 231.35 422.37 230.7 422.37 230.06 422.37 229.42 422.37 228.78 422.37 228.13 422.37 227.49 422.37 226.85 422.37 226.21 422.37 225.57 422.37 224.92 422.37 224.28 422.37 223.64 422.37 223 422.37 222.35 422.37 221.71 422.37 221.07 422.37 220.43 422.37 219.78 422.37 219.14 422.37 218.5 422.37 217.86 422.37 217.21 422.37 216.57 422.37 215.93 422.37 215.29 422.37 214.64 422.37 214 422.37 213.36 422.37 212.72 422.37 212.08 422.37 211.43 422.37 210.79 422.37 210.15 422.37 209.51 422.37 208.86 422.37 208.22 422.37 207.58 422.37 206.94 422.37 206.29 422.37 205.65 422.37 205.01 422.37 204.37 422.37 203.72 422.37 203.08 422.37 202.44 422.37 201.8 422.37 201.15 422.37 200.51 422.37 199.87 422.37 199.23 422.37 198.59 422.37 197.94 422.37 197.3 422.37 196.66 422.37 196.02 422.37 195.37 422.37 194.73 422.37 194.09 422.37 193.45 422.37 192.8 422.37 192.16 422.37 191.52 422.37 190.88 422.37 190.23 422.37 189.59 422.37 188.95 422.37 188.31 422.37 187.66 422.37 187.02 422.37 186.38 422.37 185.74 422.37 185.1 422.37 184.45 422.37 183.81 422.37 183.17 422.37 182.53 422.37 181.88 422.37 181.24 422.37 180.6 422.37 179.96 422.37 179.31 422.37 178.67 422.37 178.03 422.37 177.39 422.37 176.74 422.37 176.1 422.37 175.46 422.37 174.82 422.37 174.17 422.37 173.53 422.37 172.89 422.37 172.25 422.37 171.61 422.37 170.96 422.37 170.32 422.37 169.68 422.37 169.04 422.37 168.39 422.37 167.75 422.37 167.11 422.37 166.47 422.37 165.82 422.37 165.18 422.37 164.54 422.37 163.9 422.37 163.25 422.37 162.61 422.37 161.97 422.37 161.33 422.37 160.68 422.37 160.04 422.37 159.4 422.37 158.76 422.37 158.12 422.37 157.47 422.37 156.83 422.37 156.19 422.37 155.55 422.37 154.9 422.37 154.26 422.37 153.62 422.37 152.98 422.37 152.33 422.37 151.69 422.37 151.05 422.37 150.41 422.37 149.76 422.37 149.12 422.37 148.48 422.37 147.84 422.37 147.19 422.37 146.55 422.37 145.91 422.37 145.27 422.37 144.63 422.37 143.98 422.37 143.34 422.37 142.7 422.37 142.06 422.37 141.41 422.37 140.77 422.37 140.13 422.37 139.49 422.37 138.84 422.37 138.2 422.37 137.56 422.37 136.92 422.37 136.27 422.37 135.63 422.37 134.99 422.37 134.35 422.37 133.7 422.37 133.06 422.37 132.42 422.37 131.78 422.37 131.14 422.37 130.49 422.37 129.85 422.37 129.21 422.37 128.57 422.37 127.92 422.37 127.28 422.37 126.64 422.37 126 422.37 125.35 422.37 124.71 422.37 124.07 422.37 123.43 422.37 122.78 422.37 122.14 422.37 121.5 422.37 120.86 422.37 120.21 422.37 119.57 422.37 118.93 422.37 118.29 422.37 117.65 422.37 117 422.37 116.36 422.37 115.72 422.37 115.08 422.37 114.43 422.37 113.79 422.37 113.15 422.37 112.51 422.37 111.86 422.37 111.22 422.37 110.58 422.37 109.94 422.37 109.29 422.37 108.65 422.37 108.01 422.37 107.37 422.37 106.72 422.37 106.08 422.37 105.44 422.37 104.8 422.37 104.16 422.37 103.51 422.37 102.87 422.37 102.23 422.37 101.59 422.37 100.94 422.37 100.3 422.37 99.66 422.37 99.02 422.37 98.37 422.37 97.73 422.37 97.09 422.37 96.45 422.37 95.8 422.37 95.16 422.37 94.52 422.37 93.88 422.37 93.23 422.37 92.59 422.37 91.95 422.37 91.31 422.37 90.67 422.37 90.02 422.37 89.38 422.37 88.74 422.37 88.1 422.37 87.45 422.37 86.81 422.37 86.17 422.37 85.53 422.37 84.88 422.37 84.24 422.37 83.6 422.37 82.96 422.37 82.31 422.37 81.67 422.37 81.03 422.37 80.39 422.37 79.74 422.37 79.1 422.37 78.46 422.37 77.82 422.37 77.18 422.37 76.53 422.37 75.89 422.37 75.25 422.37 74.61 422.37 73.96 422.37 73.32 422.37 72.68 422.37 72.04 422.37 71.39 422.37 70.75 422.37 70.11 422.37 69.47 422.37 68.82 422.37 68.18 422.37 67.54 422.37 66.9 422.37 66.25 422.37 65.61 422.37 64.97 422.37 64.33 422.37 63.69 422.37 63.04 422.37 62.4 422.37 61.76 422.37 61.12 422.37 60.47 422.37 59.83 422.37 59.19 422.37 58.55 422.37 57.9 422.37 57.26 422.37 56.62 422.37 55.98 422.37 55.33 422.37 54.69 422.37 54.05 422.37 53.41 422.37 52.76 422.37 52.12 422.37 51.48 422.37 50.84 422.37 50.2 422.37 49.55 422.37 48.91 422.37 48.27 422.37 47.63 422.37 46.98 422.37 46.34 422.37 45.7 422.37 45.06 422.37 44.41 422.37 43.77 422.37 43.13 422.37 42.49 422.37 41.84 422.37 41.2 422.37 40.56 422.37 39.92 422.37 39.27 422.37 38.63 422.37 37.99 422.37 37.35 422.37 36.71 422.37 36.06 422.37 35.42 422.37 34.78 422.37 34.14 422.37 33.49 422.37 32.85 422.37" clip-path="url(#cpMTYuNDR8Mzc3LjUyfDQ0MS4wN3wyOS43OA==)" style="stroke-width:0;stroke:none;fill:#f50;fill-opacity:.25"/><polyline points="32.85 422.37 33.49 422.37 34.14 422.37 34.78 422.37 35.42 422.37 36.06 422.37 36.71 422.37 37.35 422.37 37.99 422.37 38.63 422.37 39.27 422.37 39.92 422.37 40.56 422.37 41.2 422.37 41.84 422.37 42.49 422.37 43.13 422.37 43.77 422.37 44.41 422.37 45.06 422.37 45.7 422.37 46.34 422.37 46.98 422.37 47.63 422.37 48.27 422.37 48.91 422.37 49.55 422.37 50.2 422.37 50.84 422.37 51.48 422.37 52.12 422.37 52.76 422.37 53.41 422.37 54.05 422.37 54.69 422.37 55.33 422.37 55.98 422.37 56.62 422.37 57.26 422.37 57.9 422.37 58.55 422.37 59.19 422.37 59.83 422.37 60.47 422.37 61.12 422.37 61.76 422.37 62.4 422.37 63.04 422.37 63.69 422.37 64.33 422.37 64.97 422.37 65.61 422.37 66.25 422.37 66.9 422.37 67.54 422.37 68.18 422.37 68.82 422.37 69.47 422.37 70.11 422.37 70.75 422.37 71.39 422.37 72.04 422.37 72.68 422.37 73.32 422.37 73.96 422.37 74.61 422.37 75.25 422.37 75.89 422.37 76.53 422.37 77.18 422.37 77.82 422.37 78.46 422.37 79.1 422.37 79.74 422.37 80.39 422.37 81.03 422.37 81.67 422.37 82.31 422.37 82.96 422.37 83.6 422.37 84.24 422.37 84.88 422.37 85.53 422.37 86.17 422.37 86.81 422.37 87.45 422.37 88.1 422.37 88.74 422.37 89.38 422.37 90.02 422.37 90.67 422.37 91.31 422.37 91.95 422.37 92.59 422.36 93.23 422.36 93.88 422.35 94.52 422.35 95.16 422.34 95.8 422.33 96.45 422.31 97.09 422.29 97.73 422.27 98.37 422.24 99.02 422.2 99.66 422.15 100.3 422.08 100.94 422.01 101.59 421.91 102.23 421.79 102.87 421.65 103.51 421.48 104.16 421.29 104.8 421.05 105.44 420.76 106.08 420.44 106.72 420.06 107.37 419.64 108.01 419.15 108.65 418.6 109.29 417.98 109.94 417.29 110.58 416.53 111.22 415.69 111.86 414.79 112.51 413.81 113.15 412.75 113.79 411.62 114.43 410.42 115.08 409.16 115.72 407.84 116.36 406.45 117 405.02 117.65 403.52 118.29 401.98 118.93 400.39 119.57 398.76 120.21 397.08 120.86 395.36 121.5 393.59 122.14 391.76 122.78 389.87 123.43 387.93 124.07 385.92 124.71 383.84 125.35 381.67 126 379.4 126.64 377.03 127.28 374.56 127.92 371.97 128.57 369.27 129.21 366.43 129.85 363.45 130.49 360.31 131.14 357.03 131.78 353.59 132.42 350 133.06 346.24 133.7 342.32 134.35 338.19 134.99 333.88 135.63 329.39 136.27 324.71 136.92 319.85 137.56 314.8 138.2 309.54 138.84 304.08 139.49 298.44 140.13 292.62 140.77 286.63 141.41 280.49 142.06 274.2 142.7 267.76 143.34 261.21 143.98 254.56 144.63 247.85 145.27 241.09 145.91 234.3 146.55 227.51 147.19 220.74 147.84 214.03 148.48 207.4 149.12 200.85 149.76 194.42 150.41 188.13 151.05 182 151.69 176.06 152.33 170.29 152.98 164.71 153.62 159.32 154.26 154.12 154.9 149.12 155.55 144.34 156.19 139.73 156.83 135.3 157.47 131.02 158.12 126.88 158.76 122.86 159.4 118.97 160.04 115.18 160.68 111.45 161.33 107.78 161.97 104.16 162.61 100.57 163.25 97 163.9 93.46 164.54 89.93 165.18 86.43 165.82 82.95 166.47 79.51 167.11 76.12 167.75 72.81 168.39 69.61 169.04 66.53 169.68 63.6 170.32 60.84 170.96 58.29 171.61 55.97 172.25 53.95 172.89 52.23 173.53 50.82 174.17 49.73 174.82 48.97 175.46 48.54 176.1 48.47 176.74 48.77 177.39 49.38 178.03 50.27 178.67 51.42 179.31 52.79 179.96 54.36 180.6 56.09 181.24 57.93 181.88 59.82 182.53 61.74 183.17 63.64 183.81 65.51 184.45 67.32 185.1 69.03 185.74 70.67 186.38 72.22 187.02 73.72 187.66 75.18 188.31 76.64 188.95 78.13 189.59 79.73 190.23 81.47 190.88 83.42 191.52 85.62 192.16 88.13 192.8 91 193.45 94.37 194.09 98.21 194.73 102.55 195.37 107.4 196.02 112.78 196.66 118.7 197.3 125.2 197.94 132.26 198.59 139.79 199.23 147.76 199.87 156.12 200.51 164.81 201.15 173.78 201.8 183.01 202.44 192.35 203.08 201.74 203.72 211.13 204.37 220.43 205.01 229.59 205.65 238.52 206.29 247.14 206.94 255.43 207.58 263.34 208.22 270.84 208.86 277.9 209.51 284.49 210.15 290.53 210.79 296.06 211.43 301.12 212.08 305.71 212.72 309.85 213.36 313.56 214 316.85 214.64 319.74 215.29 322.31 215.93 324.62 216.57 326.71 217.21 328.62 217.86 330.4 218.5 332.08 219.14 333.74 219.78 335.42 220.43 337.14 221.07 338.95 221.71 340.87 222.35 342.92 223 345.15 223.64 347.54 224.28 350.09 224.92 352.81 225.57 355.68 226.21 358.69 226.85 361.84 227.49 365.1 228.13 368.42 228.78 371.8 229.42 375.2 230.06 378.59 230.7 381.95 231.35 385.24 231.99 388.43 232.63 391.52 233.27 394.48 233.92 397.3 234.56 399.96 235.2 402.45 235.84 404.74 236.49 406.85 237.13 408.8 237.77 410.57 238.41 412.17 239.06 413.61 239.7 414.87 240.34 415.99 240.98 416.97 241.62 417.83 242.27 418.58 242.91 419.22 243.55 419.77 244.19 420.22 244.84 420.61 245.48 420.93 246.12 421.2 246.76 421.42 247.41 421.59 248.05 421.72 248.69 421.82 249.33 421.9 249.98 421.94 250.62 421.97 251.26 421.97 251.9 421.95 252.55 421.91 253.19 421.85 253.83 421.77 254.47 421.67 255.11 421.55 255.76 421.41 256.4 421.25 257.04 421.06 257.68 420.85 258.33 420.62 258.97 420.37 259.61 420.09 260.25 419.8 260.9 419.49 261.54 419.17 262.18 418.84 262.82 418.5 263.47 418.17 264.11 417.84 264.75 417.52 265.39 417.21 266.04 416.93 266.68 416.68 267.32 416.46 267.96 416.27 268.6 416.12 269.25 416.03 269.89 415.98 270.53 415.98 271.17 416.02 271.82 416.12 272.46 416.25 273.1 416.43 273.74 416.65 274.39 416.9 275.03 417.18 275.67 417.48 276.31 417.8 276.96 418.13 277.6 418.47 278.24 418.8 278.88 419.14 279.53 419.46 280.17 419.77 280.81 420.07 281.45 420.34 282.09 420.6 282.74 420.84 283.38 421.05 284.02 421.24 284.66 421.42 285.31 421.57 285.95 421.7 286.59 421.82 287.23 421.91 287.88 422 288.52 422.07 289.16 422.13 289.8 422.18 290.45 422.22 291.09 422.25 291.73 422.28 292.37 422.3 293.02 422.32 293.66 422.33 294.3 422.34 294.94 422.35 295.58 422.35 296.23 422.36 296.87 422.36 297.51 422.37 298.15 422.37 298.8 422.37 299.44 422.37 300.08 422.37 300.72 422.37 301.37 422.37 302.01 422.37 302.65 422.37 303.29 422.37 303.94 422.37 304.58 422.37 305.22 422.37 305.86 422.37 306.51 422.37 307.15 422.37 307.79 422.37 308.43 422.37 309.07 422.37 309.72 422.37 310.36 422.37 311 422.37 311.64 422.37 312.29 422.37 312.93 422.37 313.57 422.37 314.21 422.37 314.86 422.37 315.5 422.37 316.14 422.37 316.78 422.37 317.43 422.37 318.07 422.37 318.71 422.37 319.35 422.37 320 422.37 320.64 422.37 321.28 422.37 321.92 422.37 322.56 422.37 323.21 422.37 323.85 422.37 324.49 422.37 325.13 422.37 325.78 422.37 326.42 422.37 327.06 422.37 327.7 422.37 328.35 422.37 328.99 422.37 329.63 422.37 330.27 422.37 330.92 422.37 331.56 422.37 332.2 422.37 332.84 422.37 333.49 422.37 334.13 422.37 334.77 422.37 335.41 422.37 336.05 422.37 336.7 422.37 337.34 422.37 337.98 422.37 338.62 422.37 339.27 422.37 339.91 422.37 340.55 422.37 341.19 422.37 341.84 422.37 342.48 422.37 343.12 422.37 343.76 422.37 344.41 422.37 345.05 422.37 345.69 422.37 346.33 422.37 346.98 422.37 347.62 422.37 348.26 422.37 348.9 422.37 349.54 422.37 350.19 422.37 350.83 422.37 351.47 422.37 352.11 422.37 352.76 422.37 353.4 422.37 354.04 422.37 354.68 422.37 355.33 422.37 355.97 422.37 356.61 422.37 357.25 422.37 357.9 422.37 358.54 422.37 359.18 422.37 359.82 422.37 360.47 422.37 361.11 422.37" clip-path="url(#cpMTYuNDR8Mzc3LjUyfDQ0MS4wN3wyOS43OA==)" style="stroke-width:1.07;stroke:#f8766d"/><polygon points="32.85 422.37 33.49 422.37 34.14 422.37 34.78 422.37 35.42 422.37 36.06 422.37 36.71 422.37 37.35 422.37 37.99 422.37 38.63 422.37 39.27 422.37 39.92 422.37 40.56 422.37 41.2 422.37 41.84 422.37 42.49 422.37 43.13 422.37 43.77 422.37 44.41 422.37 45.06 422.37 45.7 422.37 46.34 422.37 46.98 422.37 47.63 422.37 48.27 422.37 48.91 422.37 49.55 422.37 50.2 422.37 50.84 422.37 51.48 422.37 52.12 422.37 52.76 422.37 53.41 422.37 54.05 422.37 54.69 422.37 55.33 422.37 55.98 422.37 56.62 422.36 57.26 422.36 57.9 422.36 58.55 422.36 59.19 422.35 59.83 422.35 60.47 422.34 61.12 422.33 61.76 422.32 62.4 422.31 63.04 422.3 63.69 422.29 64.33 422.27 64.97 422.25 65.61 422.22 66.25 422.19 66.9 422.16 67.54 422.12 68.18 422.07 68.82 422.02 69.47 421.96 70.11 421.89 70.75 421.81 71.39 421.72 72.04 421.61 72.68 421.5 73.32 421.36 73.96 421.21 74.61 421.05 75.25 420.87 75.89 420.66 76.53 420.43 77.18 420.18 77.82 419.91 78.46 419.62 79.1 419.29 79.74 418.94 80.39 418.56 81.03 418.15 81.67 417.72 82.31 417.25 82.96 416.75 83.6 416.23 84.24 415.68 84.88 415.1 85.53 414.49 86.17 413.86 86.81 413.2 87.45 412.52 88.1 411.81 88.74 411.09 89.38 410.35 90.02 409.59 90.67 408.82 91.31 408.04 91.95 407.25 92.59 406.46 93.23 405.66 93.88 404.86 94.52 404.06 95.16 403.26 95.8 402.46 96.45 401.66 97.09 400.87 97.73 400.09 98.37 399.3 99.02 398.52 99.66 397.74 100.3 396.96 100.94 396.17 101.59 395.38 102.23 394.58 102.87 393.76 103.51 392.93 104.16 392.07 104.8 391.19 105.44 390.27 106.08 389.31 106.72 388.31 107.37 387.24 108.01 386.12 108.65 384.94 109.29 383.69 109.94 382.35 110.58 380.92 111.22 379.41 111.86 377.8 112.51 376.11 113.15 374.29 113.79 372.36 114.43 370.33 115.08 368.2 115.72 365.95 116.36 363.58 117 361.09 117.65 358.5 118.29 355.81 118.93 353.03 119.57 350.12 120.21 347.13 120.86 344.06 121.5 340.93 122.14 337.72 122.78 334.44 123.43 331.12 124.07 327.77 124.71 324.39 125.35 320.99 126 317.58 126.64 314.17 127.28 310.78 127.92 307.41 128.57 304.08 129.21 300.79 129.85 297.54 130.49 294.34 131.14 291.2 131.78 288.13 132.42 285.14 133.06 282.21 133.7 279.34 134.35 276.55 134.99 273.84 135.63 271.2 136.27 268.63 136.92 266.12 137.56 263.67 138.2 261.3 138.84 258.99 139.49 256.73 140.13 254.52 140.77 252.36 141.41 250.25 142.06 248.19 142.7 246.16 143.34 244.18 143.98 242.22 144.63 240.32 145.27 238.44 145.91 236.6 146.55 234.78 147.19 233 147.84 231.25 148.48 229.53 149.12 227.84 149.76 226.17 150.41 224.52 151.05 222.9 151.69 221.3 152.33 219.72 152.98 218.15 153.62 216.58 154.26 215.03 154.9 213.47 155.55 211.9 156.19 210.33 156.83 208.73 157.47 207.11 158.12 205.47 158.76 203.79 159.4 202.07 160.04 200.31 160.68 198.5 161.33 196.63 161.97 194.73 162.61 192.77 163.25 190.74 163.9 188.67 164.54 186.54 165.18 184.38 165.82 182.17 166.47 179.91 167.11 177.64 167.75 175.34 168.39 173.03 169.04 170.71 169.68 168.41 170.32 166.14 170.96 163.89 171.61 161.69 172.25 159.55 172.89 157.5 173.53 155.54 174.17 153.67 174.82 151.91 175.46 150.29 176.1 148.83 176.74 147.51 177.39 146.35 178.03 145.35 178.67 144.56 179.31 143.97 179.96 143.57 180.6 143.36 181.24 143.34 181.88 143.57 182.53 144.01 183.17 144.65 183.81 145.47 184.45 146.48 185.1 147.74 185.74 149.17 186.38 150.78 187.02 152.54 187.66 154.46 188.31 156.56 188.95 158.79 189.59 161.14 190.23 163.59 190.88 166.15 191.52 168.81 192.16 171.54 192.8 174.32 193.45 177.16 194.09 180.04 194.73 182.96 195.37 185.9 196.02 188.84 196.66 191.8 197.3 194.76 197.94 197.71 198.59 200.66 199.23 203.6 199.87 206.52 200.51 209.43 201.15 212.33 201.8 215.21 202.44 218.08 203.08 220.95 203.72 223.8 204.37 226.65 205.01 229.5 205.65 232.35 206.29 235.2 206.94 238.05 207.58 240.92 208.22 243.79 208.86 246.67 209.51 249.57 210.15 252.48 210.79 255.41 211.43 258.35 212.08 261.3 212.72 264.27 213.36 267.25 214 270.25 214.64 273.25 215.29 276.26 215.93 279.28 216.57 282.3 217.21 285.32 217.86 288.35 218.5 291.37 219.14 294.38 219.78 297.39 220.43 300.38 221.07 303.36 221.71 306.33 222.35 309.27 223 312.19 223.64 315.08 224.28 317.95 224.92 320.79 225.57 323.6 226.21 326.36 226.85 329.09 227.49 331.78 228.13 334.44 228.78 337.03 229.42 339.58 230.06 342.08 230.7 344.53 231.35 346.93 231.99 349.26 232.63 351.53 233.27 353.75 233.92 355.9 234.56 357.99 235.2 360.01 235.84 361.96 236.49 363.85 237.13 365.67 237.77 367.42 238.41 369.1 239.06 370.71 239.7 372.27 240.34 373.76 240.98 375.18 241.62 376.54 242.27 377.84 242.91 379.09 243.55 380.29 244.19 381.43 244.84 382.53 245.48 383.58 246.12 384.6 246.76 385.59 247.41 386.53 248.05 387.46 248.69 388.36 249.33 389.24 249.98 390.11 250.62 390.96 251.26 391.81 251.9 392.64 252.55 393.48 253.19 394.32 253.83 395.16 254.47 396 255.11 396.84 255.76 397.69 256.4 398.55 257.04 399.41 257.68 400.27 258.33 401.15 258.97 402.02 259.61 402.9 260.25 403.77 260.9 404.65 261.54 405.52 262.18 406.38 262.82 407.24 263.47 408.08 264.11 408.92 264.75 409.73 265.39 410.53 266.04 411.31 266.68 412.06 267.32 412.79 267.96 413.49 268.6 414.17 269.25 414.81 269.89 415.43 270.53 416.01 271.17 416.56 271.82 417.09 272.46 417.57 273.1 418.02 273.74 418.45 274.39 418.84 275.03 419.2 275.67 419.53 276.31 419.83 276.96 420.1 277.6 420.35 278.24 420.57 278.88 420.77 279.53 420.94 280.17 421.09 280.81 421.22 281.45 421.33 282.09 421.42 282.74 421.49 283.38 421.55 284.02 421.59 284.66 421.61 285.31 421.62 285.95 421.62 286.59 421.6 287.23 421.57 287.88 421.53 288.52 421.47 289.16 421.41 289.8 421.33 290.45 421.25 291.09 421.15 291.73 421.05 292.37 420.93 293.02 420.81 293.66 420.68 294.3 420.54 294.94 420.4 295.58 420.25 296.23 420.09 296.87 419.94 297.51 419.78 298.15 419.62 298.8 419.46 299.44 419.3 300.08 419.14 300.72 418.99 301.37 418.84 302.01 418.7 302.65 418.57 303.29 418.44 303.94 418.33 304.58 418.23 305.22 418.15 305.86 418.07 306.51 418.01 307.15 417.97 307.79 417.94 308.43 417.93 309.07 417.93 309.72 417.96 310.36 417.99 311 418.04 311.64 418.11 312.29 418.19 312.93 418.28 313.57 418.39 314.21 418.51 314.86 418.64 315.5 418.77 316.14 418.92 316.78 419.07 317.43 419.22 318.07 419.38 318.71 419.54 319.35 419.71 320 419.87 320.64 420.03 321.28 420.19 321.92 420.34 322.56 420.49 323.21 420.64 323.85 420.78 324.49 420.91 325.13 421.04 325.78 421.16 326.42 421.28 327.06 421.38 327.7 421.48 328.35 421.58 328.99 421.66 329.63 421.74 330.27 421.81 330.92 421.88 331.56 421.94 332.2 421.99 332.84 422.04 333.49 422.08 334.13 422.12 334.77 422.16 335.41 422.19 336.05 422.21 336.7 422.24 337.34 422.26 337.98 422.27 338.62 422.29 339.27 422.3 339.91 422.31 340.55 422.32 341.19 422.33 341.84 422.34 342.48 422.34 343.12 422.35 343.76 422.35 344.41 422.36 345.05 422.36 345.69 422.36 346.33 422.36 346.98 422.37 347.62 422.37 348.26 422.37 348.9 422.37 349.54 422.37 350.19 422.37 350.83 422.37 351.47 422.37 352.11 422.37 352.76 422.37 353.4 422.37 354.04 422.37 354.68 422.37 355.33 422.37 355.97 422.37 356.61 422.37 357.25 422.37 357.9 422.37 358.54 422.37 359.18 422.37 359.82 422.37 360.47 422.37 361.11 422.37 361.11 422.37 360.47 422.37 359.82 422.37 359.18 422.37 358.54 422.37 357.9 422.37 357.25 422.37 356.61 422.37 355.97 422.37 355.33 422.37 354.68 422.37 354.04 422.37 353.4 422.37 352.76 422.37 352.11 422.37 351.47 422.37 350.83 422.37 350.19 422.37 349.54 422.37 348.9 422.37 348.26 422.37 347.62 422.37 346.98 422.37 346.33 422.37 345.69 422.37 345.05 422.37 344.41 422.37 343.76 422.37 343.12 422.37 342.48 422.37 341.84 422.37 341.19 422.37 340.55 422.37 339.91 422.37 339.27 422.37 338.62 422.37 337.98 422.37 337.34 422.37 336.7 422.37 336.05 422.37 335.41 422.37 334.77 422.37 334.13 422.37 333.49 422.37 332.84 422.37 332.2 422.37 331.56 422.37 330.92 422.37 330.27 422.37 329.63 422.37 328.99 422.37 328.35 422.37 327.7 422.37 327.06 422.37 326.42 422.37 325.78 422.37 325.13 422.37 324.49 422.37 323.85 422.37 323.21 422.37 322.56 422.37 321.92 422.37 321.28 422.37 320.64 422.37 320 422.37 319.35 422.37 318.71 422.37 318.07 422.37 317.43 422.37 316.78 422.37 316.14 422.37 315.5 422.37 314.86 422.37 314.21 422.37 313.57 422.37 312.93 422.37 312.29 422.37 311.64 422.37 311 422.37 310.36 422.37 309.72 422.37 309.07 422.37 308.43 422.37 307.79 422.37 307.15 422.37 306.51 422.37 305.86 422.37 305.22 422.37 304.58 422.37 303.94 422.37 303.29 422.37 302.65 422.37 302.01 422.37 301.37 422.37 300.72 422.37 300.08 422.37 299.44 422.37 298.8 422.37 298.15 422.37 297.51 422.37 296.87 422.37 296.23 422.37 295.58 422.37 294.94 422.37 294.3 422.37 293.66 422.37 293.02 422.37 292.37 422.37 291.73 422.37 291.09 422.37 290.45 422.37 289.8 422.37 289.16 422.37 288.52 422.37 287.88 422.37 287.23 422.37 286.59 422.37 285.95 422.37 285.31 422.37 284.66 422.37 284.02 422.37 283.38 422.37 282.74 422.37 282.09 422.37 281.45 422.37 280.81 422.37 280.17 422.37 279.53 422.37 278.88 422.37 278.24 422.37 277.6 422.37 276.96 422.37 276.31 422.37 275.67 422.37 275.03 422.37 274.39 422.37 273.74 422.37 273.1 422.37 272.46 422.37 271.82 422.37 271.17 422.37 270.53 422.37 269.89 422.37 269.25 422.37 268.6 422.37 267.96 422.37 267.32 422.37 266.68 422.37 266.04 422.37 265.39 422.37 264.75 422.37 264.11 422.37 263.47 422.37 262.82 422.37 262.18 422.37 261.54 422.37 260.9 422.37 260.25 422.37 259.61 422.37 258.97 422.37 258.33 422.37 257.68 422.37 257.04 422.37 256.4 422.37 255.76 422.37 255.11 422.37 254.47 422.37 253.83 422.37 253.19 422.37 252.55 422.37 251.9 422.37 251.26 422.37 250.62 422.37 249.98 422.37 249.33 422.37 248.69 422.37 248.05 422.37 247.41 422.37 246.76 422.37 246.12 422.37 245.48 422.37 244.84 422.37 244.19 422.37 243.55 422.37 242.91 422.37 242.27 422.37 241.62 422.37 240.98 422.37 240.34 422.37 239.7 422.37 239.06 422.37 238.41 422.37 237.77 422.37 237.13 422.37 236.49 422.37 235.84 422.37 235.2 422.37 234.56 422.37 233.92 422.37 233.27 422.37 232.63 422.37 231.99 422.37 231.35 422.37 230.7 422.37 230.06 422.37 229.42 422.37 228.78 422.37 228.13 422.37 227.49 422.37 226.85 422.37 226.21 422.37 225.57 422.37 224.92 422.37 224.28 422.37 223.64 422.37 223 422.37 222.35 422.37 221.71 422.37 221.07 422.37 220.43 422.37 219.78 422.37 219.14 422.37 218.5 422.37 217.86 422.37 217.21 422.37 216.57 422.37 215.93 422.37 215.29 422.37 214.64 422.37 214 422.37 213.36 422.37 212.72 422.37 212.08 422.37 211.43 422.37 210.79 422.37 210.15 422.37 209.51 422.37 208.86 422.37 208.22 422.37 207.58 422.37 206.94 422.37 206.29 422.37 205.65 422.37 205.01 422.37 204.37 422.37 203.72 422.37 203.08 422.37 202.44 422.37 201.8 422.37 201.15 422.37 200.51 422.37 199.87 422.37 199.23 422.37 198.59 422.37 197.94 422.37 197.3 422.37 196.66 422.37 196.02 422.37 195.37 422.37 194.73 422.37 194.09 422.37 193.45 422.37 192.8 422.37 192.16 422.37 191.52 422.37 190.88 422.37 190.23 422.37 189.59 422.37 188.95 422.37 188.31 422.37 187.66 422.37 187.02 422.37 186.38 422.37 185.74 422.37 185.1 422.37 184.45 422.37 183.81 422.37 183.17 422.37 182.53 422.37 181.88 422.37 181.24 422.37 180.6 422.37 179.96 422.37 179.31 422.37 178.67 422.37 178.03 422.37 177.39 422.37 176.74 422.37 176.1 422.37 175.46 422.37 174.82 422.37 174.17 422.37 173.53 422.37 172.89 422.37 172.25 422.37 171.61 422.37 170.96 422.37 170.32 422.37 169.68 422.37 169.04 422.37 168.39 422.37 167.75 422.37 167.11 422.37 166.47 422.37 165.82 422.37 165.18 422.37 164.54 422.37 163.9 422.37 163.25 422.37 162.61 422.37 161.97 422.37 161.33 422.37 160.68 422.37 160.04 422.37 159.4 422.37 158.76 422.37 158.12 422.37 157.47 422.37 156.83 422.37 156.19 422.37 155.55 422.37 154.9 422.37 154.26 422.37 153.62 422.37 152.98 422.37 152.33 422.37 151.69 422.37 151.05 422.37 150.41 422.37 149.76 422.37 149.12 422.37 148.48 422.37 147.84 422.37 147.19 422.37 146.55 422.37 145.91 422.37 145.27 422.37 144.63 422.37 143.98 422.37 143.34 422.37 142.7 422.37 142.06 422.37 141.41 422.37 140.77 422.37 140.13 422.37 139.49 422.37 138.84 422.37 138.2 422.37 137.56 422.37 136.92 422.37 136.27 422.37 135.63 422.37 134.99 422.37 134.35 422.37 133.7 422.37 133.06 422.37 132.42 422.37 131.78 422.37 131.14 422.37 130.49 422.37 129.85 422.37 129.21 422.37 128.57 422.37 127.92 422.37 127.28 422.37 126.64 422.37 126 422.37 125.35 422.37 124.71 422.37 124.07 422.37 123.43 422.37 122.78 422.37 122.14 422.37 121.5 422.37 120.86 422.37 120.21 422.37 119.57 422.37 118.93 422.37 118.29 422.37 117.65 422.37 117 422.37 116.36 422.37 115.72 422.37 115.08 422.37 114.43 422.37 113.79 422.37 113.15 422.37 112.51 422.37 111.86 422.37 111.22 422.37 110.58 422.37 109.94 422.37 109.29 422.37 108.65 422.37 108.01 422.37 107.37 422.37 106.72 422.37 106.08 422.37 105.44 422.37 104.8 422.37 104.16 422.37 103.51 422.37 102.87 422.37 102.23 422.37 101.59 422.37 100.94 422.37 100.3 422.37 99.66 422.37 99.02 422.37 98.37 422.37 97.73 422.37 97.09 422.37 96.45 422.37 95.8 422.37 95.16 422.37 94.52 422.37 93.88 422.37 93.23 422.37 92.59 422.37 91.95 422.37 91.31 422.37 90.67 422.37 90.02 422.37 89.38 422.37 88.74 422.37 88.1 422.37 87.45 422.37 86.81 422.37 86.17 422.37 85.53 422.37 84.88 422.37 84.24 422.37 83.6 422.37 82.96 422.37 82.31 422.37 81.67 422.37 81.03 422.37 80.39 422.37 79.74 422.37 79.1 422.37 78.46 422.37 77.82 422.37 77.18 422.37 76.53 422.37 75.89 422.37 75.25 422.37 74.61 422.37 73.96 422.37 73.32 422.37 72.68 422.37 72.04 422.37 71.39 422.37 70.75 422.37 70.11 422.37 69.47 422.37 68.82 422.37 68.18 422.37 67.54 422.37 66.9 422.37 66.25 422.37 65.61 422.37 64.97 422.37 64.33 422.37 63.69 422.37 63.04 422.37 62.4 422.37 61.76 422.37 61.12 422.37 60.47 422.37 59.83 422.37 59.19 422.37 58.55 422.37 57.9 422.37 57.26 422.37 56.62 422.37 55.98 422.37 55.33 422.37 54.69 422.37 54.05 422.37 53.41 422.37 52.76 422.37 52.12 422.37 51.48 422.37 50.84 422.37 50.2 422.37 49.55 422.37 48.91 422.37 48.27 422.37 47.63 422.37 46.98 422.37 46.34 422.37 45.7 422.37 45.06 422.37 44.41 422.37 43.77 422.37 43.13 422.37 42.49 422.37 41.84 422.37 41.2 422.37 40.56 422.37 39.92 422.37 39.27 422.37 38.63 422.37 37.99 422.37 37.35 422.37 36.71 422.37 36.06 422.37 35.42 422.37 34.78 422.37 34.14 422.37 33.49 422.37 32.85 422.37" clip-path="url(#cpMTYuNDR8Mzc3LjUyfDQ0MS4wN3wyOS43OA==)" style="stroke-width:0;stroke:none;fill:#0af;fill-opacity:.25"/><polyline points="32.85 422.37 33.49 422.37 34.14 422.37 34.78 422.37 35.42 422.37 36.06 422.37 36.71 422.37 37.35 422.37 37.99 422.37 38.63 422.37 39.27 422.37 39.92 422.37 40.56 422.37 41.2 422.37 41.84 422.37 42.49 422.37 43.13 422.37 43.77 422.37 44.41 422.37 45.06 422.37 45.7 422.37 46.34 422.37 46.98 422.37 47.63 422.37 48.27 422.37 48.91 422.37 49.55 422.37 50.2 422.37 50.84 422.37 51.48 422.37 52.12 422.37 52.76 422.37 53.41 422.37 54.05 422.37 54.69 422.37 55.33 422.37 55.98 422.37 56.62 422.36 57.26 422.36 57.9 422.36 58.55 422.36 59.19 422.35 59.83 422.35 60.47 422.34 61.12 422.33 61.76 422.32 62.4 422.31 63.04 422.3 63.69 422.29 64.33 422.27 64.97 422.25 65.61 422.22 66.25 422.19 66.9 422.16 67.54 422.12 68.18 422.07 68.82 422.02 69.47 421.96 70.11 421.89 70.75 421.81 71.39 421.72 72.04 421.61 72.68 421.5 73.32 421.36 73.96 421.21 74.61 421.05 75.25 420.87 75.89 420.66 76.53 420.43 77.18 420.18 77.82 419.91 78.46 419.62 79.1 419.29 79.74 418.94 80.39 418.56 81.03 418.15 81.67 417.72 82.31 417.25 82.96 416.75 83.6 416.23 84.24 415.68 84.88 415.1 85.53 414.49 86.17 413.86 86.81 413.2 87.45 412.52 88.1 411.81 88.74 411.09 89.38 410.35 90.02 409.59 90.67 408.82 91.31 408.04 91.95 407.25 92.59 406.46 93.23 405.66 93.88 404.86 94.52 404.06 95.16 403.26 95.8 402.46 96.45 401.66 97.09 400.87 97.73 400.09 98.37 399.3 99.02 398.52 99.66 397.74 100.3 396.96 100.94 396.17 101.59 395.38 102.23 394.58 102.87 393.76 103.51 392.93 104.16 392.07 104.8 391.19 105.44 390.27 106.08 389.31 106.72 388.31 107.37 387.24 108.01 386.12 108.65 384.94 109.29 383.69 109.94 382.35 110.58 380.92 111.22 379.41 111.86 377.8 112.51 376.11 113.15 374.29 113.79 372.36 114.43 370.33 115.08 368.2 115.72 365.95 116.36 363.58 117 361.09 117.65 358.5 118.29 355.81 118.93 353.03 119.57 350.12 120.21 347.13 120.86 344.06 121.5 340.93 122.14 337.72 122.78 334.44 123.43 331.12 124.07 327.77 124.71 324.39 125.35 320.99 126 317.58 126.64 314.17 127.28 310.78 127.92 307.41 128.57 304.08 129.21 300.79 129.85 297.54 130.49 294.34 131.14 291.2 131.78 288.13 132.42 285.14 133.06 282.21 133.7 279.34 134.35 276.55 134.99 273.84 135.63 271.2 136.27 268.63 136.92 266.12 137.56 263.67 138.2 261.3 138.84 258.99 139.49 256.73 140.13 254.52 140.77 252.36 141.41 250.25 142.06 248.19 142.7 246.16 143.34 244.18 143.98 242.22 144.63 240.32 145.27 238.44 145.91 236.6 146.55 234.78 147.19 233 147.84 231.25 148.48 229.53 149.12 227.84 149.76 226.17 150.41 224.52 151.05 222.9 151.69 221.3 152.33 219.72 152.98 218.15 153.62 216.58 154.26 215.03 154.9 213.47 155.55 211.9 156.19 210.33 156.83 208.73 157.47 207.11 158.12 205.47 158.76 203.79 159.4 202.07 160.04 200.31 160.68 198.5 161.33 196.63 161.97 194.73 162.61 192.77 163.25 190.74 163.9 188.67 164.54 186.54 165.18 184.38 165.82 182.17 166.47 179.91 167.11 177.64 167.75 175.34 168.39 173.03 169.04 170.71 169.68 168.41 170.32 166.14 170.96 163.89 171.61 161.69 172.25 159.55 172.89 157.5 173.53 155.54 174.17 153.67 174.82 151.91 175.46 150.29 176.1 148.83 176.74 147.51 177.39 146.35 178.03 145.35 178.67 144.56 179.31 143.97 179.96 143.57 180.6 143.36 181.24 143.34 181.88 143.57 182.53 144.01 183.17 144.65 183.81 145.47 184.45 146.48 185.1 147.74 185.74 149.17 186.38 150.78 187.02 152.54 187.66 154.46 188.31 156.56 188.95 158.79 189.59 161.14 190.23 163.59 190.88 166.15 191.52 168.81 192.16 171.54 192.8 174.32 193.45 177.16 194.09 180.04 194.73 182.96 195.37 185.9 196.02 188.84 196.66 191.8 197.3 194.76 197.94 197.71 198.59 200.66 199.23 203.6 199.87 206.52 200.51 209.43 201.15 212.33 201.8 215.21 202.44 218.08 203.08 220.95 203.72 223.8 204.37 226.65 205.01 229.5 205.65 232.35 206.29 235.2 206.94 238.05 207.58 240.92 208.22 243.79 208.86 246.67 209.51 249.57 210.15 252.48 210.79 255.41 211.43 258.35 212.08 261.3 212.72 264.27 213.36 267.25 214 270.25 214.64 273.25 215.29 276.26 215.93 279.28 216.57 282.3 217.21 285.32 217.86 288.35 218.5 291.37 219.14 294.38 219.78 297.39 220.43 300.38 221.07 303.36 221.71 306.33 222.35 309.27 223 312.19 223.64 315.08 224.28 317.95 224.92 320.79 225.57 323.6 226.21 326.36 226.85 329.09 227.49 331.78 228.13 334.44 228.78 337.03 229.42 339.58 230.06 342.08 230.7 344.53 231.35 346.93 231.99 349.26 232.63 351.53 233.27 353.75 233.92 355.9 234.56 357.99 235.2 360.01 235.84 361.96 236.49 363.85 237.13 365.67 237.77 367.42 238.41 369.1 239.06 370.71 239.7 372.27 240.34 373.76 240.98 375.18 241.62 376.54 242.27 377.84 242.91 379.09 243.55 380.29 244.19 381.43 244.84 382.53 245.48 383.58 246.12 384.6 246.76 385.59 247.41 386.53 248.05 387.46 248.69 388.36 249.33 389.24 249.98 390.11 250.62 390.96 251.26 391.81 251.9 392.64 252.55 393.48 253.19 394.32 253.83 395.16 254.47 396 255.11 396.84 255.76 397.69 256.4 398.55 257.04 399.41 257.68 400.27 258.33 401.15 258.97 402.02 259.61 402.9 260.25 403.77 260.9 404.65 261.54 405.52 262.18 406.38 262.82 407.24 263.47 408.08 264.11 408.92 264.75 409.73 265.39 410.53 266.04 411.31 266.68 412.06 267.32 412.79 267.96 413.49 268.6 414.17 269.25 414.81 269.89 415.43 270.53 416.01 271.17 416.56 271.82 417.09 272.46 417.57 273.1 418.02 273.74 418.45 274.39 418.84 275.03 419.2 275.67 419.53 276.31 419.83 276.96 420.1 277.6 420.35 278.24 420.57 278.88 420.77 279.53 420.94 280.17 421.09 280.81 421.22 281.45 421.33 282.09 421.42 282.74 421.49 283.38 421.55 284.02 421.59 284.66 421.61 285.31 421.62 285.95 421.62 286.59 421.6 287.23 421.57 287.88 421.53 288.52 421.47 289.16 421.41 289.8 421.33 290.45 421.25 291.09 421.15 291.73 421.05 292.37 420.93 293.02 420.81 293.66 420.68 294.3 420.54 294.94 420.4 295.58 420.25 296.23 420.09 296.87 419.94 297.51 419.78 298.15 419.62 298.8 419.46 299.44 419.3 300.08 419.14 300.72 418.99 301.37 418.84 302.01 418.7 302.65 418.57 303.29 418.44 303.94 418.33 304.58 418.23 305.22 418.15 305.86 418.07 306.51 418.01 307.15 417.97 307.79 417.94 308.43 417.93 309.07 417.93 309.72 417.96 310.36 417.99 311 418.04 311.64 418.11 312.29 418.19 312.93 418.28 313.57 418.39 314.21 418.51 314.86 418.64 315.5 418.77 316.14 418.92 316.78 419.07 317.43 419.22 318.07 419.38 318.71 419.54 319.35 419.71 320 419.87 320.64 420.03 321.28 420.19 321.92 420.34 322.56 420.49 323.21 420.64 323.85 420.78 324.49 420.91 325.13 421.04 325.78 421.16 326.42 421.28 327.06 421.38 327.7 421.48 328.35 421.58 328.99 421.66 329.63 421.74 330.27 421.81 330.92 421.88 331.56 421.94 332.2 421.99 332.84 422.04 333.49 422.08 334.13 422.12 334.77 422.16 335.41 422.19 336.05 422.21 336.7 422.24 337.34 422.26 337.98 422.27 338.62 422.29 339.27 422.3 339.91 422.31 340.55 422.32 341.19 422.33 341.84 422.34 342.48 422.34 343.12 422.35 343.76 422.35 344.41 422.36 345.05 422.36 345.69 422.36 346.33 422.36 346.98 422.37 347.62 422.37 348.26 422.37 348.9 422.37 349.54 422.37 350.19 422.37 350.83 422.37 351.47 422.37 352.11 422.37 352.76 422.37 353.4 422.37 354.04 422.37 354.68 422.37 355.33 422.37 355.97 422.37 356.61 422.37 357.25 422.37 357.9 422.37 358.54 422.37 359.18 422.37 359.82 422.37 360.47 422.37 361.11 422.37" clip-path="url(#cpMTYuNDR8Mzc3LjUyfDQ0MS4wN3wyOS43OA==)" style="stroke-width:1.07;stroke:#00bfc4"/><defs><clipPath id="cpMC4wMHw3NjYuMDB8NDc2LjAwfDAuMDA="><rect width="766" height="476" x="0" y="0"/></clipPath></defs><polyline points="32.85 443.81 32.85 441.07" clip-path="url(#cpMC4wMHw3NjYuMDB8NDc2LjAwfDAuMDA=)" style="stroke-width:1.07;stroke:#333;stroke-linecap:butt"/><polyline points="98.5 443.81 98.5 441.07" clip-path="url(#cpMC4wMHw3NjYuMDB8NDc2LjAwfDAuMDA=)" style="stroke-width:1.07;stroke:#333;stroke-linecap:butt"/><polyline points="164.15 443.81 164.15 441.07" clip-path="url(#cpMC4wMHw3NjYuMDB8NDc2LjAwfDAuMDA=)" style="stroke-width:1.07;stroke:#333;stroke-linecap:butt"/><polyline points="229.81 443.81 229.81 441.07" clip-path="url(#cpMC4wMHw3NjYuMDB8NDc2LjAwfDAuMDA=)" style="stroke-width:1.07;stroke:#333;stroke-linecap:butt"/><polyline points="295.46 443.81 295.46 441.07" clip-path="url(#cpMC4wMHw3NjYuMDB8NDc2LjAwfDAuMDA=)" style="stroke-width:1.07;stroke:#333;stroke-linecap:butt"/><polyline points="361.11 443.81 361.11 441.07" clip-path="url(#cpMC4wMHw3NjYuMDB8NDc2LjAwfDAuMDA=)" style="stroke-width:1.07;stroke:#333;stroke-linecap:butt"/><g clip-path="url(#cpMC4wMHw3NjYuMDB8NDc2LjAwfDAuMDA=)"><text x="27.29" y="451.73" lengthAdjust="spacingAndGlyphs" textLength="11.12" style="font-size:8px;fill:#4d4d4d;font-family:Arial">1.5</text></g><g clip-path="url(#cpMC4wMHw3NjYuMDB8NDc2LjAwfDAuMDA=)"><text x="92.94" y="451.73" lengthAdjust="spacingAndGlyphs" textLength="11.12" style="font-size:8px;fill:#4d4d4d;font-family:Arial">2.0</text></g><g clip-path="url(#cpMC4wMHw3NjYuMDB8NDc2LjAwfDAuMDA=)"><text x="158.59" y="451.73" lengthAdjust="spacingAndGlyphs" textLength="11.12" style="font-size:8px;fill:#4d4d4d;font-family:Arial">2.5</text></g><g clip-path="url(#cpMC4wMHw3NjYuMDB8NDc2LjAwfDAuMDA=)"><text x="224.24" y="451.73" lengthAdjust="spacingAndGlyphs" textLength="11.12" style="font-size:8px;fill:#4d4d4d;font-family:Arial">3.0</text></g><g clip-path="url(#cpMC4wMHw3NjYuMDB8NDc2LjAwfDAuMDA=)"><text x="289.9" y="451.73" lengthAdjust="spacingAndGlyphs" textLength="11.12" style="font-size:8px;fill:#4d4d4d;font-family:Arial">3.5</text></g><g clip-path="url(#cpMC4wMHw3NjYuMDB8NDc2LjAwfDAuMDA=)"><text x="355.55" y="451.73" lengthAdjust="spacingAndGlyphs" textLength="11.12" style="font-size:8px;fill:#4d4d4d;font-family:Arial">4.0</text></g><rect width="53.08" height="37.17" x="296.82" y="114.01" clip-path="url(#cpMC4wMHw3NjYuMDB8NDc2LjAwfDAuMDA=)" style="stroke-width:1.07;stroke:none"/><g clip-path="url(#cpMC4wMHw3NjYuMDB8NDc2LjAwfDAuMDA=)"><text x="302.3" y="126.06" lengthAdjust="spacingAndGlyphs" textLength="21.79" style="font-size:8px;fill:#4d4d4d;font-family:Arial">Model</text></g><rect width="5.67" height="7.41" x="302.3" y="130.89" clip-path="url(#cpMC4wMHw3NjYuMDB8NDc2LjAwfDAuMDA=)" style="stroke-width:1.07;stroke:none"/><rect width="4.25" height="5.99" x="303.01" y="131.6" clip-path="url(#cpMC4wMHw3NjYuMDB8NDc2LjAwfDAuMDA=)" style="stroke-width:1.07;stroke:#f8766d;stroke-linecap:square;stroke-linejoin:miter;fill:#f50;fill-opacity:.25"/><rect width="5.67" height="7.41" x="302.3" y="138.3" clip-path="url(#cpMC4wMHw3NjYuMDB8NDc2LjAwfDAuMDA=)" style="stroke-width:1.07;stroke:none"/><rect width="4.25" height="5.99" x="303.01" y="139.01" clip-path="url(#cpMC4wMHw3NjYuMDB8NDc2LjAwfDAuMDA=)" style="stroke-width:1.07;stroke:#00bfc4;stroke-linecap:square;stroke-linejoin:miter;fill:#0af;fill-opacity:.25"/><g clip-path="url(#cpMC4wMHw3NjYuMDB8NDc2LjAwfDAuMDA=)"><text x="311.95" y="137.46" lengthAdjust="spacingAndGlyphs" textLength="21.34" style="font-size:8px;fill:#4d4d4d;font-family:Arial">Mixed</text></g><g clip-path="url(#cpMC4wMHw3NjYuMDB8NDc2LjAwfDAuMDA=)"><text x="311.95" y="144.87" lengthAdjust="spacingAndGlyphs" textLength="32.47" style="font-size:8px;fill:#4d4d4d;font-family:Arial">Separate</text></g><g clip-path="url(#cpMC4wMHw3NjYuMDB8NDc2LjAwfDAuMDA=)"><text x="16.44" y="21.27" lengthAdjust="spacingAndGlyphs" textLength="63.23" style="font-size:14.4px;fill:#4d4d4d;font-family:Arial">Intercepts</text></g><defs><clipPath id="cpMzgzLjAwfDc2MC41Mnw0NzAuNTJ8NS40OA=="><rect width="377.52" height="465.04" x="383" y="5.48"/></clipPath></defs><rect width="377.52" height="465.04" x="383" y="5.48" clip-path="url(#cpMzgzLjAwfDc2MC41Mnw0NzAuNTJ8NS40OA==)" style="stroke-width:1.07;stroke:none"/><defs><clipPath id="cpMC4wMHw3NjYuMDB8NDc2LjAwfDAuMDA="><rect width="766" height="476" x="0" y="0"/></clipPath></defs><defs><clipPath id="cpMzkzLjk2fDc1NS4wNHw0NDEuMDd8MjkuNzg="><rect width="361.08" height="411.29" x="393.96" y="29.78"/></clipPath></defs><polygon points="410.37 422.37 411.01 422.37 411.66 422.37 412.3 422.37 412.94 422.37 413.58 422.37 414.23 422.37 414.87 422.37 415.51 422.37 416.15 422.37 416.8 422.37 417.44 422.37 418.08 422.37 418.72 422.37 419.37 422.37 420.01 422.37 420.65 422.37 421.29 422.37 421.93 422.37 422.58 422.37 423.22 422.37 423.86 422.37 424.5 422.37 425.15 422.37 425.79 422.37 426.43 422.37 427.07 422.37 427.72 422.37 428.36 422.37 429 422.37 429.64 422.37 430.29 422.37 430.93 422.37 431.57 422.37 432.21 422.37 432.86 422.37 433.5 422.37 434.14 422.37 434.78 422.37 435.42 422.37 436.07 422.37 436.71 422.37 437.35 422.37 437.99 422.37 438.64 422.37 439.28 422.37 439.92 422.37 440.56 422.37 441.21 422.37 441.85 422.37 442.49 422.37 443.13 422.37 443.78 422.37 444.42 422.37 445.06 422.37 445.7 422.37 446.35 422.37 446.99 422.37 447.63 422.37 448.27 422.37 448.91 422.37 449.56 422.37 450.2 422.37 450.84 422.37 451.48 422.37 452.13 422.37 452.77 422.37 453.41 422.37 454.05 422.37 454.7 422.37 455.34 422.37 455.98 422.37 456.62 422.37 457.27 422.37 457.91 422.37 458.55 422.37 459.19 422.37 459.84 422.37 460.48 422.37 461.12 422.37 461.76 422.37 462.4 422.37 463.05 422.37 463.69 422.37 464.33 422.37 464.97 422.37 465.62 422.37 466.26 422.37 466.9 422.37 467.54 422.37 468.19 422.37 468.83 422.37 469.47 422.37 470.11 422.37 470.76 422.37 471.4 422.37 472.04 422.37 472.68 422.37 473.33 422.37 473.97 422.37 474.61 422.37 475.25 422.37 475.89 422.36 476.54 422.36 477.18 422.36 477.82 422.35 478.46 422.35 479.11 422.34 479.75 422.33 480.39 422.32 481.03 422.31 481.68 422.29 482.32 422.27 482.96 422.25 483.6 422.22 484.25 422.18 484.89 422.14 485.53 422.09 486.17 422.03 486.82 421.96 487.46 421.87 488.1 421.77 488.74 421.66 489.38 421.52 490.03 421.36 490.67 421.18 491.31 420.97 491.95 420.73 492.6 420.46 493.24 420.14 493.88 419.78 494.52 419.38 495.17 418.94 495.81 418.44 496.45 417.89 497.09 417.26 497.74 416.58 498.38 415.83 499.02 415.01 499.66 414.12 500.31 413.14 500.95 412.08 501.59 410.94 502.23 409.71 502.87 408.4 503.52 406.99 504.16 405.48 504.8 403.88 505.44 402.2 506.09 400.42 506.73 398.54 507.37 396.55 508.01 394.48 508.66 392.32 509.3 390.07 509.94 387.72 510.58 385.27 511.23 382.74 511.87 380.13 512.51 377.43 513.15 374.66 513.8 371.79 514.44 368.85 515.08 365.84 515.72 362.76 516.36 359.61 517.01 356.4 517.65 353.11 518.29 349.77 518.93 346.37 519.58 342.92 520.22 339.41 520.86 335.85 521.5 332.24 522.15 328.58 522.79 324.87 523.43 321.12 524.07 317.31 524.72 313.46 525.36 309.55 526 305.6 526.64 301.59 527.29 297.52 527.93 293.38 528.57 289.18 529.21 284.92 529.85 280.6 530.5 276.2 531.14 271.71 531.78 267.15 532.42 262.51 533.07 257.8 533.71 253 534.35 248.11 534.99 243.15 535.64 238.11 536.28 233 536.92 227.83 537.56 222.58 538.21 217.28 538.85 211.94 539.49 206.57 540.13 201.17 540.78 195.76 541.42 190.36 542.06 184.97 542.7 179.61 543.34 174.29 543.99 169.03 544.63 163.87 545.27 158.81 545.91 153.85 546.56 149.02 547.2 144.32 547.84 139.81 548.48 135.47 549.13 131.31 549.77 127.33 550.41 123.54 551.05 119.97 551.7 116.63 552.34 113.48 552.98 110.52 553.62 107.75 554.27 105.17 554.91 102.79 555.55 100.55 556.19 98.45 556.83 96.47 557.48 94.59 558.12 92.8 558.76 91.07 559.4 89.38 560.05 87.7 560.69 86.02 561.33 84.33 561.97 82.59 562.62 80.81 563.26 78.98 563.9 77.1 564.54 75.15 565.19 73.14 565.83 71.09 566.47 69 567.11 66.9 567.76 64.78 568.4 62.69 569.04 60.64 569.68 58.67 570.32 56.78 570.97 55.01 571.61 53.42 572.25 52.01 572.89 50.8 573.54 49.82 574.18 49.07 574.82 48.61 575.46 48.47 576.11 48.61 576.75 49.05 577.39 49.77 578.03 50.8 578.68 52.18 579.32 53.84 579.96 55.75 580.6 57.92 581.24 60.31 581.89 62.97 582.53 65.81 583.17 68.8 583.81 71.92 584.46 75.16 585.1 78.48 585.74 81.87 586.38 85.28 587.03 88.69 587.67 92.1 588.31 95.47 588.95 98.78 589.6 102.02 590.24 105.2 590.88 108.3 591.52 111.31 592.17 114.22 592.81 117.05 593.45 119.81 594.09 122.5 594.73 125.13 595.38 127.7 596.02 130.24 596.66 132.76 597.3 135.28 597.95 137.82 598.59 140.38 599.23 142.99 599.87 145.66 600.52 148.4 601.16 151.22 601.8 154.14 602.44 157.18 603.09 160.33 603.73 163.59 604.37 166.96 605.01 170.44 605.66 174.06 606.3 177.79 606.94 181.61 607.58 185.53 608.22 189.53 608.87 193.61 609.51 197.76 610.15 201.95 610.79 206.17 611.44 210.41 612.08 214.66 612.72 218.9 613.36 223.11 614.01 227.28 614.65 231.41 615.29 235.47 615.93 239.45 616.58 243.34 617.22 247.14 617.86 250.85 618.5 254.45 619.15 257.94 619.79 261.3 620.43 264.55 621.07 267.69 621.71 270.73 622.36 273.66 623 276.47 623.64 279.19 624.28 281.83 624.93 284.39 625.57 286.89 626.21 289.32 626.85 291.7 627.5 294.06 628.14 296.39 628.78 298.72 629.42 301.04 630.07 303.38 630.71 305.74 631.35 308.13 631.99 310.56 632.64 313.03 633.28 315.57 633.92 318.15 634.56 320.79 635.2 323.49 635.85 326.24 636.49 329.07 637.13 331.94 637.77 334.85 638.42 337.8 639.06 340.79 639.7 343.81 640.34 346.84 640.99 349.88 641.63 352.92 642.27 355.94 642.91 358.94 643.56 361.9 644.2 364.81 644.84 367.67 645.48 370.48 646.13 373.21 646.77 375.84 647.41 378.4 648.05 380.86 648.69 383.23 649.34 385.51 649.98 387.65 650.62 389.7 651.26 391.64 651.91 393.47 652.55 395.21 653.19 396.83 653.83 398.34 654.48 399.75 655.12 401.08 655.76 402.32 656.4 403.47 657.05 404.53 657.69 405.52 658.33 406.44 658.97 407.3 659.62 408.11 660.26 408.85 660.9 409.55 661.54 410.21 662.18 410.84 662.83 411.43 663.47 412 664.11 412.53 664.75 413.05 665.4 413.55 666.04 414.03 666.68 414.5 667.32 414.95 667.97 415.39 668.61 415.82 669.25 416.24 669.89 416.64 670.54 417.03 671.18 417.41 671.82 417.78 672.46 418.13 673.11 418.47 673.75 418.79 674.39 419.1 675.03 419.39 675.67 419.67 676.32 419.93 676.96 420.17 677.6 420.4 678.24 420.61 678.89 420.8 679.53 420.98 680.17 421.15 680.81 421.29 681.46 421.43 682.1 421.55 682.74 421.66 683.38 421.76 684.03 421.84 684.67 421.92 685.31 421.98 685.95 422.04 686.6 422.09 687.24 422.14 687.88 422.18 688.52 422.21 689.16 422.24 689.81 422.26 690.45 422.28 691.09 422.3 691.73 422.31 692.38 422.32 693.02 422.33 693.66 422.34 694.3 422.35 694.95 422.35 695.59 422.36 696.23 422.36 696.87 422.36 697.52 422.36 698.16 422.37 698.8 422.37 699.44 422.37 700.09 422.37 700.73 422.37 701.37 422.37 702.01 422.37 702.65 422.37 703.3 422.37 703.94 422.37 704.58 422.37 705.22 422.37 705.87 422.37 706.51 422.37 707.15 422.37 707.79 422.37 708.44 422.37 709.08 422.37 709.72 422.37 710.36 422.37 711.01 422.37 711.65 422.37 712.29 422.37 712.93 422.37 713.58 422.37 714.22 422.37 714.86 422.37 715.5 422.37 716.14 422.37 716.79 422.37 717.43 422.37 718.07 422.37 718.71 422.37 719.36 422.37 720 422.37 720.64 422.37 721.28 422.37 721.93 422.37 722.57 422.37 723.21 422.37 723.85 422.37 724.5 422.37 725.14 422.37 725.78 422.37 726.42 422.37 727.07 422.37 727.71 422.37 728.35 422.37 728.99 422.37 729.63 422.37 730.28 422.37 730.92 422.37 731.56 422.37 732.2 422.37 732.85 422.37 733.49 422.37 734.13 422.37 734.77 422.37 735.42 422.37 736.06 422.37 736.7 422.37 737.34 422.37 737.99 422.37 738.63 422.37 738.63 422.37 737.99 422.37 737.34 422.37 736.7 422.37 736.06 422.37 735.42 422.37 734.77 422.37 734.13 422.37 733.49 422.37 732.85 422.37 732.2 422.37 731.56 422.37 730.92 422.37 730.28 422.37 729.63 422.37 728.99 422.37 728.35 422.37 727.71 422.37 727.07 422.37 726.42 422.37 725.78 422.37 725.14 422.37 724.5 422.37 723.85 422.37 723.21 422.37 722.57 422.37 721.93 422.37 721.28 422.37 720.64 422.37 720 422.37 719.36 422.37 718.71 422.37 718.07 422.37 717.43 422.37 716.79 422.37 716.14 422.37 715.5 422.37 714.86 422.37 714.22 422.37 713.58 422.37 712.93 422.37 712.29 422.37 711.65 422.37 711.01 422.37 710.36 422.37 709.72 422.37 709.08 422.37 708.44 422.37 707.79 422.37 707.15 422.37 706.51 422.37 705.87 422.37 705.22 422.37 704.58 422.37 703.94 422.37 703.3 422.37 702.65 422.37 702.01 422.37 701.37 422.37 700.73 422.37 700.09 422.37 699.44 422.37 698.8 422.37 698.16 422.37 697.52 422.37 696.87 422.37 696.23 422.37 695.59 422.37 694.95 422.37 694.3 422.37 693.66 422.37 693.02 422.37 692.38 422.37 691.73 422.37 691.09 422.37 690.45 422.37 689.81 422.37 689.16 422.37 688.52 422.37 687.88 422.37 687.24 422.37 686.6 422.37 685.95 422.37 685.31 422.37 684.67 422.37 684.03 422.37 683.38 422.37 682.74 422.37 682.1 422.37 681.46 422.37 680.81 422.37 680.17 422.37 679.53 422.37 678.89 422.37 678.24 422.37 677.6 422.37 676.96 422.37 676.32 422.37 675.67 422.37 675.03 422.37 674.39 422.37 673.75 422.37 673.11 422.37 672.46 422.37 671.82 422.37 671.18 422.37 670.54 422.37 669.89 422.37 669.25 422.37 668.61 422.37 667.97 422.37 667.32 422.37 666.68 422.37 666.04 422.37 665.4 422.37 664.75 422.37 664.11 422.37 663.47 422.37 662.83 422.37 662.18 422.37 661.54 422.37 660.9 422.37 660.26 422.37 659.62 422.37 658.97 422.37 658.33 422.37 657.69 422.37 657.05 422.37 656.4 422.37 655.76 422.37 655.12 422.37 654.48 422.37 653.83 422.37 653.19 422.37 652.55 422.37 651.91 422.37 651.26 422.37 650.62 422.37 649.98 422.37 649.34 422.37 648.69 422.37 648.05 422.37 647.41 422.37 646.77 422.37 646.13 422.37 645.48 422.37 644.84 422.37 644.2 422.37 643.56 422.37 642.91 422.37 642.27 422.37 641.63 422.37 640.99 422.37 640.34 422.37 639.7 422.37 639.06 422.37 638.42 422.37 637.77 422.37 637.13 422.37 636.49 422.37 635.85 422.37 635.2 422.37 634.56 422.37 633.92 422.37 633.28 422.37 632.64 422.37 631.99 422.37 631.35 422.37 630.71 422.37 630.07 422.37 629.42 422.37 628.78 422.37 628.14 422.37 627.5 422.37 626.85 422.37 626.21 422.37 625.57 422.37 624.93 422.37 624.28 422.37 623.64 422.37 623 422.37 622.36 422.37 621.71 422.37 621.07 422.37 620.43 422.37 619.79 422.37 619.15 422.37 618.5 422.37 617.86 422.37 617.22 422.37 616.58 422.37 615.93 422.37 615.29 422.37 614.65 422.37 614.01 422.37 613.36 422.37 612.72 422.37 612.08 422.37 611.44 422.37 610.79 422.37 610.15 422.37 609.51 422.37 608.87 422.37 608.22 422.37 607.58 422.37 606.94 422.37 606.3 422.37 605.66 422.37 605.01 422.37 604.37 422.37 603.73 422.37 603.09 422.37 602.44 422.37 601.8 422.37 601.16 422.37 600.52 422.37 599.87 422.37 599.23 422.37 598.59 422.37 597.95 422.37 597.3 422.37 596.66 422.37 596.02 422.37 595.38 422.37 594.73 422.37 594.09 422.37 593.45 422.37 592.81 422.37 592.17 422.37 591.52 422.37 590.88 422.37 590.24 422.37 589.6 422.37 588.95 422.37 588.31 422.37 587.67 422.37 587.03 422.37 586.38 422.37 585.74 422.37 585.1 422.37 584.46 422.37 583.81 422.37 583.17 422.37 582.53 422.37 581.89 422.37 581.24 422.37 580.6 422.37 579.96 422.37 579.32 422.37 578.68 422.37 578.03 422.37 577.39 422.37 576.75 422.37 576.11 422.37 575.46 422.37 574.82 422.37 574.18 422.37 573.54 422.37 572.89 422.37 572.25 422.37 571.61 422.37 570.97 422.37 570.32 422.37 569.68 422.37 569.04 422.37 568.4 422.37 567.76 422.37 567.11 422.37 566.47 422.37 565.83 422.37 565.19 422.37 564.54 422.37 563.9 422.37 563.26 422.37 562.62 422.37 561.97 422.37 561.33 422.37 560.69 422.37 560.05 422.37 559.4 422.37 558.76 422.37 558.12 422.37 557.48 422.37 556.83 422.37 556.19 422.37 555.55 422.37 554.91 422.37 554.27 422.37 553.62 422.37 552.98 422.37 552.34 422.37 551.7 422.37 551.05 422.37 550.41 422.37 549.77 422.37 549.13 422.37 548.48 422.37 547.84 422.37 547.2 422.37 546.56 422.37 545.91 422.37 545.27 422.37 544.63 422.37 543.99 422.37 543.34 422.37 542.7 422.37 542.06 422.37 541.42 422.37 540.78 422.37 540.13 422.37 539.49 422.37 538.85 422.37 538.21 422.37 537.56 422.37 536.92 422.37 536.28 422.37 535.64 422.37 534.99 422.37 534.35 422.37 533.71 422.37 533.07 422.37 532.42 422.37 531.78 422.37 531.14 422.37 530.5 422.37 529.85 422.37 529.21 422.37 528.57 422.37 527.93 422.37 527.29 422.37 526.64 422.37 526 422.37 525.36 422.37 524.72 422.37 524.07 422.37 523.43 422.37 522.79 422.37 522.15 422.37 521.5 422.37 520.86 422.37 520.22 422.37 519.58 422.37 518.93 422.37 518.29 422.37 517.65 422.37 517.01 422.37 516.36 422.37 515.72 422.37 515.08 422.37 514.44 422.37 513.8 422.37 513.15 422.37 512.51 422.37 511.87 422.37 511.23 422.37 510.58 422.37 509.94 422.37 509.3 422.37 508.66 422.37 508.01 422.37 507.37 422.37 506.73 422.37 506.09 422.37 505.44 422.37 504.8 422.37 504.16 422.37 503.52 422.37 502.87 422.37 502.23 422.37 501.59 422.37 500.95 422.37 500.31 422.37 499.66 422.37 499.02 422.37 498.38 422.37 497.74 422.37 497.09 422.37 496.45 422.37 495.81 422.37 495.17 422.37 494.52 422.37 493.88 422.37 493.24 422.37 492.6 422.37 491.95 422.37 491.31 422.37 490.67 422.37 490.03 422.37 489.38 422.37 488.74 422.37 488.1 422.37 487.46 422.37 486.82 422.37 486.17 422.37 485.53 422.37 484.89 422.37 484.25 422.37 483.6 422.37 482.96 422.37 482.32 422.37 481.68 422.37 481.03 422.37 480.39 422.37 479.75 422.37 479.11 422.37 478.46 422.37 477.82 422.37 477.18 422.37 476.54 422.37 475.89 422.37 475.25 422.37 474.61 422.37 473.97 422.37 473.33 422.37 472.68 422.37 472.04 422.37 471.4 422.37 470.76 422.37 470.11 422.37 469.47 422.37 468.83 422.37 468.19 422.37 467.54 422.37 466.9 422.37 466.26 422.37 465.62 422.37 464.97 422.37 464.33 422.37 463.69 422.37 463.05 422.37 462.4 422.37 461.76 422.37 461.12 422.37 460.48 422.37 459.84 422.37 459.19 422.37 458.55 422.37 457.91 422.37 457.27 422.37 456.62 422.37 455.98 422.37 455.34 422.37 454.7 422.37 454.05 422.37 453.41 422.37 452.77 422.37 452.13 422.37 451.48 422.37 450.84 422.37 450.2 422.37 449.56 422.37 448.91 422.37 448.27 422.37 447.63 422.37 446.99 422.37 446.35 422.37 445.7 422.37 445.06 422.37 444.42 422.37 443.78 422.37 443.13 422.37 442.49 422.37 441.85 422.37 441.21 422.37 440.56 422.37 439.92 422.37 439.28 422.37 438.64 422.37 437.99 422.37 437.35 422.37 436.71 422.37 436.07 422.37 435.42 422.37 434.78 422.37 434.14 422.37 433.5 422.37 432.86 422.37 432.21 422.37 431.57 422.37 430.93 422.37 430.29 422.37 429.64 422.37 429 422.37 428.36 422.37 427.72 422.37 427.07 422.37 426.43 422.37 425.79 422.37 425.15 422.37 424.5 422.37 423.86 422.37 423.22 422.37 422.58 422.37 421.93 422.37 421.29 422.37 420.65 422.37 420.01 422.37 419.37 422.37 418.72 422.37 418.08 422.37 417.44 422.37 416.8 422.37 416.15 422.37 415.51 422.37 414.87 422.37 414.23 422.37 413.58 422.37 412.94 422.37 412.3 422.37 411.66 422.37 411.01 422.37 410.37 422.37" clip-path="url(#cpMzkzLjk2fDc1NS4wNHw0NDEuMDd8MjkuNzg=)" style="stroke-width:0;stroke:none;fill:#f50;fill-opacity:.25"/><polyline points="410.37 422.37 411.01 422.37 411.66 422.37 412.3 422.37 412.94 422.37 413.58 422.37 414.23 422.37 414.87 422.37 415.51 422.37 416.15 422.37 416.8 422.37 417.44 422.37 418.08 422.37 418.72 422.37 419.37 422.37 420.01 422.37 420.65 422.37 421.29 422.37 421.93 422.37 422.58 422.37 423.22 422.37 423.86 422.37 424.5 422.37 425.15 422.37 425.79 422.37 426.43 422.37 427.07 422.37 427.72 422.37 428.36 422.37 429 422.37 429.64 422.37 430.29 422.37 430.93 422.37 431.57 422.37 432.21 422.37 432.86 422.37 433.5 422.37 434.14 422.37 434.78 422.37 435.42 422.37 436.07 422.37 436.71 422.37 437.35 422.37 437.99 422.37 438.64 422.37 439.28 422.37 439.92 422.37 440.56 422.37 441.21 422.37 441.85 422.37 442.49 422.37 443.13 422.37 443.78 422.37 444.42 422.37 445.06 422.37 445.7 422.37 446.35 422.37 446.99 422.37 447.63 422.37 448.27 422.37 448.91 422.37 449.56 422.37 450.2 422.37 450.84 422.37 451.48 422.37 452.13 422.37 452.77 422.37 453.41 422.37 454.05 422.37 454.7 422.37 455.34 422.37 455.98 422.37 456.62 422.37 457.27 422.37 457.91 422.37 458.55 422.37 459.19 422.37 459.84 422.37 460.48 422.37 461.12 422.37 461.76 422.37 462.4 422.37 463.05 422.37 463.69 422.37 464.33 422.37 464.97 422.37 465.62 422.37 466.26 422.37 466.9 422.37 467.54 422.37 468.19 422.37 468.83 422.37 469.47 422.37 470.11 422.37 470.76 422.37 471.4 422.37 472.04 422.37 472.68 422.37 473.33 422.37 473.97 422.37 474.61 422.37 475.25 422.37 475.89 422.36 476.54 422.36 477.18 422.36 477.82 422.35 478.46 422.35 479.11 422.34 479.75 422.33 480.39 422.32 481.03 422.31 481.68 422.29 482.32 422.27 482.96 422.25 483.6 422.22 484.25 422.18 484.89 422.14 485.53 422.09 486.17 422.03 486.82 421.96 487.46 421.87 488.1 421.77 488.74 421.66 489.38 421.52 490.03 421.36 490.67 421.18 491.31 420.97 491.95 420.73 492.6 420.46 493.24 420.14 493.88 419.78 494.52 419.38 495.17 418.94 495.81 418.44 496.45 417.89 497.09 417.26 497.74 416.58 498.38 415.83 499.02 415.01 499.66 414.12 500.31 413.14 500.95 412.08 501.59 410.94 502.23 409.71 502.87 408.4 503.52 406.99 504.16 405.48 504.8 403.88 505.44 402.2 506.09 400.42 506.73 398.54 507.37 396.55 508.01 394.48 508.66 392.32 509.3 390.07 509.94 387.72 510.58 385.27 511.23 382.74 511.87 380.13 512.51 377.43 513.15 374.66 513.8 371.79 514.44 368.85 515.08 365.84 515.72 362.76 516.36 359.61 517.01 356.4 517.65 353.11 518.29 349.77 518.93 346.37 519.58 342.92 520.22 339.41 520.86 335.85 521.5 332.24 522.15 328.58 522.79 324.87 523.43 321.12 524.07 317.31 524.72 313.46 525.36 309.55 526 305.6 526.64 301.59 527.29 297.52 527.93 293.38 528.57 289.18 529.21 284.92 529.85 280.6 530.5 276.2 531.14 271.71 531.78 267.15 532.42 262.51 533.07 257.8 533.71 253 534.35 248.11 534.99 243.15 535.64 238.11 536.28 233 536.92 227.83 537.56 222.58 538.21 217.28 538.85 211.94 539.49 206.57 540.13 201.17 540.78 195.76 541.42 190.36 542.06 184.97 542.7 179.61 543.34 174.29 543.99 169.03 544.63 163.87 545.27 158.81 545.91 153.85 546.56 149.02 547.2 144.32 547.84 139.81 548.48 135.47 549.13 131.31 549.77 127.33 550.41 123.54 551.05 119.97 551.7 116.63 552.34 113.48 552.98 110.52 553.62 107.75 554.27 105.17 554.91 102.79 555.55 100.55 556.19 98.45 556.83 96.47 557.48 94.59 558.12 92.8 558.76 91.07 559.4 89.38 560.05 87.7 560.69 86.02 561.33 84.33 561.97 82.59 562.62 80.81 563.26 78.98 563.9 77.1 564.54 75.15 565.19 73.14 565.83 71.09 566.47 69 567.11 66.9 567.76 64.78 568.4 62.69 569.04 60.64 569.68 58.67 570.32 56.78 570.97 55.01 571.61 53.42 572.25 52.01 572.89 50.8 573.54 49.82 574.18 49.07 574.82 48.61 575.46 48.47 576.11 48.61 576.75 49.05 577.39 49.77 578.03 50.8 578.68 52.18 579.32 53.84 579.96 55.75 580.6 57.92 581.24 60.31 581.89 62.97 582.53 65.81 583.17 68.8 583.81 71.92 584.46 75.16 585.1 78.48 585.74 81.87 586.38 85.28 587.03 88.69 587.67 92.1 588.31 95.47 588.95 98.78 589.6 102.02 590.24 105.2 590.88 108.3 591.52 111.31 592.17 114.22 592.81 117.05 593.45 119.81 594.09 122.5 594.73 125.13 595.38 127.7 596.02 130.24 596.66 132.76 597.3 135.28 597.95 137.82 598.59 140.38 599.23 142.99 599.87 145.66 600.52 148.4 601.16 151.22 601.8 154.14 602.44 157.18 603.09 160.33 603.73 163.59 604.37 166.96 605.01 170.44 605.66 174.06 606.3 177.79 606.94 181.61 607.58 185.53 608.22 189.53 608.87 193.61 609.51 197.76 610.15 201.95 610.79 206.17 611.44 210.41 612.08 214.66 612.72 218.9 613.36 223.11 614.01 227.28 614.65 231.41 615.29 235.47 615.93 239.45 616.58 243.34 617.22 247.14 617.86 250.85 618.5 254.45 619.15 257.94 619.79 261.3 620.43 264.55 621.07 267.69 621.71 270.73 622.36 273.66 623 276.47 623.64 279.19 624.28 281.83 624.93 284.39 625.57 286.89 626.21 289.32 626.85 291.7 627.5 294.06 628.14 296.39 628.78 298.72 629.42 301.04 630.07 303.38 630.71 305.74 631.35 308.13 631.99 310.56 632.64 313.03 633.28 315.57 633.92 318.15 634.56 320.79 635.2 323.49 635.85 326.24 636.49 329.07 637.13 331.94 637.77 334.85 638.42 337.8 639.06 340.79 639.7 343.81 640.34 346.84 640.99 349.88 641.63 352.92 642.27 355.94 642.91 358.94 643.56 361.9 644.2 364.81 644.84 367.67 645.48 370.48 646.13 373.21 646.77 375.84 647.41 378.4 648.05 380.86 648.69 383.23 649.34 385.51 649.98 387.65 650.62 389.7 651.26 391.64 651.91 393.47 652.55 395.21 653.19 396.83 653.83 398.34 654.48 399.75 655.12 401.08 655.76 402.32 656.4 403.47 657.05 404.53 657.69 405.52 658.33 406.44 658.97 407.3 659.62 408.11 660.26 408.85 660.9 409.55 661.54 410.21 662.18 410.84 662.83 411.43 663.47 412 664.11 412.53 664.75 413.05 665.4 413.55 666.04 414.03 666.68 414.5 667.32 414.95 667.97 415.39 668.61 415.82 669.25 416.24 669.89 416.64 670.54 417.03 671.18 417.41 671.82 417.78 672.46 418.13 673.11 418.47 673.75 418.79 674.39 419.1 675.03 419.39 675.67 419.67 676.32 419.93 676.96 420.17 677.6 420.4 678.24 420.61 678.89 420.8 679.53 420.98 680.17 421.15 680.81 421.29 681.46 421.43 682.1 421.55 682.74 421.66 683.38 421.76 684.03 421.84 684.67 421.92 685.31 421.98 685.95 422.04 686.6 422.09 687.24 422.14 687.88 422.18 688.52 422.21 689.16 422.24 689.81 422.26 690.45 422.28 691.09 422.3 691.73 422.31 692.38 422.32 693.02 422.33 693.66 422.34 694.3 422.35 694.95 422.35 695.59 422.36 696.23 422.36 696.87 422.36 697.52 422.36 698.16 422.37 698.8 422.37 699.44 422.37 700.09 422.37 700.73 422.37 701.37 422.37 702.01 422.37 702.65 422.37 703.3 422.37 703.94 422.37 704.58 422.37 705.22 422.37 705.87 422.37 706.51 422.37 707.15 422.37 707.79 422.37 708.44 422.37 709.08 422.37 709.72 422.37 710.36 422.37 711.01 422.37 711.65 422.37 712.29 422.37 712.93 422.37 713.58 422.37 714.22 422.37 714.86 422.37 715.5 422.37 716.14 422.37 716.79 422.37 717.43 422.37 718.07 422.37 718.71 422.37 719.36 422.37 720 422.37 720.64 422.37 721.28 422.37 721.93 422.37 722.57 422.37 723.21 422.37 723.85 422.37 724.5 422.37 725.14 422.37 725.78 422.37 726.42 422.37 727.07 422.37 727.71 422.37 728.35 422.37 728.99 422.37 729.63 422.37 730.28 422.37 730.92 422.37 731.56 422.37 732.2 422.37 732.85 422.37 733.49 422.37 734.13 422.37 734.77 422.37 735.42 422.37 736.06 422.37 736.7 422.37 737.34 422.37 737.99 422.37 738.63 422.37" clip-path="url(#cpMzkzLjk2fDc1NS4wNHw0NDEuMDd8MjkuNzg=)" style="stroke-width:1.07;stroke:#f8766d"/><polygon points="410.37 422.37 411.01 422.37 411.66 422.37 412.3 422.37 412.94 422.37 413.58 422.37 414.23 422.37 414.87 422.37 415.51 422.37 416.15 422.37 416.8 422.37 417.44 422.37 418.08 422.37 418.72 422.37 419.37 422.37 420.01 422.37 420.65 422.37 421.29 422.37 421.93 422.37 422.58 422.37 423.22 422.37 423.86 422.37 424.5 422.37 425.15 422.37 425.79 422.37 426.43 422.37 427.07 422.37 427.72 422.37 428.36 422.37 429 422.37 429.64 422.37 430.29 422.37 430.93 422.37 431.57 422.37 432.21 422.36 432.86 422.36 433.5 422.36 434.14 422.36 434.78 422.36 435.42 422.35 436.07 422.35 436.71 422.35 437.35 422.34 437.99 422.34 438.64 422.33 439.28 422.33 439.92 422.32 440.56 422.31 441.21 422.3 441.85 422.29 442.49 422.27 443.13 422.26 443.78 422.24 444.42 422.22 445.06 422.2 445.7 422.17 446.35 422.14 446.99 422.11 447.63 422.07 448.27 422.03 448.91 421.98 449.56 421.93 450.2 421.87 450.84 421.81 451.48 421.74 452.13 421.66 452.77 421.57 453.41 421.47 454.05 421.36 454.7 421.24 455.34 421.1 455.98 420.96 456.62 420.8 457.27 420.62 457.91 420.43 458.55 420.22 459.19 419.99 459.84 419.74 460.48 419.47 461.12 419.18 461.76 418.87 462.4 418.52 463.05 418.15 463.69 417.76 464.33 417.34 464.97 416.88 465.62 416.39 466.26 415.87 466.9 415.33 467.54 414.73 468.19 414.1 468.83 413.44 469.47 412.74 470.11 411.99 470.76 411.21 471.4 410.38 472.04 409.52 472.68 408.6 473.33 407.64 473.97 406.64 474.61 405.59 475.25 404.49 475.89 403.35 476.54 402.17 477.18 400.95 477.82 399.66 478.46 398.34 479.11 396.98 479.75 395.58 480.39 394.12 481.03 392.63 481.68 391.1 482.32 389.53 482.96 387.91 483.6 386.27 484.25 384.59 484.89 382.88 485.53 381.13 486.17 379.35 486.82 377.55 487.46 375.72 488.1 373.87 488.74 372 489.38 370.11 490.03 368.2 490.67 366.28 491.31 364.34 491.95 362.4 492.6 360.45 493.24 358.49 493.88 356.53 494.52 354.57 495.17 352.61 495.81 350.65 496.45 348.7 497.09 346.75 497.74 344.81 498.38 342.88 499.02 340.97 499.66 339.06 500.31 337.17 500.95 335.3 501.59 333.43 502.23 331.59 502.87 329.76 503.52 327.95 504.16 326.16 504.8 324.38 505.44 322.62 506.09 320.88 506.73 319.15 507.37 317.43 508.01 315.74 508.66 314.05 509.3 312.38 509.94 310.71 510.58 309.06 511.23 307.41 511.87 305.77 512.51 304.13 513.15 302.49 513.8 300.85 514.44 299.21 515.08 297.56 515.72 295.9 516.36 294.23 517.01 292.56 517.65 290.86 518.29 289.14 518.93 287.41 519.58 285.66 520.22 283.87 520.86 282.06 521.5 280.23 522.15 278.36 522.79 276.46 523.43 274.52 524.07 272.56 524.72 270.56 525.36 268.52 526 266.44 526.64 264.33 527.29 262.19 527.93 260 528.57 257.79 529.21 255.54 529.85 253.26 530.5 250.94 531.14 248.61 531.78 246.25 532.42 243.86 533.07 241.46 533.71 239.04 534.35 236.61 534.99 234.18 535.64 231.74 536.28 229.3 536.92 226.87 537.56 224.45 538.21 222.05 538.85 219.67 539.49 217.31 540.13 214.99 540.78 212.7 541.42 210.45 542.06 208.24 542.7 206.1 543.34 204.01 543.99 201.97 544.63 200 545.27 198.1 545.91 196.28 546.56 194.51 547.2 192.83 547.84 191.24 548.48 189.73 549.13 188.29 549.77 186.94 550.41 185.7 551.05 184.53 551.7 183.44 552.34 182.45 552.98 181.56 553.62 180.74 554.27 180 554.91 179.36 555.55 178.81 556.19 178.34 556.83 177.93 557.48 177.62 558.12 177.38 558.76 177.21 559.4 177.11 560.05 177.09 560.69 177.13 561.33 177.22 561.97 177.37 562.62 177.6 563.26 177.87 563.9 178.18 564.54 178.54 565.19 178.96 565.83 179.42 566.47 179.91 567.11 180.43 567.76 180.99 568.4 181.59 569.04 182.2 569.68 182.84 570.32 183.51 570.97 184.19 571.61 184.89 572.25 185.61 572.89 186.33 573.54 187.07 574.18 187.81 574.82 188.56 575.46 189.31 576.11 190.06 576.75 190.81 577.39 191.55 578.03 192.28 578.68 193.01 579.32 193.73 579.96 194.44 580.6 195.13 581.24 195.81 581.89 196.47 582.53 197.12 583.17 197.74 583.81 198.35 584.46 198.95 585.1 199.52 585.74 200.07 586.38 200.61 587.03 201.13 587.67 201.63 588.31 202.11 588.95 202.59 589.6 203.05 590.24 203.5 590.88 203.94 591.52 204.38 592.17 204.81 592.81 205.24 593.45 205.68 594.09 206.13 594.73 206.58 595.38 207.05 596.02 207.54 596.66 208.05 597.3 208.58 597.95 209.14 598.59 209.74 599.23 210.36 599.87 211.03 600.52 211.75 601.16 212.51 601.8 213.31 602.44 214.17 603.09 215.09 603.73 216.05 604.37 217.07 605.01 218.16 605.66 219.31 606.3 220.51 606.94 221.77 607.58 223.1 608.22 224.49 608.87 225.93 609.51 227.43 610.15 228.99 610.79 230.61 611.44 232.27 612.08 233.97 612.72 235.73 613.36 237.53 614.01 239.36 614.65 241.23 615.29 243.13 615.93 245.05 616.58 246.99 617.22 248.96 617.86 250.93 618.5 252.91 619.15 254.9 619.79 256.88 620.43 258.86 621.07 260.83 621.71 262.79 622.36 264.73 623 266.65 623.64 268.56 624.28 270.44 624.93 272.29 625.57 274.11 626.21 275.91 626.85 277.68 627.5 279.4 628.14 281.1 628.78 282.77 629.42 284.41 630.07 286.01 630.71 287.59 631.35 289.13 631.99 290.65 632.64 292.14 633.28 293.6 633.92 295.04 634.56 296.46 635.2 297.86 635.85 299.24 636.49 300.6 637.13 301.95 637.77 303.28 638.42 304.61 639.06 305.92 639.7 307.23 640.34 308.53 640.99 309.83 641.63 311.12 642.27 312.42 642.91 313.71 643.56 315 644.2 316.29 644.84 317.58 645.48 318.88 646.13 320.18 646.77 321.48 647.41 322.78 648.05 324.08 648.69 325.39 649.34 326.7 649.98 328.02 650.62 329.33 651.26 330.65 651.91 331.97 652.55 333.3 653.19 334.62 653.83 335.95 654.48 337.28 655.12 338.61 655.76 339.95 656.4 341.29 657.05 342.62 657.69 343.97 658.33 345.31 658.97 346.65 659.62 348 660.26 349.35 660.9 350.7 661.54 352.06 662.18 353.41 662.83 354.77 663.47 356.13 664.11 357.49 664.75 358.86 665.4 360.22 666.04 361.58 666.68 362.95 667.32 364.31 667.97 365.67 668.61 367.03 669.25 368.39 669.89 369.74 670.54 371.09 671.18 372.43 671.82 373.76 672.46 375.09 673.11 376.41 673.75 377.71 674.39 379.01 675.03 380.29 675.67 381.56 676.32 382.81 676.96 384.05 677.6 385.27 678.24 386.47 678.89 387.65 679.53 388.82 680.17 389.95 680.81 391.07 681.46 392.16 682.1 393.23 682.74 394.28 683.38 395.3 684.03 396.3 684.67 397.27 685.31 398.21 685.95 399.13 686.6 400.02 687.24 400.89 687.88 401.73 688.52 402.54 689.16 403.34 689.81 404.1 690.45 404.84 691.09 405.56 691.73 406.25 692.38 406.92 693.02 407.57 693.66 408.19 694.3 408.8 694.95 409.38 695.59 409.95 696.23 410.49 696.87 411.02 697.52 411.52 698.16 412.01 698.8 412.48 699.44 412.94 700.09 413.38 700.73 413.8 701.37 414.21 702.01 414.61 702.65 414.99 703.3 415.35 703.94 415.71 704.58 416.05 705.22 416.38 705.87 416.69 706.51 417 707.15 417.29 707.79 417.57 708.44 417.84 709.08 418.1 709.72 418.35 710.36 418.59 711.01 418.82 711.65 419.04 712.29 419.25 712.93 419.45 713.58 419.64 714.22 419.83 714.86 420 715.5 420.16 716.14 420.32 716.79 420.47 717.43 420.61 718.07 420.74 718.71 420.86 719.36 420.98 720 421.09 720.64 421.19 721.28 421.29 721.93 421.38 722.57 421.46 723.21 421.54 723.85 421.62 724.5 421.68 725.14 421.75 725.78 421.8 726.42 421.86 727.07 421.91 727.71 421.95 728.35 421.99 728.99 422.03 729.63 422.07 730.28 422.1 730.92 422.13 731.56 422.16 732.2 422.18 732.85 422.2 733.49 422.22 734.13 422.24 734.77 422.25 735.42 422.27 736.06 422.28 736.7 422.29 737.34 422.3 737.99 422.31 738.63 422.32 738.63 422.37 737.99 422.37 737.34 422.37 736.7 422.37 736.06 422.37 735.42 422.37 734.77 422.37 734.13 422.37 733.49 422.37 732.85 422.37 732.2 422.37 731.56 422.37 730.92 422.37 730.28 422.37 729.63 422.37 728.99 422.37 728.35 422.37 727.71 422.37 727.07 422.37 726.42 422.37 725.78 422.37 725.14 422.37 724.5 422.37 723.85 422.37 723.21 422.37 722.57 422.37 721.93 422.37 721.28 422.37 720.64 422.37 720 422.37 719.36 422.37 718.71 422.37 718.07 422.37 717.43 422.37 716.79 422.37 716.14 422.37 715.5 422.37 714.86 422.37 714.22 422.37 713.58 422.37 712.93 422.37 712.29 422.37 711.65 422.37 711.01 422.37 710.36 422.37 709.72 422.37 709.08 422.37 708.44 422.37 707.79 422.37 707.15 422.37 706.51 422.37 705.87 422.37 705.22 422.37 704.58 422.37 703.94 422.37 703.3 422.37 702.65 422.37 702.01 422.37 701.37 422.37 700.73 422.37 700.09 422.37 699.44 422.37 698.8 422.37 698.16 422.37 697.52 422.37 696.87 422.37 696.23 422.37 695.59 422.37 694.95 422.37 694.3 422.37 693.66 422.37 693.02 422.37 692.38 422.37 691.73 422.37 691.09 422.37 690.45 422.37 689.81 422.37 689.16 422.37 688.52 422.37 687.88 422.37 687.24 422.37 686.6 422.37 685.95 422.37 685.31 422.37 684.67 422.37 684.03 422.37 683.38 422.37 682.74 422.37 682.1 422.37 681.46 422.37 680.81 422.37 680.17 422.37 679.53 422.37 678.89 422.37 678.24 422.37 677.6 422.37 676.96 422.37 676.32 422.37 675.67 422.37 675.03 422.37 674.39 422.37 673.75 422.37 673.11 422.37 672.46 422.37 671.82 422.37 671.18 422.37 670.54 422.37 669.89 422.37 669.25 422.37 668.61 422.37 667.97 422.37 667.32 422.37 666.68 422.37 666.04 422.37 665.4 422.37 664.75 422.37 664.11 422.37 663.47 422.37 662.83 422.37 662.18 422.37 661.54 422.37 660.9 422.37 660.26 422.37 659.62 422.37 658.97 422.37 658.33 422.37 657.69 422.37 657.05 422.37 656.4 422.37 655.76 422.37 655.12 422.37 654.48 422.37 653.83 422.37 653.19 422.37 652.55 422.37 651.91 422.37 651.26 422.37 650.62 422.37 649.98 422.37 649.34 422.37 648.69 422.37 648.05 422.37 647.41 422.37 646.77 422.37 646.13 422.37 645.48 422.37 644.84 422.37 644.2 422.37 643.56 422.37 642.91 422.37 642.27 422.37 641.63 422.37 640.99 422.37 640.34 422.37 639.7 422.37 639.06 422.37 638.42 422.37 637.77 422.37 637.13 422.37 636.49 422.37 635.85 422.37 635.2 422.37 634.56 422.37 633.92 422.37 633.28 422.37 632.64 422.37 631.99 422.37 631.35 422.37 630.71 422.37 630.07 422.37 629.42 422.37 628.78 422.37 628.14 422.37 627.5 422.37 626.85 422.37 626.21 422.37 625.57 422.37 624.93 422.37 624.28 422.37 623.64 422.37 623 422.37 622.36 422.37 621.71 422.37 621.07 422.37 620.43 422.37 619.79 422.37 619.15 422.37 618.5 422.37 617.86 422.37 617.22 422.37 616.58 422.37 615.93 422.37 615.29 422.37 614.65 422.37 614.01 422.37 613.36 422.37 612.72 422.37 612.08 422.37 611.44 422.37 610.79 422.37 610.15 422.37 609.51 422.37 608.87 422.37 608.22 422.37 607.58 422.37 606.94 422.37 606.3 422.37 605.66 422.37 605.01 422.37 604.37 422.37 603.73 422.37 603.09 422.37 602.44 422.37 601.8 422.37 601.16 422.37 600.52 422.37 599.87 422.37 599.23 422.37 598.59 422.37 597.95 422.37 597.3 422.37 596.66 422.37 596.02 422.37 595.38 422.37 594.73 422.37 594.09 422.37 593.45 422.37 592.81 422.37 592.17 422.37 591.52 422.37 590.88 422.37 590.24 422.37 589.6 422.37 588.95 422.37 588.31 422.37 587.67 422.37 587.03 422.37 586.38 422.37 585.74 422.37 585.1 422.37 584.46 422.37 583.81 422.37 583.17 422.37 582.53 422.37 581.89 422.37 581.24 422.37 580.6 422.37 579.96 422.37 579.32 422.37 578.68 422.37 578.03 422.37 577.39 422.37 576.75 422.37 576.11 422.37 575.46 422.37 574.82 422.37 574.18 422.37 573.54 422.37 572.89 422.37 572.25 422.37 571.61 422.37 570.97 422.37 570.32 422.37 569.68 422.37 569.04 422.37 568.4 422.37 567.76 422.37 567.11 422.37 566.47 422.37 565.83 422.37 565.19 422.37 564.54 422.37 563.9 422.37 563.26 422.37 562.62 422.37 561.97 422.37 561.33 422.37 560.69 422.37 560.05 422.37 559.4 422.37 558.76 422.37 558.12 422.37 557.48 422.37 556.83 422.37 556.19 422.37 555.55 422.37 554.91 422.37 554.27 422.37 553.62 422.37 552.98 422.37 552.34 422.37 551.7 422.37 551.05 422.37 550.41 422.37 549.77 422.37 549.13 422.37 548.48 422.37 547.84 422.37 547.2 422.37 546.56 422.37 545.91 422.37 545.27 422.37 544.63 422.37 543.99 422.37 543.34 422.37 542.7 422.37 542.06 422.37 541.42 422.37 540.78 422.37 540.13 422.37 539.49 422.37 538.85 422.37 538.21 422.37 537.56 422.37 536.92 422.37 536.28 422.37 535.64 422.37 534.99 422.37 534.35 422.37 533.71 422.37 533.07 422.37 532.42 422.37 531.78 422.37 531.14 422.37 530.5 422.37 529.85 422.37 529.21 422.37 528.57 422.37 527.93 422.37 527.29 422.37 526.64 422.37 526 422.37 525.36 422.37 524.72 422.37 524.07 422.37 523.43 422.37 522.79 422.37 522.15 422.37 521.5 422.37 520.86 422.37 520.22 422.37 519.58 422.37 518.93 422.37 518.29 422.37 517.65 422.37 517.01 422.37 516.36 422.37 515.72 422.37 515.08 422.37 514.44 422.37 513.8 422.37 513.15 422.37 512.51 422.37 511.87 422.37 511.23 422.37 510.58 422.37 509.94 422.37 509.3 422.37 508.66 422.37 508.01 422.37 507.37 422.37 506.73 422.37 506.09 422.37 505.44 422.37 504.8 422.37 504.16 422.37 503.52 422.37 502.87 422.37 502.23 422.37 501.59 422.37 500.95 422.37 500.31 422.37 499.66 422.37 499.02 422.37 498.38 422.37 497.74 422.37 497.09 422.37 496.45 422.37 495.81 422.37 495.17 422.37 494.52 422.37 493.88 422.37 493.24 422.37 492.6 422.37 491.95 422.37 491.31 422.37 490.67 422.37 490.03 422.37 489.38 422.37 488.74 422.37 488.1 422.37 487.46 422.37 486.82 422.37 486.17 422.37 485.53 422.37 484.89 422.37 484.25 422.37 483.6 422.37 482.96 422.37 482.32 422.37 481.68 422.37 481.03 422.37 480.39 422.37 479.75 422.37 479.11 422.37 478.46 422.37 477.82 422.37 477.18 422.37 476.54 422.37 475.89 422.37 475.25 422.37 474.61 422.37 473.97 422.37 473.33 422.37 472.68 422.37 472.04 422.37 471.4 422.37 470.76 422.37 470.11 422.37 469.47 422.37 468.83 422.37 468.19 422.37 467.54 422.37 466.9 422.37 466.26 422.37 465.62 422.37 464.97 422.37 464.33 422.37 463.69 422.37 463.05 422.37 462.4 422.37 461.76 422.37 461.12 422.37 460.48 422.37 459.84 422.37 459.19 422.37 458.55 422.37 457.91 422.37 457.27 422.37 456.62 422.37 455.98 422.37 455.34 422.37 454.7 422.37 454.05 422.37 453.41 422.37 452.77 422.37 452.13 422.37 451.48 422.37 450.84 422.37 450.2 422.37 449.56 422.37 448.91 422.37 448.27 422.37 447.63 422.37 446.99 422.37 446.35 422.37 445.7 422.37 445.06 422.37 444.42 422.37 443.78 422.37 443.13 422.37 442.49 422.37 441.85 422.37 441.21 422.37 440.56 422.37 439.92 422.37 439.28 422.37 438.64 422.37 437.99 422.37 437.35 422.37 436.71 422.37 436.07 422.37 435.42 422.37 434.78 422.37 434.14 422.37 433.5 422.37 432.86 422.37 432.21 422.37 431.57 422.37 430.93 422.37 430.29 422.37 429.64 422.37 429 422.37 428.36 422.37 427.72 422.37 427.07 422.37 426.43 422.37 425.79 422.37 425.15 422.37 424.5 422.37 423.86 422.37 423.22 422.37 422.58 422.37 421.93 422.37 421.29 422.37 420.65 422.37 420.01 422.37 419.37 422.37 418.72 422.37 418.08 422.37 417.44 422.37 416.8 422.37 416.15 422.37 415.51 422.37 414.87 422.37 414.23 422.37 413.58 422.37 412.94 422.37 412.3 422.37 411.66 422.37 411.01 422.37 410.37 422.37" clip-path="url(#cpMzkzLjk2fDc1NS4wNHw0NDEuMDd8MjkuNzg=)" style="stroke-width:0;stroke:none;fill:#0af;fill-opacity:.25"/><polyline points="410.37 422.37 411.01 422.37 411.66 422.37 412.3 422.37 412.94 422.37 413.58 422.37 414.23 422.37 414.87 422.37 415.51 422.37 416.15 422.37 416.8 422.37 417.44 422.37 418.08 422.37 418.72 422.37 419.37 422.37 420.01 422.37 420.65 422.37 421.29 422.37 421.93 422.37 422.58 422.37 423.22 422.37 423.86 422.37 424.5 422.37 425.15 422.37 425.79 422.37 426.43 422.37 427.07 422.37 427.72 422.37 428.36 422.37 429 422.37 429.64 422.37 430.29 422.37 430.93 422.37 431.57 422.37 432.21 422.36 432.86 422.36 433.5 422.36 434.14 422.36 434.78 422.36 435.42 422.35 436.07 422.35 436.71 422.35 437.35 422.34 437.99 422.34 438.64 422.33 439.28 422.33 439.92 422.32 440.56 422.31 441.21 422.3 441.85 422.29 442.49 422.27 443.13 422.26 443.78 422.24 444.42 422.22 445.06 422.2 445.7 422.17 446.35 422.14 446.99 422.11 447.63 422.07 448.27 422.03 448.91 421.98 449.56 421.93 450.2 421.87 450.84 421.81 451.48 421.74 452.13 421.66 452.77 421.57 453.41 421.47 454.05 421.36 454.7 421.24 455.34 421.1 455.98 420.96 456.62 420.8 457.27 420.62 457.91 420.43 458.55 420.22 459.19 419.99 459.84 419.74 460.48 419.47 461.12 419.18 461.76 418.87 462.4 418.52 463.05 418.15 463.69 417.76 464.33 417.34 464.97 416.88 465.62 416.39 466.26 415.87 466.9 415.33 467.54 414.73 468.19 414.1 468.83 413.44 469.47 412.74 470.11 411.99 470.76 411.21 471.4 410.38 472.04 409.52 472.68 408.6 473.33 407.64 473.97 406.64 474.61 405.59 475.25 404.49 475.89 403.35 476.54 402.17 477.18 400.95 477.82 399.66 478.46 398.34 479.11 396.98 479.75 395.58 480.39 394.12 481.03 392.63 481.68 391.1 482.32 389.53 482.96 387.91 483.6 386.27 484.25 384.59 484.89 382.88 485.53 381.13 486.17 379.35 486.82 377.55 487.46 375.72 488.1 373.87 488.74 372 489.38 370.11 490.03 368.2 490.67 366.28 491.31 364.34 491.95 362.4 492.6 360.45 493.24 358.49 493.88 356.53 494.52 354.57 495.17 352.61 495.81 350.65 496.45 348.7 497.09 346.75 497.74 344.81 498.38 342.88 499.02 340.97 499.66 339.06 500.31 337.17 500.95 335.3 501.59 333.43 502.23 331.59 502.87 329.76 503.52 327.95 504.16 326.16 504.8 324.38 505.44 322.62 506.09 320.88 506.73 319.15 507.37 317.43 508.01 315.74 508.66 314.05 509.3 312.38 509.94 310.71 510.58 309.06 511.23 307.41 511.87 305.77 512.51 304.13 513.15 302.49 513.8 300.85 514.44 299.21 515.08 297.56 515.72 295.9 516.36 294.23 517.01 292.56 517.65 290.86 518.29 289.14 518.93 287.41 519.58 285.66 520.22 283.87 520.86 282.06 521.5 280.23 522.15 278.36 522.79 276.46 523.43 274.52 524.07 272.56 524.72 270.56 525.36 268.52 526 266.44 526.64 264.33 527.29 262.19 527.93 260 528.57 257.79 529.21 255.54 529.85 253.26 530.5 250.94 531.14 248.61 531.78 246.25 532.42 243.86 533.07 241.46 533.71 239.04 534.35 236.61 534.99 234.18 535.64 231.74 536.28 229.3 536.92 226.87 537.56 224.45 538.21 222.05 538.85 219.67 539.49 217.31 540.13 214.99 540.78 212.7 541.42 210.45 542.06 208.24 542.7 206.1 543.34 204.01 543.99 201.97 544.63 200 545.27 198.1 545.91 196.28 546.56 194.51 547.2 192.83 547.84 191.24 548.48 189.73 549.13 188.29 549.77 186.94 550.41 185.7 551.05 184.53 551.7 183.44 552.34 182.45 552.98 181.56 553.62 180.74 554.27 180 554.91 179.36 555.55 178.81 556.19 178.34 556.83 177.93 557.48 177.62 558.12 177.38 558.76 177.21 559.4 177.11 560.05 177.09 560.69 177.13 561.33 177.22 561.97 177.37 562.62 177.6 563.26 177.87 563.9 178.18 564.54 178.54 565.19 178.96 565.83 179.42 566.47 179.91 567.11 180.43 567.76 180.99 568.4 181.59 569.04 182.2 569.68 182.84 570.32 183.51 570.97 184.19 571.61 184.89 572.25 185.61 572.89 186.33 573.54 187.07 574.18 187.81 574.82 188.56 575.46 189.31 576.11 190.06 576.75 190.81 577.39 191.55 578.03 192.28 578.68 193.01 579.32 193.73 579.96 194.44 580.6 195.13 581.24 195.81 581.89 196.47 582.53 197.12 583.17 197.74 583.81 198.35 584.46 198.95 585.1 199.52 585.74 200.07 586.38 200.61 587.03 201.13 587.67 201.63 588.31 202.11 588.95 202.59 589.6 203.05 590.24 203.5 590.88 203.94 591.52 204.38 592.17 204.81 592.81 205.24 593.45 205.68 594.09 206.13 594.73 206.58 595.38 207.05 596.02 207.54 596.66 208.05 597.3 208.58 597.95 209.14 598.59 209.74 599.23 210.36 599.87 211.03 600.52 211.75 601.16 212.51 601.8 213.31 602.44 214.17 603.09 215.09 603.73 216.05 604.37 217.07 605.01 218.16 605.66 219.31 606.3 220.51 606.94 221.77 607.58 223.1 608.22 224.49 608.87 225.93 609.51 227.43 610.15 228.99 610.79 230.61 611.44 232.27 612.08 233.97 612.72 235.73 613.36 237.53 614.01 239.36 614.65 241.23 615.29 243.13 615.93 245.05 616.58 246.99 617.22 248.96 617.86 250.93 618.5 252.91 619.15 254.9 619.79 256.88 620.43 258.86 621.07 260.83 621.71 262.79 622.36 264.73 623 266.65 623.64 268.56 624.28 270.44 624.93 272.29 625.57 274.11 626.21 275.91 626.85 277.68 627.5 279.4 628.14 281.1 628.78 282.77 629.42 284.41 630.07 286.01 630.71 287.59 631.35 289.13 631.99 290.65 632.64 292.14 633.28 293.6 633.92 295.04 634.56 296.46 635.2 297.86 635.85 299.24 636.49 300.6 637.13 301.95 637.77 303.28 638.42 304.61 639.06 305.92 639.7 307.23 640.34 308.53 640.99 309.83 641.63 311.12 642.27 312.42 642.91 313.71 643.56 315 644.2 316.29 644.84 317.58 645.48 318.88 646.13 320.18 646.77 321.48 647.41 322.78 648.05 324.08 648.69 325.39 649.34 326.7 649.98 328.02 650.62 329.33 651.26 330.65 651.91 331.97 652.55 333.3 653.19 334.62 653.83 335.95 654.48 337.28 655.12 338.61 655.76 339.95 656.4 341.29 657.05 342.62 657.69 343.97 658.33 345.31 658.97 346.65 659.62 348 660.26 349.35 660.9 350.7 661.54 352.06 662.18 353.41 662.83 354.77 663.47 356.13 664.11 357.49 664.75 358.86 665.4 360.22 666.04 361.58 666.68 362.95 667.32 364.31 667.97 365.67 668.61 367.03 669.25 368.39 669.89 369.74 670.54 371.09 671.18 372.43 671.82 373.76 672.46 375.09 673.11 376.41 673.75 377.71 674.39 379.01 675.03 380.29 675.67 381.56 676.32 382.81 676.96 384.05 677.6 385.27 678.24 386.47 678.89 387.65 679.53 388.82 680.17 389.95 680.81 391.07 681.46 392.16 682.1 393.23 682.74 394.28 683.38 395.3 684.03 396.3 684.67 397.27 685.31 398.21 685.95 399.13 686.6 400.02 687.24 400.89 687.88 401.73 688.52 402.54 689.16 403.34 689.81 404.1 690.45 404.84 691.09 405.56 691.73 406.25 692.38 406.92 693.02 407.57 693.66 408.19 694.3 408.8 694.95 409.38 695.59 409.95 696.23 410.49 696.87 411.02 697.52 411.52 698.16 412.01 698.8 412.48 699.44 412.94 700.09 413.38 700.73 413.8 701.37 414.21 702.01 414.61 702.65 414.99 703.3 415.35 703.94 415.71 704.58 416.05 705.22 416.38 705.87 416.69 706.51 417 707.15 417.29 707.79 417.57 708.44 417.84 709.08 418.1 709.72 418.35 710.36 418.59 711.01 418.82 711.65 419.04 712.29 419.25 712.93 419.45 713.58 419.64 714.22 419.83 714.86 420 715.5 420.16 716.14 420.32 716.79 420.47 717.43 420.61 718.07 420.74 718.71 420.86 719.36 420.98 720 421.09 720.64 421.19 721.28 421.29 721.93 421.38 722.57 421.46 723.21 421.54 723.85 421.62 724.5 421.68 725.14 421.75 725.78 421.8 726.42 421.86 727.07 421.91 727.71 421.95 728.35 421.99 728.99 422.03 729.63 422.07 730.28 422.1 730.92 422.13 731.56 422.16 732.2 422.18 732.85 422.2 733.49 422.22 734.13 422.24 734.77 422.25 735.42 422.27 736.06 422.28 736.7 422.29 737.34 422.3 737.99 422.31 738.63 422.32" clip-path="url(#cpMzkzLjk2fDc1NS4wNHw0NDEuMDd8MjkuNzg=)" style="stroke-width:1.07;stroke:#00bfc4"/><defs><clipPath id="cpMC4wMHw3NjYuMDB8NDc2LjAwfDAuMDA="><rect width="766" height="476" x="0" y="0"/></clipPath></defs><polyline points="410.37 443.81 410.37 441.07" clip-path="url(#cpMC4wMHw3NjYuMDB8NDc2LjAwfDAuMDA=)" style="stroke-width:1.07;stroke:#333;stroke-linecap:butt"/><polyline points="519.79 443.81 519.79 441.07" clip-path="url(#cpMC4wMHw3NjYuMDB8NDc2LjAwfDAuMDA=)" style="stroke-width:1.07;stroke:#333;stroke-linecap:butt"/><polyline points="629.21 443.81 629.21 441.07" clip-path="url(#cpMC4wMHw3NjYuMDB8NDc2LjAwfDAuMDA=)" style="stroke-width:1.07;stroke:#333;stroke-linecap:butt"/><polyline points="738.63 443.81 738.63 441.07" clip-path="url(#cpMC4wMHw3NjYuMDB8NDc2LjAwfDAuMDA=)" style="stroke-width:1.07;stroke:#333;stroke-linecap:butt"/><g clip-path="url(#cpMC4wMHw3NjYuMDB8NDc2LjAwfDAuMDA=)"><text x="403.48" y="451.73" lengthAdjust="spacingAndGlyphs" textLength="13.79" style="font-size:8px;fill:#4d4d4d;font-family:Arial">-0.2</text></g><g clip-path="url(#cpMC4wMHw3NjYuMDB8NDc2LjAwfDAuMDA=)"><text x="514.23" y="451.73" lengthAdjust="spacingAndGlyphs" textLength="11.12" style="font-size:8px;fill:#4d4d4d;font-family:Arial">0.0</text></g><g clip-path="url(#cpMC4wMHw3NjYuMDB8NDc2LjAwfDAuMDA=)"><text x="623.65" y="451.73" lengthAdjust="spacingAndGlyphs" textLength="11.12" style="font-size:8px;fill:#4d4d4d;font-family:Arial">0.2</text></g><g clip-path="url(#cpMC4wMHw3NjYuMDB8NDc2LjAwfDAuMDA=)"><text x="733.07" y="451.73" lengthAdjust="spacingAndGlyphs" textLength="11.12" style="font-size:8px;fill:#4d4d4d;font-family:Arial">0.4</text></g><g clip-path="url(#cpMC4wMHw3NjYuMDB8NDc2LjAwfDAuMDA=)"><text x="393.96" y="21.27" lengthAdjust="spacingAndGlyphs" textLength="125.67" style="font-size:14.4px;fill:#4d4d4d;font-family:Arial">Slopes for occasion</text></g></svg>