<svg xmlns="http://www.w3.org/2000/svg" xmlns:xlink="http://www.w3.org/1999/xlink" width="946.667" height="624" class="svglite" viewBox="0 0 710 468"><defs><style type="text/css">.svglite polygon,.svglite polyline,.svglite rect{fill:none;stroke:#000;stroke-linecap:round;stroke-linejoin:round;stroke-miterlimit:10}</style></defs><rect width="100%" height="100%" style="stroke:none;fill:none"/><defs><clipPath id="cpMC4wMHw3MTAuMDB8MC4wMHw0NjguMDA="><rect width="710" height="468" x="0" y="0"/></clipPath></defs><g clip-path="url(#cpMC4wMHw3MTAuMDB8MC4wMHw0NjguMDA=)"><rect width="710" height="468" x="0" y="0" style="stroke-width:1.07;stroke:#fff;fill:#fff"/></g><defs><clipPath id="cpNS40OHwzNTUuMDB8NS40OHw0NjIuNTI="><rect width="349.52" height="457.04" x="5.48" y="5.48"/></clipPath></defs><g clip-path="url(#cpNS40OHwzNTUuMDB8NS40OHw0NjIuNTI=)"><rect width="349.52" height="457.04" x="5.48" y="5.48" style="stroke-width:1.07;stroke:none"/></g><defs><clipPath id="cpMTYuNDR8MzQ5LjUyfDI5Ljk1fDQwMy40Mw=="><rect width="333.08" height="373.48" x="16.44" y="29.95"/></clipPath></defs><g clip-path="url(#cpMTYuNDR8MzQ5LjUyfDI5Ljk1fDQwMy40Mw==)"><polygon points="31.58 386.45 32.17 386.45 32.76 386.45 33.36 386.45 33.95 386.45 34.54 386.45 35.13 386.45 35.73 386.45 36.32 386.45 36.91 386.45 37.5 386.45 38.1 386.45 38.69 386.45 39.28 386.45 39.87 386.45 40.47 386.45 41.06 386.45 41.65 386.45 42.24 386.45 42.84 386.45 43.43 386.45 44.02 386.45 44.61 386.45 45.21 386.45 45.8 386.45 46.39 386.45 46.99 386.45 47.58 386.45 48.17 386.45 48.76 386.45 49.36 386.45 49.95 386.45 50.54 386.45 51.13 386.45 51.73 386.45 52.32 386.45 52.91 386.45 53.5 386.45 54.1 386.45 54.69 386.45 55.28 386.45 55.87 386.45 56.47 386.45 57.06 386.45 57.65 386.45 58.24 386.45 58.84 386.45 59.43 386.45 60.02 386.45 60.61 386.45 61.21 386.45 61.8 386.45 62.39 386.45 62.98 386.45 63.58 386.45 64.17 386.45 64.76 386.45 65.35 386.45 65.95 386.45 66.54 386.45 67.13 386.45 67.73 386.45 68.32 386.45 68.91 386.45 69.5 386.45 70.1 386.45 70.69 386.45 71.28 386.45 71.87 386.45 72.47 386.45 73.06 386.45 73.65 386.45 74.24 386.45 74.84 386.45 75.43 386.45 76.02 386.45 76.61 386.45 77.21 386.45 77.8 386.45 78.39 386.45 78.98 386.45 79.58 386.45 80.17 386.45 80.76 386.45 81.35 386.45 81.95 386.45 82.54 386.45 83.13 386.45 83.72 386.45 84.32 386.45 84.91 386.45 85.5 386.44 86.09 386.44 86.69 386.44 87.28 386.44 87.87 386.43 88.46 386.43 89.06 386.42 89.65 386.41 90.24 386.39 90.84 386.38 91.43 386.35 92.02 386.33 92.61 386.29 93.21 386.24 93.8 386.19 94.39 386.12 94.98 386.03 95.58 385.92 96.17 385.79 96.76 385.64 97.35 385.46 97.95 385.24 98.54 384.99 99.13 384.69 99.72 384.35 100.32 383.96 100.91 383.52 101.5 383.03 102.09 382.46 102.69 381.83 103.28 381.14 103.87 380.38 104.46 379.56 105.06 378.68 105.65 377.71 106.24 376.69 106.83 375.6 107.43 374.45 108.02 373.25 108.61 371.99 109.2 370.69 109.8 369.33 110.39 367.93 110.98 366.49 111.58 365.01 112.17 363.48 112.76 361.92 113.35 360.31 113.95 358.65 114.54 356.94 115.13 355.17 115.72 353.35 116.32 351.46 116.91 349.49 117.5 347.43 118.09 345.28 118.69 343.03 119.28 340.68 119.87 338.22 120.46 335.65 121.06 332.95 121.65 330.1 122.24 327.11 122.83 323.99 123.43 320.73 124.02 317.32 124.61 313.76 125.2 310.01 125.8 306.09 126.39 302.01 126.98 297.76 127.57 293.35 128.17 288.76 128.76 283.99 129.35 279.03 129.94 273.91 130.54 268.62 131.13 263.19 131.72 257.61 132.31 251.9 132.91 246.05 133.5 240.1 134.09 234.07 134.69 227.97 135.28 221.83 135.87 215.67 136.46 209.5 137.06 203.36 137.65 197.26 138.24 191.24 138.83 185.29 139.43 179.46 140.02 173.74 140.61 168.18 141.2 162.78 141.8 157.54 142.39 152.47 142.98 147.58 143.57 142.86 144.17 138.31 144.76 133.97 145.35 129.79 145.94 125.77 146.54 121.88 147.13 118.12 147.72 114.47 148.31 110.94 148.91 107.49 149.5 104.11 150.09 100.78 150.68 97.49 151.28 94.23 151.87 90.99 152.46 87.77 153.05 84.57 153.65 81.39 154.24 78.23 154.83 75.11 155.43 72.03 156.02 69.02 156.61 66.11 157.2 63.32 157.8 60.66 158.39 58.15 158.98 55.84 159.57 53.73 160.17 51.9 160.76 50.34 161.35 49.05 161.94 48.06 162.54 47.37 163.13 46.98 163.72 46.92 164.31 47.2 164.91 47.75 165.5 48.56 166.09 49.6 166.68 50.85 167.28 52.27 167.87 53.84 168.46 55.51 169.05 57.23 169.65 58.97 170.24 60.7 170.83 62.4 171.42 64.04 172.02 65.59 172.61 67.08 173.2 68.49 173.79 69.85 174.39 71.18 174.98 72.5 175.57 73.85 176.16 75.3 176.76 76.89 177.35 78.66 177.94 80.65 178.54 82.93 179.13 85.54 179.72 88.6 180.31 92.09 180.91 96.03 181.5 100.43 182.09 105.32 182.68 110.69 183.28 116.59 183.87 123.01 184.46 129.85 185.05 137.08 185.65 144.67 186.24 152.56 186.83 160.71 187.42 169.09 188.02 177.57 188.61 186.1 189.2 194.62 189.79 203.07 190.39 211.39 190.98 219.5 191.57 227.33 192.16 234.85 192.76 242.03 193.35 248.84 193.94 255.25 194.53 261.25 195.13 266.73 195.72 271.75 196.31 276.34 196.9 280.51 197.5 284.27 198.09 287.64 198.68 290.63 199.28 293.25 199.87 295.59 200.46 297.68 201.05 299.58 201.65 301.31 202.24 302.93 202.83 304.46 203.42 305.97 204.02 307.49 204.61 309.06 205.2 310.7 205.79 312.44 206.39 314.3 206.98 316.32 207.57 318.49 208.16 320.81 208.76 323.28 209.35 325.89 209.94 328.62 210.53 331.48 211.13 334.44 211.72 337.46 212.31 340.53 212.9 343.61 213.5 346.69 214.09 349.74 214.68 352.73 215.27 355.63 215.87 358.43 216.46 361.12 217.05 363.68 217.64 366.1 218.24 368.36 218.83 370.44 219.42 372.36 220.01 374.12 220.61 375.73 221.2 377.19 221.79 378.49 222.39 379.64 222.98 380.65 223.57 381.54 224.16 382.32 224.76 383 225.35 383.59 225.94 384.08 226.53 384.5 227.13 384.85 227.72 385.14 228.31 385.38 228.9 385.58 229.5 385.74 230.09 385.86 230.68 385.95 231.27 386.02 231.87 386.06 232.46 386.08 233.05 386.09 233.64 386.07 234.24 386.03 234.83 385.98 235.42 385.91 236.01 385.81 236.61 385.71 237.2 385.58 237.79 385.43 238.38 385.26 238.98 385.07 239.57 384.86 240.16 384.63 240.75 384.38 241.35 384.12 241.94 383.84 242.53 383.54 243.13 383.24 243.72 382.94 244.31 382.63 244.9 382.33 245.5 382.04 246.09 381.76 246.68 381.51 247.27 381.28 247.87 381.08 248.46 380.91 249.05 380.77 249.64 380.69 250.24 380.65 250.83 380.64 251.42 380.69 252.01 380.77 252.61 380.89 253.2 381.05 253.79 381.25 254.38 381.48 254.98 381.74 255.57 382.01 256.16 382.3 256.75 382.6 257.35 382.9 257.94 383.21 258.53 383.51 259.12 383.8 259.72 384.09 260.31 384.36 260.9 384.61 261.49 384.84 262.09 385.05 262.68 385.25 263.27 385.42 263.86 385.58 264.46 385.72 265.05 385.84 265.64 385.94 266.24 386.03 266.83 386.11 267.42 386.17 268.01 386.23 268.61 386.27 269.2 386.31 269.79 386.34 270.38 386.36 270.98 386.38 271.57 386.4 272.16 386.41 272.75 386.42 273.35 386.43 273.94 386.43 274.53 386.44 275.12 386.44 275.72 386.44 276.31 386.44 276.9 386.45 277.49 386.45 278.09 386.45 278.68 386.45 279.27 386.45 279.86 386.45 280.46 386.45 281.05 386.45 281.64 386.45 282.23 386.45 282.83 386.45 283.42 386.45 284.01 386.45 284.6 386.45 285.2 386.45 285.79 386.45 286.38 386.45 286.98 386.45 287.57 386.45 288.16 386.45 288.75 386.45 289.35 386.45 289.94 386.45 290.53 386.45 291.12 386.45 291.72 386.45 292.31 386.45 292.9 386.45 293.49 386.45 294.09 386.45 294.68 386.45 295.27 386.45 295.86 386.45 296.46 386.45 297.05 386.45 297.64 386.45 298.23 386.45 298.83 386.45 299.42 386.45 300.01 386.45 300.6 386.45 301.2 386.45 301.79 386.45 302.38 386.45 302.97 386.45 303.57 386.45 304.16 386.45 304.75 386.45 305.34 386.45 305.94 386.45 306.53 386.45 307.12 386.45 307.71 386.45 308.31 386.45 308.9 386.45 309.49 386.45 310.09 386.45 310.68 386.45 311.27 386.45 311.86 386.45 312.46 386.45 313.05 386.45 313.64 386.45 314.23 386.45 314.83 386.45 315.42 386.45 316.01 386.45 316.6 386.45 317.2 386.45 317.79 386.45 318.38 386.45 318.97 386.45 319.57 386.45 320.16 386.45 320.75 386.45 321.34 386.45 321.94 386.45 322.53 386.45 323.12 386.45 323.71 386.45 324.31 386.45 324.9 386.45 325.49 386.45 326.08 386.45 326.68 386.45 327.27 386.45 327.86 386.45 328.45 386.45 329.05 386.45 329.64 386.45 330.23 386.45 330.83 386.45 331.42 386.45 332.01 386.45 332.6 386.45 333.2 386.45 333.79 386.45 334.38 386.45 334.38 386.45 333.79 386.45 333.2 386.45 332.6 386.45 332.01 386.45 331.42 386.45 330.83 386.45 330.23 386.45 329.64 386.45 329.05 386.45 328.45 386.45 327.86 386.45 327.27 386.45 326.68 386.45 326.08 386.45 325.49 386.45 324.9 386.45 324.31 386.45 323.71 386.45 323.12 386.45 322.53 386.45 321.94 386.45 321.34 386.45 320.75 386.45 320.16 386.45 319.57 386.45 318.97 386.45 318.38 386.45 317.79 386.45 317.2 386.45 316.6 386.45 316.01 386.45 315.42 386.45 314.83 386.45 314.23 386.45 313.64 386.45 313.05 386.45 312.46 386.45 311.86 386.45 311.27 386.45 310.68 386.45 310.09 386.45 309.49 386.45 308.9 386.45 308.31 386.45 307.71 386.45 307.12 386.45 306.53 386.45 305.94 386.45 305.34 386.45 304.75 386.45 304.16 386.45 303.57 386.45 302.97 386.45 302.38 386.45 301.79 386.45 301.2 386.45 300.6 386.45 300.01 386.45 299.42 386.45 298.83 386.45 298.23 386.45 297.64 386.45 297.05 386.45 296.46 386.45 295.86 386.45 295.27 386.45 294.68 386.45 294.09 386.45 293.49 386.45 292.9 386.45 292.31 386.45 291.72 386.45 291.12 386.45 290.53 386.45 289.94 386.45 289.35 386.45 288.75 386.45 288.16 386.45 287.57 386.45 286.98 386.45 286.38 386.45 285.79 386.45 285.2 386.45 284.6 386.45 284.01 386.45 283.42 386.45 282.83 386.45 282.23 386.45 281.64 386.45 281.05 386.45 280.46 386.45 279.86 386.45 279.27 386.45 278.68 386.45 278.09 386.45 277.49 386.45 276.9 386.45 276.31 386.45 275.72 386.45 275.12 386.45 274.53 386.45 273.94 386.45 273.35 386.45 272.75 386.45 272.16 386.45 271.57 386.45 270.98 386.45 270.38 386.45 269.79 386.45 269.2 386.45 268.61 386.45 268.01 386.45 267.42 386.45 266.83 386.45 266.24 386.45 265.64 386.45 265.05 386.45 264.46 386.45 263.86 386.45 263.27 386.45 262.68 386.45 262.09 386.45 261.49 386.45 260.9 386.45 260.31 386.45 259.72 386.45 259.12 386.45 258.53 386.45 257.94 386.45 257.35 386.45 256.75 386.45 256.16 386.45 255.57 386.45 254.98 386.45 254.38 386.45 253.79 386.45 253.2 386.45 252.61 386.45 252.01 386.45 251.42 386.45 250.83 386.45 250.24 386.45 249.64 386.45 249.05 386.45 248.46 386.45 247.87 386.45 247.27 386.45 246.68 386.45 246.09 386.45 245.5 386.45 244.9 386.45 244.31 386.45 243.72 386.45 243.13 386.45 242.53 386.45 241.94 386.45 241.35 386.45 240.75 386.45 240.16 386.45 239.57 386.45 238.98 386.45 238.38 386.45 237.79 386.45 237.2 386.45 236.61 386.45 236.01 386.45 235.42 386.45 234.83 386.45 234.24 386.45 233.64 386.45 233.05 386.45 232.46 386.45 231.87 386.45 231.27 386.45 230.68 386.45 230.09 386.45 229.5 386.45 228.9 386.45 228.31 386.45 227.72 386.45 227.13 386.45 226.53 386.45 225.94 386.45 225.35 386.45 224.76 386.45 224.16 386.45 223.57 386.45 222.98 386.45 222.39 386.45 221.79 386.45 221.2 386.45 220.61 386.45 220.01 386.45 219.42 386.45 218.83 386.45 218.24 386.45 217.64 386.45 217.05 386.45 216.46 386.45 215.87 386.45 215.27 386.45 214.68 386.45 214.09 386.45 213.5 386.45 212.9 386.45 212.31 386.45 211.72 386.45 211.13 386.45 210.53 386.45 209.94 386.45 209.35 386.45 208.76 386.45 208.16 386.45 207.57 386.45 206.98 386.45 206.39 386.45 205.79 386.45 205.2 386.45 204.61 386.45 204.02 386.45 203.42 386.45 202.83 386.45 202.24 386.45 201.65 386.45 201.05 386.45 200.46 386.45 199.87 386.45 199.28 386.45 198.68 386.45 198.09 386.45 197.5 386.45 196.9 386.45 196.31 386.45 195.72 386.45 195.13 386.45 194.53 386.45 193.94 386.45 193.35 386.45 192.76 386.45 192.16 386.45 191.57 386.45 190.98 386.45 190.39 386.45 189.79 386.45 189.2 386.45 188.61 386.45 188.02 386.45 187.42 386.45 186.83 386.45 186.24 386.45 185.65 386.45 185.05 386.45 184.46 386.45 183.87 386.45 183.28 386.45 182.68 386.45 182.09 386.45 181.5 386.45 180.91 386.45 180.31 386.45 179.72 386.45 179.13 386.45 178.54 386.45 177.94 386.45 177.35 386.45 176.76 386.45 176.16 386.45 175.57 386.45 174.98 386.45 174.39 386.45 173.79 386.45 173.2 386.45 172.61 386.45 172.02 386.45 171.42 386.45 170.83 386.45 170.24 386.45 169.65 386.45 169.05 386.45 168.46 386.45 167.87 386.45 167.28 386.45 166.68 386.45 166.09 386.45 165.5 386.45 164.91 386.45 164.31 386.45 163.72 386.45 163.13 386.45 162.54 386.45 161.94 386.45 161.35 386.45 160.76 386.45 160.17 386.45 159.57 386.45 158.98 386.45 158.39 386.45 157.8 386.45 157.2 386.45 156.61 386.45 156.02 386.45 155.43 386.45 154.83 386.45 154.24 386.45 153.65 386.45 153.05 386.45 152.46 386.45 151.87 386.45 151.28 386.45 150.68 386.45 150.09 386.45 149.5 386.45 148.91 386.45 148.31 386.45 147.72 386.45 147.13 386.45 146.54 386.45 145.94 386.45 145.35 386.45 144.76 386.45 144.17 386.45 143.57 386.45 142.98 386.45 142.39 386.45 141.8 386.45 141.2 386.45 140.61 386.45 140.02 386.45 139.43 386.45 138.83 386.45 138.24 386.45 137.65 386.45 137.06 386.45 136.46 386.45 135.87 386.45 135.28 386.45 134.69 386.45 134.09 386.45 133.5 386.45 132.91 386.45 132.31 386.45 131.72 386.45 131.13 386.45 130.54 386.45 129.94 386.45 129.35 386.45 128.76 386.45 128.17 386.45 127.57 386.45 126.98 386.45 126.39 386.45 125.8 386.45 125.2 386.45 124.61 386.45 124.02 386.45 123.43 386.45 122.83 386.45 122.24 386.45 121.65 386.45 121.06 386.45 120.46 386.45 119.87 386.45 119.28 386.45 118.69 386.45 118.09 386.45 117.5 386.45 116.91 386.45 116.32 386.45 115.72 386.45 115.13 386.45 114.54 386.45 113.95 386.45 113.35 386.45 112.76 386.45 112.17 386.45 111.58 386.45 110.98 386.45 110.39 386.45 109.8 386.45 109.2 386.45 108.61 386.45 108.02 386.45 107.43 386.45 106.83 386.45 106.24 386.45 105.65 386.45 105.06 386.45 104.46 386.45 103.87 386.45 103.28 386.45 102.69 386.45 102.09 386.45 101.5 386.45 100.91 386.45 100.32 386.45 99.72 386.45 99.13 386.45 98.54 386.45 97.95 386.45 97.35 386.45 96.76 386.45 96.17 386.45 95.58 386.45 94.98 386.45 94.39 386.45 93.8 386.45 93.21 386.45 92.61 386.45 92.02 386.45 91.43 386.45 90.84 386.45 90.24 386.45 89.65 386.45 89.06 386.45 88.46 386.45 87.87 386.45 87.28 386.45 86.69 386.45 86.09 386.45 85.5 386.45 84.91 386.45 84.32 386.45 83.72 386.45 83.13 386.45 82.54 386.45 81.95 386.45 81.35 386.45 80.76 386.45 80.17 386.45 79.58 386.45 78.98 386.45 78.39 386.45 77.8 386.45 77.21 386.45 76.61 386.45 76.02 386.45 75.43 386.45 74.84 386.45 74.24 386.45 73.65 386.45 73.06 386.45 72.47 386.45 71.87 386.45 71.28 386.45 70.69 386.45 70.1 386.45 69.5 386.45 68.91 386.45 68.32 386.45 67.73 386.45 67.13 386.45 66.54 386.45 65.95 386.45 65.35 386.45 64.76 386.45 64.17 386.45 63.58 386.45 62.98 386.45 62.39 386.45 61.8 386.45 61.21 386.45 60.61 386.45 60.02 386.45 59.43 386.45 58.84 386.45 58.24 386.45 57.65 386.45 57.06 386.45 56.47 386.45 55.87 386.45 55.28 386.45 54.69 386.45 54.1 386.45 53.5 386.45 52.91 386.45 52.32 386.45 51.73 386.45 51.13 386.45 50.54 386.45 49.95 386.45 49.36 386.45 48.76 386.45 48.17 386.45 47.58 386.45 46.99 386.45 46.39 386.45 45.8 386.45 45.21 386.45 44.61 386.45 44.02 386.45 43.43 386.45 42.84 386.45 42.24 386.45 41.65 386.45 41.06 386.45 40.47 386.45 39.87 386.45 39.28 386.45 38.69 386.45 38.1 386.45 37.5 386.45 36.91 386.45 36.32 386.45 35.73 386.45 35.13 386.45 34.54 386.45 33.95 386.45 33.36 386.45 32.76 386.45 32.17 386.45 31.58 386.45" style="stroke-width:0;stroke:none;fill:#f50;fill-opacity:.25"/><polyline points="31.58 386.45 32.17 386.45 32.76 386.45 33.36 386.45 33.95 386.45 34.54 386.45 35.13 386.45 35.73 386.45 36.32 386.45 36.91 386.45 37.5 386.45 38.1 386.45 38.69 386.45 39.28 386.45 39.87 386.45 40.47 386.45 41.06 386.45 41.65 386.45 42.24 386.45 42.84 386.45 43.43 386.45 44.02 386.45 44.61 386.45 45.21 386.45 45.8 386.45 46.39 386.45 46.99 386.45 47.58 386.45 48.17 386.45 48.76 386.45 49.36 386.45 49.95 386.45 50.54 386.45 51.13 386.45 51.73 386.45 52.32 386.45 52.91 386.45 53.5 386.45 54.1 386.45 54.69 386.45 55.28 386.45 55.87 386.45 56.47 386.45 57.06 386.45 57.65 386.45 58.24 386.45 58.84 386.45 59.43 386.45 60.02 386.45 60.61 386.45 61.21 386.45 61.8 386.45 62.39 386.45 62.98 386.45 63.58 386.45 64.17 386.45 64.76 386.45 65.35 386.45 65.95 386.45 66.54 386.45 67.13 386.45 67.73 386.45 68.32 386.45 68.91 386.45 69.5 386.45 70.1 386.45 70.69 386.45 71.28 386.45 71.87 386.45 72.47 386.45 73.06 386.45 73.65 386.45 74.24 386.45 74.84 386.45 75.43 386.45 76.02 386.45 76.61 386.45 77.21 386.45 77.8 386.45 78.39 386.45 78.98 386.45 79.58 386.45 80.17 386.45 80.76 386.45 81.35 386.45 81.95 386.45 82.54 386.45 83.13 386.45 83.72 386.45 84.32 386.45 84.91 386.45 85.5 386.44 86.09 386.44 86.69 386.44 87.28 386.44 87.87 386.43 88.46 386.43 89.06 386.42 89.65 386.41 90.24 386.39 90.84 386.38 91.43 386.35 92.02 386.33 92.61 386.29 93.21 386.24 93.8 386.19 94.39 386.12 94.98 386.03 95.58 385.92 96.17 385.79 96.76 385.64 97.35 385.46 97.95 385.24 98.54 384.99 99.13 384.69 99.72 384.35 100.32 383.96 100.91 383.52 101.5 383.03 102.09 382.46 102.69 381.83 103.28 381.14 103.87 380.38 104.46 379.56 105.06 378.68 105.65 377.71 106.24 376.69 106.83 375.6 107.43 374.45 108.02 373.25 108.61 371.99 109.2 370.69 109.8 369.33 110.39 367.93 110.98 366.49 111.58 365.01 112.17 363.48 112.76 361.92 113.35 360.31 113.95 358.65 114.54 356.94 115.13 355.17 115.72 353.35 116.32 351.46 116.91 349.49 117.5 347.43 118.09 345.28 118.69 343.03 119.28 340.68 119.87 338.22 120.46 335.65 121.06 332.95 121.65 330.1 122.24 327.11 122.83 323.99 123.43 320.73 124.02 317.32 124.61 313.76 125.2 310.01 125.8 306.09 126.39 302.01 126.98 297.76 127.57 293.35 128.17 288.76 128.76 283.99 129.35 279.03 129.94 273.91 130.54 268.62 131.13 263.19 131.72 257.61 132.31 251.9 132.91 246.05 133.5 240.1 134.09 234.07 134.69 227.97 135.28 221.83 135.87 215.67 136.46 209.5 137.06 203.36 137.65 197.26 138.24 191.24 138.83 185.29 139.43 179.46 140.02 173.74 140.61 168.18 141.2 162.78 141.8 157.54 142.39 152.47 142.98 147.58 143.57 142.86 144.17 138.31 144.76 133.97 145.35 129.79 145.94 125.77 146.54 121.88 147.13 118.12 147.72 114.47 148.31 110.94 148.91 107.49 149.5 104.11 150.09 100.78 150.68 97.49 151.28 94.23 151.87 90.99 152.46 87.77 153.05 84.57 153.65 81.39 154.24 78.23 154.83 75.11 155.43 72.03 156.02 69.02 156.61 66.11 157.2 63.32 157.8 60.66 158.39 58.15 158.98 55.84 159.57 53.73 160.17 51.9 160.76 50.34 161.35 49.05 161.94 48.06 162.54 47.37 163.13 46.98 163.72 46.92 164.31 47.2 164.91 47.75 165.5 48.56 166.09 49.6 166.68 50.85 167.28 52.27 167.87 53.84 168.46 55.51 169.05 57.23 169.65 58.97 170.24 60.7 170.83 62.4 171.42 64.04 172.02 65.59 172.61 67.08 173.2 68.49 173.79 69.85 174.39 71.18 174.98 72.5 175.57 73.85 176.16 75.3 176.76 76.89 177.35 78.66 177.94 80.65 178.54 82.93 179.13 85.54 179.72 88.6 180.31 92.09 180.91 96.03 181.5 100.43 182.09 105.32 182.68 110.69 183.28 116.59 183.87 123.01 184.46 129.85 185.05 137.08 185.65 144.67 186.24 152.56 186.83 160.71 187.42 169.09 188.02 177.57 188.61 186.1 189.2 194.62 189.79 203.07 190.39 211.39 190.98 219.5 191.57 227.33 192.16 234.85 192.76 242.03 193.35 248.84 193.94 255.25 194.53 261.25 195.13 266.73 195.72 271.75 196.31 276.34 196.9 280.51 197.5 284.27 198.09 287.64 198.68 290.63 199.28 293.25 199.87 295.59 200.46 297.68 201.05 299.58 201.65 301.31 202.24 302.93 202.83 304.46 203.42 305.97 204.02 307.49 204.61 309.06 205.2 310.7 205.79 312.44 206.39 314.3 206.98 316.32 207.57 318.49 208.16 320.81 208.76 323.28 209.35 325.89 209.94 328.62 210.53 331.48 211.13 334.44 211.72 337.46 212.31 340.53 212.9 343.61 213.5 346.69 214.09 349.74 214.68 352.73 215.27 355.63 215.87 358.43 216.46 361.12 217.05 363.68 217.64 366.1 218.24 368.36 218.83 370.44 219.42 372.36 220.01 374.12 220.61 375.73 221.2 377.19 221.79 378.49 222.39 379.64 222.98 380.65 223.57 381.54 224.16 382.32 224.76 383 225.35 383.59 225.94 384.08 226.53 384.5 227.13 384.85 227.72 385.14 228.31 385.38 228.9 385.58 229.5 385.74 230.09 385.86 230.68 385.95 231.27 386.02 231.87 386.06 232.46 386.08 233.05 386.09 233.64 386.07 234.24 386.03 234.83 385.98 235.42 385.91 236.01 385.81 236.61 385.71 237.2 385.58 237.79 385.43 238.38 385.26 238.98 385.07 239.57 384.86 240.16 384.63 240.75 384.38 241.35 384.12 241.94 383.84 242.53 383.54 243.13 383.24 243.72 382.94 244.31 382.63 244.9 382.33 245.5 382.04 246.09 381.76 246.68 381.51 247.27 381.28 247.87 381.08 248.46 380.91 249.05 380.77 249.64 380.69 250.24 380.65 250.83 380.64 251.42 380.69 252.01 380.77 252.61 380.89 253.2 381.05 253.79 381.25 254.38 381.48 254.98 381.74 255.57 382.01 256.16 382.3 256.75 382.6 257.35 382.9 257.94 383.21 258.53 383.51 259.12 383.8 259.72 384.09 260.31 384.36 260.9 384.61 261.49 384.84 262.09 385.05 262.68 385.25 263.27 385.42 263.86 385.58 264.46 385.72 265.05 385.84 265.64 385.94 266.24 386.03 266.83 386.11 267.42 386.17 268.01 386.23 268.61 386.27 269.2 386.31 269.79 386.34 270.38 386.36 270.98 386.38 271.57 386.4 272.16 386.41 272.75 386.42 273.35 386.43 273.94 386.43 274.53 386.44 275.12 386.44 275.72 386.44 276.31 386.44 276.9 386.45 277.49 386.45 278.09 386.45 278.68 386.45 279.27 386.45 279.86 386.45 280.46 386.45 281.05 386.45 281.64 386.45 282.23 386.45 282.83 386.45 283.42 386.45 284.01 386.45 284.6 386.45 285.2 386.45 285.79 386.45 286.38 386.45 286.98 386.45 287.57 386.45 288.16 386.45 288.75 386.45 289.35 386.45 289.94 386.45 290.53 386.45 291.12 386.45 291.72 386.45 292.31 386.45 292.9 386.45 293.49 386.45 294.09 386.45 294.68 386.45 295.27 386.45 295.86 386.45 296.46 386.45 297.05 386.45 297.64 386.45 298.23 386.45 298.83 386.45 299.42 386.45 300.01 386.45 300.6 386.45 301.2 386.45 301.79 386.45 302.38 386.45 302.97 386.45 303.57 386.45 304.16 386.45 304.75 386.45 305.34 386.45 305.94 386.45 306.53 386.45 307.12 386.45 307.71 386.45 308.31 386.45 308.9 386.45 309.49 386.45 310.09 386.45 310.68 386.45 311.27 386.45 311.86 386.45 312.46 386.45 313.05 386.45 313.64 386.45 314.23 386.45 314.83 386.45 315.42 386.45 316.01 386.45 316.6 386.45 317.2 386.45 317.79 386.45 318.38 386.45 318.97 386.45 319.57 386.45 320.16 386.45 320.75 386.45 321.34 386.45 321.94 386.45 322.53 386.45 323.12 386.45 323.71 386.45 324.31 386.45 324.9 386.45 325.49 386.45 326.08 386.45 326.68 386.45 327.27 386.45 327.86 386.45 328.45 386.45 329.05 386.45 329.64 386.45 330.23 386.45 330.83 386.45 331.42 386.45 332.01 386.45 332.6 386.45 333.2 386.45 333.79 386.45 334.38 386.45" style="stroke-width:1.07;stroke:#f8766d"/><polygon points="31.58 386.45 32.17 386.45 32.76 386.45 33.36 386.45 33.95 386.45 34.54 386.45 35.13 386.45 35.73 386.45 36.32 386.45 36.91 386.45 37.5 386.45 38.1 386.45 38.69 386.45 39.28 386.45 39.87 386.45 40.47 386.45 41.06 386.45 41.65 386.45 42.24 386.45 42.84 386.45 43.43 386.45 44.02 386.45 44.61 386.45 45.21 386.45 45.8 386.45 46.39 386.45 46.99 386.45 47.58 386.45 48.17 386.45 48.76 386.45 49.36 386.45 49.95 386.45 50.54 386.45 51.13 386.45 51.73 386.45 52.32 386.44 52.91 386.44 53.5 386.44 54.1 386.44 54.69 386.44 55.28 386.43 55.87 386.43 56.47 386.43 57.06 386.42 57.65 386.41 58.24 386.41 58.84 386.4 59.43 386.38 60.02 386.37 60.61 386.35 61.21 386.34 61.8 386.31 62.39 386.29 62.98 386.26 63.58 386.22 64.17 386.18 64.76 386.13 65.35 386.07 65.95 386.01 66.54 385.94 67.13 385.85 67.73 385.76 68.32 385.65 68.91 385.53 69.5 385.4 70.1 385.25 70.69 385.08 71.28 384.89 71.87 384.69 72.47 384.46 73.06 384.21 73.65 383.95 74.24 383.65 74.84 383.33 75.43 382.99 76.02 382.62 76.61 382.22 77.21 381.8 77.8 381.35 78.39 380.87 78.98 380.37 79.58 379.85 80.17 379.29 80.76 378.72 81.35 378.12 81.95 377.5 82.54 376.86 83.13 376.2 83.72 375.53 84.32 374.84 84.91 374.15 85.5 373.44 86.09 372.72 86.69 372 87.28 371.27 87.87 370.55 88.46 369.82 89.06 369.09 89.65 368.37 90.24 367.65 90.84 366.93 91.43 366.21 92.02 365.5 92.61 364.79 93.21 364.08 93.8 363.37 94.39 362.66 94.98 361.94 95.58 361.21 96.17 360.47 96.76 359.72 97.35 358.94 97.95 358.13 98.54 357.29 99.13 356.43 99.72 355.51 100.32 354.55 100.91 353.53 101.5 352.45 102.09 351.32 102.69 350.11 103.28 348.81 103.87 347.43 104.46 345.98 105.06 344.44 105.65 342.79 106.24 341.04 106.83 339.19 107.43 337.25 108.02 335.22 108.61 333.06 109.2 330.8 109.8 328.45 110.39 326.01 110.98 323.48 111.58 320.84 112.17 318.13 112.76 315.34 113.35 312.49 113.95 309.58 114.54 306.6 115.13 303.59 115.72 300.54 116.32 297.47 116.91 294.38 117.5 291.29 118.09 288.2 118.69 285.12 119.28 282.06 119.87 279.03 120.46 276.04 121.06 273.09 121.65 270.19 122.24 267.34 122.83 264.55 123.43 261.83 124.02 259.17 124.61 256.57 125.2 254.03 125.8 251.57 126.39 249.17 126.98 246.84 127.57 244.56 128.17 242.34 128.76 240.19 129.35 238.09 129.94 236.04 130.54 234.03 131.13 232.06 131.72 230.15 132.31 228.28 132.91 226.44 133.5 224.63 134.09 222.86 134.69 221.13 135.28 219.43 135.87 217.75 136.46 216.1 137.06 214.48 137.65 212.9 138.24 211.34 138.83 209.8 139.43 208.28 140.02 206.79 140.61 205.32 141.2 203.87 141.8 202.43 142.39 201 142.98 199.58 143.57 198.16 144.17 196.75 144.76 195.33 145.35 193.9 145.94 192.45 146.54 190.98 147.13 189.48 147.72 187.96 148.31 186.4 148.91 184.8 149.5 183.15 150.09 181.46 150.68 179.73 151.28 177.95 151.87 176.11 152.46 174.23 153.05 172.3 153.65 170.33 154.24 168.33 154.83 166.28 155.43 164.21 156.02 162.12 156.61 160.03 157.2 157.93 157.8 155.84 158.39 153.77 158.98 151.73 159.57 149.73 160.17 147.79 160.76 145.93 161.35 144.15 161.94 142.45 162.54 140.85 163.13 139.38 163.72 138.05 164.31 136.86 164.91 135.8 165.5 134.89 166.09 134.18 166.68 133.64 167.28 133.28 167.87 133.09 168.46 133.07 169.05 133.28 169.65 133.68 170.24 134.25 170.83 135 171.42 135.92 172.02 137.06 172.61 138.37 173.2 139.82 173.79 141.42 174.39 143.16 174.98 145.07 175.57 147.1 176.16 149.23 176.76 151.46 177.35 153.78 177.94 156.2 178.54 158.67 179.13 161.2 179.72 163.78 180.31 166.4 180.91 169.05 181.5 171.71 182.09 174.39 182.68 177.07 183.28 179.76 183.87 182.44 184.46 185.12 185.05 187.78 185.65 190.44 186.24 193.08 186.83 195.71 187.42 198.33 188.02 200.94 188.61 203.54 189.2 206.13 189.79 208.72 190.39 211.31 190.98 213.89 191.57 216.48 192.16 219.07 192.76 221.67 193.35 224.28 193.94 226.9 194.53 229.53 195.13 232.18 195.72 234.83 196.31 237.5 196.9 240.19 197.5 242.88 198.09 245.59 198.68 248.31 199.28 251.03 199.87 253.77 200.46 256.51 201.05 259.25 201.65 262 202.24 264.75 202.83 267.49 203.42 270.23 204.02 272.95 204.61 275.67 205.2 278.38 205.79 281.07 206.39 283.74 206.98 286.39 207.57 289.02 208.16 291.63 208.76 294.21 209.35 296.75 209.94 299.27 210.53 301.74 211.13 304.19 211.72 306.6 212.31 308.95 212.9 311.27 213.5 313.54 214.09 315.76 214.68 317.94 215.27 320.06 215.87 322.12 216.46 324.13 217.05 326.09 217.64 327.99 218.24 329.82 218.83 331.59 219.42 333.3 220.01 334.96 220.61 336.55 221.2 338.07 221.79 339.54 222.39 340.95 222.98 342.31 223.57 343.6 224.16 344.83 224.76 346.01 225.35 347.15 225.94 348.24 226.53 349.27 227.13 350.27 227.72 351.23 228.31 352.15 228.9 353.05 229.5 353.91 230.09 354.74 230.68 355.56 231.27 356.36 231.87 357.15 232.46 357.92 233.05 358.69 233.64 359.45 234.24 360.21 234.83 360.97 235.42 361.73 236.01 362.5 236.61 363.27 237.2 364.04 237.79 364.81 238.38 365.6 238.98 366.38 239.57 367.17 240.16 367.97 240.75 368.76 241.35 369.56 241.94 370.35 242.53 371.14 243.13 371.93 243.72 372.71 244.31 373.47 244.9 374.23 245.5 374.97 246.09 375.7 246.68 376.4 247.27 377.08 247.87 377.75 248.46 378.39 249.05 379 249.64 379.59 250.24 380.14 250.83 380.67 251.42 381.17 252.01 381.65 252.61 382.09 253.2 382.5 253.79 382.88 254.38 383.24 254.98 383.57 255.57 383.87 256.16 384.14 256.75 384.39 257.35 384.61 257.94 384.81 258.53 384.99 259.12 385.15 259.72 385.28 260.31 385.4 260.9 385.5 261.49 385.58 262.09 385.65 262.68 385.7 263.27 385.74 263.86 385.76 264.46 385.77 265.05 385.76 265.64 385.75 266.24 385.72 266.83 385.68 267.42 385.63 268.01 385.57 268.61 385.51 269.2 385.43 269.79 385.34 270.38 385.24 270.98 385.14 271.57 385.03 272.16 384.91 272.75 384.79 273.35 384.65 273.94 384.52 274.53 384.38 275.12 384.24 275.72 384.09 276.31 383.95 276.9 383.8 277.49 383.66 278.09 383.51 278.68 383.38 279.27 383.24 279.86 383.12 280.46 382.99 281.05 382.88 281.64 382.78 282.23 382.69 282.83 382.61 283.42 382.54 284.01 382.49 284.6 382.45 285.2 382.43 285.79 382.42 286.38 382.42 286.98 382.44 287.57 382.47 288.16 382.52 288.75 382.58 289.35 382.65 289.94 382.74 290.53 382.83 291.12 382.94 291.72 383.06 292.31 383.18 292.9 383.31 293.49 383.45 294.09 383.59 294.68 383.73 295.27 383.88 295.86 384.03 296.46 384.18 297.05 384.32 297.64 384.47 298.23 384.61 298.83 384.74 299.42 384.88 300.01 385 300.6 385.13 301.2 385.24 301.79 385.35 302.38 385.45 302.97 385.55 303.57 385.64 304.16 385.73 304.75 385.8 305.34 385.88 305.94 385.94 306.53 386 307.12 386.05 307.71 386.1 308.31 386.15 308.9 386.19 309.49 386.22 310.09 386.25 310.68 386.28 311.27 386.3 311.86 386.32 312.46 386.34 313.05 386.36 313.64 386.37 314.23 386.39 314.83 386.4 315.42 386.4 316.01 386.41 316.6 386.42 317.2 386.42 317.79 386.43 318.38 386.43 318.97 386.44 319.57 386.44 320.16 386.44 320.75 386.44 321.34 386.44 321.94 386.44 322.53 386.45 323.12 386.45 323.71 386.45 324.31 386.45 324.9 386.45 325.49 386.45 326.08 386.45 326.68 386.45 327.27 386.45 327.86 386.45 328.45 386.45 329.05 386.45 329.64 386.45 330.23 386.45 330.83 386.45 331.42 386.45 332.01 386.45 332.6 386.45 333.2 386.45 333.79 386.45 334.38 386.45 334.38 386.45 333.79 386.45 333.2 386.45 332.6 386.45 332.01 386.45 331.42 386.45 330.83 386.45 330.23 386.45 329.64 386.45 329.05 386.45 328.45 386.45 327.86 386.45 327.27 386.45 326.68 386.45 326.08 386.45 325.49 386.45 324.9 386.45 324.31 386.45 323.71 386.45 323.12 386.45 322.53 386.45 321.94 386.45 321.34 386.45 320.75 386.45 320.16 386.45 319.57 386.45 318.97 386.45 318.38 386.45 317.79 386.45 317.2 386.45 316.6 386.45 316.01 386.45 315.42 386.45 314.83 386.45 314.23 386.45 313.64 386.45 313.05 386.45 312.46 386.45 311.86 386.45 311.27 386.45 310.68 386.45 310.09 386.45 309.49 386.45 308.9 386.45 308.31 386.45 307.71 386.45 307.12 386.45 306.53 386.45 305.94 386.45 305.34 386.45 304.75 386.45 304.16 386.45 303.57 386.45 302.97 386.45 302.38 386.45 301.79 386.45 301.2 386.45 300.6 386.45 300.01 386.45 299.42 386.45 298.83 386.45 298.23 386.45 297.64 386.45 297.05 386.45 296.46 386.45 295.86 386.45 295.27 386.45 294.68 386.45 294.09 386.45 293.49 386.45 292.9 386.45 292.31 386.45 291.72 386.45 291.12 386.45 290.53 386.45 289.94 386.45 289.35 386.45 288.75 386.45 288.16 386.45 287.57 386.45 286.98 386.45 286.38 386.45 285.79 386.45 285.2 386.45 284.6 386.45 284.01 386.45 283.42 386.45 282.83 386.45 282.23 386.45 281.64 386.45 281.05 386.45 280.46 386.45 279.86 386.45 279.27 386.45 278.68 386.45 278.09 386.45 277.49 386.45 276.9 386.45 276.31 386.45 275.72 386.45 275.12 386.45 274.53 386.45 273.94 386.45 273.35 386.45 272.75 386.45 272.16 386.45 271.57 386.45 270.98 386.45 270.38 386.45 269.79 386.45 269.2 386.45 268.61 386.45 268.01 386.45 267.42 386.45 266.83 386.45 266.24 386.45 265.64 386.45 265.05 386.45 264.46 386.45 263.86 386.45 263.27 386.45 262.68 386.45 262.09 386.45 261.49 386.45 260.9 386.45 260.31 386.45 259.72 386.45 259.12 386.45 258.53 386.45 257.94 386.45 257.35 386.45 256.75 386.45 256.16 386.45 255.57 386.45 254.98 386.45 254.38 386.45 253.79 386.45 253.2 386.45 252.61 386.45 252.01 386.45 251.42 386.45 250.83 386.45 250.24 386.45 249.64 386.45 249.05 386.45 248.46 386.45 247.87 386.45 247.27 386.45 246.68 386.45 246.09 386.45 245.5 386.45 244.9 386.45 244.31 386.45 243.72 386.45 243.13 386.45 242.53 386.45 241.94 386.45 241.35 386.45 240.75 386.45 240.16 386.45 239.57 386.45 238.98 386.45 238.38 386.45 237.79 386.45 237.2 386.45 236.61 386.45 236.01 386.45 235.42 386.45 234.83 386.45 234.24 386.45 233.64 386.45 233.05 386.45 232.46 386.45 231.87 386.45 231.27 386.45 230.68 386.45 230.09 386.45 229.5 386.45 228.9 386.45 228.31 386.45 227.72 386.45 227.13 386.45 226.53 386.45 225.94 386.45 225.35 386.45 224.76 386.45 224.16 386.45 223.57 386.45 222.98 386.45 222.39 386.45 221.79 386.45 221.2 386.45 220.61 386.45 220.01 386.45 219.42 386.45 218.83 386.45 218.24 386.45 217.64 386.45 217.05 386.45 216.46 386.45 215.87 386.45 215.27 386.45 214.68 386.45 214.09 386.45 213.5 386.45 212.9 386.45 212.31 386.45 211.72 386.45 211.13 386.45 210.53 386.45 209.94 386.45 209.35 386.45 208.76 386.45 208.16 386.45 207.57 386.45 206.98 386.45 206.39 386.45 205.79 386.45 205.2 386.45 204.61 386.45 204.02 386.45 203.42 386.45 202.83 386.45 202.24 386.45 201.65 386.45 201.05 386.45 200.46 386.45 199.87 386.45 199.28 386.45 198.68 386.45 198.09 386.45 197.5 386.45 196.9 386.45 196.31 386.45 195.72 386.45 195.13 386.45 194.53 386.45 193.94 386.45 193.35 386.45 192.76 386.45 192.16 386.45 191.57 386.45 190.98 386.45 190.39 386.45 189.79 386.45 189.2 386.45 188.61 386.45 188.02 386.45 187.42 386.45 186.83 386.45 186.24 386.45 185.65 386.45 185.05 386.45 184.46 386.45 183.87 386.45 183.28 386.45 182.68 386.45 182.09 386.45 181.5 386.45 180.91 386.45 180.31 386.45 179.72 386.45 179.13 386.45 178.54 386.45 177.94 386.45 177.35 386.45 176.76 386.45 176.16 386.45 175.57 386.45 174.98 386.45 174.39 386.45 173.79 386.45 173.2 386.45 172.61 386.45 172.02 386.45 171.42 386.45 170.83 386.45 170.24 386.45 169.65 386.45 169.05 386.45 168.46 386.45 167.87 386.45 167.28 386.45 166.68 386.45 166.09 386.45 165.5 386.45 164.91 386.45 164.31 386.45 163.72 386.45 163.13 386.45 162.54 386.45 161.94 386.45 161.35 386.45 160.76 386.45 160.17 386.45 159.57 386.45 158.98 386.45 158.39 386.45 157.8 386.45 157.2 386.45 156.61 386.45 156.02 386.45 155.43 386.45 154.83 386.45 154.24 386.45 153.65 386.45 153.05 386.45 152.46 386.45 151.87 386.45 151.28 386.45 150.68 386.45 150.09 386.45 149.5 386.45 148.91 386.45 148.31 386.45 147.72 386.45 147.13 386.45 146.54 386.45 145.94 386.45 145.35 386.45 144.76 386.45 144.17 386.45 143.57 386.45 142.98 386.45 142.39 386.45 141.8 386.45 141.2 386.45 140.61 386.45 140.02 386.45 139.43 386.45 138.83 386.45 138.24 386.45 137.65 386.45 137.06 386.45 136.46 386.45 135.87 386.45 135.28 386.45 134.69 386.45 134.09 386.45 133.5 386.45 132.91 386.45 132.31 386.45 131.72 386.45 131.13 386.45 130.54 386.45 129.94 386.45 129.35 386.45 128.76 386.45 128.17 386.45 127.57 386.45 126.98 386.45 126.39 386.45 125.8 386.45 125.2 386.45 124.61 386.45 124.02 386.45 123.43 386.45 122.83 386.45 122.24 386.45 121.65 386.45 121.06 386.45 120.46 386.45 119.87 386.45 119.28 386.45 118.69 386.45 118.09 386.45 117.5 386.45 116.91 386.45 116.32 386.45 115.72 386.45 115.13 386.45 114.54 386.45 113.95 386.45 113.35 386.45 112.76 386.45 112.17 386.45 111.58 386.45 110.98 386.45 110.39 386.45 109.8 386.45 109.2 386.45 108.61 386.45 108.02 386.45 107.43 386.45 106.83 386.45 106.24 386.45 105.65 386.45 105.06 386.45 104.46 386.45 103.87 386.45 103.28 386.45 102.69 386.45 102.09 386.45 101.5 386.45 100.91 386.45 100.32 386.45 99.72 386.45 99.13 386.45 98.54 386.45 97.95 386.45 97.35 386.45 96.76 386.45 96.17 386.45 95.58 386.45 94.98 386.45 94.39 386.45 93.8 386.45 93.21 386.45 92.61 386.45 92.02 386.45 91.43 386.45 90.84 386.45 90.24 386.45 89.65 386.45 89.06 386.45 88.46 386.45 87.87 386.45 87.28 386.45 86.69 386.45 86.09 386.45 85.5 386.45 84.91 386.45 84.32 386.45 83.72 386.45 83.13 386.45 82.54 386.45 81.95 386.45 81.35 386.45 80.76 386.45 80.17 386.45 79.58 386.45 78.98 386.45 78.39 386.45 77.8 386.45 77.21 386.45 76.61 386.45 76.02 386.45 75.43 386.45 74.84 386.45 74.24 386.45 73.65 386.45 73.06 386.45 72.47 386.45 71.87 386.45 71.28 386.45 70.69 386.45 70.1 386.45 69.5 386.45 68.91 386.45 68.32 386.45 67.73 386.45 67.13 386.45 66.54 386.45 65.95 386.45 65.35 386.45 64.76 386.45 64.17 386.45 63.58 386.45 62.98 386.45 62.39 386.45 61.8 386.45 61.21 386.45 60.61 386.45 60.02 386.45 59.43 386.45 58.84 386.45 58.24 386.45 57.65 386.45 57.06 386.45 56.47 386.45 55.87 386.45 55.28 386.45 54.69 386.45 54.1 386.45 53.5 386.45 52.91 386.45 52.32 386.45 51.73 386.45 51.13 386.45 50.54 386.45 49.95 386.45 49.36 386.45 48.76 386.45 48.17 386.45 47.58 386.45 46.99 386.45 46.39 386.45 45.8 386.45 45.21 386.45 44.61 386.45 44.02 386.45 43.43 386.45 42.84 386.45 42.24 386.45 41.65 386.45 41.06 386.45 40.47 386.45 39.87 386.45 39.28 386.45 38.69 386.45 38.1 386.45 37.5 386.45 36.91 386.45 36.32 386.45 35.73 386.45 35.13 386.45 34.54 386.45 33.95 386.45 33.36 386.45 32.76 386.45 32.17 386.45 31.58 386.45" style="stroke-width:0;stroke:none;fill:#0af;fill-opacity:.25"/><polyline points="31.58 386.45 32.17 386.45 32.76 386.45 33.36 386.45 33.95 386.45 34.54 386.45 35.13 386.45 35.73 386.45 36.32 386.45 36.91 386.45 37.5 386.45 38.1 386.45 38.69 386.45 39.28 386.45 39.87 386.45 40.47 386.45 41.06 386.45 41.65 386.45 42.24 386.45 42.84 386.45 43.43 386.45 44.02 386.45 44.61 386.45 45.21 386.45 45.8 386.45 46.39 386.45 46.99 386.45 47.58 386.45 48.17 386.45 48.76 386.45 49.36 386.45 49.95 386.45 50.54 386.45 51.13 386.45 51.73 386.45 52.32 386.44 52.91 386.44 53.5 386.44 54.1 386.44 54.69 386.44 55.28 386.43 55.87 386.43 56.47 386.43 57.06 386.42 57.65 386.41 58.24 386.41 58.84 386.4 59.43 386.38 60.02 386.37 60.61 386.35 61.21 386.34 61.8 386.31 62.39 386.29 62.98 386.26 63.58 386.22 64.17 386.18 64.76 386.13 65.35 386.07 65.95 386.01 66.54 385.94 67.13 385.85 67.73 385.76 68.32 385.65 68.91 385.53 69.5 385.4 70.1 385.25 70.69 385.08 71.28 384.89 71.87 384.69 72.47 384.46 73.06 384.21 73.65 383.95 74.24 383.65 74.84 383.33 75.43 382.99 76.02 382.62 76.61 382.22 77.21 381.8 77.8 381.35 78.39 380.87 78.98 380.37 79.58 379.85 80.17 379.29 80.76 378.72 81.35 378.12 81.95 377.5 82.54 376.86 83.13 376.2 83.72 375.53 84.32 374.84 84.91 374.15 85.5 373.44 86.09 372.72 86.69 372 87.28 371.27 87.87 370.55 88.46 369.82 89.06 369.09 89.65 368.37 90.24 367.65 90.84 366.93 91.43 366.21 92.02 365.5 92.61 364.79 93.21 364.08 93.8 363.37 94.39 362.66 94.98 361.94 95.58 361.21 96.17 360.47 96.76 359.72 97.35 358.94 97.95 358.13 98.54 357.29 99.13 356.43 99.72 355.51 100.32 354.55 100.91 353.53 101.5 352.45 102.09 351.32 102.69 350.11 103.28 348.81 103.87 347.43 104.46 345.98 105.06 344.44 105.65 342.79 106.24 341.04 106.83 339.19 107.43 337.25 108.02 335.22 108.61 333.06 109.2 330.8 109.8 328.45 110.39 326.01 110.98 323.48 111.58 320.84 112.17 318.13 112.76 315.34 113.35 312.49 113.95 309.58 114.54 306.6 115.13 303.59 115.72 300.54 116.32 297.47 116.91 294.38 117.5 291.29 118.09 288.2 118.69 285.12 119.28 282.06 119.87 279.03 120.46 276.04 121.06 273.09 121.65 270.19 122.24 267.34 122.83 264.55 123.43 261.83 124.02 259.17 124.61 256.57 125.2 254.03 125.8 251.57 126.39 249.17 126.98 246.84 127.57 244.56 128.17 242.34 128.76 240.19 129.35 238.09 129.94 236.04 130.54 234.03 131.13 232.06 131.72 230.15 132.31 228.28 132.91 226.44 133.5 224.63 134.09 222.86 134.69 221.13 135.28 219.43 135.87 217.75 136.46 216.1 137.06 214.48 137.65 212.9 138.24 211.34 138.83 209.8 139.43 208.28 140.02 206.79 140.61 205.32 141.2 203.87 141.8 202.43 142.39 201 142.98 199.58 143.57 198.16 144.17 196.75 144.76 195.33 145.35 193.9 145.94 192.45 146.54 190.98 147.13 189.48 147.72 187.96 148.31 186.4 148.91 184.8 149.5 183.15 150.09 181.46 150.68 179.73 151.28 177.95 151.87 176.11 152.46 174.23 153.05 172.3 153.65 170.33 154.24 168.33 154.83 166.28 155.43 164.21 156.02 162.12 156.61 160.03 157.2 157.93 157.8 155.84 158.39 153.77 158.98 151.73 159.57 149.73 160.17 147.79 160.76 145.93 161.35 144.15 161.94 142.45 162.54 140.85 163.13 139.38 163.72 138.05 164.31 136.86 164.91 135.8 165.5 134.89 166.09 134.18 166.68 133.64 167.28 133.28 167.87 133.09 168.46 133.07 169.05 133.28 169.65 133.68 170.24 134.25 170.83 135 171.42 135.92 172.02 137.06 172.61 138.37 173.2 139.82 173.79 141.42 174.39 143.16 174.98 145.07 175.57 147.1 176.16 149.23 176.76 151.46 177.35 153.78 177.94 156.2 178.54 158.67 179.13 161.2 179.72 163.78 180.31 166.4 180.91 169.05 181.5 171.71 182.09 174.39 182.68 177.07 183.28 179.76 183.87 182.44 184.46 185.12 185.05 187.78 185.65 190.44 186.24 193.08 186.83 195.71 187.42 198.33 188.02 200.94 188.61 203.54 189.2 206.13 189.79 208.72 190.39 211.31 190.98 213.89 191.57 216.48 192.16 219.07 192.76 221.67 193.35 224.28 193.94 226.9 194.53 229.53 195.13 232.18 195.72 234.83 196.31 237.5 196.9 240.19 197.5 242.88 198.09 245.59 198.68 248.31 199.28 251.03 199.87 253.77 200.46 256.51 201.05 259.25 201.65 262 202.24 264.75 202.83 267.49 203.42 270.23 204.02 272.95 204.61 275.67 205.2 278.38 205.79 281.07 206.39 283.74 206.98 286.39 207.57 289.02 208.16 291.63 208.76 294.21 209.35 296.75 209.94 299.27 210.53 301.74 211.13 304.19 211.72 306.6 212.31 308.95 212.9 311.27 213.5 313.54 214.09 315.76 214.68 317.94 215.27 320.06 215.87 322.12 216.46 324.13 217.05 326.09 217.64 327.99 218.24 329.82 218.83 331.59 219.42 333.3 220.01 334.96 220.61 336.55 221.2 338.07 221.79 339.54 222.39 340.95 222.98 342.31 223.57 343.6 224.16 344.83 224.76 346.01 225.35 347.15 225.94 348.24 226.53 349.27 227.13 350.27 227.72 351.23 228.31 352.15 228.9 353.05 229.5 353.91 230.09 354.74 230.68 355.56 231.27 356.36 231.87 357.15 232.46 357.92 233.05 358.69 233.64 359.45 234.24 360.21 234.83 360.97 235.42 361.73 236.01 362.5 236.61 363.27 237.2 364.04 237.79 364.81 238.38 365.6 238.98 366.38 239.57 367.17 240.16 367.97 240.75 368.76 241.35 369.56 241.94 370.35 242.53 371.14 243.13 371.93 243.72 372.71 244.31 373.47 244.9 374.23 245.5 374.97 246.09 375.7 246.68 376.4 247.27 377.08 247.87 377.75 248.46 378.39 249.05 379 249.64 379.59 250.24 380.14 250.83 380.67 251.42 381.17 252.01 381.65 252.61 382.09 253.2 382.5 253.79 382.88 254.38 383.24 254.98 383.57 255.57 383.87 256.16 384.14 256.75 384.39 257.35 384.61 257.94 384.81 258.53 384.99 259.12 385.15 259.72 385.28 260.31 385.4 260.9 385.5 261.49 385.58 262.09 385.65 262.68 385.7 263.27 385.74 263.86 385.76 264.46 385.77 265.05 385.76 265.64 385.75 266.24 385.72 266.83 385.68 267.42 385.63 268.01 385.57 268.61 385.51 269.2 385.43 269.79 385.34 270.38 385.24 270.98 385.14 271.57 385.03 272.16 384.91 272.75 384.79 273.35 384.65 273.94 384.52 274.53 384.38 275.12 384.24 275.72 384.09 276.31 383.95 276.9 383.8 277.49 383.66 278.09 383.51 278.68 383.38 279.27 383.24 279.86 383.12 280.46 382.99 281.05 382.88 281.64 382.78 282.23 382.69 282.83 382.61 283.42 382.54 284.01 382.49 284.6 382.45 285.2 382.43 285.79 382.42 286.38 382.42 286.98 382.44 287.57 382.47 288.16 382.52 288.75 382.58 289.35 382.65 289.94 382.74 290.53 382.83 291.12 382.94 291.72 383.06 292.31 383.18 292.9 383.31 293.49 383.45 294.09 383.59 294.68 383.73 295.27 383.88 295.86 384.03 296.46 384.18 297.05 384.32 297.64 384.47 298.23 384.61 298.83 384.74 299.42 384.88 300.01 385 300.6 385.13 301.2 385.24 301.79 385.35 302.38 385.45 302.97 385.55 303.57 385.64 304.16 385.73 304.75 385.8 305.34 385.88 305.94 385.94 306.53 386 307.12 386.05 307.71 386.1 308.31 386.15 308.9 386.19 309.49 386.22 310.09 386.25 310.68 386.28 311.27 386.3 311.86 386.32 312.46 386.34 313.05 386.36 313.64 386.37 314.23 386.39 314.83 386.4 315.42 386.4 316.01 386.41 316.6 386.42 317.2 386.42 317.79 386.43 318.38 386.43 318.97 386.44 319.57 386.44 320.16 386.44 320.75 386.44 321.34 386.44 321.94 386.44 322.53 386.45 323.12 386.45 323.71 386.45 324.31 386.45 324.9 386.45 325.49 386.45 326.08 386.45 326.68 386.45 327.27 386.45 327.86 386.45 328.45 386.45 329.05 386.45 329.64 386.45 330.23 386.45 330.83 386.45 331.42 386.45 332.01 386.45 332.6 386.45 333.2 386.45 333.79 386.45 334.38 386.45" style="stroke-width:1.07;stroke:#00bfc4"/></g><g clip-path="url(#cpMC4wMHw3MTAuMDB8MC4wMHw0NjguMDA=)"><polyline points="31.58 406.17 31.58 403.43" style="stroke-width:1.07;stroke:#333;stroke-linecap:butt"/><polyline points="92.14 406.17 92.14 403.43" style="stroke-width:1.07;stroke:#333;stroke-linecap:butt"/><polyline points="152.7 406.17 152.7 403.43" style="stroke-width:1.07;stroke:#333;stroke-linecap:butt"/><polyline points="213.26 406.17 213.26 403.43" style="stroke-width:1.07;stroke:#333;stroke-linecap:butt"/><polyline points="273.82 406.17 273.82 403.43" style="stroke-width:1.07;stroke:#333;stroke-linecap:butt"/><polyline points="334.38 406.17 334.38 403.43" style="stroke-width:1.07;stroke:#333;stroke-linecap:butt"/><text x="31.58" y="414.1" lengthAdjust="spacingAndGlyphs" text-anchor="middle" textLength="11.12" style="font-size:8px;fill:#4d4d4d;font-family:Arial">1.5</text><text x="92.14" y="414.1" lengthAdjust="spacingAndGlyphs" text-anchor="middle" textLength="11.12" style="font-size:8px;fill:#4d4d4d;font-family:Arial">2.0</text><text x="152.7" y="414.1" lengthAdjust="spacingAndGlyphs" text-anchor="middle" textLength="11.12" style="font-size:8px;fill:#4d4d4d;font-family:Arial">2.5</text><text x="213.26" y="414.1" lengthAdjust="spacingAndGlyphs" text-anchor="middle" textLength="11.12" style="font-size:8px;fill:#4d4d4d;font-family:Arial">3.0</text><text x="273.82" y="414.1" lengthAdjust="spacingAndGlyphs" text-anchor="middle" textLength="11.12" style="font-size:8px;fill:#4d4d4d;font-family:Arial">3.5</text><text x="334.38" y="414.1" lengthAdjust="spacingAndGlyphs" text-anchor="middle" textLength="11.12" style="font-size:8px;fill:#4d4d4d;font-family:Arial">4.0</text><text x="16.44" y="21.28" lengthAdjust="spacingAndGlyphs" textLength="63.19" style="font-size:14.4px;fill:#4d4d4d;font-family:Arial">Intercepts</text></g><defs><clipPath id="cpMzU1LjAwfDcwNC41Mnw1LjQ4fDQ2Mi41Mg=="><rect width="349.52" height="457.04" x="355" y="5.48"/></clipPath></defs><g clip-path="url(#cpMzU1LjAwfDcwNC41Mnw1LjQ4fDQ2Mi41Mg==)"><rect width="349.52" height="457.04" x="355" y="5.48" style="stroke-width:1.07;stroke:none"/></g><defs><clipPath id="cpMzY1Ljk2fDY5OS4wNHwyOS45NXw0MDMuNDM="><rect width="333.08" height="373.48" x="365.96" y="29.95"/></clipPath></defs><g clip-path="url(#cpMzY1Ljk2fDY5OS4wNHwyOS45NXw0MDMuNDM=)"><polygon points="381.1 386.45 381.69 386.45 382.28 386.45 382.88 386.45 383.47 386.45 384.06 386.45 384.65 386.45 385.25 386.45 385.84 386.45 386.43 386.45 387.02 386.45 387.62 386.45 388.21 386.45 388.8 386.45 389.39 386.45 389.99 386.45 390.58 386.45 391.17 386.45 391.77 386.45 392.36 386.45 392.95 386.45 393.54 386.45 394.14 386.45 394.73 386.45 395.32 386.45 395.91 386.45 396.51 386.45 397.1 386.45 397.69 386.45 398.28 386.45 398.88 386.45 399.47 386.45 400.06 386.45 400.65 386.45 401.25 386.45 401.84 386.45 402.43 386.45 403.02 386.45 403.62 386.45 404.21 386.45 404.8 386.45 405.39 386.45 405.99 386.45 406.58 386.45 407.17 386.45 407.76 386.45 408.36 386.45 408.95 386.45 409.54 386.45 410.13 386.45 410.73 386.45 411.32 386.45 411.91 386.45 412.51 386.45 413.1 386.45 413.69 386.45 414.28 386.45 414.88 386.45 415.47 386.45 416.06 386.45 416.65 386.45 417.25 386.45 417.84 386.45 418.43 386.45 419.02 386.45 419.62 386.45 420.21 386.45 420.8 386.45 421.39 386.45 421.99 386.45 422.58 386.45 423.17 386.45 423.76 386.45 424.36 386.45 424.95 386.45 425.54 386.45 426.13 386.45 426.73 386.45 427.32 386.45 427.91 386.45 428.5 386.45 429.1 386.45 429.69 386.45 430.28 386.45 430.87 386.45 431.47 386.45 432.06 386.45 432.65 386.45 433.24 386.45 433.84 386.45 434.43 386.45 435.02 386.45 435.62 386.45 436.21 386.45 436.8 386.45 437.39 386.45 437.99 386.45 438.58 386.45 439.17 386.45 439.76 386.45 440.36 386.44 440.95 386.44 441.54 386.44 442.13 386.44 442.73 386.44 443.32 386.43 443.91 386.43 444.5 386.42 445.1 386.41 445.69 386.4 446.28 386.39 446.87 386.38 447.47 386.36 448.06 386.34 448.65 386.31 449.24 386.28 449.84 386.24 450.43 386.19 451.02 386.14 451.61 386.07 452.21 386 452.8 385.91 453.39 385.8 453.98 385.68 454.58 385.53 455.17 385.37 455.76 385.17 456.36 384.96 456.95 384.71 457.54 384.42 458.13 384.1 458.73 383.74 459.32 383.33 459.91 382.88 460.5 382.38 461.1 381.81 461.69 381.19 462.28 380.51 462.87 379.77 463.47 378.96 464.06 378.07 464.65 377.1 465.24 376.06 465.84 374.95 466.43 373.76 467.02 372.48 467.61 371.11 468.21 369.66 468.8 368.13 469.39 366.51 469.98 364.81 470.58 363 471.17 361.12 471.76 359.16 472.35 357.11 472.95 354.99 473.54 352.76 474.13 350.46 474.72 348.09 475.32 345.64 475.91 343.12 476.5 340.52 477.09 337.85 477.69 335.11 478.28 332.32 478.87 329.46 479.47 326.54 480.06 323.55 480.65 320.52 481.24 317.43 481.84 314.3 482.43 311.12 483.02 307.88 483.61 304.6 484.21 301.28 484.8 297.91 485.39 294.51 485.98 291.05 486.58 287.55 487.17 284 487.76 280.41 488.35 276.77 488.95 273.07 489.54 269.32 490.13 265.5 490.72 261.64 491.32 257.71 491.91 253.71 492.5 249.64 493.09 245.49 493.69 241.28 494.28 237 494.87 232.65 495.46 228.21 496.06 223.7 496.65 219.12 497.24 214.49 497.83 209.79 498.43 205.03 499.02 200.22 499.61 195.37 500.21 190.49 500.8 185.59 501.39 180.67 501.98 175.76 502.58 170.87 503.17 166 503.76 161.17 504.35 156.4 504.95 151.71 505.54 147.12 506.13 142.62 506.72 138.23 507.32 133.96 507.91 129.86 508.5 125.92 509.09 122.14 509.69 118.53 510.28 115.09 510.87 111.85 511.46 108.81 512.06 105.95 512.65 103.27 513.24 100.75 513.83 98.41 514.43 96.24 515.02 94.21 515.61 92.31 516.2 90.51 516.8 88.8 517.39 87.18 517.98 85.61 518.57 84.07 519.17 82.54 519.76 81.02 520.35 79.48 520.94 77.9 521.54 76.29 522.13 74.63 522.72 72.92 523.32 71.15 523.91 69.33 524.5 67.46 525.09 65.57 525.69 63.65 526.28 61.73 526.87 59.83 527.46 57.97 528.06 56.18 528.65 54.47 529.24 52.86 529.83 51.41 530.43 50.14 531.02 49.04 531.61 48.14 532.2 47.46 532.8 47.05 533.39 46.92 533.98 47.05 534.57 47.44 535.17 48.1 535.76 49.03 536.35 50.29 536.94 51.79 537.54 53.53 538.13 55.5 538.72 57.67 539.31 60.08 539.91 62.66 540.5 65.38 541.09 68.22 541.68 71.15 542.28 74.18 542.87 77.25 543.46 80.34 544.06 83.45 544.65 86.54 545.24 89.6 545.83 92.6 546.43 95.55 547.02 98.43 547.61 101.25 548.2 103.99 548.8 106.63 549.39 109.2 549.98 111.7 550.57 114.14 551.17 116.53 551.76 118.87 552.35 121.17 552.94 123.46 553.54 125.75 554.13 128.05 554.72 130.38 555.31 132.75 555.91 135.18 556.5 137.66 557.09 140.23 557.68 142.87 558.28 145.64 558.87 148.5 559.46 151.46 560.05 154.52 560.65 157.68 561.24 160.96 561.83 164.35 562.42 167.82 563.02 171.38 563.61 175.01 564.2 178.72 564.79 182.48 565.39 186.29 565.98 190.12 566.57 193.98 567.17 197.83 567.76 201.68 568.35 205.5 568.94 209.29 569.54 213.04 570.13 216.73 570.72 220.34 571.31 223.88 571.91 227.33 572.5 230.69 573.09 233.97 573.68 237.13 574.28 240.18 574.87 243.13 575.46 245.99 576.05 248.75 576.65 251.4 577.24 253.96 577.83 256.43 578.42 258.82 579.02 261.15 579.61 263.42 580.2 265.62 580.79 267.79 581.39 269.93 581.98 272.05 582.57 274.16 583.16 276.27 583.76 278.4 584.35 280.54 584.94 282.71 585.53 284.91 586.13 287.16 586.72 289.46 587.31 291.81 587.91 294.21 588.5 296.66 589.09 299.16 589.68 301.72 590.28 304.33 590.87 306.97 591.46 309.66 592.05 312.37 592.65 315.11 593.24 317.86 593.83 320.62 594.42 323.38 595.02 326.12 595.61 328.85 596.2 331.53 596.79 334.18 597.39 336.78 597.98 339.32 598.57 341.8 599.16 344.2 599.76 346.52 600.35 348.75 600.94 350.91 601.53 352.97 602.13 354.92 602.72 356.78 603.31 358.54 603.9 360.21 604.5 361.78 605.09 363.25 605.68 364.62 606.27 365.91 606.87 367.11 607.46 368.24 608.05 369.28 608.64 370.24 609.24 371.14 609.83 371.98 610.42 372.76 611.02 373.5 611.61 374.17 612.2 374.81 612.79 375.41 613.39 375.98 613.98 376.52 614.57 377.03 615.16 377.51 615.76 377.98 616.35 378.44 616.94 378.88 617.53 379.3 618.13 379.71 618.72 380.11 619.31 380.5 619.9 380.88 620.5 381.24 621.09 381.6 621.68 381.94 622.27 382.27 622.87 382.6 623.46 382.9 624.05 383.2 624.64 383.48 625.24 383.74 625.83 383.99 626.42 384.23 627.01 384.45 627.61 384.65 628.2 384.85 628.79 385.02 629.38 385.19 629.98 385.33 630.57 385.47 631.16 385.59 631.76 385.7 632.35 385.8 632.94 385.89 633.53 385.97 634.13 386.04 634.72 386.1 635.31 386.15 635.9 386.2 636.5 386.24 637.09 386.27 637.68 386.3 638.27 386.33 638.87 386.35 639.46 386.36 640.05 386.38 640.64 386.39 641.24 386.4 641.83 386.41 642.42 386.42 643.01 386.43 643.61 386.43 644.2 386.43 644.79 386.44 645.38 386.44 645.98 386.44 646.57 386.44 647.16 386.44 647.75 386.45 648.35 386.45 648.94 386.45 649.53 386.45 650.12 386.45 650.72 386.45 651.31 386.45 651.9 386.45 652.49 386.45 653.09 386.45 653.68 386.45 654.27 386.45 654.87 386.45 655.46 386.45 656.05 386.45 656.64 386.45 657.24 386.45 657.83 386.45 658.42 386.45 659.01 386.45 659.61 386.45 660.2 386.45 660.79 386.45 661.38 386.45 661.98 386.45 662.57 386.45 663.16 386.45 663.75 386.45 664.35 386.45 664.94 386.45 665.53 386.45 666.12 386.45 666.72 386.45 667.31 386.45 667.9 386.45 668.49 386.45 669.09 386.45 669.68 386.45 670.27 386.45 670.86 386.45 671.46 386.45 672.05 386.45 672.64 386.45 673.23 386.45 673.83 386.45 674.42 386.45 675.01 386.45 675.61 386.45 676.2 386.45 676.79 386.45 677.38 386.45 677.98 386.45 678.57 386.45 679.16 386.45 679.75 386.45 680.35 386.45 680.94 386.45 681.53 386.45 682.12 386.45 682.72 386.45 683.31 386.45 683.9 386.45 683.9 386.45 683.31 386.45 682.72 386.45 682.12 386.45 681.53 386.45 680.94 386.45 680.35 386.45 679.75 386.45 679.16 386.45 678.57 386.45 677.98 386.45 677.38 386.45 676.79 386.45 676.2 386.45 675.61 386.45 675.01 386.45 674.42 386.45 673.83 386.45 673.23 386.45 672.64 386.45 672.05 386.45 671.46 386.45 670.86 386.45 670.27 386.45 669.68 386.45 669.09 386.45 668.49 386.45 667.9 386.45 667.31 386.45 666.72 386.45 666.12 386.45 665.53 386.45 664.94 386.45 664.35 386.45 663.75 386.45 663.16 386.45 662.57 386.45 661.98 386.45 661.38 386.45 660.79 386.45 660.2 386.45 659.61 386.45 659.01 386.45 658.42 386.45 657.83 386.45 657.24 386.45 656.64 386.45 656.05 386.45 655.46 386.45 654.87 386.45 654.27 386.45 653.68 386.45 653.09 386.45 652.49 386.45 651.9 386.45 651.31 386.45 650.72 386.45 650.12 386.45 649.53 386.45 648.94 386.45 648.35 386.45 647.75 386.45 647.16 386.45 646.57 386.45 645.98 386.45 645.38 386.45 644.79 386.45 644.2 386.45 643.61 386.45 643.01 386.45 642.42 386.45 641.83 386.45 641.24 386.45 640.64 386.45 640.05 386.45 639.46 386.45 638.87 386.45 638.27 386.45 637.68 386.45 637.09 386.45 636.5 386.45 635.9 386.45 635.31 386.45 634.72 386.45 634.13 386.45 633.53 386.45 632.94 386.45 632.35 386.45 631.76 386.45 631.16 386.45 630.57 386.45 629.98 386.45 629.38 386.45 628.79 386.45 628.2 386.45 627.61 386.45 627.01 386.45 626.42 386.45 625.83 386.45 625.24 386.45 624.64 386.45 624.05 386.45 623.46 386.45 622.87 386.45 622.27 386.45 621.68 386.45 621.09 386.45 620.5 386.45 619.9 386.45 619.31 386.45 618.72 386.45 618.13 386.45 617.53 386.45 616.94 386.45 616.35 386.45 615.76 386.45 615.16 386.45 614.57 386.45 613.98 386.45 613.39 386.45 612.79 386.45 612.2 386.45 611.61 386.45 611.02 386.45 610.42 386.45 609.83 386.45 609.24 386.45 608.64 386.45 608.05 386.45 607.46 386.45 606.87 386.45 606.27 386.45 605.68 386.45 605.09 386.45 604.5 386.45 603.9 386.45 603.31 386.45 602.72 386.45 602.13 386.45 601.53 386.45 600.94 386.45 600.35 386.45 599.76 386.45 599.16 386.45 598.57 386.45 597.98 386.45 597.39 386.45 596.79 386.45 596.2 386.45 595.61 386.45 595.02 386.45 594.42 386.45 593.83 386.45 593.24 386.45 592.65 386.45 592.05 386.45 591.46 386.45 590.87 386.45 590.28 386.45 589.68 386.45 589.09 386.45 588.5 386.45 587.91 386.45 587.31 386.45 586.72 386.45 586.13 386.45 585.53 386.45 584.94 386.45 584.35 386.45 583.76 386.45 583.16 386.45 582.57 386.45 581.98 386.45 581.39 386.45 580.79 386.45 580.2 386.45 579.61 386.45 579.02 386.45 578.42 386.45 577.83 386.45 577.24 386.45 576.65 386.45 576.05 386.45 575.46 386.45 574.87 386.45 574.28 386.45 573.68 386.45 573.09 386.45 572.5 386.45 571.91 386.45 571.31 386.45 570.72 386.45 570.13 386.45 569.54 386.45 568.94 386.45 568.35 386.45 567.76 386.45 567.17 386.45 566.57 386.45 565.98 386.45 565.39 386.45 564.79 386.45 564.2 386.45 563.61 386.45 563.02 386.45 562.42 386.45 561.83 386.45 561.24 386.45 560.65 386.45 560.05 386.45 559.46 386.45 558.87 386.45 558.28 386.45 557.68 386.45 557.09 386.45 556.5 386.45 555.91 386.45 555.31 386.45 554.72 386.45 554.13 386.45 553.54 386.45 552.94 386.45 552.35 386.45 551.76 386.45 551.17 386.45 550.57 386.45 549.98 386.45 549.39 386.45 548.8 386.45 548.2 386.45 547.61 386.45 547.02 386.45 546.43 386.45 545.83 386.45 545.24 386.45 544.65 386.45 544.06 386.45 543.46 386.45 542.87 386.45 542.28 386.45 541.68 386.45 541.09 386.45 540.5 386.45 539.91 386.45 539.31 386.45 538.72 386.45 538.13 386.45 537.54 386.45 536.94 386.45 536.35 386.45 535.76 386.45 535.17 386.45 534.57 386.45 533.98 386.45 533.39 386.45 532.8 386.45 532.2 386.45 531.61 386.45 531.02 386.45 530.43 386.45 529.83 386.45 529.24 386.45 528.65 386.45 528.06 386.45 527.46 386.45 526.87 386.45 526.28 386.45 525.69 386.45 525.09 386.45 524.5 386.45 523.91 386.45 523.32 386.45 522.72 386.45 522.13 386.45 521.54 386.45 520.94 386.45 520.35 386.45 519.76 386.45 519.17 386.45 518.57 386.45 517.98 386.45 517.39 386.45 516.8 386.45 516.2 386.45 515.61 386.45 515.02 386.45 514.43 386.45 513.83 386.45 513.24 386.45 512.65 386.45 512.06 386.45 511.46 386.45 510.87 386.45 510.28 386.45 509.69 386.45 509.09 386.45 508.5 386.45 507.91 386.45 507.32 386.45 506.72 386.45 506.13 386.45 505.54 386.45 504.95 386.45 504.35 386.45 503.76 386.45 503.17 386.45 502.58 386.45 501.98 386.45 501.39 386.45 500.8 386.45 500.21 386.45 499.61 386.45 499.02 386.45 498.43 386.45 497.83 386.45 497.24 386.45 496.65 386.45 496.06 386.45 495.46 386.45 494.87 386.45 494.28 386.45 493.69 386.45 493.09 386.45 492.5 386.45 491.91 386.45 491.32 386.45 490.72 386.45 490.13 386.45 489.54 386.45 488.95 386.45 488.35 386.45 487.76 386.45 487.17 386.45 486.58 386.45 485.98 386.45 485.39 386.45 484.8 386.45 484.21 386.45 483.61 386.45 483.02 386.45 482.43 386.45 481.84 386.45 481.24 386.45 480.65 386.45 480.06 386.45 479.47 386.45 478.87 386.45 478.28 386.45 477.69 386.45 477.09 386.45 476.5 386.45 475.91 386.45 475.32 386.45 474.72 386.45 474.13 386.45 473.54 386.45 472.95 386.45 472.35 386.45 471.76 386.45 471.17 386.45 470.58 386.45 469.98 386.45 469.39 386.45 468.8 386.45 468.21 386.45 467.61 386.45 467.02 386.45 466.43 386.45 465.84 386.45 465.24 386.45 464.65 386.45 464.06 386.45 463.47 386.45 462.87 386.45 462.28 386.45 461.69 386.45 461.1 386.45 460.5 386.45 459.91 386.45 459.32 386.45 458.73 386.45 458.13 386.45 457.54 386.45 456.95 386.45 456.36 386.45 455.76 386.45 455.17 386.45 454.58 386.45 453.98 386.45 453.39 386.45 452.8 386.45 452.21 386.45 451.61 386.45 451.02 386.45 450.43 386.45 449.84 386.45 449.24 386.45 448.65 386.45 448.06 386.45 447.47 386.45 446.87 386.45 446.28 386.45 445.69 386.45 445.1 386.45 444.5 386.45 443.91 386.45 443.32 386.45 442.73 386.45 442.13 386.45 441.54 386.45 440.95 386.45 440.36 386.45 439.76 386.45 439.17 386.45 438.58 386.45 437.99 386.45 437.39 386.45 436.8 386.45 436.21 386.45 435.62 386.45 435.02 386.45 434.43 386.45 433.84 386.45 433.24 386.45 432.65 386.45 432.06 386.45 431.47 386.45 430.87 386.45 430.28 386.45 429.69 386.45 429.1 386.45 428.5 386.45 427.91 386.45 427.32 386.45 426.73 386.45 426.13 386.45 425.54 386.45 424.95 386.45 424.36 386.45 423.76 386.45 423.17 386.45 422.58 386.45 421.99 386.45 421.39 386.45 420.8 386.45 420.21 386.45 419.62 386.45 419.02 386.45 418.43 386.45 417.84 386.45 417.25 386.45 416.65 386.45 416.06 386.45 415.47 386.45 414.88 386.45 414.28 386.45 413.69 386.45 413.1 386.45 412.51 386.45 411.91 386.45 411.32 386.45 410.73 386.45 410.13 386.45 409.54 386.45 408.95 386.45 408.36 386.45 407.76 386.45 407.17 386.45 406.58 386.45 405.99 386.45 405.39 386.45 404.8 386.45 404.21 386.45 403.62 386.45 403.02 386.45 402.43 386.45 401.84 386.45 401.25 386.45 400.65 386.45 400.06 386.45 399.47 386.45 398.88 386.45 398.28 386.45 397.69 386.45 397.1 386.45 396.51 386.45 395.91 386.45 395.32 386.45 394.73 386.45 394.14 386.45 393.54 386.45 392.95 386.45 392.36 386.45 391.77 386.45 391.17 386.45 390.58 386.45 389.99 386.45 389.39 386.45 388.8 386.45 388.21 386.45 387.62 386.45 387.02 386.45 386.43 386.45 385.84 386.45 385.25 386.45 384.65 386.45 384.06 386.45 383.47 386.45 382.88 386.45 382.28 386.45 381.69 386.45 381.1 386.45" style="stroke-width:0;stroke:none;fill:#f50;fill-opacity:.25"/><polyline points="381.1 386.45 381.69 386.45 382.28 386.45 382.88 386.45 383.47 386.45 384.06 386.45 384.65 386.45 385.25 386.45 385.84 386.45 386.43 386.45 387.02 386.45 387.62 386.45 388.21 386.45 388.8 386.45 389.39 386.45 389.99 386.45 390.58 386.45 391.17 386.45 391.77 386.45 392.36 386.45 392.95 386.45 393.54 386.45 394.14 386.45 394.73 386.45 395.32 386.45 395.91 386.45 396.51 386.45 397.1 386.45 397.69 386.45 398.28 386.45 398.88 386.45 399.47 386.45 400.06 386.45 400.65 386.45 401.25 386.45 401.84 386.45 402.43 386.45 403.02 386.45 403.62 386.45 404.21 386.45 404.8 386.45 405.39 386.45 405.99 386.45 406.58 386.45 407.17 386.45 407.76 386.45 408.36 386.45 408.95 386.45 409.54 386.45 410.13 386.45 410.73 386.45 411.32 386.45 411.91 386.45 412.51 386.45 413.1 386.45 413.69 386.45 414.28 386.45 414.88 386.45 415.47 386.45 416.06 386.45 416.65 386.45 417.25 386.45 417.84 386.45 418.43 386.45 419.02 386.45 419.62 386.45 420.21 386.45 420.8 386.45 421.39 386.45 421.99 386.45 422.58 386.45 423.17 386.45 423.76 386.45 424.36 386.45 424.95 386.45 425.54 386.45 426.13 386.45 426.73 386.45 427.32 386.45 427.91 386.45 428.5 386.45 429.1 386.45 429.69 386.45 430.28 386.45 430.87 386.45 431.47 386.45 432.06 386.45 432.65 386.45 433.24 386.45 433.84 386.45 434.43 386.45 435.02 386.45 435.62 386.45 436.21 386.45 436.8 386.45 437.39 386.45 437.99 386.45 438.58 386.45 439.17 386.45 439.76 386.45 440.36 386.44 440.95 386.44 441.54 386.44 442.13 386.44 442.73 386.44 443.32 386.43 443.91 386.43 444.5 386.42 445.1 386.41 445.69 386.4 446.28 386.39 446.87 386.38 447.47 386.36 448.06 386.34 448.65 386.31 449.24 386.28 449.84 386.24 450.43 386.19 451.02 386.14 451.61 386.07 452.21 386 452.8 385.91 453.39 385.8 453.98 385.68 454.58 385.53 455.17 385.37 455.76 385.17 456.36 384.96 456.95 384.71 457.54 384.42 458.13 384.1 458.73 383.74 459.32 383.33 459.91 382.88 460.5 382.38 461.1 381.81 461.69 381.19 462.28 380.51 462.87 379.77 463.47 378.96 464.06 378.07 464.65 377.1 465.24 376.06 465.84 374.95 466.43 373.76 467.02 372.48 467.61 371.11 468.21 369.66 468.8 368.13 469.39 366.51 469.98 364.81 470.58 363 471.17 361.12 471.76 359.16 472.35 357.11 472.95 354.99 473.54 352.76 474.13 350.46 474.72 348.09 475.32 345.64 475.91 343.12 476.5 340.52 477.09 337.85 477.69 335.11 478.28 332.32 478.87 329.46 479.47 326.54 480.06 323.55 480.65 320.52 481.24 317.43 481.84 314.3 482.43 311.12 483.02 307.88 483.61 304.6 484.21 301.28 484.8 297.91 485.39 294.51 485.98 291.05 486.58 287.55 487.17 284 487.76 280.41 488.35 276.77 488.95 273.07 489.54 269.32 490.13 265.5 490.72 261.64 491.32 257.71 491.91 253.71 492.5 249.64 493.09 245.49 493.69 241.28 494.28 237 494.87 232.65 495.46 228.21 496.06 223.7 496.65 219.12 497.24 214.49 497.83 209.79 498.43 205.03 499.02 200.22 499.61 195.37 500.21 190.49 500.8 185.59 501.39 180.67 501.98 175.76 502.58 170.87 503.17 166 503.76 161.17 504.35 156.4 504.95 151.71 505.54 147.12 506.13 142.62 506.72 138.23 507.32 133.96 507.91 129.86 508.5 125.92 509.09 122.14 509.69 118.53 510.28 115.09 510.87 111.85 511.46 108.81 512.06 105.95 512.65 103.27 513.24 100.75 513.83 98.41 514.43 96.24 515.02 94.21 515.61 92.31 516.2 90.51 516.8 88.8 517.39 87.18 517.98 85.61 518.57 84.07 519.17 82.54 519.76 81.02 520.35 79.48 520.94 77.9 521.54 76.29 522.13 74.63 522.72 72.92 523.32 71.15 523.91 69.33 524.5 67.46 525.09 65.57 525.69 63.65 526.28 61.73 526.87 59.83 527.46 57.97 528.06 56.18 528.65 54.47 529.24 52.86 529.83 51.41 530.43 50.14 531.02 49.04 531.61 48.14 532.2 47.46 532.8 47.05 533.39 46.92 533.98 47.05 534.57 47.44 535.17 48.1 535.76 49.03 536.35 50.29 536.94 51.79 537.54 53.53 538.13 55.5 538.72 57.67 539.31 60.08 539.91 62.66 540.5 65.38 541.09 68.22 541.68 71.15 542.28 74.18 542.87 77.25 543.46 80.34 544.06 83.45 544.65 86.54 545.24 89.6 545.83 92.6 546.43 95.55 547.02 98.43 547.61 101.25 548.2 103.99 548.8 106.63 549.39 109.2 549.98 111.7 550.57 114.14 551.17 116.53 551.76 118.87 552.35 121.17 552.94 123.46 553.54 125.75 554.13 128.05 554.72 130.38 555.31 132.75 555.91 135.18 556.5 137.66 557.09 140.23 557.68 142.87 558.28 145.64 558.87 148.5 559.46 151.46 560.05 154.52 560.65 157.68 561.24 160.96 561.83 164.35 562.42 167.82 563.02 171.38 563.61 175.01 564.2 178.72 564.79 182.48 565.39 186.29 565.98 190.12 566.57 193.98 567.17 197.83 567.76 201.68 568.35 205.5 568.94 209.29 569.54 213.04 570.13 216.73 570.72 220.34 571.31 223.88 571.91 227.33 572.5 230.69 573.09 233.97 573.68 237.13 574.28 240.18 574.87 243.13 575.46 245.99 576.05 248.75 576.65 251.4 577.24 253.96 577.83 256.43 578.42 258.82 579.02 261.15 579.61 263.42 580.2 265.62 580.79 267.79 581.39 269.93 581.98 272.05 582.57 274.16 583.16 276.27 583.76 278.4 584.35 280.54 584.94 282.71 585.53 284.91 586.13 287.16 586.72 289.46 587.31 291.81 587.91 294.21 588.5 296.66 589.09 299.16 589.68 301.72 590.28 304.33 590.87 306.97 591.46 309.66 592.05 312.37 592.65 315.11 593.24 317.86 593.83 320.62 594.42 323.38 595.02 326.12 595.61 328.85 596.2 331.53 596.79 334.18 597.39 336.78 597.98 339.32 598.57 341.8 599.16 344.2 599.76 346.52 600.35 348.75 600.94 350.91 601.53 352.97 602.13 354.92 602.72 356.78 603.31 358.54 603.9 360.21 604.5 361.78 605.09 363.25 605.68 364.62 606.27 365.91 606.87 367.11 607.46 368.24 608.05 369.28 608.64 370.24 609.24 371.14 609.83 371.98 610.42 372.76 611.02 373.5 611.61 374.17 612.2 374.81 612.79 375.41 613.39 375.98 613.98 376.52 614.57 377.03 615.16 377.51 615.76 377.98 616.35 378.44 616.94 378.88 617.53 379.3 618.13 379.71 618.72 380.11 619.31 380.5 619.9 380.88 620.5 381.24 621.09 381.6 621.68 381.94 622.27 382.27 622.87 382.6 623.46 382.9 624.05 383.2 624.64 383.48 625.24 383.74 625.83 383.99 626.42 384.23 627.01 384.45 627.61 384.65 628.2 384.85 628.79 385.02 629.38 385.19 629.98 385.33 630.57 385.47 631.16 385.59 631.76 385.7 632.35 385.8 632.94 385.89 633.53 385.97 634.13 386.04 634.72 386.1 635.31 386.15 635.9 386.2 636.5 386.24 637.09 386.27 637.68 386.3 638.27 386.33 638.87 386.35 639.46 386.36 640.05 386.38 640.64 386.39 641.24 386.4 641.83 386.41 642.42 386.42 643.01 386.43 643.61 386.43 644.2 386.43 644.79 386.44 645.38 386.44 645.98 386.44 646.57 386.44 647.16 386.44 647.75 386.45 648.35 386.45 648.94 386.45 649.53 386.45 650.12 386.45 650.72 386.45 651.31 386.45 651.9 386.45 652.49 386.45 653.09 386.45 653.68 386.45 654.27 386.45 654.87 386.45 655.46 386.45 656.05 386.45 656.64 386.45 657.24 386.45 657.83 386.45 658.42 386.45 659.01 386.45 659.61 386.45 660.2 386.45 660.79 386.45 661.38 386.45 661.98 386.45 662.57 386.45 663.16 386.45 663.75 386.45 664.35 386.45 664.94 386.45 665.53 386.45 666.12 386.45 666.72 386.45 667.31 386.45 667.9 386.45 668.49 386.45 669.09 386.45 669.68 386.45 670.27 386.45 670.86 386.45 671.46 386.45 672.05 386.45 672.64 386.45 673.23 386.45 673.83 386.45 674.42 386.45 675.01 386.45 675.61 386.45 676.2 386.45 676.79 386.45 677.38 386.45 677.98 386.45 678.57 386.45 679.16 386.45 679.75 386.45 680.35 386.45 680.94 386.45 681.53 386.45 682.12 386.45 682.72 386.45 683.31 386.45 683.9 386.45" style="stroke-width:1.07;stroke:#f8766d"/><polygon points="381.1 386.45 381.69 386.45 382.28 386.45 382.88 386.45 383.47 386.45 384.06 386.45 384.65 386.45 385.25 386.45 385.84 386.45 386.43 386.45 387.02 386.45 387.62 386.45 388.21 386.45 388.8 386.45 389.39 386.45 389.99 386.45 390.58 386.45 391.17 386.45 391.77 386.45 392.36 386.45 392.95 386.45 393.54 386.45 394.14 386.45 394.73 386.45 395.32 386.45 395.91 386.45 396.51 386.45 397.1 386.45 397.69 386.45 398.28 386.45 398.88 386.45 399.47 386.45 400.06 386.44 400.65 386.44 401.25 386.44 401.84 386.44 402.43 386.44 403.02 386.44 403.62 386.44 404.21 386.43 404.8 386.43 405.39 386.43 405.99 386.42 406.58 386.42 407.17 386.41 407.76 386.41 408.36 386.4 408.95 386.39 409.54 386.38 410.13 386.37 410.73 386.36 411.32 386.34 411.91 386.33 412.51 386.31 413.1 386.29 413.69 386.27 414.28 386.24 414.88 386.21 415.47 386.18 416.06 386.14 416.65 386.1 417.25 386.05 417.84 386 418.43 385.94 419.02 385.87 419.62 385.8 420.21 385.72 420.8 385.63 421.39 385.53 421.99 385.42 422.58 385.3 423.17 385.16 423.76 385.02 424.36 384.86 424.95 384.68 425.54 384.49 426.13 384.29 426.73 384.06 427.32 383.81 427.91 383.55 428.5 383.26 429.1 382.96 429.69 382.62 430.28 382.26 430.87 381.88 431.47 381.46 432.06 381.02 432.65 380.55 433.24 380.05 433.84 379.51 434.43 378.94 435.02 378.34 435.62 377.7 436.21 377.02 436.8 376.31 437.39 375.56 437.99 374.78 438.58 373.94 439.17 373.07 439.76 372.16 440.36 371.21 440.95 370.21 441.54 369.18 442.13 368.1 442.73 366.99 443.32 365.83 443.91 364.63 444.5 363.39 445.1 362.12 445.69 360.8 446.28 359.44 446.87 358.05 447.47 356.63 448.06 355.16 448.65 353.66 449.24 352.14 449.84 350.58 450.43 349 451.02 347.38 451.61 345.75 452.21 344.09 452.8 342.41 453.39 340.71 453.98 338.99 454.58 337.26 455.17 335.51 455.76 333.75 456.36 331.99 456.95 330.22 457.54 328.44 458.13 326.66 458.73 324.88 459.32 323.1 459.91 321.32 460.5 319.55 461.1 317.78 461.69 316.02 462.28 314.27 462.87 312.53 463.47 310.8 464.06 309.08 464.65 307.38 465.24 305.69 465.84 304.01 466.43 302.35 467.02 300.71 467.61 299.08 468.21 297.46 468.8 295.87 469.39 294.28 469.98 292.71 470.58 291.16 471.17 289.62 471.76 288.09 472.35 286.57 472.95 285.06 473.54 283.55 474.13 282.06 474.72 280.56 475.32 279.08 475.91 277.59 476.5 276.1 477.09 274.61 477.69 273.11 478.28 271.61 478.87 270.09 479.47 268.57 480.06 267.03 480.65 265.47 481.24 263.89 481.84 262.3 482.43 260.68 483.02 259.04 483.61 257.37 484.21 255.68 484.8 253.95 485.39 252.19 485.98 250.41 486.58 248.59 487.17 246.74 487.76 244.85 488.35 242.94 488.95 240.99 489.54 239.01 490.13 236.99 490.72 234.95 491.32 232.88 491.91 230.78 492.5 228.66 493.09 226.52 493.69 224.35 494.28 222.17 494.87 219.97 495.46 217.77 496.06 215.55 496.65 213.34 497.24 211.13 497.83 208.92 498.43 206.72 499.02 204.54 499.61 202.38 500.21 200.23 500.8 198.13 501.39 196.05 501.98 194.01 502.58 192.01 503.17 190.06 503.76 188.16 504.35 186.31 504.95 184.52 505.54 182.8 506.13 181.14 506.72 179.54 507.32 178.01 507.91 176.57 508.5 175.19 509.09 173.89 509.69 172.66 510.28 171.53 510.87 170.47 511.46 169.48 512.06 168.58 512.65 167.77 513.24 167.03 513.83 166.36 514.43 165.78 515.02 165.28 515.61 164.85 516.2 164.48 516.8 164.2 517.39 163.98 517.98 163.83 518.57 163.73 519.17 163.71 519.76 163.75 520.35 163.84 520.94 163.97 521.54 164.18 522.13 164.42 522.72 164.71 523.32 165.04 523.91 165.42 524.5 165.83 525.09 166.27 525.69 166.75 526.28 167.26 526.87 167.8 527.46 168.36 528.06 168.94 528.65 169.55 529.24 170.17 529.83 170.8 530.43 171.45 531.02 172.11 531.61 172.78 532.2 173.45 532.8 174.13 533.39 174.81 533.98 175.49 534.57 176.17 535.17 176.85 535.76 177.51 536.35 178.17 536.94 178.83 537.54 179.47 538.13 180.1 538.72 180.71 539.31 181.32 539.91 181.9 540.5 182.47 541.09 183.02 541.68 183.56 542.28 184.08 542.87 184.58 543.46 185.07 544.06 185.54 544.65 186 545.24 186.44 545.83 186.87 546.43 187.29 547.02 187.69 547.61 188.1 548.2 188.49 548.8 188.89 549.39 189.28 549.98 189.68 550.57 190.08 551.17 190.5 551.76 190.92 552.35 191.37 552.94 191.83 553.54 192.31 554.13 192.82 554.72 193.36 555.31 193.93 555.91 194.54 556.5 195.19 557.09 195.88 557.68 196.61 558.28 197.39 558.87 198.22 559.46 199.1 560.05 200.02 560.65 201.01 561.24 202.05 561.83 203.15 562.42 204.29 563.02 205.5 563.61 206.76 564.2 208.07 564.79 209.42 565.39 210.85 565.98 212.31 566.57 213.82 567.17 215.37 567.76 216.97 568.35 218.6 568.94 220.26 569.54 221.96 570.13 223.68 570.72 225.43 571.31 227.19 571.91 228.98 572.5 230.77 573.09 232.57 573.68 234.37 574.28 236.17 574.87 237.97 575.46 239.76 576.05 241.54 576.65 243.3 577.24 245.05 577.83 246.77 578.42 248.48 579.02 250.16 579.61 251.82 580.2 253.45 580.79 255.05 581.39 256.62 581.98 258.17 582.57 259.68 583.16 261.17 583.76 262.63 584.35 264.06 584.94 265.46 585.53 266.84 586.13 268.19 586.72 269.52 587.31 270.83 587.91 272.11 588.5 273.38 589.09 274.63 589.68 275.87 590.28 277.1 590.87 278.31 591.46 279.51 592.05 280.7 592.65 281.89 593.24 283.07 593.83 284.25 594.42 285.43 595.02 286.6 595.61 287.77 596.2 288.95 596.79 290.12 597.39 291.29 597.98 292.47 598.57 293.65 599.16 294.83 599.76 296.01 600.35 297.2 600.94 298.38 601.53 299.57 602.13 300.77 602.72 301.96 603.31 303.16 603.9 304.36 604.5 305.56 605.09 306.77 605.68 307.97 606.27 309.18 606.87 310.39 607.46 311.6 608.05 312.82 608.64 314.03 609.24 315.25 609.83 316.47 610.42 317.69 611.02 318.92 611.61 320.14 612.2 321.37 612.79 322.6 613.39 323.83 613.98 325.06 614.57 326.3 615.16 327.54 615.76 328.77 616.35 330.01 616.94 331.25 617.53 332.49 618.13 333.73 618.72 334.96 619.31 336.2 619.9 337.43 620.5 338.66 621.09 339.88 621.68 341.1 622.27 342.31 622.87 343.51 623.46 344.71 624.05 345.9 624.64 347.07 625.24 348.24 625.83 349.39 626.42 350.53 627.01 351.65 627.61 352.76 628.2 353.85 628.79 354.92 629.38 355.98 629.98 357.01 630.57 358.02 631.16 359.02 631.76 359.99 632.35 360.94 632.94 361.86 633.53 362.77 634.13 363.65 634.72 364.51 635.31 365.34 635.9 366.15 636.5 366.94 637.09 367.7 637.68 368.44 638.27 369.16 638.87 369.86 639.46 370.53 640.05 371.18 640.64 371.81 641.24 372.42 641.83 373.01 642.42 373.58 643.01 374.13 643.61 374.65 644.2 375.16 644.79 375.66 645.38 376.14 645.98 376.6 646.57 377.04 647.16 377.47 647.75 377.88 648.35 378.28 648.94 378.67 649.53 379.04 650.12 379.4 650.72 379.74 651.31 380.07 651.9 380.4 652.49 380.71 653.09 381 653.68 381.29 654.27 381.57 654.87 381.84 655.46 382.09 656.05 382.34 656.64 382.57 657.24 382.8 657.83 383.02 658.42 383.23 659.01 383.43 659.61 383.62 660.2 383.8 660.79 383.97 661.38 384.14 661.98 384.29 662.57 384.44 663.16 384.58 663.75 384.72 664.35 384.85 664.94 384.96 665.53 385.08 666.12 385.19 666.72 385.28 667.31 385.38 667.9 385.47 668.49 385.55 669.09 385.62 669.68 385.7 670.27 385.76 670.86 385.82 671.46 385.88 672.05 385.93 672.64 385.98 673.23 386.03 673.83 386.07 674.42 386.11 675.01 386.14 675.61 386.17 676.2 386.2 676.79 386.23 677.38 386.25 677.98 386.27 678.57 386.29 679.16 386.31 679.75 386.33 680.35 386.34 680.94 386.35 681.53 386.36 682.12 386.38 682.72 386.38 683.31 386.39 683.9 386.4 683.9 386.45 683.31 386.45 682.72 386.45 682.12 386.45 681.53 386.45 680.94 386.45 680.35 386.45 679.75 386.45 679.16 386.45 678.57 386.45 677.98 386.45 677.38 386.45 676.79 386.45 676.2 386.45 675.61 386.45 675.01 386.45 674.42 386.45 673.83 386.45 673.23 386.45 672.64 386.45 672.05 386.45 671.46 386.45 670.86 386.45 670.27 386.45 669.68 386.45 669.09 386.45 668.49 386.45 667.9 386.45 667.31 386.45 666.72 386.45 666.12 386.45 665.53 386.45 664.94 386.45 664.35 386.45 663.75 386.45 663.16 386.45 662.57 386.45 661.98 386.45 661.38 386.45 660.79 386.45 660.2 386.45 659.61 386.45 659.01 386.45 658.42 386.45 657.83 386.45 657.24 386.45 656.64 386.45 656.05 386.45 655.46 386.45 654.87 386.45 654.27 386.45 653.68 386.45 653.09 386.45 652.49 386.45 651.9 386.45 651.31 386.45 650.72 386.45 650.12 386.45 649.53 386.45 648.94 386.45 648.35 386.45 647.75 386.45 647.16 386.45 646.57 386.45 645.98 386.45 645.38 386.45 644.79 386.45 644.2 386.45 643.61 386.45 643.01 386.45 642.42 386.45 641.83 386.45 641.24 386.45 640.64 386.45 640.05 386.45 639.46 386.45 638.87 386.45 638.27 386.45 637.68 386.45 637.09 386.45 636.5 386.45 635.9 386.45 635.31 386.45 634.72 386.45 634.13 386.45 633.53 386.45 632.94 386.45 632.35 386.45 631.76 386.45 631.16 386.45 630.57 386.45 629.98 386.45 629.38 386.45 628.79 386.45 628.2 386.45 627.61 386.45 627.01 386.45 626.42 386.45 625.83 386.45 625.24 386.45 624.64 386.45 624.05 386.45 623.46 386.45 622.87 386.45 622.27 386.45 621.68 386.45 621.09 386.45 620.5 386.45 619.9 386.45 619.31 386.45 618.72 386.45 618.13 386.45 617.53 386.45 616.94 386.45 616.35 386.45 615.76 386.45 615.16 386.45 614.57 386.45 613.98 386.45 613.39 386.45 612.79 386.45 612.2 386.45 611.61 386.45 611.02 386.45 610.42 386.45 609.83 386.45 609.24 386.45 608.64 386.45 608.05 386.45 607.46 386.45 606.87 386.45 606.27 386.45 605.68 386.45 605.09 386.45 604.5 386.45 603.9 386.45 603.31 386.45 602.72 386.45 602.13 386.45 601.53 386.45 600.94 386.45 600.35 386.45 599.76 386.45 599.16 386.45 598.57 386.45 597.98 386.45 597.39 386.45 596.79 386.45 596.2 386.45 595.61 386.45 595.02 386.45 594.42 386.45 593.83 386.45 593.24 386.45 592.65 386.45 592.05 386.45 591.46 386.45 590.87 386.45 590.28 386.45 589.68 386.45 589.09 386.45 588.5 386.45 587.91 386.45 587.31 386.45 586.72 386.45 586.13 386.45 585.53 386.45 584.94 386.45 584.35 386.45 583.76 386.45 583.16 386.45 582.57 386.45 581.98 386.45 581.39 386.45 580.79 386.45 580.2 386.45 579.61 386.45 579.02 386.45 578.42 386.45 577.83 386.45 577.24 386.45 576.65 386.45 576.05 386.45 575.46 386.45 574.87 386.45 574.28 386.45 573.68 386.45 573.09 386.45 572.5 386.45 571.91 386.45 571.31 386.45 570.72 386.45 570.13 386.45 569.54 386.45 568.94 386.45 568.35 386.45 567.76 386.45 567.17 386.45 566.57 386.45 565.98 386.45 565.39 386.45 564.79 386.45 564.2 386.45 563.61 386.45 563.02 386.45 562.42 386.45 561.83 386.45 561.24 386.45 560.65 386.45 560.05 386.45 559.46 386.45 558.87 386.45 558.28 386.45 557.68 386.45 557.09 386.45 556.5 386.45 555.91 386.45 555.31 386.45 554.72 386.45 554.13 386.45 553.54 386.45 552.94 386.45 552.35 386.45 551.76 386.45 551.17 386.45 550.57 386.45 549.98 386.45 549.39 386.45 548.8 386.45 548.2 386.45 547.61 386.45 547.02 386.45 546.43 386.45 545.83 386.45 545.24 386.45 544.65 386.45 544.06 386.45 543.46 386.45 542.87 386.45 542.28 386.45 541.68 386.45 541.09 386.45 540.5 386.45 539.91 386.45 539.31 386.45 538.72 386.45 538.13 386.45 537.54 386.45 536.94 386.45 536.35 386.45 535.76 386.45 535.17 386.45 534.57 386.45 533.98 386.45 533.39 386.45 532.8 386.45 532.2 386.45 531.61 386.45 531.02 386.45 530.43 386.45 529.83 386.45 529.24 386.45 528.65 386.45 528.06 386.45 527.46 386.45 526.87 386.45 526.28 386.45 525.69 386.45 525.09 386.45 524.5 386.45 523.91 386.45 523.32 386.45 522.72 386.45 522.13 386.45 521.54 386.45 520.94 386.45 520.35 386.45 519.76 386.45 519.17 386.45 518.57 386.45 517.98 386.45 517.39 386.45 516.8 386.45 516.2 386.45 515.61 386.45 515.02 386.45 514.43 386.45 513.83 386.45 513.24 386.45 512.65 386.45 512.06 386.45 511.46 386.45 510.87 386.45 510.28 386.45 509.69 386.45 509.09 386.45 508.5 386.45 507.91 386.45 507.32 386.45 506.72 386.45 506.13 386.45 505.54 386.45 504.95 386.45 504.35 386.45 503.76 386.45 503.17 386.45 502.58 386.45 501.98 386.45 501.39 386.45 500.8 386.45 500.21 386.45 499.61 386.45 499.02 386.45 498.43 386.45 497.83 386.45 497.24 386.45 496.65 386.45 496.06 386.45 495.46 386.45 494.87 386.45 494.28 386.45 493.69 386.45 493.09 386.45 492.5 386.45 491.91 386.45 491.32 386.45 490.72 386.45 490.13 386.45 489.54 386.45 488.95 386.45 488.35 386.45 487.76 386.45 487.17 386.45 486.58 386.45 485.98 386.45 485.39 386.45 484.8 386.45 484.21 386.45 483.61 386.45 483.02 386.45 482.43 386.45 481.84 386.45 481.24 386.45 480.65 386.45 480.06 386.45 479.47 386.45 478.87 386.45 478.28 386.45 477.69 386.45 477.09 386.45 476.5 386.45 475.91 386.45 475.32 386.45 474.72 386.45 474.13 386.45 473.54 386.45 472.95 386.45 472.35 386.45 471.76 386.45 471.17 386.45 470.58 386.45 469.98 386.45 469.39 386.45 468.8 386.45 468.21 386.45 467.61 386.45 467.02 386.45 466.43 386.45 465.84 386.45 465.24 386.45 464.65 386.45 464.06 386.45 463.47 386.45 462.87 386.45 462.28 386.45 461.69 386.45 461.1 386.45 460.5 386.45 459.91 386.45 459.32 386.45 458.73 386.45 458.13 386.45 457.54 386.45 456.95 386.45 456.36 386.45 455.76 386.45 455.17 386.45 454.58 386.45 453.98 386.45 453.39 386.45 452.8 386.45 452.21 386.45 451.61 386.45 451.02 386.45 450.43 386.45 449.84 386.45 449.24 386.45 448.65 386.45 448.06 386.45 447.47 386.45 446.87 386.45 446.28 386.45 445.69 386.45 445.1 386.45 444.5 386.45 443.91 386.45 443.32 386.45 442.73 386.45 442.13 386.45 441.54 386.45 440.95 386.45 440.36 386.45 439.76 386.45 439.17 386.45 438.58 386.45 437.99 386.45 437.39 386.45 436.8 386.45 436.21 386.45 435.62 386.45 435.02 386.45 434.43 386.45 433.84 386.45 433.24 386.45 432.65 386.45 432.06 386.45 431.47 386.45 430.87 386.45 430.28 386.45 429.69 386.45 429.1 386.45 428.5 386.45 427.91 386.45 427.32 386.45 426.73 386.45 426.13 386.45 425.54 386.45 424.95 386.45 424.36 386.45 423.76 386.45 423.17 386.45 422.58 386.45 421.99 386.45 421.39 386.45 420.8 386.45 420.21 386.45 419.62 386.45 419.02 386.45 418.43 386.45 417.84 386.45 417.25 386.45 416.65 386.45 416.06 386.45 415.47 386.45 414.88 386.45 414.28 386.45 413.69 386.45 413.1 386.45 412.51 386.45 411.91 386.45 411.32 386.45 410.73 386.45 410.13 386.45 409.54 386.45 408.95 386.45 408.36 386.45 407.76 386.45 407.17 386.45 406.58 386.45 405.99 386.45 405.39 386.45 404.8 386.45 404.21 386.45 403.62 386.45 403.02 386.45 402.43 386.45 401.84 386.45 401.25 386.45 400.65 386.45 400.06 386.45 399.47 386.45 398.88 386.45 398.28 386.45 397.69 386.45 397.1 386.45 396.51 386.45 395.91 386.45 395.32 386.45 394.73 386.45 394.14 386.45 393.54 386.45 392.95 386.45 392.36 386.45 391.77 386.45 391.17 386.45 390.58 386.45 389.99 386.45 389.39 386.45 388.8 386.45 388.21 386.45 387.62 386.45 387.02 386.45 386.43 386.45 385.84 386.45 385.25 386.45 384.65 386.45 384.06 386.45 383.47 386.45 382.88 386.45 382.28 386.45 381.69 386.45 381.1 386.45" style="stroke-width:0;stroke:none;fill:#0af;fill-opacity:.25"/><polyline points="381.1 386.45 381.69 386.45 382.28 386.45 382.88 386.45 383.47 386.45 384.06 386.45 384.65 386.45 385.25 386.45 385.84 386.45 386.43 386.45 387.02 386.45 387.62 386.45 388.21 386.45 388.8 386.45 389.39 386.45 389.99 386.45 390.58 386.45 391.17 386.45 391.77 386.45 392.36 386.45 392.95 386.45 393.54 386.45 394.14 386.45 394.73 386.45 395.32 386.45 395.91 386.45 396.51 386.45 397.1 386.45 397.69 386.45 398.28 386.45 398.88 386.45 399.47 386.45 400.06 386.44 400.65 386.44 401.25 386.44 401.84 386.44 402.43 386.44 403.02 386.44 403.62 386.44 404.21 386.43 404.8 386.43 405.39 386.43 405.99 386.42 406.58 386.42 407.17 386.41 407.76 386.41 408.36 386.4 408.95 386.39 409.54 386.38 410.13 386.37 410.73 386.36 411.32 386.34 411.91 386.33 412.51 386.31 413.1 386.29 413.69 386.27 414.28 386.24 414.88 386.21 415.47 386.18 416.06 386.14 416.65 386.1 417.25 386.05 417.84 386 418.43 385.94 419.02 385.87 419.62 385.8 420.21 385.72 420.8 385.63 421.39 385.53 421.99 385.42 422.58 385.3 423.17 385.16 423.76 385.02 424.36 384.86 424.95 384.68 425.54 384.49 426.13 384.29 426.73 384.06 427.32 383.81 427.91 383.55 428.5 383.26 429.1 382.96 429.69 382.62 430.28 382.26 430.87 381.88 431.47 381.46 432.06 381.02 432.65 380.55 433.24 380.05 433.84 379.51 434.43 378.94 435.02 378.34 435.62 377.7 436.21 377.02 436.8 376.31 437.39 375.56 437.99 374.78 438.58 373.94 439.17 373.07 439.76 372.16 440.36 371.21 440.95 370.21 441.54 369.18 442.13 368.1 442.73 366.99 443.32 365.83 443.91 364.63 444.5 363.39 445.1 362.12 445.69 360.8 446.28 359.44 446.87 358.05 447.47 356.63 448.06 355.16 448.65 353.66 449.24 352.14 449.84 350.58 450.43 349 451.02 347.38 451.61 345.75 452.21 344.09 452.8 342.41 453.39 340.71 453.98 338.99 454.58 337.26 455.17 335.51 455.76 333.75 456.36 331.99 456.95 330.22 457.54 328.44 458.13 326.66 458.73 324.88 459.32 323.1 459.91 321.32 460.5 319.55 461.1 317.78 461.69 316.02 462.28 314.27 462.87 312.53 463.47 310.8 464.06 309.08 464.65 307.38 465.24 305.69 465.84 304.01 466.43 302.35 467.02 300.71 467.61 299.08 468.21 297.46 468.8 295.87 469.39 294.28 469.98 292.71 470.58 291.16 471.17 289.62 471.76 288.09 472.35 286.57 472.95 285.06 473.54 283.55 474.13 282.06 474.72 280.56 475.32 279.08 475.91 277.59 476.5 276.1 477.09 274.61 477.69 273.11 478.28 271.61 478.87 270.09 479.47 268.57 480.06 267.03 480.65 265.47 481.24 263.89 481.84 262.3 482.43 260.68 483.02 259.04 483.61 257.37 484.21 255.68 484.8 253.95 485.39 252.19 485.98 250.41 486.58 248.59 487.17 246.74 487.76 244.85 488.35 242.94 488.95 240.99 489.54 239.01 490.13 236.99 490.72 234.95 491.32 232.88 491.91 230.78 492.5 228.66 493.09 226.52 493.69 224.35 494.28 222.17 494.87 219.97 495.46 217.77 496.06 215.55 496.65 213.34 497.24 211.13 497.83 208.92 498.43 206.72 499.02 204.54 499.61 202.38 500.21 200.23 500.8 198.13 501.39 196.05 501.98 194.01 502.58 192.01 503.17 190.06 503.76 188.16 504.35 186.31 504.95 184.52 505.54 182.8 506.13 181.14 506.72 179.54 507.32 178.01 507.91 176.57 508.5 175.19 509.09 173.89 509.69 172.66 510.28 171.53 510.87 170.47 511.46 169.48 512.06 168.58 512.65 167.77 513.24 167.03 513.83 166.36 514.43 165.78 515.02 165.28 515.61 164.85 516.2 164.48 516.8 164.2 517.39 163.98 517.98 163.83 518.57 163.73 519.17 163.71 519.76 163.75 520.35 163.84 520.94 163.97 521.54 164.18 522.13 164.42 522.72 164.71 523.32 165.04 523.91 165.42 524.5 165.83 525.09 166.27 525.69 166.75 526.28 167.26 526.87 167.8 527.46 168.36 528.06 168.94 528.65 169.55 529.24 170.17 529.83 170.8 530.43 171.45 531.02 172.11 531.61 172.78 532.2 173.45 532.8 174.13 533.39 174.81 533.98 175.49 534.57 176.17 535.17 176.85 535.76 177.51 536.35 178.17 536.94 178.83 537.54 179.47 538.13 180.1 538.72 180.71 539.31 181.32 539.91 181.9 540.5 182.47 541.09 183.02 541.68 183.56 542.28 184.08 542.87 184.58 543.46 185.07 544.06 185.54 544.65 186 545.24 186.44 545.83 186.87 546.43 187.29 547.02 187.69 547.61 188.1 548.2 188.49 548.8 188.89 549.39 189.28 549.98 189.68 550.57 190.08 551.17 190.5 551.76 190.92 552.35 191.37 552.94 191.83 553.54 192.31 554.13 192.82 554.72 193.36 555.31 193.93 555.91 194.54 556.5 195.19 557.09 195.88 557.68 196.61 558.28 197.39 558.87 198.22 559.46 199.1 560.05 200.02 560.65 201.01 561.24 202.05 561.83 203.15 562.42 204.29 563.02 205.5 563.61 206.76 564.2 208.07 564.79 209.42 565.39 210.85 565.98 212.31 566.57 213.82 567.17 215.37 567.76 216.97 568.35 218.6 568.94 220.26 569.54 221.96 570.13 223.68 570.72 225.43 571.31 227.19 571.91 228.98 572.5 230.77 573.09 232.57 573.68 234.37 574.28 236.17 574.87 237.97 575.46 239.76 576.05 241.54 576.65 243.3 577.24 245.05 577.83 246.77 578.42 248.48 579.02 250.16 579.61 251.82 580.2 253.45 580.79 255.05 581.39 256.62 581.98 258.17 582.57 259.68 583.16 261.17 583.76 262.63 584.35 264.06 584.94 265.46 585.53 266.84 586.13 268.19 586.72 269.52 587.31 270.83 587.91 272.11 588.5 273.38 589.09 274.63 589.68 275.87 590.28 277.1 590.87 278.31 591.46 279.51 592.05 280.7 592.65 281.89 593.24 283.07 593.83 284.25 594.42 285.43 595.02 286.6 595.61 287.77 596.2 288.95 596.79 290.12 597.39 291.29 597.98 292.47 598.57 293.65 599.16 294.83 599.76 296.01 600.35 297.2 600.94 298.38 601.53 299.57 602.13 300.77 602.72 301.96 603.31 303.16 603.9 304.36 604.5 305.56 605.09 306.77 605.68 307.97 606.27 309.18 606.87 310.39 607.46 311.6 608.05 312.82 608.64 314.03 609.24 315.25 609.83 316.47 610.42 317.69 611.02 318.92 611.61 320.14 612.2 321.37 612.79 322.6 613.39 323.83 613.98 325.06 614.57 326.3 615.16 327.54 615.76 328.77 616.35 330.01 616.94 331.25 617.53 332.49 618.13 333.73 618.72 334.96 619.31 336.2 619.9 337.43 620.5 338.66 621.09 339.88 621.68 341.1 622.27 342.31 622.87 343.51 623.46 344.71 624.05 345.9 624.64 347.07 625.24 348.24 625.83 349.39 626.42 350.53 627.01 351.65 627.61 352.76 628.2 353.85 628.79 354.92 629.38 355.98 629.98 357.01 630.57 358.02 631.16 359.02 631.76 359.99 632.35 360.94 632.94 361.86 633.53 362.77 634.13 363.65 634.72 364.51 635.31 365.34 635.9 366.15 636.5 366.94 637.09 367.7 637.68 368.44 638.27 369.16 638.87 369.86 639.46 370.53 640.05 371.18 640.64 371.81 641.24 372.42 641.83 373.01 642.42 373.58 643.01 374.13 643.61 374.65 644.2 375.16 644.79 375.66 645.38 376.14 645.98 376.6 646.57 377.04 647.16 377.47 647.75 377.88 648.35 378.28 648.94 378.67 649.53 379.04 650.12 379.4 650.72 379.74 651.31 380.07 651.9 380.4 652.49 380.71 653.09 381 653.68 381.29 654.27 381.57 654.87 381.84 655.46 382.09 656.05 382.34 656.64 382.57 657.24 382.8 657.83 383.02 658.42 383.23 659.01 383.43 659.61 383.62 660.2 383.8 660.79 383.97 661.38 384.14 661.98 384.29 662.57 384.44 663.16 384.58 663.75 384.72 664.35 384.85 664.94 384.96 665.53 385.08 666.12 385.19 666.72 385.28 667.31 385.38 667.9 385.47 668.49 385.55 669.09 385.62 669.68 385.7 670.27 385.76 670.86 385.82 671.46 385.88 672.05 385.93 672.64 385.98 673.23 386.03 673.83 386.07 674.42 386.11 675.01 386.14 675.61 386.17 676.2 386.2 676.79 386.23 677.38 386.25 677.98 386.27 678.57 386.29 679.16 386.31 679.75 386.33 680.35 386.34 680.94 386.35 681.53 386.36 682.12 386.38 682.72 386.38 683.31 386.39 683.9 386.4" style="stroke-width:1.07;stroke:#00bfc4"/></g><g clip-path="url(#cpMC4wMHw3MTAuMDB8MC4wMHw0NjguMDA=)"><polyline points="381.1 406.17 381.1 403.43" style="stroke-width:1.07;stroke:#333;stroke-linecap:butt"/><polyline points="482.03 406.17 482.03 403.43" style="stroke-width:1.07;stroke:#333;stroke-linecap:butt"/><polyline points="582.97 406.17 582.97 403.43" style="stroke-width:1.07;stroke:#333;stroke-linecap:butt"/><polyline points="683.9 406.17 683.9 403.43" style="stroke-width:1.07;stroke:#333;stroke-linecap:butt"/><text x="381.1" y="414.1" lengthAdjust="spacingAndGlyphs" text-anchor="middle" textLength="13.79" style="font-size:8px;fill:#4d4d4d;font-family:Arial">-0.2</text><text x="482.03" y="414.1" lengthAdjust="spacingAndGlyphs" text-anchor="middle" textLength="11.12" style="font-size:8px;fill:#4d4d4d;font-family:Arial">0.0</text><text x="582.97" y="414.1" lengthAdjust="spacingAndGlyphs" text-anchor="middle" textLength="11.12" style="font-size:8px;fill:#4d4d4d;font-family:Arial">0.2</text><text x="683.9" y="414.1" lengthAdjust="spacingAndGlyphs" text-anchor="middle" textLength="11.12" style="font-size:8px;fill:#4d4d4d;font-family:Arial">0.4</text><text x="365.96" y="21.28" lengthAdjust="spacingAndGlyphs" textLength="125.6" style="font-size:14.4px;fill:#4d4d4d;font-family:Arial">Slopes for occasion</text></g><defs><clipPath id="cpMzAwLjgxfDQxNC42N3w0MzguNTd8NDU3LjA0"><rect width="113.85" height="18.47" x="300.81" y="438.57"/></clipPath></defs><g clip-path="url(#cpMC4wMHw3MTAuMDB8MC4wMHw0NjguMDA=)"><rect width="113.85" height="18.47" x="300.81" y="438.57" style="stroke-width:1.07;stroke:none"/></g><g clip-path="url(#cpMC4wMHw3MTAuMDB8MC4wMHw0NjguMDA=)"><text x="306.29" y="450.68" lengthAdjust="spacingAndGlyphs" textLength="21.79" style="font-size:8px;fill:#4d4d4d;font-family:Arial">Model</text></g><g clip-path="url(#cpMC4wMHw3MTAuMDB8MC4wMHw0NjguMDA=)"><rect width="5.67" height="7.51" x="332.07" y="444.05" style="stroke-width:1.07;stroke:none"/></g><g clip-path="url(#cpMC4wMHw3MTAuMDB8MC4wMHw0NjguMDA=)"><rect width="4.25" height="6.09" x="332.78" y="444.76" style="stroke-width:1.07;stroke:#f8766d;stroke-linecap:square;stroke-linejoin:miter;fill:#f50;fill-opacity:.25"/></g><g clip-path="url(#cpMC4wMHw3MTAuMDB8MC4wMHw0NjguMDA=)"><rect width="5.67" height="7.51" x="367.06" y="444.05" style="stroke-width:1.07;stroke:none"/></g><g clip-path="url(#cpMC4wMHw3MTAuMDB8MC4wMHw0NjguMDA=)"><rect width="4.25" height="6.09" x="367.77" y="444.76" style="stroke-width:1.07;stroke:#00bfc4;stroke-linecap:square;stroke-linejoin:miter;fill:#0af;fill-opacity:.25"/></g><g clip-path="url(#cpMC4wMHw3MTAuMDB8MC4wMHw0NjguMDA=)"><text x="341.73" y="450.68" lengthAdjust="spacingAndGlyphs" textLength="21.35" style="font-size:8px;fill:#4d4d4d;font-family:Arial">Mixed</text></g><g clip-path="url(#cpMC4wMHw3MTAuMDB8MC4wMHw0NjguMDA=)"><text x="376.71" y="450.68" lengthAdjust="spacingAndGlyphs" textLength="32.47" style="font-size:8px;fill:#4d4d4d;font-family:Arial">Separate</text></g></svg>